<svg xmlns="http://www.w3.org/2000/svg" viewBox="0 0 200 200" width="200" height="200"><rect width="200" height="200" fill="#ffffff" fill-opacity="1"/><path d="M 93.91304347826087 11.304347826086957 L 93.91304347826087 14.782608695652172 A 2.608695652173914 2.608695652173914 0 0 1 91.30434782608697 17.391304347826086 L 91.30434782608697 17.391304347826086 A 2.608695652173914 2.608695652173914 0 0 1 88.69565217391305 14.782608695652172 L 88.69565217391305 11.304347826086957 A 2.608695652173914 2.608695652173914 0 0 1 91.30434782608697 8.695652173913043 L 91.30434782608697 8.695652173913043 A 2.608695652173914 2.608695652173914 0 0 1 93.91304347826087 11.304347826086957 Z M 102.60869565217392 11.304347826086957 L 102.60869565217392 14.782608695652172 A 2.608695652173914 2.608695652173914 0 0 1 100.0 17.391304347826086 L 100.0 17.391304347826086 A 2.608695652173914 2.608695652173914 0 0 1 97.3913043478261 14.782608695652172 L 97.3913043478261 11.304347826086957 A 2.608695652173914 2.608695652173914 0 0 1 100.0 8.695652173913043 L 100.0 8.695652173913043 A 2.608695652173914 2.608695652173914 0 0 1 102.60869565217392 11.304347826086957 Z M 120.0 11.304347826086957 L 120.0 14.782608695652172 A 2.608695652173914 2.608695652173914 0 0 1 117.3913043478261 17.391304347826086 L 117.3913043478261 17.391304347826086 A 2.608695652173914 2.608695652173914 0 0 1 114.78260869565217 14.782608695652172 L 114.78260869565217 11.304347826086957 A 2.608695652173914 2.608695652173914 0 0 1 117.3913043478261 8.695652173913043 L 117.3913043478261 8.695652173913043 A 2.608695652173914 2.608695652173914 0 0 1 120.0 11.304347826086957 Z M 93.91304347826087 20.0 L 93.91304347826087 23.478260869565215 A 2.608695652173914 2.608695652173914 0 0 1 91.30434782608697 26.08695652173913 L 91.30434782608697 26.08695652173913 A 2.608695652173914 2.608695652173914 0 0 1 88.69565217391305 23.478260869565215 L 88.69565217391305 20.0 A 2.608695652173914 2.608695652173914 0 0 1 91.30434782608697 17.391304347826086 L 91.30434782608697 17.391304347826086 A 2.608695652173914 2.608695652173914 0 0 1 93.91304347826087 20.0 Z M 111.30434782608695 20.0 L 111.30434782608695 23.478260869565215 A 2.608695652173914 2.608695652173914 0 0 1 108.69565217391303 26.08695652173913 L 108.69565217391303 26.08695652173913 A 2.608695652173914 2.608695652173914 0 0 1 106.08695652173913 23.478260869565215 L 106.08695652173913 20.0 A 2.608695652173914 2.608695652173914 0 0 1 108.69565217391303 17.391304347826086 L 108.69565217391303 17.391304347826086 A 2.608695652173914 2.608695652173914 0 0 1 111.30434782608695 20.0 Z M 120.0 20.0 L 120.0 23.478260869565215 A 2.608695652173914 2.608695652173914 0 0 1 117.3913043478261 26.08695652173913 L 117.3913043478261 26.08695652173913 A 2.608695652173914 2.608695652173914 0 0 1 114.78260869565217 23.478260869565215 L 114.78260869565217 20.0 A 2.608695652173914 2.608695652173914 0 0 1 117.3913043478261 17.391304347826086 L 117.3913043478261 17.391304347826086 A 2.608695652173914 2.608695652173914 0 0 1 120.0 20.0 Z M 85.21739130434783 28.695652173913043 L 85.21739130434783 32.17391304347826 A 2.608695652173914 2.608695652173914 0 0 1 82.6086956521739 34.78260869565217 L 82.6086956521739 34.78260869565217 A 2.608695652173914 2.608695652173914 0 0 1 80.0 32.17391304347826 L 80.0 28.695652173913043 A 2.608695652173914 2.608695652173914 0 0 1 82.6086956521739 26.08695652173913 L 82.6086956521739 26.08695652173913 A 2.608695652173914 2.608695652173914 0 0 1 85.21739130434783 28.695652173913043 Z M 93.91304347826087 28.695652173913043 L 93.91304347826087 32.17391304347826 A 2.608695652173914 2.608695652173914 0 0 1 91.30434782608697 34.78260869565217 L 91.30434782608697 34.78260869565217 A 2.608695652173914 2.608695652173914 0 0 1 88.69565217391305 32.17391304347826 L 88.69565217391305 28.695652173913043 A 2.608695652173914 2.608695652173914 0 0 1 91.30434782608697 26.08695652173913 L 91.30434782608697 26.08695652173913 A 2.608695652173914 2.608695652173914 0 0 1 93.91304347826087 28.695652173913043 Z M 102.60869565217392 28.695652173913043 L 102.60869565217392 32.17391304347826 A 2.608695652173914 2.608695652173914 0 0 1 100.0 34.78260869565217 L 100.0 34.78260869565217 A 2.608695652173914 2.608695652173914 0 0 1 97.3913043478261 32.17391304347826 L 97.3913043478261 28.695652173913043 A 2.608695652173914 2.608695652173914 0 0 1 100.0 26.08695652173913 L 100.0 26.08695652173913 A 2.608695652173914 2.608695652173914 0 0 1 102.60869565217392 28.695652173913043 Z M 85.21739130434783 37.391304347826086 L 85.21739130434783 40.869565217391305 A 2.608695652173914 2.608695652173914 0 0 1 82.6086956521739 43.47826086956522 L 82.6086956521739 43.47826086956522 A 2.608695652173914 2.608695652173914 0 0 1 80.0 40.869565217391305 L 80.0 37.391304347826086 A 2.608695652173914 2.608695652173914 0 0 1 82.6086956521739 34.78260869565217 L 82.6086956521739 34.78260869565217 A 2.608695652173914 2.608695652173914 0 0 1 85.21739130434783 37.391304347826086 Z M 93.91304347826087 37.391304347826086 L 93.91304347826087 40.869565217391305 A 2.608695652173914 2.608695652173914 0 0 1 91.30434782608697 43.47826086956522 L 91.30434782608697 43.47826086956522 A 2.608695652173914 2.608695652173914 0 0 1 88.69565217391305 40.869565217391305 L 88.69565217391305 37.391304347826086 A 2.608695652173914 2.608695652173914 0 0 1 91.30434782608697 34.78260869565217 L 91.30434782608697 34.78260869565217 A 2.608695652173914 2.608695652173914 0 0 1 93.91304347826087 37.391304347826086 Z M 120.0 37.391304347826086 L 120.0 40.869565217391305 A 2.608695652173914 2.608695652173914 0 0 1 117.3913043478261 43.47826086956522 L 117.3913043478261 43.47826086956522 A 2.608695652173914 2.608695652173914 0 0 1 114.78260869565217 40.869565217391305 L 114.78260869565217 37.391304347826086 A 2.608695652173914 2.608695652173914 0 0 1 117.3913043478261 34.78260869565217 L 117.3913043478261 34.78260869565217 A 2.608695652173914 2.608695652173914 0 0 1 120.0 37.391304347826086 Z M 93.91304347826087 46.08695652173913 L 93.91304347826087 49.56521739130435 A 2.608695652173914 2.608695652173914 0 0 1 91.30434782608697 52.173913043478265 L 91.30434782608697 52.173913043478265 A 2.608695652173914 2.608695652173914 0 0 1 88.69565217391305 49.56521739130435 L 88.69565217391305 46.08695652173913 A 2.608695652173914 2.608695652173914 0 0 1 91.30434782608697 43.47826086956522 L 91.30434782608697 43.47826086956522 A 2.608695652173914 2.608695652173914 0 0 1 93.91304347826087 46.08695652173913 Z M 111.30434782608695 46.08695652173913 L 111.30434782608695 49.56521739130435 A 2.608695652173914 2.608695652173914 0 0 1 108.69565217391303 52.173913043478265 L 108.69565217391303 52.173913043478265 A 2.608695652173914 2.608695652173914 0 0 1 106.08695652173913 49.56521739130435 L 106.08695652173913 46.08695652173913 A 2.608695652173914 2.608695652173914 0 0 1 108.69565217391303 43.47826086956522 L 108.69565217391303 43.47826086956522 A 2.608695652173914 2.608695652173914 0 0 1 111.30434782608695 46.08695652173913 Z M 102.60869565217392 54.78260869565218 L 102.60869565217392 58.2608695652174 A 2.608695652173914 2.608695652173914 0 0 1 100.0 60.86956521739131 L 100.0 60.86956521739131 A 2.608695652173914 2.608695652173914 0 0 1 97.3913043478261 58.2608695652174 L 97.3913043478261 54.78260869565218 A 2.608695652173914 2.608695652173914 0 0 1 100.0 52.173913043478265 L 100.0 52.173913043478265 A 2.608695652173914 2.608695652173914 0 0 1 102.60869565217392 54.78260869565218 Z M 111.30434782608695 54.78260869565218 L 111.30434782608695 58.2608695652174 A 2.608695652173914 2.608695652173914 0 0 1 108.69565217391303 60.86956521739131 L 108.69565217391303 60.86956521739131 A 2.608695652173914 2.608695652173914 0 0 1 106.08695652173913 58.2608695652174 L 106.08695652173913 54.78260869565218 A 2.608695652173914 2.608695652173914 0 0 1 108.69565217391303 52.173913043478265 L 108.69565217391303 52.173913043478265 A 2.608695652173914 2.608695652173914 0 0 1 111.30434782608695 54.78260869565218 Z M 85.21739130434783 63.47826086956521 L 85.21739130434783 66.95652173913044 A 2.608695652173914 2.608695652173914 0 0 1 82.6086956521739 69.56521739130434 L 82.6086956521739 69.56521739130434 A 2.608695652173914 2.608695652173914 0 0 1 80.0 66.95652173913044 L 80.0 63.47826086956521 A 2.608695652173914 2.608695652173914 0 0 1 82.6086956521739 60.8695652173913 L 82.6086956521739 60.8695652173913 A 2.608695652173914 2.608695652173914 0 0 1 85.21739130434783 63.47826086956521 Z M 102.60869565217392 63.47826086956521 L 102.60869565217392 66.95652173913044 A 2.608695652173914 2.608695652173914 0 0 1 100.0 69.56521739130434 L 100.0 69.56521739130434 A 2.608695652173914 2.608695652173914 0 0 1 97.3913043478261 66.95652173913044 L 97.3913043478261 63.47826086956521 A 2.608695652173914 2.608695652173914 0 0 1 100.0 60.8695652173913 L 100.0 60.8695652173913 A 2.608695652173914 2.608695652173914 0 0 1 102.60869565217392 63.47826086956521 Z M 120.0 63.47826086956521 L 120.0 66.95652173913044 A 2.608695652173914 2.608695652173914 0 0 1 117.3913043478261 69.56521739130434 L 117.3913043478261 69.56521739130434 A 2.608695652173914 2.608695652173914 0 0 1 114.78260869565217 66.95652173913044 L 114.78260869565217 63.47826086956521 A 2.608695652173914 2.608695652173914 0 0 1 117.3913043478261 60.8695652173913 L 117.3913043478261 60.8695652173913 A 2.608695652173914 2.608695652173914 0 0 1 120.0 63.47826086956521 Z M 93.91304347826087 72.17391304347825 L 93.91304347826087 75.65217391304347 A 2.608695652173914 2.608695652173914 0 0 1 91.30434782608697 78.26086956521739 L 91.30434782608697 78.26086956521739 A 2.608695652173914 2.608695652173914 0 0 1 88.69565217391305 75.65217391304347 L 88.69565217391305 72.17391304347825 A 2.608695652173914 2.608695652173914 0 0 1 91.30434782608697 69.56521739130434 L 91.30434782608697 69.56521739130434 A 2.608695652173914 2.608695652173914 0 0 1 93.91304347826087 72.17391304347825 Z M 102.60869565217392 72.17391304347825 L 102.60869565217392 75.65217391304347 A 2.608695652173914 2.608695652173914 0 0 1 100.0 78.26086956521739 L 100.0 78.26086956521739 A 2.608695652173914 2.608695652173914 0 0 1 97.3913043478261 75.65217391304347 L 97.3913043478261 72.17391304347825 A 2.608695652173914 2.608695652173914 0 0 1 100.0 69.56521739130434 L 100.0 69.56521739130434 A 2.608695652173914 2.608695652173914 0 0 1 102.60869565217392 72.17391304347825 Z M 111.30434782608695 72.17391304347825 L 111.30434782608695 75.65217391304347 A 2.608695652173914 2.608695652173914 0 0 1 108.69565217391303 78.26086956521739 L 108.69565217391303 78.26086956521739 A 2.608695652173914 2.608695652173914 0 0 1 106.08695652173913 75.65217391304347 L 106.08695652173913 72.17391304347825 A 2.608695652173914 2.608695652173914 0 0 1 108.69565217391303 69.56521739130434 L 108.69565217391303 69.56521739130434 A 2.608695652173914 2.608695652173914 0 0 1 111.30434782608695 72.17391304347825 Z M 41.73913043478261 80.86956521739131 L 41.73913043478261 84.34782608695653 A 2.608695652173914 2.608695652173914 0 0 1 39.130434782608695 86.95652173913044 L 39.130434782608695 86.95652173913044 A 2.608695652173914 2.608695652173914 0 0 1 36.52173913043478 84.34782608695653 L 36.52173913043478 80.86956521739131 A 2.608695652173914 2.608695652173914 0 0 1 39.130434782608695 78.26086956521739 L 39.130434782608695 78.26086956521739 A 2.608695652173914 2.608695652173914 0 0 1 41.73913043478261 80.86956521739131 Z M 50.434782608695656 80.86956521739131 L 50.434782608695656 84.34782608695653 A 2.608695652173914 2.608695652173914 0 0 1 47.82608695652174 86.95652173913044 L 47.82608695652174 86.95652173913044 A 2.608695652173914 2.608695652173914 0 0 1 45.21739130434783 84.34782608695653 L 45.21739130434783 80.86956521739131 A 2.608695652173914 2.608695652173914 0 0 1 47.82608695652174 78.26086956521739 L 47.82608695652174 78.26086956521739 A 2.608695652173914 2.608695652173914 0 0 1 50.434782608695656 80.86956521739131 Z M 67.82608695652173 80.86956521739131 L 67.82608695652173 84.34782608695653 A 2.608695652173914 2.608695652173914 0 0 1 65.21739130434781 86.95652173913044 L 65.21739130434781 86.95652173913044 A 2.608695652173914 2.608695652173914 0 0 1 62.60869565217391 84.34782608695653 L 62.60869565217391 80.86956521739131 A 2.608695652173914 2.608695652173914 0 0 1 65.21739130434781 78.26086956521739 L 65.21739130434781 78.26086956521739 A 2.608695652173914 2.608695652173914 0 0 1 67.82608695652173 80.86956521739131 Z M 76.52173913043478 80.86956521739131 L 76.52173913043478 84.34782608695653 A 2.608695652173914 2.608695652173914 0 0 1 73.91304347826087 86.95652173913044 L 73.91304347826087 86.95652173913044 A 2.608695652173914 2.608695652173914 0 0 1 71.30434782608695 84.34782608695653 L 71.30434782608695 80.86956521739131 A 2.608695652173914 2.608695652173914 0 0 1 73.91304347826087 78.26086956521739 L 73.91304347826087 78.26086956521739 A 2.608695652173914 2.608695652173914 0 0 1 76.52173913043478 80.86956521739131 Z M 102.60869565217392 80.86956521739131 L 102.60869565217392 84.34782608695653 A 2.608695652173914 2.608695652173914 0 0 1 100.0 86.95652173913044 L 100.0 86.95652173913044 A 2.608695652173914 2.608695652173914 0 0 1 97.3913043478261 84.34782608695653 L 97.3913043478261 80.86956521739131 A 2.608695652173914 2.608695652173914 0 0 1 100.0 78.26086956521739 L 100.0 78.26086956521739 A 2.608695652173914 2.608695652173914 0 0 1 102.60869565217392 80.86956521739131 Z M 163.47826086956516 80.8695652173913 L 163.47826086956516 84.34782608695653 A 2.608695652173907 2.608695652173907 0 0 1 160.86956521739125 86.95652173913044 L 160.86956521739125 86.95652173913044 A 2.608695652173907 2.608695652173907 0 0 1 158.26086956521735 84.34782608695653 L 158.26086956521735 80.8695652173913 A 2.608695652173907 2.608695652173907 0 0 1 160.86956521739125 78.26086956521739 L 160.86956521739125 78.26086956521739 A 2.608695652173907 2.608695652173907 0 0 1 163.47826086956516 80.8695652173913 Z M 172.17391304347822 80.8695652173913 L 172.17391304347822 84.34782608695653 A 2.608695652173907 2.608695652173907 0 0 1 169.56521739130432 86.95652173913044 L 169.56521739130432 86.95652173913044 A 2.608695652173907 2.608695652173907 0 0 1 166.9565217391304 84.34782608695653 L 166.9565217391304 80.8695652173913 A 2.608695652173907 2.608695652173907 0 0 1 169.56521739130432 78.26086956521739 L 169.56521739130432 78.26086956521739 A 2.608695652173907 2.608695652173907 0 0 1 172.17391304347822 80.8695652173913 Z M 15.652173913043477 89.56521739130434 L 15.652173913043477 93.04347826086958 A 2.608695652173912 2.608695652173912 0 0 1 13.043478260869565 95.65217391304348 L 13.043478260869565 95.65217391304348 A 2.608695652173912 2.608695652173912 0 0 1 10.434782608695652 93.04347826086958 L 10.434782608695652 89.56521739130434 A 2.608695652173912 2.608695652173912 0 0 1 13.043478260869565 86.95652173913044 L 13.043478260869565 86.95652173913044 A 2.608695652173912 2.608695652173912 0 0 1 15.652173913043477 89.56521739130434 Z M 33.04347826086956 89.56521739130434 L 33.04347826086956 93.04347826086958 A 2.608695652173912 2.608695652173912 0 0 1 30.43478260869565 95.65217391304348 L 30.43478260869565 95.65217391304348 A 2.608695652173912 2.608695652173912 0 0 1 27.82608695652174 93.04347826086958 L 27.82608695652174 89.56521739130434 A 2.608695652173912 2.608695652173912 0 0 1 30.43478260869565 86.95652173913044 L 30.43478260869565 86.95652173913044 A 2.608695652173912 2.608695652173912 0 0 1 33.04347826086956 89.56521739130434 Z M 50.434782608695656 89.56521739130434 L 50.434782608695656 93.04347826086956 A 2.608695652173914 2.608695652173914 0 0 1 47.82608695652174 95.65217391304348 L 47.82608695652174 95.65217391304348 A 2.608695652173914 2.608695652173914 0 0 1 45.21739130434783 93.04347826086956 L 45.21739130434783 89.56521739130434 A 2.608695652173914 2.608695652173914 0 0 1 47.82608695652174 86.95652173913044 L 47.82608695652174 86.95652173913044 A 2.608695652173914 2.608695652173914 0 0 1 50.434782608695656 89.56521739130434 Z M 59.1304347826087 89.56521739130434 L 59.1304347826087 93.04347826086956 A 2.608695652173914 2.608695652173914 0 0 1 56.52173913043479 95.65217391304348 L 56.52173913043479 95.65217391304348 A 2.608695652173914 2.608695652173914 0 0 1 53.913043478260875 93.04347826086956 L 53.913043478260875 89.56521739130434 A 2.608695652173914 2.608695652173914 0 0 1 56.52173913043479 86.95652173913044 L 56.52173913043479 86.95652173913044 A 2.608695652173914 2.608695652173914 0 0 1 59.1304347826087 89.56521739130434 Z M 85.21739130434783 89.56521739130434 L 85.21739130434783 93.04347826086956 A 2.608695652173914 2.608695652173914 0 0 1 82.6086956521739 95.65217391304348 L 82.6086956521739 95.65217391304348 A 2.608695652173914 2.608695652173914 0 0 1 80.0 93.04347826086956 L 80.0 89.56521739130434 A 2.608695652173914 2.608695652173914 0 0 1 82.6086956521739 86.95652173913044 L 82.6086956521739 86.95652173913044 A 2.608695652173914 2.608695652173914 0 0 1 85.21739130434783 89.56521739130434 Z M 137.39130434782604 89.56521739130434 L 137.39130434782604 93.04347826086958 A 2.608695652173907 2.608695652173907 0 0 1 134.78260869565213 95.65217391304348 L 134.78260869565213 95.65217391304348 A 2.608695652173907 2.608695652173907 0 0 1 132.17391304347822 93.04347826086958 L 132.17391304347822 89.56521739130434 A 2.608695652173907 2.608695652173907 0 0 1 134.78260869565213 86.95652173913044 L 134.78260869565213 86.95652173913044 A 2.608695652173907 2.608695652173907 0 0 1 137.39130434782604 89.56521739130434 Z M 146.0869565217391 89.56521739130434 L 146.0869565217391 93.04347826086958 A 2.608695652173907 2.608695652173907 0 0 1 143.4782608695652 95.65217391304348 L 143.4782608695652 95.65217391304348 A 2.608695652173907 2.608695652173907 0 0 1 140.86956521739128 93.04347826086958 L 140.86956521739128 89.56521739130434 A 2.608695652173907 2.608695652173907 0 0 1 143.4782608695652 86.95652173913044 L 143.4782608695652 86.95652173913044 A 2.608695652173907 2.608695652173907 0 0 1 146.0869565217391 89.56521739130434 Z M 154.78260869565213 89.56521739130434 L 154.78260869565213 93.04347826086958 A 2.608695652173907 2.608695652173907 0 0 1 152.17391304347822 95.65217391304348 L 152.17391304347822 95.65217391304348 A 2.608695652173907 2.608695652173907 0 0 1 149.56521739130432 93.04347826086958 L 149.56521739130432 89.56521739130434 A 2.608695652173907 2.608695652173907 0 0 1 152.17391304347822 86.95652173913044 L 152.17391304347822 86.95652173913044 A 2.608695652173907 2.608695652173907 0 0 1 154.78260869565213 89.56521739130434 Z M 172.17391304347822 89.56521739130434 L 172.17391304347822 93.04347826086958 A 2.608695652173907 2.608695652173907 0 0 1 169.56521739130432 95.65217391304348 L 169.56521739130432 95.65217391304348 A 2.608695652173907 2.608695652173907 0 0 1 166.9565217391304 93.04347826086958 L 166.9565217391304 89.56521739130434 A 2.608695652173907 2.608695652173907 0 0 1 169.56521739130432 86.95652173913044 L 169.56521739130432 86.95652173913044 A 2.608695652173907 2.608695652173907 0 0 1 172.17391304347822 89.56521739130434 Z M 180.86956521739125 89.56521739130434 L 180.86956521739125 93.04347826086958 A 2.608695652173907 2.608695652173907 0 0 1 178.26086956521735 95.65217391304348 L 178.26086956521735 95.65217391304348 A 2.608695652173907 2.608695652173907 0 0 1 175.65217391304344 93.04347826086958 L 175.65217391304344 89.56521739130434 A 2.608695652173907 2.608695652173907 0 0 1 178.26086956521735 86.95652173913044 L 178.26086956521735 86.95652173913044 A 2.608695652173907 2.608695652173907 0 0 1 180.86956521739125 89.56521739130434 Z M 189.56521739130432 89.56521739130434 L 189.56521739130432 93.04347826086958 A 2.608695652173907 2.608695652173907 0 0 1 186.9565217391304 95.65217391304348 L 186.9565217391304 95.65217391304348 A 2.608695652173907 2.608695652173907 0 0 1 184.3478260869565 93.04347826086958 L 184.3478260869565 89.56521739130434 A 2.608695652173907 2.608695652173907 0 0 1 186.9565217391304 86.95652173913044 L 186.9565217391304 86.95652173913044 A 2.608695652173907 2.608695652173907 0 0 1 189.56521739130432 89.56521739130434 Z M 24.34782608695652 98.26086956521739 L 24.34782608695652 101.73913043478262 A 2.608695652173912 2.608695652173912 0 0 1 21.73913043478261 104.34782608695653 L 21.73913043478261 104.34782608695653 A 2.608695652173912 2.608695652173912 0 0 1 19.130434782608695 101.73913043478262 L 19.130434782608695 98.26086956521739 A 2.608695652173912 2.608695652173912 0 0 1 21.73913043478261 95.65217391304348 L 21.73913043478261 95.65217391304348 A 2.608695652173912 2.608695652173912 0 0 1 24.34782608695652 98.26086956521739 Z M 41.73913043478261 98.2608695652174 L 41.73913043478261 101.73913043478262 A 2.608695652173914 2.608695652173914 0 0 1 39.130434782608695 104.34782608695653 L 39.130434782608695 104.34782608695653 A 2.608695652173914 2.608695652173914 0 0 1 36.52173913043478 101.73913043478262 L 36.52173913043478 98.2608695652174 A 2.608695652173914 2.608695652173914 0 0 1 39.130434782608695 95.65217391304348 L 39.130434782608695 95.65217391304348 A 2.608695652173914 2.608695652173914 0 0 1 41.73913043478261 98.2608695652174 Z M 50.434782608695656 98.2608695652174 L 50.434782608695656 101.73913043478262 A 2.608695652173914 2.608695652173914 0 0 1 47.82608695652174 104.34782608695653 L 47.82608695652174 104.34782608695653 A 2.608695652173914 2.608695652173914 0 0 1 45.21739130434783 101.73913043478262 L 45.21739130434783 98.2608695652174 A 2.608695652173914 2.608695652173914 0 0 1 47.82608695652174 95.65217391304348 L 47.82608695652174 95.65217391304348 A 2.608695652173914 2.608695652173914 0 0 1 50.434782608695656 98.2608695652174 Z M 59.1304347826087 98.2608695652174 L 59.1304347826087 101.73913043478262 A 2.608695652173914 2.608695652173914 0 0 1 56.52173913043479 104.34782608695653 L 56.52173913043479 104.34782608695653 A 2.608695652173914 2.608695652173914 0 0 1 53.913043478260875 101.73913043478262 L 53.913043478260875 98.2608695652174 A 2.608695652173914 2.608695652173914 0 0 1 56.52173913043479 95.65217391304348 L 56.52173913043479 95.65217391304348 A 2.608695652173914 2.608695652173914 0 0 1 59.1304347826087 98.2608695652174 Z M 67.82608695652173 98.2608695652174 L 67.82608695652173 101.73913043478262 A 2.608695652173914 2.608695652173914 0 0 1 65.21739130434781 104.34782608695653 L 65.21739130434781 104.34782608695653 A 2.608695652173914 2.608695652173914 0 0 1 62.60869565217391 101.73913043478262 L 62.60869565217391 98.2608695652174 A 2.608695652173914 2.608695652173914 0 0 1 65.21739130434781 95.65217391304348 L 65.21739130434781 95.65217391304348 A 2.608695652173914 2.608695652173914 0 0 1 67.82608695652173 98.2608695652174 Z M 76.52173913043478 98.2608695652174 L 76.52173913043478 101.73913043478262 A 2.608695652173914 2.608695652173914 0 0 1 73.91304347826087 104.34782608695653 L 73.91304347826087 104.34782608695653 A 2.608695652173914 2.608695652173914 0 0 1 71.30434782608695 101.73913043478262 L 71.30434782608695 98.2608695652174 A 2.608695652173914 2.608695652173914 0 0 1 73.91304347826087 95.65217391304348 L 73.91304347826087 95.65217391304348 A 2.608695652173914 2.608695652173914 0 0 1 76.52173913043478 98.2608695652174 Z M 102.60869565217392 98.2608695652174 L 102.60869565217392 101.73913043478262 A 2.608695652173914 2.608695652173914 0 0 1 100.0 104.34782608695653 L 100.0 104.34782608695653 A 2.608695652173914 2.608695652173914 0 0 1 97.3913043478261 101.73913043478262 L 97.3913043478261 98.2608695652174 A 2.608695652173914 2.608695652173914 0 0 1 100.0 95.65217391304348 L 100.0 95.65217391304348 A 2.608695652173914 2.608695652173914 0 0 1 102.60869565217392 98.2608695652174 Z M 111.30434782608695 98.2608695652174 L 111.30434782608695 101.73913043478262 A 2.608695652173914 2.608695652173914 0 0 1 108.69565217391303 104.34782608695653 L 108.69565217391303 104.34782608695653 A 2.608695652173914 2.608695652173914 0 0 1 106.08695652173913 101.73913043478262 L 106.08695652173913 98.2608695652174 A 2.608695652173914 2.608695652173914 0 0 1 108.69565217391303 95.65217391304348 L 108.69565217391303 95.65217391304348 A 2.608695652173914 2.608695652173914 0 0 1 111.30434782608695 98.2608695652174 Z M 128.69565217391306 98.2608695652174 L 128.69565217391306 101.73913043478261 A 2.608695652173921 2.608695652173921 0 0 1 126.08695652173914 104.34782608695653 L 126.08695652173914 104.34782608695653 A 2.608695652173921 2.608695652173921 0 0 1 123.47826086956522 101.73913043478261 L 123.47826086956522 98.2608695652174 A 2.608695652173921 2.608695652173921 0 0 1 126.08695652173914 95.65217391304348 L 126.08695652173914 95.65217391304348 A 2.608695652173921 2.608695652173921 0 0 1 128.69565217391306 98.2608695652174 Z M 137.39130434782604 98.26086956521739 L 137.39130434782604 101.73913043478262 A 2.608695652173907 2.608695652173907 0 0 1 134.78260869565213 104.34782608695653 L 134.78260869565213 104.34782608695653 A 2.608695652173907 2.608695652173907 0 0 1 132.17391304347822 101.73913043478262 L 132.17391304347822 98.26086956521739 A 2.608695652173907 2.608695652173907 0 0 1 134.78260869565213 95.65217391304348 L 134.78260869565213 95.65217391304348 A 2.608695652173907 2.608695652173907 0 0 1 137.39130434782604 98.26086956521739 Z M 146.0869565217391 98.26086956521739 L 146.0869565217391 101.73913043478262 A 2.608695652173907 2.608695652173907 0 0 1 143.4782608695652 104.34782608695653 L 143.4782608695652 104.34782608695653 A 2.608695652173907 2.608695652173907 0 0 1 140.86956521739128 101.73913043478262 L 140.86956521739128 98.26086956521739 A 2.608695652173907 2.608695652173907 0 0 1 143.4782608695652 95.65217391304348 L 143.4782608695652 95.65217391304348 A 2.608695652173907 2.608695652173907 0 0 1 146.0869565217391 98.26086956521739 Z M 180.86956521739125 98.26086956521739 L 180.86956521739125 101.73913043478262 A 2.608695652173907 2.608695652173907 0 0 1 178.26086956521735 104.34782608695653 L 178.26086956521735 104.34782608695653 A 2.608695652173907 2.608695652173907 0 0 1 175.65217391304344 101.73913043478262 L 175.65217391304344 98.26086956521739 A 2.608695652173907 2.608695652173907 0 0 1 178.26086956521735 95.65217391304348 L 178.26086956521735 95.65217391304348 A 2.608695652173907 2.608695652173907 0 0 1 180.86956521739125 98.26086956521739 Z M 189.56521739130432 98.26086956521739 L 189.56521739130432 101.73913043478262 A 2.608695652173907 2.608695652173907 0 0 1 186.9565217391304 104.34782608695653 L 186.9565217391304 104.34782608695653 A 2.608695652173907 2.608695652173907 0 0 1 184.3478260869565 101.73913043478262 L 184.3478260869565 98.26086956521739 A 2.608695652173907 2.608695652173907 0 0 1 186.9565217391304 95.65217391304348 L 186.9565217391304 95.65217391304348 A 2.608695652173907 2.608695652173907 0 0 1 189.56521739130432 98.26086956521739 Z M 41.73913043478261 106.95652173913044 L 41.73913043478261 110.43478260869566 A 2.608695652173914 2.608695652173914 0 0 1 39.130434782608695 113.04347826086956 L 39.130434782608695 113.04347826086956 A 2.608695652173914 2.608695652173914 0 0 1 36.52173913043478 110.43478260869566 L 36.52173913043478 106.95652173913044 A 2.608695652173914 2.608695652173914 0 0 1 39.130434782608695 104.34782608695652 L 39.130434782608695 104.34782608695652 A 2.608695652173914 2.608695652173914 0 0 1 41.73913043478261 106.95652173913044 Z M 50.434782608695656 106.95652173913044 L 50.434782608695656 110.43478260869566 A 2.608695652173914 2.608695652173914 0 0 1 47.82608695652174 113.04347826086956 L 47.82608695652174 113.04347826086956 A 2.608695652173914 2.608695652173914 0 0 1 45.21739130434783 110.43478260869566 L 45.21739130434783 106.95652173913044 A 2.608695652173914 2.608695652173914 0 0 1 47.82608695652174 104.34782608695652 L 47.82608695652174 104.34782608695652 A 2.608695652173914 2.608695652173914 0 0 1 50.434782608695656 106.95652173913044 Z M 59.1304347826087 106.95652173913044 L 59.1304347826087 110.43478260869566 A 2.608695652173914 2.608695652173914 0 0 1 56.52173913043479 113.04347826086956 L 56.52173913043479 113.04347826086956 A 2.608695652173914 2.608695652173914 0 0 1 53.913043478260875 110.43478260869566 L 53.913043478260875 106.95652173913044 A 2.608695652173914 2.608695652173914 0 0 1 56.52173913043479 104.34782608695652 L 56.52173913043479 104.34782608695652 A 2.608695652173914 2.608695652173914 0 0 1 59.1304347826087 106.95652173913044 Z M 76.52173913043478 106.95652173913044 L 76.52173913043478 110.43478260869566 A 2.608695652173914 2.608695652173914 0 0 1 73.91304347826087 113.04347826086956 L 73.91304347826087 113.04347826086956 A 2.608695652173914 2.608695652173914 0 0 1 71.30434782608695 110.43478260869566 L 71.30434782608695 106.95652173913044 A 2.608695652173914 2.608695652173914 0 0 1 73.91304347826087 104.34782608695652 L 73.91304347826087 104.34782608695652 A 2.608695652173914 2.608695652173914 0 0 1 76.52173913043478 106.95652173913044 Z M 85.21739130434783 106.95652173913044 L 85.21739130434783 110.43478260869566 A 2.608695652173914 2.608695652173914 0 0 1 82.6086956521739 113.04347826086956 L 82.6086956521739 113.04347826086956 A 2.608695652173914 2.608695652173914 0 0 1 80.0 110.43478260869566 L 80.0 106.95652173913044 A 2.608695652173914 2.608695652173914 0 0 1 82.6086956521739 104.34782608695652 L 82.6086956521739 104.34782608695652 A 2.608695652173914 2.608695652173914 0 0 1 85.21739130434783 106.95652173913044 Z M 93.91304347826087 106.95652173913044 L 93.91304347826087 110.43478260869566 A 2.608695652173914 2.608695652173914 0 0 1 91.30434782608697 113.04347826086956 L 91.30434782608697 113.04347826086956 A 2.608695652173914 2.608695652173914 0 0 1 88.69565217391305 110.43478260869566 L 88.69565217391305 106.95652173913044 A 2.608695652173914 2.608695652173914 0 0 1 91.30434782608697 104.34782608695652 L 91.30434782608697 104.34782608695652 A 2.608695652173914 2.608695652173914 0 0 1 93.91304347826087 106.95652173913044 Z M 128.69565217391306 106.95652173913044 L 128.69565217391306 110.43478260869564 A 2.608695652173921 2.608695652173921 0 0 1 126.08695652173914 113.04347826086956 L 126.08695652173914 113.04347826086956 A 2.608695652173921 2.608695652173921 0 0 1 123.47826086956522 110.43478260869564 L 123.47826086956522 106.95652173913044 A 2.608695652173921 2.608695652173921 0 0 1 126.08695652173914 104.34782608695652 L 126.08695652173914 104.34782608695652 A 2.608695652173921 2.608695652173921 0 0 1 128.69565217391306 106.95652173913044 Z M 137.39130434782604 106.95652173913042 L 137.39130434782604 110.43478260869566 A 2.608695652173907 2.608695652173907 0 0 1 134.78260869565213 113.04347826086956 L 134.78260869565213 113.04347826086956 A 2.608695652173907 2.608695652173907 0 0 1 132.17391304347822 110.43478260869566 L 132.17391304347822 106.95652173913042 A 2.608695652173907 2.608695652173907 0 0 1 134.78260869565213 104.34782608695652 L 134.78260869565213 104.34782608695652 A 2.608695652173907 2.608695652173907 0 0 1 137.39130434782604 106.95652173913042 Z M 146.0869565217391 106.95652173913042 L 146.0869565217391 110.43478260869566 A 2.608695652173907 2.608695652173907 0 0 1 143.4782608695652 113.04347826086956 L 143.4782608695652 113.04347826086956 A 2.608695652173907 2.608695652173907 0 0 1 140.86956521739128 110.43478260869566 L 140.86956521739128 106.95652173913042 A 2.608695652173907 2.608695652173907 0 0 1 143.4782608695652 104.34782608695652 L 143.4782608695652 104.34782608695652 A 2.608695652173907 2.608695652173907 0 0 1 146.0869565217391 106.95652173913042 Z M 154.78260869565213 106.95652173913042 L 154.78260869565213 110.43478260869566 A 2.608695652173907 2.608695652173907 0 0 1 152.17391304347822 113.04347826086956 L 152.17391304347822 113.04347826086956 A 2.608695652173907 2.608695652173907 0 0 1 149.56521739130432 110.43478260869566 L 149.56521739130432 106.95652173913042 A 2.608695652173907 2.608695652173907 0 0 1 152.17391304347822 104.34782608695652 L 152.17391304347822 104.34782608695652 A 2.608695652173907 2.608695652173907 0 0 1 154.78260869565213 106.95652173913042 Z M 172.17391304347822 106.95652173913042 L 172.17391304347822 110.43478260869566 A 2.608695652173907 2.608695652173907 0 0 1 169.56521739130432 113.04347826086956 L 169.56521739130432 113.04347826086956 A 2.608695652173907 2.608695652173907 0 0 1 166.9565217391304 110.43478260869566 L 166.9565217391304 106.95652173913042 A 2.608695652173907 2.608695652173907 0 0 1 169.56521739130432 104.34782608695652 L 169.56521739130432 104.34782608695652 A 2.608695652173907 2.608695652173907 0 0 1 172.17391304347822 106.95652173913042 Z M 180.86956521739125 106.95652173913042 L 180.86956521739125 110.43478260869566 A 2.608695652173907 2.608695652173907 0 0 1 178.26086956521735 113.04347826086956 L 178.26086956521735 113.04347826086956 A 2.608695652173907 2.608695652173907 0 0 1 175.65217391304344 110.43478260869566 L 175.65217391304344 106.95652173913042 A 2.608695652173907 2.608695652173907 0 0 1 178.26086956521735 104.34782608695652 L 178.26086956521735 104.34782608695652 A 2.608695652173907 2.608695652173907 0 0 1 180.86956521739125 106.95652173913042 Z M 33.04347826086956 115.65217391304347 L 33.04347826086956 119.1304347826087 A 2.608695652173912 2.608695652173912 0 0 1 30.43478260869565 121.73913043478261 L 30.43478260869565 121.73913043478261 A 2.608695652173912 2.608695652173912 0 0 1 27.82608695652174 119.1304347826087 L 27.82608695652174 115.65217391304347 A 2.608695652173912 2.608695652173912 0 0 1 30.43478260869565 113.04347826086956 L 30.43478260869565 113.04347826086956 A 2.608695652173912 2.608695652173912 0 0 1 33.04347826086956 115.65217391304347 Z M 41.73913043478261 115.65217391304347 L 41.73913043478261 119.13043478260869 A 2.608695652173914 2.608695652173914 0 0 1 39.130434782608695 121.73913043478261 L 39.130434782608695 121.73913043478261 A 2.608695652173914 2.608695652173914 0 0 1 36.52173913043478 119.13043478260869 L 36.52173913043478 115.65217391304347 A 2.608695652173914 2.608695652173914 0 0 1 39.130434782608695 113.04347826086956 L 39.130434782608695 113.04347826086956 A 2.608695652173914 2.608695652173914 0 0 1 41.73913043478261 115.65217391304347 Z M 67.82608695652173 115.65217391304347 L 67.82608695652173 119.13043478260869 A 2.608695652173914 2.608695652173914 0 0 1 65.21739130434781 121.73913043478261 L 65.21739130434781 121.73913043478261 A 2.608695652173914 2.608695652173914 0 0 1 62.60869565217391 119.13043478260869 L 62.60869565217391 115.65217391304347 A 2.608695652173914 2.608695652173914 0 0 1 65.21739130434781 113.04347826086956 L 65.21739130434781 113.04347826086956 A 2.608695652173914 2.608695652173914 0 0 1 67.82608695652173 115.65217391304347 Z M 76.52173913043478 115.65217391304347 L 76.52173913043478 119.13043478260869 A 2.608695652173914 2.608695652173914 0 0 1 73.91304347826087 121.73913043478261 L 73.91304347826087 121.73913043478261 A 2.608695652173914 2.608695652173914 0 0 1 71.30434782608695 119.13043478260869 L 71.30434782608695 115.65217391304347 A 2.608695652173914 2.608695652173914 0 0 1 73.91304347826087 113.04347826086956 L 73.91304347826087 113.04347826086956 A 2.608695652173914 2.608695652173914 0 0 1 76.52173913043478 115.65217391304347 Z M 120.0 115.65217391304347 L 120.0 119.13043478260869 A 2.608695652173914 2.608695652173914 0 0 1 117.3913043478261 121.73913043478261 L 117.3913043478261 121.73913043478261 A 2.608695652173914 2.608695652173914 0 0 1 114.78260869565217 119.13043478260869 L 114.78260869565217 115.65217391304347 A 2.608695652173914 2.608695652173914 0 0 1 117.3913043478261 113.04347826086956 L 117.3913043478261 113.04347826086956 A 2.608695652173914 2.608695652173914 0 0 1 120.0 115.65217391304347 Z M 137.39130434782604 115.65217391304347 L 137.39130434782604 119.1304347826087 A 2.608695652173907 2.608695652173907 0 0 1 134.78260869565213 121.73913043478261 L 134.78260869565213 121.73913043478261 A 2.608695652173907 2.608695652173907 0 0 1 132.17391304347822 119.1304347826087 L 132.17391304347822 115.65217391304347 A 2.608695652173907 2.608695652173907 0 0 1 134.78260869565213 113.04347826086956 L 134.78260869565213 113.04347826086956 A 2.608695652173907 2.608695652173907 0 0 1 137.39130434782604 115.65217391304347 Z M 146.0869565217391 115.65217391304347 L 146.0869565217391 119.1304347826087 A 2.608695652173907 2.608695652173907 0 0 1 143.4782608695652 121.73913043478261 L 143.4782608695652 121.73913043478261 A 2.608695652173907 2.608695652173907 0 0 1 140.86956521739128 119.1304347826087 L 140.86956521739128 115.65217391304347 A 2.608695652173907 2.608695652173907 0 0 1 143.4782608695652 113.04347826086956 L 143.4782608695652 113.04347826086956 A 2.608695652173907 2.608695652173907 0 0 1 146.0869565217391 115.65217391304347 Z M 154.78260869565213 115.65217391304347 L 154.78260869565213 119.1304347826087 A 2.608695652173907 2.608695652173907 0 0 1 152.17391304347822 121.73913043478261 L 152.17391304347822 121.73913043478261 A 2.608695652173907 2.608695652173907 0 0 1 149.56521739130432 119.1304347826087 L 149.56521739130432 115.65217391304347 A 2.608695652173907 2.608695652173907 0 0 1 152.17391304347822 113.04347826086956 L 152.17391304347822 113.04347826086956 A 2.608695652173907 2.608695652173907 0 0 1 154.78260869565213 115.65217391304347 Z M 163.47826086956516 115.65217391304347 L 163.47826086956516 119.1304347826087 A 2.608695652173907 2.608695652173907 0 0 1 160.86956521739125 121.73913043478261 L 160.86956521739125 121.73913043478261 A 2.608695652173907 2.608695652173907 0 0 1 158.26086956521735 119.1304347826087 L 158.26086956521735 115.65217391304347 A 2.608695652173907 2.608695652173907 0 0 1 160.86956521739125 113.04347826086956 L 160.86956521739125 113.04347826086956 A 2.608695652173907 2.608695652173907 0 0 1 163.47826086956516 115.65217391304347 Z M 172.17391304347822 115.65217391304347 L 172.17391304347822 119.1304347826087 A 2.608695652173907 2.608695652173907 0 0 1 169.56521739130432 121.73913043478261 L 169.56521739130432 121.73913043478261 A 2.608695652173907 2.608695652173907 0 0 1 166.9565217391304 119.1304347826087 L 166.9565217391304 115.65217391304347 A 2.608695652173907 2.608695652173907 0 0 1 169.56521739130432 113.04347826086956 L 169.56521739130432 113.04347826086956 A 2.608695652173907 2.608695652173907 0 0 1 172.17391304347822 115.65217391304347 Z M 180.86956521739125 115.65217391304347 L 180.86956521739125 119.1304347826087 A 2.608695652173907 2.608695652173907 0 0 1 178.26086956521735 121.73913043478261 L 178.26086956521735 121.73913043478261 A 2.608695652173907 2.608695652173907 0 0 1 175.65217391304344 119.1304347826087 L 175.65217391304344 115.65217391304347 A 2.608695652173907 2.608695652173907 0 0 1 178.26086956521735 113.04347826086956 L 178.26086956521735 113.04347826086956 A 2.608695652173907 2.608695652173907 0 0 1 180.86956521739125 115.65217391304347 Z M 189.56521739130432 115.65217391304347 L 189.56521739130432 119.1304347826087 A 2.608695652173907 2.608695652173907 0 0 1 186.9565217391304 121.73913043478261 L 186.9565217391304 121.73913043478261 A 2.608695652173907 2.608695652173907 0 0 1 184.3478260869565 119.1304347826087 L 184.3478260869565 115.65217391304347 A 2.608695652173907 2.608695652173907 0 0 1 186.9565217391304 113.04347826086956 L 186.9565217391304 113.04347826086956 A 2.608695652173907 2.608695652173907 0 0 1 189.56521739130432 115.65217391304347 Z M 85.21739130434783 124.34782608695653 L 85.21739130434783 127.82608695652175 A 2.608695652173914 2.608695652173914 0 0 1 82.6086956521739 130.43478260869566 L 82.6086956521739 130.43478260869566 A 2.608695652173914 2.608695652173914 0 0 1 80.0 127.82608695652175 L 80.0 124.34782608695653 A 2.608695652173914 2.608695652173914 0 0 1 82.6086956521739 121.73913043478261 L 82.6086956521739 121.73913043478261 A 2.608695652173914 2.608695652173914 0 0 1 85.21739130434783 124.34782608695653 Z M 93.91304347826087 124.34782608695653 L 93.91304347826087 127.82608695652175 A 2.608695652173914 2.608695652173914 0 0 1 91.30434782608697 130.43478260869566 L 91.30434782608697 130.43478260869566 A 2.608695652173914 2.608695652173914 0 0 1 88.69565217391305 127.82608695652175 L 88.69565217391305 124.34782608695653 A 2.608695652173914 2.608695652173914 0 0 1 91.30434782608697 121.73913043478261 L 91.30434782608697 121.73913043478261 A 2.608695652173914 2.608695652173914 0 0 1 93.91304347826087 124.34782608695653 Z M 128.69565217391306 124.34782608695653 L 128.69565217391306 127.82608695652173 A 2.608695652173921 2.608695652173921 0 0 1 126.08695652173914 130.43478260869566 L 126.08695652173914 130.43478260869566 A 2.608695652173921 2.608695652173921 0 0 1 123.47826086956522 127.82608695652173 L 123.47826086956522 124.34782608695653 A 2.608695652173921 2.608695652173921 0 0 1 126.08695652173914 121.73913043478261 L 126.08695652173914 121.73913043478261 A 2.608695652173921 2.608695652173921 0 0 1 128.69565217391306 124.34782608695653 Z M 189.56521739130432 124.34782608695652 L 189.56521739130432 127.82608695652175 A 2.608695652173907 2.608695652173907 0 0 1 186.9565217391304 130.43478260869566 L 186.9565217391304 130.43478260869566 A 2.608695652173907 2.608695652173907 0 0 1 184.3478260869565 127.82608695652175 L 184.3478260869565 124.34782608695652 A 2.608695652173907 2.608695652173907 0 0 1 186.9565217391304 121.73913043478261 L 186.9565217391304 121.73913043478261 A 2.608695652173907 2.608695652173907 0 0 1 189.56521739130432 124.34782608695652 Z M 85.21739130434783 133.04347826086953 L 85.21739130434783 136.52173913043475 A 2.608695652173914 2.608695652173914 0 0 1 82.6086956521739 139.13043478260866 L 82.6086956521739 139.13043478260866 A 2.608695652173914 2.608695652173914 0 0 1 80.0 136.52173913043475 L 80.0 133.04347826086953 A 2.608695652173914 2.608695652173914 0 0 1 82.6086956521739 130.43478260869563 L 82.6086956521739 130.43478260869563 A 2.608695652173914 2.608695652173914 0 0 1 85.21739130434783 133.04347826086953 Z M 111.30434782608695 133.04347826086953 L 111.30434782608695 136.52173913043475 A 2.608695652173914 2.608695652173914 0 0 1 108.69565217391303 139.13043478260866 L 108.69565217391303 139.13043478260866 A 2.608695652173914 2.608695652173914 0 0 1 106.08695652173913 136.52173913043475 L 106.08695652173913 133.04347826086953 A 2.608695652173914 2.608695652173914 0 0 1 108.69565217391303 130.43478260869563 L 108.69565217391303 130.43478260869563 A 2.608695652173914 2.608695652173914 0 0 1 111.30434782608695 133.04347826086953 Z M 137.39130434782604 133.04347826086953 L 137.39130434782604 136.52173913043475 A 2.608695652173907 2.608695652173907 0 0 1 134.78260869565213 139.13043478260866 L 134.78260869565213 139.13043478260866 A 2.608695652173907 2.608695652173907 0 0 1 132.17391304347822 136.52173913043475 L 132.17391304347822 133.04347826086953 A 2.608695652173907 2.608695652173907 0 0 1 134.78260869565213 130.43478260869563 L 134.78260869565213 130.43478260869563 A 2.608695652173907 2.608695652173907 0 0 1 137.39130434782604 133.04347826086953 Z M 172.17391304347822 133.04347826086953 L 172.17391304347822 136.52173913043475 A 2.608695652173907 2.608695652173907 0 0 1 169.56521739130432 139.13043478260866 L 169.56521739130432 139.13043478260866 A 2.608695652173907 2.608695652173907 0 0 1 166.9565217391304 136.52173913043475 L 166.9565217391304 133.04347826086953 A 2.608695652173907 2.608695652173907 0 0 1 169.56521739130432 130.43478260869563 L 169.56521739130432 130.43478260869563 A 2.608695652173907 2.608695652173907 0 0 1 172.17391304347822 133.04347826086953 Z M 93.91304347826087 141.7391304347826 L 93.91304347826087 145.2173913043478 A 2.608695652173914 2.608695652173914 0 0 1 91.30434782608697 147.82608695652172 L 91.30434782608697 147.82608695652172 A 2.608695652173914 2.608695652173914 0 0 1 88.69565217391305 145.2173913043478 L 88.69565217391305 141.7391304347826 A 2.608695652173914 2.608695652173914 0 0 1 91.30434782608697 139.1304347826087 L 91.30434782608697 139.1304347826087 A 2.608695652173914 2.608695652173914 0 0 1 93.91304347826087 141.7391304347826 Z M 102.60869565217392 141.7391304347826 L 102.60869565217392 145.2173913043478 A 2.608695652173914 2.608695652173914 0 0 1 100.0 147.82608695652172 L 100.0 147.82608695652172 A 2.608695652173914 2.608695652173914 0 0 1 97.3913043478261 145.2173913043478 L 97.3913043478261 141.7391304347826 A 2.608695652173914 2.608695652173914 0 0 1 100.0 139.1304347826087 L 100.0 139.1304347826087 A 2.608695652173914 2.608695652173914 0 0 1 102.60869565217392 141.7391304347826 Z M 120.0 141.7391304347826 L 120.0 145.2173913043478 A 2.608695652173914 2.608695652173914 0 0 1 117.3913043478261 147.82608695652172 L 117.3913043478261 147.82608695652172 A 2.608695652173914 2.608695652173914 0 0 1 114.78260869565217 145.2173913043478 L 114.78260869565217 141.7391304347826 A 2.608695652173914 2.608695652173914 0 0 1 117.3913043478261 139.1304347826087 L 117.3913043478261 139.1304347826087 A 2.608695652173914 2.608695652173914 0 0 1 120.0 141.7391304347826 Z M 128.69565217391306 141.73913043478262 L 128.69565217391306 145.2173913043478 A 2.608695652173921 2.608695652173921 0 0 1 126.08695652173914 147.82608695652172 L 126.08695652173914 147.82608695652172 A 2.608695652173921 2.608695652173921 0 0 1 123.47826086956522 145.2173913043478 L 123.47826086956522 141.73913043478262 A 2.608695652173921 2.608695652173921 0 0 1 126.08695652173914 139.1304347826087 L 126.08695652173914 139.1304347826087 A 2.608695652173921 2.608695652173921 0 0 1 128.69565217391306 141.73913043478262 Z M 137.39130434782604 141.7391304347826 L 137.39130434782604 145.2173913043478 A 2.608695652173907 2.608695652173907 0 0 1 134.78260869565213 147.82608695652172 L 134.78260869565213 147.82608695652172 A 2.608695652173907 2.608695652173907 0 0 1 132.17391304347822 145.2173913043478 L 132.17391304347822 141.7391304347826 A 2.608695652173907 2.608695652173907 0 0 1 134.78260869565213 139.1304347826087 L 134.78260869565213 139.1304347826087 A 2.608695652173907 2.608695652173907 0 0 1 137.39130434782604 141.7391304347826 Z M 163.47826086956516 141.7391304347826 L 163.47826086956516 145.2173913043478 A 2.608695652173907 2.608695652173907 0 0 1 160.86956521739125 147.82608695652172 L 160.86956521739125 147.82608695652172 A 2.608695652173907 2.608695652173907 0 0 1 158.26086956521735 145.2173913043478 L 158.26086956521735 141.7391304347826 A 2.608695652173907 2.608695652173907 0 0 1 160.86956521739125 139.1304347826087 L 160.86956521739125 139.1304347826087 A 2.608695652173907 2.608695652173907 0 0 1 163.47826086956516 141.7391304347826 Z M 172.17391304347822 141.7391304347826 L 172.17391304347822 145.2173913043478 A 2.608695652173907 2.608695652173907 0 0 1 169.56521739130432 147.82608695652172 L 169.56521739130432 147.82608695652172 A 2.608695652173907 2.608695652173907 0 0 1 166.9565217391304 145.2173913043478 L 166.9565217391304 141.7391304347826 A 2.608695652173907 2.608695652173907 0 0 1 169.56521739130432 139.1304347826087 L 169.56521739130432 139.1304347826087 A 2.608695652173907 2.608695652173907 0 0 1 172.17391304347822 141.7391304347826 Z M 180.86956521739125 141.7391304347826 L 180.86956521739125 145.2173913043478 A 2.608695652173907 2.608695652173907 0 0 1 178.26086956521735 147.82608695652172 L 178.26086956521735 147.82608695652172 A 2.608695652173907 2.608695652173907 0 0 1 175.65217391304344 145.2173913043478 L 175.65217391304344 141.7391304347826 A 2.608695652173907 2.608695652173907 0 0 1 178.26086956521735 139.1304347826087 L 178.26086956521735 139.1304347826087 A 2.608695652173907 2.608695652173907 0 0 1 180.86956521739125 141.7391304347826 Z M 189.56521739130432 141.7391304347826 L 189.56521739130432 145.2173913043478 A 2.608695652173907 2.608695652173907 0 0 1 186.9565217391304 147.82608695652172 L 186.9565217391304 147.82608695652172 A 2.608695652173907 2.608695652173907 0 0 1 184.3478260869565 145.2173913043478 L 184.3478260869565 141.7391304347826 A 2.608695652173907 2.608695652173907 0 0 1 186.9565217391304 139.1304347826087 L 186.9565217391304 139.1304347826087 A 2.608695652173907 2.608695652173907 0 0 1 189.56521739130432 141.7391304347826 Z M 85.21739130434783 150.43478260869563 L 85.21739130434783 153.91304347826085 A 2.608695652173914 2.608695652173914 0 0 1 82.6086956521739 156.52173913043475 L 82.6086956521739 156.52173913043475 A 2.608695652173914 2.608695652173914 0 0 1 80.0 153.91304347826085 L 80.0 150.43478260869563 A 2.608695652173914 2.608695652173914 0 0 1 82.6086956521739 147.82608695652172 L 82.6086956521739 147.82608695652172 A 2.608695652173914 2.608695652173914 0 0 1 85.21739130434783 150.43478260869563 Z M 93.91304347826087 150.43478260869563 L 93.91304347826087 153.91304347826085 A 2.608695652173914 2.608695652173914 0 0 1 91.30434782608697 156.52173913043475 L 91.30434782608697 156.52173913043475 A 2.608695652173914 2.608695652173914 0 0 1 88.69565217391305 153.91304347826085 L 88.69565217391305 150.43478260869563 A 2.608695652173914 2.608695652173914 0 0 1 91.30434782608697 147.82608695652172 L 91.30434782608697 147.82608695652172 A 2.608695652173914 2.608695652173914 0 0 1 93.91304347826087 150.43478260869563 Z M 102.60869565217392 150.43478260869563 L 102.60869565217392 153.91304347826085 A 2.608695652173914 2.608695652173914 0 0 1 100.0 156.52173913043475 L 100.0 156.52173913043475 A 2.608695652173914 2.608695652173914 0 0 1 97.3913043478261 153.91304347826085 L 97.3913043478261 150.43478260869563 A 2.608695652173914 2.608695652173914 0 0 1 100.0 147.82608695652172 L 100.0 147.82608695652172 A 2.608695652173914 2.608695652173914 0 0 1 102.60869565217392 150.43478260869563 Z M 154.78260869565213 150.43478260869563 L 154.78260869565213 153.91304347826085 A 2.608695652173907 2.608695652173907 0 0 1 152.17391304347822 156.52173913043475 L 152.17391304347822 156.52173913043475 A 2.608695652173907 2.608695652173907 0 0 1 149.56521739130432 153.91304347826085 L 149.56521739130432 150.43478260869563 A 2.608695652173907 2.608695652173907 0 0 1 152.17391304347822 147.82608695652172 L 152.17391304347822 147.82608695652172 A 2.608695652173907 2.608695652173907 0 0 1 154.78260869565213 150.43478260869563 Z M 163.47826086956516 150.43478260869563 L 163.47826086956516 153.91304347826085 A 2.608695652173907 2.608695652173907 0 0 1 160.86956521739125 156.52173913043475 L 160.86956521739125 156.52173913043475 A 2.608695652173907 2.608695652173907 0 0 1 158.26086956521735 153.91304347826085 L 158.26086956521735 150.43478260869563 A 2.608695652173907 2.608695652173907 0 0 1 160.86956521739125 147.82608695652172 L 160.86956521739125 147.82608695652172 A 2.608695652173907 2.608695652173907 0 0 1 163.47826086956516 150.43478260869563 Z M 172.17391304347822 150.43478260869563 L 172.17391304347822 153.91304347826085 A 2.608695652173907 2.608695652173907 0 0 1 169.56521739130432 156.52173913043475 L 169.56521739130432 156.52173913043475 A 2.608695652173907 2.608695652173907 0 0 1 166.9565217391304 153.91304347826085 L 166.9565217391304 150.43478260869563 A 2.608695652173907 2.608695652173907 0 0 1 169.56521739130432 147.82608695652172 L 169.56521739130432 147.82608695652172 A 2.608695652173907 2.608695652173907 0 0 1 172.17391304347822 150.43478260869563 Z M 180.86956521739125 150.43478260869563 L 180.86956521739125 153.91304347826085 A 2.608695652173907 2.608695652173907 0 0 1 178.26086956521735 156.52173913043475 L 178.26086956521735 156.52173913043475 A 2.608695652173907 2.608695652173907 0 0 1 175.65217391304344 153.91304347826085 L 175.65217391304344 150.43478260869563 A 2.608695652173907 2.608695652173907 0 0 1 178.26086956521735 147.82608695652172 L 178.26086956521735 147.82608695652172 A 2.608695652173907 2.608695652173907 0 0 1 180.86956521739125 150.43478260869563 Z M 189.56521739130432 150.43478260869563 L 189.56521739130432 153.91304347826085 A 2.608695652173907 2.608695652173907 0 0 1 186.9565217391304 156.52173913043475 L 186.9565217391304 156.52173913043475 A 2.608695652173907 2.608695652173907 0 0 1 184.3478260869565 153.91304347826085 L 184.3478260869565 150.43478260869563 A 2.608695652173907 2.608695652173907 0 0 1 186.9565217391304 147.82608695652172 L 186.9565217391304 147.82608695652172 A 2.608695652173907 2.608695652173907 0 0 1 189.56521739130432 150.43478260869563 Z M 85.21739130434783 159.13043478260866 L 85.21739130434783 162.60869565217388 A 2.608695652173914 2.608695652173914 0 0 1 82.6086956521739 165.21739130434779 L 82.6086956521739 165.21739130434779 A 2.608695652173914 2.608695652173914 0 0 1 80.0 162.60869565217388 L 80.0 159.13043478260866 A 2.608695652173914 2.608695652173914 0 0 1 82.6086956521739 156.52173913043475 L 82.6086956521739 156.52173913043475 A 2.608695652173914 2.608695652173914 0 0 1 85.21739130434783 159.13043478260866 Z M 93.91304347826087 159.13043478260866 L 93.91304347826087 162.60869565217388 A 2.608695652173914 2.608695652173914 0 0 1 91.30434782608697 165.21739130434779 L 91.30434782608697 165.21739130434779 A 2.608695652173914 2.608695652173914 0 0 1 88.69565217391305 162.60869565217388 L 88.69565217391305 159.13043478260866 A 2.608695652173914 2.608695652173914 0 0 1 91.30434782608697 156.52173913043475 L 91.30434782608697 156.52173913043475 A 2.608695652173914 2.608695652173914 0 0 1 93.91304347826087 159.13043478260866 Z M 120.0 159.13043478260866 L 120.0 162.60869565217388 A 2.608695652173914 2.608695652173914 0 0 1 117.3913043478261 165.21739130434779 L 117.3913043478261 165.21739130434779 A 2.608695652173914 2.608695652173914 0 0 1 114.78260869565217 162.60869565217388 L 114.78260869565217 159.13043478260866 A 2.608695652173914 2.608695652173914 0 0 1 117.3913043478261 156.52173913043475 L 117.3913043478261 156.52173913043475 A 2.608695652173914 2.608695652173914 0 0 1 120.0 159.13043478260866 Z M 128.69565217391306 159.1304347826087 L 128.69565217391306 162.60869565217388 A 2.608695652173921 2.608695652173921 0 0 1 126.08695652173914 165.21739130434779 L 126.08695652173914 165.21739130434779 A 2.608695652173921 2.608695652173921 0 0 1 123.47826086956522 162.60869565217388 L 123.47826086956522 159.1304347826087 A 2.608695652173921 2.608695652173921 0 0 1 126.08695652173914 156.52173913043475 L 126.08695652173914 156.52173913043475 A 2.608695652173921 2.608695652173921 0 0 1 128.69565217391306 159.1304347826087 Z M 137.39130434782604 159.13043478260866 L 137.39130434782604 162.60869565217388 A 2.608695652173907 2.608695652173907 0 0 1 134.78260869565213 165.21739130434779 L 134.78260869565213 165.21739130434779 A 2.608695652173907 2.608695652173907 0 0 1 132.17391304347822 162.60869565217388 L 132.17391304347822 159.13043478260866 A 2.608695652173907 2.608695652173907 0 0 1 134.78260869565213 156.52173913043475 L 134.78260869565213 156.52173913043475 A 2.608695652173907 2.608695652173907 0 0 1 137.39130434782604 159.13043478260866 Z M 154.78260869565213 159.13043478260866 L 154.78260869565213 162.60869565217388 A 2.608695652173907 2.608695652173907 0 0 1 152.17391304347822 165.21739130434779 L 152.17391304347822 165.21739130434779 A 2.608695652173907 2.608695652173907 0 0 1 149.56521739130432 162.60869565217388 L 149.56521739130432 159.13043478260866 A 2.608695652173907 2.608695652173907 0 0 1 152.17391304347822 156.52173913043475 L 152.17391304347822 156.52173913043475 A 2.608695652173907 2.608695652173907 0 0 1 154.78260869565213 159.13043478260866 Z M 111.30434782608695 167.82608695652172 L 111.30434782608695 171.30434782608694 A 2.608695652173914 2.608695652173914 0 0 1 108.69565217391303 173.91304347826085 L 108.69565217391303 173.91304347826085 A 2.608695652173914 2.608695652173914 0 0 1 106.08695652173913 171.30434782608694 L 106.08695652173913 167.82608695652172 A 2.608695652173914 2.608695652173914 0 0 1 108.69565217391303 165.2173913043478 L 108.69565217391303 165.2173913043478 A 2.608695652173914 2.608695652173914 0 0 1 111.30434782608695 167.82608695652172 Z M 128.69565217391306 167.82608695652175 L 128.69565217391306 171.30434782608694 A 2.608695652173921 2.608695652173921 0 0 1 126.08695652173914 173.91304347826085 L 126.08695652173914 173.91304347826085 A 2.608695652173921 2.608695652173921 0 0 1 123.47826086956522 171.30434782608694 L 123.47826086956522 167.82608695652175 A 2.608695652173921 2.608695652173921 0 0 1 126.08695652173914 165.2173913043478 L 126.08695652173914 165.2173913043478 A 2.608695652173921 2.608695652173921 0 0 1 128.69565217391306 167.82608695652175 Z M 137.39130434782604 167.82608695652172 L 137.39130434782604 171.30434782608694 A 2.608695652173907 2.608695652173907 0 0 1 134.78260869565213 173.91304347826085 L 134.78260869565213 173.91304347826085 A 2.608695652173907 2.608695652173907 0 0 1 132.17391304347822 171.30434782608694 L 132.17391304347822 167.82608695652172 A 2.608695652173907 2.608695652173907 0 0 1 134.78260869565213 165.2173913043478 L 134.78260869565213 165.2173913043478 A 2.608695652173907 2.608695652173907 0 0 1 137.39130434782604 167.82608695652172 Z M 146.0869565217391 167.82608695652172 L 146.0869565217391 171.30434782608694 A 2.608695652173907 2.608695652173907 0 0 1 143.4782608695652 173.91304347826085 L 143.4782608695652 173.91304347826085 A 2.608695652173907 2.608695652173907 0 0 1 140.86956521739128 171.30434782608694 L 140.86956521739128 167.82608695652172 A 2.608695652173907 2.608695652173907 0 0 1 143.4782608695652 165.2173913043478 L 143.4782608695652 165.2173913043478 A 2.608695652173907 2.608695652173907 0 0 1 146.0869565217391 167.82608695652172 Z M 154.78260869565213 167.82608695652172 L 154.78260869565213 171.30434782608694 A 2.608695652173907 2.608695652173907 0 0 1 152.17391304347822 173.91304347826085 L 152.17391304347822 173.91304347826085 A 2.608695652173907 2.608695652173907 0 0 1 149.56521739130432 171.30434782608694 L 149.56521739130432 167.82608695652172 A 2.608695652173907 2.608695652173907 0 0 1 152.17391304347822 165.2173913043478 L 152.17391304347822 165.2173913043478 A 2.608695652173907 2.608695652173907 0 0 1 154.78260869565213 167.82608695652172 Z M 180.86956521739125 167.82608695652172 L 180.86956521739125 171.30434782608694 A 2.608695652173907 2.608695652173907 0 0 1 178.26086956521735 173.91304347826085 L 178.26086956521735 173.91304347826085 A 2.608695652173907 2.608695652173907 0 0 1 175.65217391304344 171.30434782608694 L 175.65217391304344 167.82608695652172 A 2.608695652173907 2.608695652173907 0 0 1 178.26086956521735 165.2173913043478 L 178.26086956521735 165.2173913043478 A 2.608695652173907 2.608695652173907 0 0 1 180.86956521739125 167.82608695652172 Z M 189.56521739130432 167.82608695652172 L 189.56521739130432 171.30434782608694 A 2.608695652173907 2.608695652173907 0 0 1 186.9565217391304 173.91304347826085 L 186.9565217391304 173.91304347826085 A 2.608695652173907 2.608695652173907 0 0 1 184.3478260869565 171.30434782608694 L 184.3478260869565 167.82608695652172 A 2.608695652173907 2.608695652173907 0 0 1 186.9565217391304 165.2173913043478 L 186.9565217391304 165.2173913043478 A 2.608695652173907 2.608695652173907 0 0 1 189.56521739130432 167.82608695652172 Z M 93.91304347826087 176.52173913043475 L 93.91304347826087 179.99999999999997 A 2.608695652173914 2.608695652173914 0 0 1 91.30434782608697 182.60869565217388 L 91.30434782608697 182.60869565217388 A 2.608695652173914 2.608695652173914 0 0 1 88.69565217391305 179.99999999999997 L 88.69565217391305 176.52173913043475 A 2.608695652173914 2.608695652173914 0 0 1 91.30434782608697 173.91304347826085 L 91.30434782608697 173.91304347826085 A 2.608695652173914 2.608695652173914 0 0 1 93.91304347826087 176.52173913043475 Z M 163.47826086956516 176.52173913043475 L 163.47826086956516 179.99999999999997 A 2.608695652173907 2.608695652173907 0 0 1 160.86956521739125 182.60869565217388 L 160.86956521739125 182.60869565217388 A 2.608695652173907 2.608695652173907 0 0 1 158.26086956521735 179.99999999999997 L 158.26086956521735 176.52173913043475 A 2.608695652173907 2.608695652173907 0 0 1 160.86956521739125 173.91304347826085 L 160.86956521739125 173.91304347826085 A 2.608695652173907 2.608695652173907 0 0 1 163.47826086956516 176.52173913043475 Z M 172.17391304347822 176.52173913043475 L 172.17391304347822 179.99999999999997 A 2.608695652173907 2.608695652173907 0 0 1 169.56521739130432 182.60869565217388 L 169.56521739130432 182.60869565217388 A 2.608695652173907 2.608695652173907 0 0 1 166.9565217391304 179.99999999999997 L 166.9565217391304 176.52173913043475 A 2.608695652173907 2.608695652173907 0 0 1 169.56521739130432 173.91304347826085 L 169.56521739130432 173.91304347826085 A 2.608695652173907 2.608695652173907 0 0 1 172.17391304347822 176.52173913043475 Z M 180.86956521739125 176.52173913043475 L 180.86956521739125 179.99999999999997 A 2.608695652173907 2.608695652173907 0 0 1 178.26086956521735 182.60869565217388 L 178.26086956521735 182.60869565217388 A 2.608695652173907 2.608695652173907 0 0 1 175.65217391304344 179.99999999999997 L 175.65217391304344 176.52173913043475 A 2.608695652173907 2.608695652173907 0 0 1 178.26086956521735 173.91304347826085 L 178.26086956521735 173.91304347826085 A 2.608695652173907 2.608695652173907 0 0 1 180.86956521739125 176.52173913043475 Z M 189.56521739130432 176.52173913043475 L 189.56521739130432 179.99999999999997 A 2.608695652173907 2.608695652173907 0 0 1 186.9565217391304 182.60869565217388 L 186.9565217391304 182.60869565217388 A 2.608695652173907 2.608695652173907 0 0 1 184.3478260869565 179.99999999999997 L 184.3478260869565 176.52173913043475 A 2.608695652173907 2.608695652173907 0 0 1 186.9565217391304 173.91304347826085 L 186.9565217391304 173.91304347826085 A 2.608695652173907 2.608695652173907 0 0 1 189.56521739130432 176.52173913043475 Z M 93.91304347826087 185.2173913043478 L 93.91304347826087 188.69565217391303 A 2.608695652173914 2.608695652173914 0 0 1 91.30434782608697 191.30434782608694 L 91.30434782608697 191.30434782608694 A 2.608695652173914 2.608695652173914 0 0 1 88.69565217391305 188.69565217391303 L 88.69565217391305 185.2173913043478 A 2.608695652173914 2.608695652173914 0 0 1 91.30434782608697 182.6086956521739 L 91.30434782608697 182.6086956521739 A 2.608695652173914 2.608695652173914 0 0 1 93.91304347826087 185.2173913043478 Z M 102.60869565217392 185.2173913043478 L 102.60869565217392 188.69565217391303 A 2.608695652173914 2.608695652173914 0 0 1 100.0 191.30434782608694 L 100.0 191.30434782608694 A 2.608695652173914 2.608695652173914 0 0 1 97.3913043478261 188.69565217391303 L 97.3913043478261 185.2173913043478 A 2.608695652173914 2.608695652173914 0 0 1 100.0 182.6086956521739 L 100.0 182.6086956521739 A 2.608695652173914 2.608695652173914 0 0 1 102.60869565217392 185.2173913043478 Z M 128.69565217391306 185.2173913043478 L 128.69565217391306 188.695652173913 A 2.608695652173921 2.608695652173921 0 0 1 126.08695652173914 191.30434782608694 L 126.08695652173914 191.30434782608694 A 2.608695652173921 2.608695652173921 0 0 1 123.47826086956522 188.695652173913 L 123.47826086956522 185.2173913043478 A 2.608695652173921 2.608695652173921 0 0 1 126.08695652173914 182.6086956521739 L 126.08695652173914 182.6086956521739 A 2.608695652173921 2.608695652173921 0 0 1 128.69565217391306 185.2173913043478 Z M 137.39130434782604 185.2173913043478 L 137.39130434782604 188.69565217391303 A 2.608695652173907 2.608695652173907 0 0 1 134.78260869565213 191.30434782608694 L 134.78260869565213 191.30434782608694 A 2.608695652173907 2.608695652173907 0 0 1 132.17391304347822 188.69565217391303 L 132.17391304347822 185.2173913043478 A 2.608695652173907 2.608695652173907 0 0 1 134.78260869565213 182.6086956521739 L 134.78260869565213 182.6086956521739 A 2.608695652173907 2.608695652173907 0 0 1 137.39130434782604 185.2173913043478 Z M 154.78260869565213 185.2173913043478 L 154.78260869565213 188.69565217391303 A 2.608695652173907 2.608695652173907 0 0 1 152.17391304347822 191.30434782608694 L 152.17391304347822 191.30434782608694 A 2.608695652173907 2.608695652173907 0 0 1 149.56521739130432 188.69565217391303 L 149.56521739130432 185.2173913043478 A 2.608695652173907 2.608695652173907 0 0 1 152.17391304347822 182.6086956521739 L 152.17391304347822 182.6086956521739 A 2.608695652173907 2.608695652173907 0 0 1 154.78260869565213 185.2173913043478 Z M 163.47826086956516 185.2173913043478 L 163.47826086956516 188.69565217391303 A 2.608695652173907 2.608695652173907 0 0 1 160.86956521739125 191.30434782608694 L 160.86956521739125 191.30434782608694 A 2.608695652173907 2.608695652173907 0 0 1 158.26086956521735 188.69565217391303 L 158.26086956521735 185.2173913043478 A 2.608695652173907 2.608695652173907 0 0 1 160.86956521739125 182.6086956521739 L 160.86956521739125 182.6086956521739 A 2.608695652173907 2.608695652173907 0 0 1 163.47826086956516 185.2173913043478 Z M 172.17391304347822 185.2173913043478 L 172.17391304347822 188.69565217391303 A 2.608695652173907 2.608695652173907 0 0 1 169.56521739130432 191.30434782608694 L 169.56521739130432 191.30434782608694 A 2.608695652173907 2.608695652173907 0 0 1 166.9565217391304 188.69565217391303 L 166.9565217391304 185.2173913043478 A 2.608695652173907 2.608695652173907 0 0 1 169.56521739130432 182.6086956521739 L 169.56521739130432 182.6086956521739 A 2.608695652173907 2.608695652173907 0 0 1 172.17391304347822 185.2173913043478 Z" fill="#111827" fill-opacity="1"/><path d="M 8.695652173913043 8.695652173913043 h 60.8695652173913 v 60.8695652173913 h -60.8695652173913 Z M 17.391304347826086 17.391304347826086 h 43.47826086956521 v 43.47826086956521 h -43.47826086956521 Z" fill="#111827" fill-opacity="1" fill-rule="evenodd"/><path d="M 26.08695652173913 26.08695652173913 h 26.08695652173913 v 26.08695652173913 h -26.08695652173913 Z" fill="#111827" fill-opacity="1"/><path d="M 130.43478260869563 8.695652173913043 h 60.86956521739131 v 60.8695652173913 h -60.86956521739131 Z M 139.13043478260866 17.391304347826086 h 43.47826086956522 v 43.478260869565204 h -43.47826086956522 Z" fill="#111827" fill-opacity="1" fill-rule="evenodd"/><path d="M 147.82608695652172 26.08695652173913 h 26.086956521739125 v 26.08695652173913 h -26.086956521739125 Z" fill="#111827" fill-opacity="1"/><path d="M 8.695652173913043 130.43478260869563 h 60.8695652173913 v 60.86956521739131 h -60.8695652173913 Z M 17.391304347826086 139.13043478260866 h 43.47826086956521 v 43.478260869565226 h -43.47826086956521 Z" fill="#111827" fill-opacity="1" fill-rule="evenodd"/><path d="M 26.08695652173913 147.82608695652172 h 26.08695652173913 v 26.086956521739125 h -26.08695652173913 Z" fill="#111827" fill-opacity="1"/></svg>