<svg xmlns="http://www.w3.org/2000/svg" viewBox="0 0 200 200" width="200" height="200"><rect width="200" height="200" fill="#ffffff" fill-opacity="1"/><path d="M 91.30434782608697 8.695652173913043 A 4.347826086956523 4.3478260869565215 0 1 1 86.95652173913044 13.043478260869565 L 86.95652173913044 8.695652173913043 Z M 100.0 8.695652173913043 A 4.347826086956523 4.3478260869565215 0 1 1 95.65217391304348 13.043478260869565 L 95.65217391304348 8.695652173913043 Z M 117.3913043478261 8.695652173913043 A 4.347826086956523 4.3478260869565215 0 1 1 113.04347826086956 13.043478260869565 L 113.04347826086956 8.695652173913043 Z M 91.30434782608697 17.391304347826086 A 4.347826086956523 4.3478260869565215 0 1 1 86.95652173913044 21.73913043478261 L 86.95652173913044 17.391304347826086 Z M 108.69565217391303 17.391304347826086 A 4.347826086956523 4.3478260869565215 0 1 1 104.34782608695652 21.73913043478261 L 104.34782608695652 17.391304347826086 Z M 117.3913043478261 17.391304347826086 A 4.347826086956523 4.3478260869565215 0 1 1 113.04347826086956 21.73913043478261 L 113.04347826086956 17.391304347826086 Z M 82.6086956521739 26.08695652173913 A 4.347826086956523 4.3478260869565215 0 1 1 78.26086956521739 30.43478260869565 L 78.26086956521739 26.08695652173913 Z M 91.30434782608697 26.08695652173913 A 4.347826086956523 4.3478260869565215 0 1 1 86.95652173913044 30.43478260869565 L 86.95652173913044 26.08695652173913 Z M 100.0 26.08695652173913 A 4.347826086956523 4.3478260869565215 0 1 1 95.65217391304348 30.43478260869565 L 95.65217391304348 26.08695652173913 Z M 82.6086956521739 34.78260869565217 A 4.347826086956523 4.347826086956523 0 1 1 78.26086956521739 39.130434782608695 L 78.26086956521739 34.78260869565217 Z M 91.30434782608697 34.78260869565217 A 4.347826086956523 4.347826086956523 0 1 1 86.95652173913044 39.130434782608695 L 86.95652173913044 34.78260869565217 Z M 117.3913043478261 34.78260869565217 A 4.347826086956523 4.347826086956523 0 1 1 113.04347826086956 39.130434782608695 L 113.04347826086956 34.78260869565217 Z M 91.30434782608697 43.47826086956522 A 4.347826086956523 4.347826086956523 0 1 1 86.95652173913044 47.82608695652174 L 86.95652173913044 43.47826086956522 Z M 108.69565217391303 43.47826086956522 A 4.347826086956523 4.347826086956523 0 1 1 104.34782608695652 47.82608695652174 L 104.34782608695652 43.47826086956522 Z M 100.0 52.173913043478265 A 4.347826086956523 4.347826086956523 0 1 1 95.65217391304348 56.52173913043479 L 95.65217391304348 52.173913043478265 Z M 108.69565217391303 52.173913043478265 A 4.347826086956523 4.347826086956523 0 1 1 104.34782608695652 56.52173913043479 L 104.34782608695652 52.173913043478265 Z M 82.6086956521739 60.8695652173913 A 4.347826086956523 4.347826086956523 0 1 1 78.26086956521739 65.21739130434781 L 78.26086956521739 60.8695652173913 Z M 100.0 60.8695652173913 A 4.347826086956523 4.347826086956523 0 1 1 95.65217391304348 65.21739130434781 L 95.65217391304348 60.8695652173913 Z M 117.3913043478261 60.8695652173913 A 4.347826086956523 4.347826086956523 0 1 1 113.04347826086956 65.21739130434781 L 113.04347826086956 60.8695652173913 Z M 91.30434782608697 69.56521739130434 A 4.347826086956523 4.347826086956523 0 1 1 86.95652173913044 73.91304347826087 L 86.95652173913044 69.56521739130434 Z M 100.0 69.56521739130434 A 4.347826086956523 4.347826086956523 0 1 1 95.65217391304348 73.91304347826087 L 95.65217391304348 69.56521739130434 Z M 108.69565217391303 69.56521739130434 A 4.347826086956523 4.347826086956523 0 1 1 104.34782608695652 73.91304347826087 L 104.34782608695652 69.56521739130434 Z M 39.130434782608695 78.26086956521739 A 4.347826086956523 4.347826086956523 0 1 1 34.78260869565217 82.6086956521739 L 34.78260869565217 78.26086956521739 Z M 47.82608695652174 78.26086956521739 A 4.347826086956523 4.347826086956523 0 1 1 43.47826086956522 82.6086956521739 L 43.47826086956522 78.26086956521739 Z M 65.21739130434781 78.26086956521739 A 4.347826086956523 4.347826086956523 0 1 1 60.8695652173913 82.6086956521739 L 60.8695652173913 78.26086956521739 Z M 73.91304347826087 78.26086956521739 A 4.347826086956523 4.347826086956523 0 1 1 69.56521739130434 82.6086956521739 L 69.56521739130434 78.26086956521739 Z M 100.0 78.26086956521739 A 4.347826086956523 4.347826086956523 0 1 1 95.65217391304348 82.6086956521739 L 95.65217391304348 78.26086956521739 Z M 160.86956521739125 78.26086956521739 A 4.347826086956516 4.347826086956523 0 1 1 156.52173913043475 82.6086956521739 L 156.52173913043475 78.26086956521739 Z M 169.56521739130432 78.26086956521739 A 4.347826086956516 4.347826086956523 0 1 1 165.2173913043478 82.6086956521739 L 165.2173913043478 78.26086956521739 Z M 13.043478260869565 86.95652173913044 A 4.3478260869565215 4.347826086956523 0 1 1 8.695652173913043 91.30434782608697 L 8.695652173913043 86.95652173913044 Z M 30.43478260869565 86.95652173913044 A 4.3478260869565215 4.347826086956523 0 1 1 26.08695652173913 91.30434782608697 L 26.08695652173913 86.95652173913044 Z M 47.82608695652174 86.95652173913044 A 4.347826086956523 4.347826086956523 0 1 1 43.47826086956522 91.30434782608697 L 43.47826086956522 86.95652173913044 Z M 56.52173913043479 86.95652173913044 A 4.347826086956523 4.347826086956523 0 1 1 52.173913043478265 91.30434782608697 L 52.173913043478265 86.95652173913044 Z M 82.6086956521739 86.95652173913044 A 4.347826086956523 4.347826086956523 0 1 1 78.26086956521739 91.30434782608697 L 78.26086956521739 86.95652173913044 Z M 134.78260869565213 86.95652173913044 A 4.347826086956516 4.347826086956523 0 1 1 130.43478260869563 91.30434782608697 L 130.43478260869563 86.95652173913044 Z M 143.4782608695652 86.95652173913044 A 4.347826086956516 4.347826086956523 0 1 1 139.1304347826087 91.30434782608697 L 139.1304347826087 86.95652173913044 Z M 152.17391304347825 86.95652173913044 A 4.347826086956516 4.347826086956523 0 1 1 147.82608695652172 91.30434782608697 L 147.82608695652172 86.95652173913044 Z M 169.56521739130432 86.95652173913044 A 4.347826086956516 4.347826086956523 0 1 1 165.2173913043478 91.30434782608697 L 165.2173913043478 86.95652173913044 Z M 178.26086956521738 86.95652173913044 A 4.347826086956516 4.347826086956523 0 1 1 173.91304347826085 91.30434782608697 L 173.91304347826085 86.95652173913044 Z M 186.95652173913044 86.95652173913044 A 4.347826086956516 4.347826086956523 0 1 1 182.6086956521739 91.30434782608697 L 182.6086956521739 86.95652173913044 Z M 21.73913043478261 95.65217391304348 A 4.3478260869565215 4.347826086956523 0 1 1 17.391304347826086 100.0 L 17.391304347826086 95.65217391304348 Z M 39.130434782608695 95.65217391304348 A 4.347826086956523 4.347826086956523 0 1 1 34.78260869565217 100.0 L 34.78260869565217 95.65217391304348 Z M 47.82608695652174 95.65217391304348 A 4.347826086956523 4.347826086956523 0 1 1 43.47826086956522 100.0 L 43.47826086956522 95.65217391304348 Z M 56.52173913043479 95.65217391304348 A 4.347826086956523 4.347826086956523 0 1 1 52.173913043478265 100.0 L 52.173913043478265 95.65217391304348 Z M 65.21739130434781 95.65217391304348 A 4.347826086956523 4.347826086956523 0 1 1 60.8695652173913 100.0 L 60.8695652173913 95.65217391304348 Z M 73.91304347826087 95.65217391304348 A 4.347826086956523 4.347826086956523 0 1 1 69.56521739130434 100.0 L 69.56521739130434 95.65217391304348 Z M 100.0 95.65217391304348 A 4.347826086956523 4.347826086956523 0 1 1 95.65217391304348 100.0 L 95.65217391304348 95.65217391304348 Z M 108.69565217391303 95.65217391304348 A 4.347826086956523 4.347826086956523 0 1 1 104.34782608695652 100.0 L 104.34782608695652 95.65217391304348 Z M 126.08695652173913 95.65217391304348 A 4.347826086956523 4.347826086956523 0 1 1 121.73913043478261 100.0 L 121.73913043478261 95.65217391304348 Z M 134.78260869565213 95.65217391304348 A 4.347826086956516 4.347826086956523 0 1 1 130.43478260869563 100.0 L 130.43478260869563 95.65217391304348 Z M 143.4782608695652 95.65217391304348 A 4.347826086956516 4.347826086956523 0 1 1 139.1304347826087 100.0 L 139.1304347826087 95.65217391304348 Z M 178.26086956521738 95.65217391304348 A 4.347826086956516 4.347826086956523 0 1 1 173.91304347826085 100.0 L 173.91304347826085 95.65217391304348 Z M 186.95652173913044 95.65217391304348 A 4.347826086956516 4.347826086956523 0 1 1 182.6086956521739 100.0 L 182.6086956521739 95.65217391304348 Z M 39.130434782608695 104.34782608695652 A 4.347826086956523 4.347826086956523 0 1 1 34.78260869565217 108.69565217391303 L 34.78260869565217 104.34782608695652 Z M 47.82608695652174 104.34782608695652 A 4.347826086956523 4.347826086956523 0 1 1 43.47826086956522 108.69565217391303 L 43.47826086956522 104.34782608695652 Z M 56.52173913043479 104.34782608695652 A 4.347826086956523 4.347826086956523 0 1 1 52.173913043478265 108.69565217391303 L 52.173913043478265 104.34782608695652 Z M 73.91304347826087 104.34782608695652 A 4.347826086956523 4.347826086956523 0 1 1 69.56521739130434 108.69565217391303 L 69.56521739130434 104.34782608695652 Z M 82.6086956521739 104.34782608695652 A 4.347826086956523 4.347826086956523 0 1 1 78.26086956521739 108.69565217391303 L 78.26086956521739 104.34782608695652 Z M 91.30434782608697 104.34782608695652 A 4.347826086956523 4.347826086956523 0 1 1 86.95652173913044 108.69565217391303 L 86.95652173913044 104.34782608695652 Z M 126.08695652173913 104.34782608695652 A 4.347826086956523 4.347826086956523 0 1 1 121.73913043478261 108.69565217391303 L 121.73913043478261 104.34782608695652 Z M 134.78260869565213 104.34782608695652 A 4.347826086956516 4.347826086956523 0 1 1 130.43478260869563 108.69565217391303 L 130.43478260869563 104.34782608695652 Z M 143.4782608695652 104.34782608695652 A 4.347826086956516 4.347826086956523 0 1 1 139.1304347826087 108.69565217391303 L 139.1304347826087 104.34782608695652 Z M 152.17391304347825 104.34782608695652 A 4.347826086956516 4.347826086956523 0 1 1 147.82608695652172 108.69565217391303 L 147.82608695652172 104.34782608695652 Z M 169.56521739130432 104.34782608695652 A 4.347826086956516 4.347826086956523 0 1 1 165.2173913043478 108.69565217391303 L 165.2173913043478 104.34782608695652 Z M 178.26086956521738 104.34782608695652 A 4.347826086956516 4.347826086956523 0 1 1 173.91304347826085 108.69565217391303 L 173.91304347826085 104.34782608695652 Z M 30.43478260869565 113.04347826086956 A 4.3478260869565215 4.347826086956523 0 1 1 26.08695652173913 117.3913043478261 L 26.08695652173913 113.04347826086956 Z M 39.130434782608695 113.04347826086956 A 4.347826086956523 4.347826086956523 0 1 1 34.78260869565217 117.3913043478261 L 34.78260869565217 113.04347826086956 Z M 65.21739130434781 113.04347826086956 A 4.347826086956523 4.347826086956523 0 1 1 60.8695652173913 117.3913043478261 L 60.8695652173913 113.04347826086956 Z M 73.91304347826087 113.04347826086956 A 4.347826086956523 4.347826086956523 0 1 1 69.56521739130434 117.3913043478261 L 69.56521739130434 113.04347826086956 Z M 117.3913043478261 113.04347826086956 A 4.347826086956523 4.347826086956523 0 1 1 113.04347826086956 117.3913043478261 L 113.04347826086956 113.04347826086956 Z M 134.78260869565213 113.04347826086956 A 4.347826086956516 4.347826086956523 0 1 1 130.43478260869563 117.3913043478261 L 130.43478260869563 113.04347826086956 Z M 143.4782608695652 113.04347826086956 A 4.347826086956516 4.347826086956523 0 1 1 139.1304347826087 117.3913043478261 L 139.1304347826087 113.04347826086956 Z M 152.17391304347825 113.04347826086956 A 4.347826086956516 4.347826086956523 0 1 1 147.82608695652172 117.3913043478261 L 147.82608695652172 113.04347826086956 Z M 160.86956521739125 113.04347826086956 A 4.347826086956516 4.347826086956523 0 1 1 156.52173913043475 117.3913043478261 L 156.52173913043475 113.04347826086956 Z M 169.56521739130432 113.04347826086956 A 4.347826086956516 4.347826086956523 0 1 1 165.2173913043478 117.3913043478261 L 165.2173913043478 113.04347826086956 Z M 178.26086956521738 113.04347826086956 A 4.347826086956516 4.347826086956523 0 1 1 173.91304347826085 117.3913043478261 L 173.91304347826085 113.04347826086956 Z M 186.95652173913044 113.04347826086956 A 4.347826086956516 4.347826086956523 0 1 1 182.6086956521739 117.3913043478261 L 182.6086956521739 113.04347826086956 Z M 82.6086956521739 121.73913043478261 A 4.347826086956523 4.347826086956523 0 1 1 78.26086956521739 126.08695652173913 L 78.26086956521739 121.73913043478261 Z M 91.30434782608697 121.73913043478261 A 4.347826086956523 4.347826086956523 0 1 1 86.95652173913044 126.08695652173913 L 86.95652173913044 121.73913043478261 Z M 126.08695652173913 121.73913043478261 A 4.347826086956523 4.347826086956523 0 1 1 121.73913043478261 126.08695652173913 L 121.73913043478261 121.73913043478261 Z M 186.95652173913044 121.73913043478261 A 4.347826086956516 4.347826086956523 0 1 1 182.6086956521739 126.08695652173913 L 182.6086956521739 121.73913043478261 Z M 82.6086956521739 130.43478260869563 A 4.347826086956523 4.347826086956516 0 1 1 78.26086956521739 134.78260869565213 L 78.26086956521739 130.43478260869563 Z M 108.69565217391303 130.43478260869563 A 4.347826086956523 4.347826086956516 0 1 1 104.34782608695652 134.78260869565213 L 104.34782608695652 130.43478260869563 Z M 134.78260869565213 130.43478260869563 A 4.347826086956516 4.347826086956516 0 1 1 130.43478260869563 134.78260869565213 L 130.43478260869563 130.43478260869563 Z M 169.56521739130432 130.43478260869563 A 4.347826086956516 4.347826086956516 0 1 1 165.2173913043478 134.78260869565213 L 165.2173913043478 130.43478260869563 Z M 91.30434782608697 139.1304347826087 A 4.347826086956523 4.347826086956516 0 1 1 86.95652173913044 143.4782608695652 L 86.95652173913044 139.1304347826087 Z M 100.0 139.1304347826087 A 4.347826086956523 4.347826086956516 0 1 1 95.65217391304348 143.4782608695652 L 95.65217391304348 139.1304347826087 Z M 117.3913043478261 139.1304347826087 A 4.347826086956523 4.347826086956516 0 1 1 113.04347826086956 143.4782608695652 L 113.04347826086956 139.1304347826087 Z M 126.08695652173913 139.1304347826087 A 4.347826086956523 4.347826086956516 0 1 1 121.73913043478261 143.4782608695652 L 121.73913043478261 139.1304347826087 Z M 134.78260869565213 139.1304347826087 A 4.347826086956516 4.347826086956516 0 1 1 130.43478260869563 143.4782608695652 L 130.43478260869563 139.1304347826087 Z M 160.86956521739125 139.1304347826087 A 4.347826086956516 4.347826086956516 0 1 1 156.52173913043475 143.4782608695652 L 156.52173913043475 139.1304347826087 Z M 169.56521739130432 139.1304347826087 A 4.347826086956516 4.347826086956516 0 1 1 165.2173913043478 143.4782608695652 L 165.2173913043478 139.1304347826087 Z M 178.26086956521738 139.1304347826087 A 4.347826086956516 4.347826086956516 0 1 1 173.91304347826085 143.4782608695652 L 173.91304347826085 139.1304347826087 Z M 186.95652173913044 139.1304347826087 A 4.347826086956516 4.347826086956516 0 1 1 182.6086956521739 143.4782608695652 L 182.6086956521739 139.1304347826087 Z M 82.6086956521739 147.82608695652172 A 4.347826086956523 4.347826086956516 0 1 1 78.26086956521739 152.17391304347825 L 78.26086956521739 147.82608695652172 Z M 91.30434782608697 147.82608695652172 A 4.347826086956523 4.347826086956516 0 1 1 86.95652173913044 152.17391304347825 L 86.95652173913044 147.82608695652172 Z M 100.0 147.82608695652172 A 4.347826086956523 4.347826086956516 0 1 1 95.65217391304348 152.17391304347825 L 95.65217391304348 147.82608695652172 Z M 152.17391304347825 147.82608695652172 A 4.347826086956516 4.347826086956516 0 1 1 147.82608695652172 152.17391304347825 L 147.82608695652172 147.82608695652172 Z M 160.86956521739125 147.82608695652172 A 4.347826086956516 4.347826086956516 0 1 1 156.52173913043475 152.17391304347825 L 156.52173913043475 147.82608695652172 Z M 169.56521739130432 147.82608695652172 A 4.347826086956516 4.347826086956516 0 1 1 165.2173913043478 152.17391304347825 L 165.2173913043478 147.82608695652172 Z M 178.26086956521738 147.82608695652172 A 4.347826086956516 4.347826086956516 0 1 1 173.91304347826085 152.17391304347825 L 173.91304347826085 147.82608695652172 Z M 186.95652173913044 147.82608695652172 A 4.347826086956516 4.347826086956516 0 1 1 182.6086956521739 152.17391304347825 L 182.6086956521739 147.82608695652172 Z M 82.6086956521739 156.52173913043475 A 4.347826086956523 4.347826086956516 0 1 1 78.26086956521739 160.86956521739125 L 78.26086956521739 156.52173913043475 Z M 91.30434782608697 156.52173913043475 A 4.347826086956523 4.347826086956516 0 1 1 86.95652173913044 160.86956521739125 L 86.95652173913044 156.52173913043475 Z M 117.3913043478261 156.52173913043475 A 4.347826086956523 4.347826086956516 0 1 1 113.04347826086956 160.86956521739125 L 113.04347826086956 156.52173913043475 Z M 126.08695652173913 156.52173913043475 A 4.347826086956523 4.347826086956516 0 1 1 121.73913043478261 160.86956521739125 L 121.73913043478261 156.52173913043475 Z M 134.78260869565213 156.52173913043475 A 4.347826086956516 4.347826086956516 0 1 1 130.43478260869563 160.86956521739125 L 130.43478260869563 156.52173913043475 Z M 152.17391304347825 156.52173913043475 A 4.347826086956516 4.347826086956516 0 1 1 147.82608695652172 160.86956521739125 L 147.82608695652172 156.52173913043475 Z M 108.69565217391303 165.2173913043478 A 4.347826086956523 4.347826086956516 0 1 1 104.34782608695652 169.56521739130432 L 104.34782608695652 165.2173913043478 Z M 126.08695652173913 165.2173913043478 A 4.347826086956523 4.347826086956516 0 1 1 121.73913043478261 169.56521739130432 L 121.73913043478261 165.2173913043478 Z M 134.78260869565213 165.2173913043478 A 4.347826086956516 4.347826086956516 0 1 1 130.43478260869563 169.56521739130432 L 130.43478260869563 165.2173913043478 Z M 143.4782608695652 165.2173913043478 A 4.347826086956516 4.347826086956516 0 1 1 139.1304347826087 169.56521739130432 L 139.1304347826087 165.2173913043478 Z M 152.17391304347825 165.2173913043478 A 4.347826086956516 4.347826086956516 0 1 1 147.82608695652172 169.56521739130432 L 147.82608695652172 165.2173913043478 Z M 178.26086956521738 165.2173913043478 A 4.347826086956516 4.347826086956516 0 1 1 173.91304347826085 169.56521739130432 L 173.91304347826085 165.2173913043478 Z M 186.95652173913044 165.2173913043478 A 4.347826086956516 4.347826086956516 0 1 1 182.6086956521739 169.56521739130432 L 182.6086956521739 165.2173913043478 Z M 91.30434782608697 173.91304347826085 A 4.347826086956523 4.347826086956516 0 1 1 86.95652173913044 178.26086956521738 L 86.95652173913044 173.91304347826085 Z M 160.86956521739125 173.91304347826085 A 4.347826086956516 4.347826086956516 0 1 1 156.52173913043475 178.26086956521738 L 156.52173913043475 173.91304347826085 Z M 169.56521739130432 173.91304347826085 A 4.347826086956516 4.347826086956516 0 1 1 165.2173913043478 178.26086956521738 L 165.2173913043478 173.91304347826085 Z M 178.26086956521738 173.91304347826085 A 4.347826086956516 4.347826086956516 0 1 1 173.91304347826085 178.26086956521738 L 173.91304347826085 173.91304347826085 Z M 186.95652173913044 173.91304347826085 A 4.347826086956516 4.347826086956516 0 1 1 182.6086956521739 178.26086956521738 L 182.6086956521739 173.91304347826085 Z M 91.30434782608697 182.6086956521739 A 4.347826086956523 4.347826086956516 0 1 1 86.95652173913044 186.95652173913044 L 86.95652173913044 182.6086956521739 Z M 100.0 182.6086956521739 A 4.347826086956523 4.347826086956516 0 1 1 95.65217391304348 186.95652173913044 L 95.65217391304348 182.6086956521739 Z M 126.08695652173913 182.6086956521739 A 4.347826086956523 4.347826086956516 0 1 1 121.73913043478261 186.95652173913044 L 121.73913043478261 182.6086956521739 Z M 134.78260869565213 182.6086956521739 A 4.347826086956516 4.347826086956516 0 1 1 130.43478260869563 186.95652173913044 L 130.43478260869563 182.6086956521739 Z M 152.17391304347825 182.6086956521739 A 4.347826086956516 4.347826086956516 0 1 1 147.82608695652172 186.95652173913044 L 147.82608695652172 182.6086956521739 Z M 160.86956521739125 182.6086956521739 A 4.347826086956516 4.347826086956516 0 1 1 156.52173913043475 186.95652173913044 L 156.52173913043475 182.6086956521739 Z M 169.56521739130432 182.6086956521739 A 4.347826086956516 4.347826086956516 0 1 1 165.2173913043478 186.95652173913044 L 165.2173913043478 182.6086956521739 Z" fill="#111827" fill-opacity="1"/><path d="M 8.695652173913043 8.695652173913043 h 60.8695652173913 v 60.8695652173913 h -60.8695652173913 Z M 17.391304347826086 17.391304347826086 h 43.47826086956521 v 43.47826086956521 h -43.47826086956521 Z" fill="#111827" fill-opacity="1" fill-rule="evenodd"/><path d="M 26.08695652173913 26.08695652173913 h 26.08695652173913 v 26.08695652173913 h -26.08695652173913 Z" fill="#111827" fill-opacity="1"/><path d="M 130.43478260869563 8.695652173913043 h 60.86956521739131 v 60.8695652173913 h -60.86956521739131 Z M 139.13043478260866 17.391304347826086 h 43.47826086956522 v 43.478260869565204 h -43.47826086956522 Z" fill="#111827" fill-opacity="1" fill-rule="evenodd"/><path d="M 147.82608695652172 26.08695652173913 h 26.086956521739125 v 26.08695652173913 h -26.086956521739125 Z" fill="#111827" fill-opacity="1"/><path d="M 8.695652173913043 130.43478260869563 h 60.8695652173913 v 60.86956521739131 h -60.8695652173913 Z M 17.391304347826086 139.13043478260866 h 43.47826086956521 v 43.478260869565226 h -43.47826086956521 Z" fill="#111827" fill-opacity="1" fill-rule="evenodd"/><path d="M 26.08695652173913 147.82608695652172 h 26.08695652173913 v 26.086956521739125 h -26.08695652173913 Z" fill="#111827" fill-opacity="1"/></svg>