<svg xmlns="http://www.w3.org/2000/svg" viewBox="0 0 200 200" width="200" height="200"><rect width="200" height="200" fill="#ffffff" fill-opacity="1"/><path d="M 86.95652173913044 8.695652173913043 L 95.1304347826087 8.695652173913043 L 95.1304347826087 16.869565217391305 L 86.95652173913044 16.869565217391305 Z M 96.17391304347827 8.695652173913043 L 104.34782608695653 8.695652173913043 L 104.34782608695653 17.391304347826086 L 96.17391304347827 17.391304347826086 Z M 113.04347826086956 8.695652173913043 L 121.73913043478261 8.695652173913043 L 121.73913043478261 16.869565217391305 L 113.04347826086956 16.869565217391305 Z M 86.95652173913044 17.913043478260867 L 95.65217391304348 17.913043478260867 L 95.65217391304348 25.565217391304348 L 86.95652173913044 25.565217391304348 Z M 104.34782608695652 17.391304347826086 L 112.52173913043478 17.391304347826086 L 112.52173913043478 26.08695652173913 L 104.34782608695652 26.08695652173913 Z M 113.56521739130434 17.913043478260867 L 121.73913043478261 17.913043478260867 L 121.73913043478261 26.08695652173913 L 113.56521739130434 26.08695652173913 Z M 78.26086956521739 26.08695652173913 L 86.43478260869566 26.08695652173913 L 86.43478260869566 34.26086956521739 L 78.26086956521739 34.26086956521739 Z M 87.47826086956522 26.60869565217391 L 95.1304347826087 26.60869565217391 L 95.1304347826087 34.26086956521739 L 87.47826086956522 34.26086956521739 Z M 96.17391304347827 26.08695652173913 L 104.34782608695653 26.08695652173913 L 104.34782608695653 34.78260869565217 L 96.17391304347827 34.78260869565217 Z M 78.26086956521739 35.30434782608695 L 86.43478260869566 35.30434782608695 L 86.43478260869566 43.47826086956522 L 78.26086956521739 43.47826086956522 Z M 87.47826086956522 35.30434782608695 L 95.65217391304348 35.30434782608695 L 95.65217391304348 42.95652173913044 L 87.47826086956522 42.95652173913044 Z M 113.04347826086956 34.78260869565217 L 121.73913043478261 34.78260869565217 L 121.73913043478261 43.47826086956522 L 113.04347826086956 43.47826086956522 Z M 86.95652173913044 44.0 L 95.65217391304348 44.0 L 95.65217391304348 52.173913043478265 L 86.95652173913044 52.173913043478265 Z M 104.34782608695652 43.47826086956522 L 113.04347826086956 43.47826086956522 L 113.04347826086956 51.652173913043484 L 104.34782608695652 51.652173913043484 Z M 95.65217391304348 52.173913043478265 L 103.82608695652175 52.173913043478265 L 103.82608695652175 60.34782608695653 L 95.65217391304348 60.34782608695653 Z M 104.8695652173913 52.69565217391305 L 113.04347826086956 52.69565217391305 L 113.04347826086956 60.86956521739131 L 104.8695652173913 60.86956521739131 Z M 78.26086956521739 60.8695652173913 L 86.95652173913044 60.8695652173913 L 86.95652173913044 69.56521739130434 L 78.26086956521739 69.56521739130434 Z M 95.65217391304348 61.39130434782608 L 104.34782608695653 61.39130434782608 L 104.34782608695653 69.04347826086956 L 95.65217391304348 69.04347826086956 Z M 113.04347826086956 60.8695652173913 L 121.73913043478261 60.8695652173913 L 121.73913043478261 69.56521739130434 L 113.04347826086956 69.56521739130434 Z M 86.95652173913044 69.56521739130434 L 95.1304347826087 69.56521739130434 L 95.1304347826087 78.26086956521739 L 86.95652173913044 78.26086956521739 Z M 96.17391304347827 70.08695652173913 L 103.82608695652175 70.08695652173913 L 103.82608695652175 77.73913043478261 L 96.17391304347827 77.73913043478261 Z M 104.8695652173913 69.56521739130434 L 113.04347826086956 69.56521739130434 L 113.04347826086956 78.26086956521739 L 104.8695652173913 78.26086956521739 Z M 34.78260869565217 78.26086956521739 L 42.95652173913044 78.26086956521739 L 42.95652173913044 86.95652173913044 L 34.78260869565217 86.95652173913044 Z M 44.0 78.26086956521739 L 52.173913043478265 78.26086956521739 L 52.173913043478265 86.43478260869566 L 44.0 86.43478260869566 Z M 60.8695652173913 78.26086956521739 L 69.04347826086956 78.26086956521739 L 69.04347826086956 86.95652173913044 L 60.8695652173913 86.95652173913044 Z M 70.08695652173913 78.26086956521739 L 78.26086956521739 78.26086956521739 L 78.26086956521739 86.95652173913044 L 70.08695652173913 86.95652173913044 Z M 95.65217391304348 78.78260869565217 L 104.34782608695653 78.78260869565217 L 104.34782608695653 86.95652173913044 L 95.65217391304348 86.95652173913044 Z M 156.52173913043475 78.26086956521739 L 164.695652173913 78.26086956521739 L 164.695652173913 86.95652173913044 L 156.52173913043475 86.95652173913044 Z M 165.7391304347826 78.26086956521739 L 173.91304347826085 78.26086956521739 L 173.91304347826085 86.43478260869566 L 165.7391304347826 86.43478260869566 Z M 8.695652173913043 86.95652173913044 L 17.391304347826086 86.95652173913044 L 17.391304347826086 95.65217391304348 L 8.695652173913043 95.65217391304348 Z M 26.08695652173913 86.95652173913044 L 34.78260869565217 86.95652173913044 L 34.78260869565217 95.65217391304348 L 26.08695652173913 95.65217391304348 Z M 43.47826086956522 87.47826086956522 L 51.652173913043484 87.47826086956522 L 51.652173913043484 95.1304347826087 L 43.47826086956522 95.1304347826087 Z M 52.69565217391305 86.95652173913044 L 60.86956521739131 86.95652173913044 L 60.86956521739131 95.1304347826087 L 52.69565217391305 95.1304347826087 Z M 78.26086956521739 86.95652173913044 L 86.95652173913044 86.95652173913044 L 86.95652173913044 95.65217391304348 L 78.26086956521739 95.65217391304348 Z M 130.43478260869563 86.95652173913044 L 138.60869565217388 86.95652173913044 L 138.60869565217388 95.1304347826087 L 130.43478260869563 95.1304347826087 Z M 139.65217391304347 86.95652173913044 L 147.30434782608694 86.95652173913044 L 147.30434782608694 95.1304347826087 L 139.65217391304347 95.1304347826087 Z M 148.3478260869565 86.95652173913044 L 156.52173913043475 86.95652173913044 L 156.52173913043475 95.65217391304348 L 148.3478260869565 95.65217391304348 Z M 165.2173913043478 87.47826086956522 L 173.39130434782606 87.47826086956522 L 173.39130434782606 95.65217391304348 L 165.2173913043478 95.65217391304348 Z M 174.43478260869563 86.95652173913044 L 182.0869565217391 86.95652173913044 L 182.0869565217391 95.1304347826087 L 174.43478260869563 95.1304347826087 Z M 183.1304347826087 86.95652173913044 L 191.30434782608694 86.95652173913044 L 191.30434782608694 95.1304347826087 L 183.1304347826087 95.1304347826087 Z M 17.391304347826086 95.65217391304348 L 26.08695652173913 95.65217391304348 L 26.08695652173913 104.34782608695653 L 17.391304347826086 104.34782608695653 Z M 34.78260869565217 95.65217391304348 L 42.95652173913044 95.65217391304348 L 42.95652173913044 103.82608695652175 L 34.78260869565217 103.82608695652175 Z M 44.0 96.17391304347827 L 51.652173913043484 96.17391304347827 L 51.652173913043484 103.82608695652175 L 44.0 103.82608695652175 Z M 52.69565217391305 96.17391304347827 L 60.34782608695653 96.17391304347827 L 60.34782608695653 103.82608695652175 L 52.69565217391305 103.82608695652175 Z M 61.39130434782608 95.65217391304348 L 69.04347826086956 95.65217391304348 L 69.04347826086956 104.34782608695653 L 61.39130434782608 104.34782608695653 Z M 70.08695652173913 95.65217391304348 L 78.26086956521739 95.65217391304348 L 78.26086956521739 103.82608695652175 L 70.08695652173913 103.82608695652175 Z M 95.65217391304348 95.65217391304348 L 103.82608695652175 95.65217391304348 L 103.82608695652175 104.34782608695653 L 95.65217391304348 104.34782608695653 Z M 104.8695652173913 95.65217391304348 L 113.04347826086956 95.65217391304348 L 113.04347826086956 104.34782608695653 L 104.8695652173913 104.34782608695653 Z M 121.73913043478261 95.65217391304348 L 129.91304347826087 95.65217391304348 L 129.91304347826087 103.82608695652175 L 121.73913043478261 103.82608695652175 Z M 130.9565217391304 96.17391304347827 L 138.60869565217388 96.17391304347827 L 138.60869565217388 103.82608695652175 L 130.9565217391304 103.82608695652175 Z M 139.65217391304347 96.17391304347827 L 147.82608695652172 96.17391304347827 L 147.82608695652172 103.82608695652175 L 139.65217391304347 103.82608695652175 Z M 173.91304347826085 96.17391304347827 L 182.0869565217391 96.17391304347827 L 182.0869565217391 103.82608695652175 L 173.91304347826085 103.82608695652175 Z M 183.1304347826087 96.17391304347827 L 191.30434782608694 96.17391304347827 L 191.30434782608694 104.34782608695653 L 183.1304347826087 104.34782608695653 Z M 34.78260869565217 104.8695652173913 L 42.95652173913044 104.8695652173913 L 42.95652173913044 112.52173913043478 L 34.78260869565217 112.52173913043478 Z M 44.0 104.8695652173913 L 51.652173913043484 104.8695652173913 L 51.652173913043484 113.04347826086956 L 44.0 113.04347826086956 Z M 52.69565217391305 104.8695652173913 L 60.86956521739131 104.8695652173913 L 60.86956521739131 113.04347826086956 L 52.69565217391305 113.04347826086956 Z M 69.56521739130434 104.8695652173913 L 77.73913043478261 104.8695652173913 L 77.73913043478261 112.52173913043478 L 69.56521739130434 112.52173913043478 Z M 78.78260869565217 104.34782608695652 L 86.43478260869566 104.34782608695652 L 86.43478260869566 113.04347826086956 L 78.78260869565217 113.04347826086956 Z M 87.47826086956522 104.34782608695652 L 95.65217391304348 104.34782608695652 L 95.65217391304348 113.04347826086956 L 87.47826086956522 113.04347826086956 Z M 121.73913043478261 104.8695652173913 L 129.91304347826087 104.8695652173913 L 129.91304347826087 113.04347826086956 L 121.73913043478261 113.04347826086956 Z M 130.9565217391304 104.8695652173913 L 138.60869565217388 104.8695652173913 L 138.60869565217388 112.52173913043478 L 130.9565217391304 112.52173913043478 Z M 139.65217391304347 104.8695652173913 L 147.30434782608694 104.8695652173913 L 147.30434782608694 112.52173913043478 L 139.65217391304347 112.52173913043478 Z M 148.3478260869565 104.34782608695652 L 156.52173913043475 104.34782608695652 L 156.52173913043475 112.52173913043478 L 148.3478260869565 112.52173913043478 Z M 165.2173913043478 104.34782608695652 L 173.39130434782606 104.34782608695652 L 173.39130434782606 112.52173913043478 L 165.2173913043478 112.52173913043478 Z M 174.43478260869563 104.8695652173913 L 182.60869565217388 104.8695652173913 L 182.60869565217388 112.52173913043478 L 174.43478260869563 112.52173913043478 Z M 26.08695652173913 113.04347826086956 L 34.26086956521739 113.04347826086956 L 34.26086956521739 121.73913043478261 L 26.08695652173913 121.73913043478261 Z M 35.30434782608695 113.56521739130434 L 43.47826086956522 113.56521739130434 L 43.47826086956522 121.73913043478261 L 35.30434782608695 121.73913043478261 Z M 60.8695652173913 113.04347826086956 L 69.04347826086956 113.04347826086956 L 69.04347826086956 121.73913043478261 L 60.8695652173913 121.73913043478261 Z M 70.08695652173913 113.56521739130434 L 78.26086956521739 113.56521739130434 L 78.26086956521739 121.73913043478261 L 70.08695652173913 121.73913043478261 Z M 113.04347826086956 113.04347826086956 L 121.73913043478261 113.04347826086956 L 121.73913043478261 121.73913043478261 L 113.04347826086956 121.73913043478261 Z M 130.43478260869563 113.56521739130434 L 138.60869565217388 113.56521739130434 L 138.60869565217388 121.73913043478261 L 130.43478260869563 121.73913043478261 Z M 139.65217391304347 113.56521739130434 L 147.30434782608694 113.56521739130434 L 147.30434782608694 121.73913043478261 L 139.65217391304347 121.73913043478261 Z M 148.3478260869565 113.56521739130434 L 155.99999999999997 113.56521739130434 L 155.99999999999997 121.73913043478261 L 148.3478260869565 121.73913043478261 Z M 157.04347826086953 113.04347826086956 L 164.695652173913 113.04347826086956 L 164.695652173913 121.73913043478261 L 157.04347826086953 121.73913043478261 Z M 165.7391304347826 113.56521739130434 L 173.39130434782606 113.56521739130434 L 173.39130434782606 121.73913043478261 L 165.7391304347826 121.73913043478261 Z M 174.43478260869563 113.56521739130434 L 182.0869565217391 113.56521739130434 L 182.0869565217391 121.73913043478261 L 174.43478260869563 121.73913043478261 Z M 183.1304347826087 113.04347826086956 L 191.30434782608694 113.04347826086956 L 191.30434782608694 121.21739130434783 L 183.1304347826087 121.21739130434783 Z M 78.26086956521739 121.73913043478261 L 86.43478260869566 121.73913043478261 L 86.43478260869566 129.91304347826087 L 78.26086956521739 129.91304347826087 Z M 87.47826086956522 121.73913043478261 L 95.65217391304348 121.73913043478261 L 95.65217391304348 130.43478260869566 L 87.47826086956522 130.43478260869566 Z M 121.73913043478261 121.73913043478261 L 130.43478260869566 121.73913043478261 L 130.43478260869566 130.43478260869566 L 121.73913043478261 130.43478260869566 Z M 182.6086956521739 122.26086956521739 L 191.30434782608694 122.26086956521739 L 191.30434782608694 130.43478260869566 L 182.6086956521739 130.43478260869566 Z M 78.26086956521739 130.9565217391304 L 86.95652173913044 130.9565217391304 L 86.95652173913044 139.13043478260866 L 78.26086956521739 139.13043478260866 Z M 104.34782608695652 130.43478260869563 L 113.04347826086956 130.43478260869563 L 113.04347826086956 139.13043478260866 L 104.34782608695652 139.13043478260866 Z M 130.43478260869563 130.43478260869563 L 139.13043478260866 130.43478260869563 L 139.13043478260866 138.60869565217388 L 130.43478260869563 138.60869565217388 Z M 165.2173913043478 130.43478260869563 L 173.91304347826085 130.43478260869563 L 173.91304347826085 138.60869565217388 L 165.2173913043478 138.60869565217388 Z M 86.95652173913044 139.1304347826087 L 95.1304347826087 139.1304347826087 L 95.1304347826087 147.30434782608694 L 86.95652173913044 147.30434782608694 Z M 96.17391304347827 139.1304347826087 L 104.34782608695653 139.1304347826087 L 104.34782608695653 147.30434782608694 L 96.17391304347827 147.30434782608694 Z M 113.04347826086956 139.1304347826087 L 121.21739130434783 139.1304347826087 L 121.21739130434783 147.82608695652172 L 113.04347826086956 147.82608695652172 Z M 122.26086956521739 139.1304347826087 L 129.91304347826087 139.1304347826087 L 129.91304347826087 147.82608695652172 L 122.26086956521739 147.82608695652172 Z M 130.9565217391304 139.65217391304347 L 139.13043478260866 139.65217391304347 L 139.13043478260866 147.82608695652172 L 130.9565217391304 147.82608695652172 Z M 156.52173913043475 139.1304347826087 L 164.695652173913 139.1304347826087 L 164.695652173913 147.30434782608694 L 156.52173913043475 147.30434782608694 Z M 165.7391304347826 139.65217391304347 L 173.39130434782606 139.65217391304347 L 173.39130434782606 147.30434782608694 L 165.7391304347826 147.30434782608694 Z M 174.43478260869563 139.1304347826087 L 182.0869565217391 139.1304347826087 L 182.0869565217391 147.30434782608694 L 174.43478260869563 147.30434782608694 Z M 183.1304347826087 139.1304347826087 L 191.30434782608694 139.1304347826087 L 191.30434782608694 147.30434782608694 L 183.1304347826087 147.30434782608694 Z M 78.26086956521739 147.82608695652172 L 86.43478260869566 147.82608695652172 L 86.43478260869566 155.99999999999997 L 78.26086956521739 155.99999999999997 Z M 87.47826086956522 148.3478260869565 L 95.1304347826087 148.3478260869565 L 95.1304347826087 155.99999999999997 L 87.47826086956522 155.99999999999997 Z M 96.17391304347827 148.3478260869565 L 104.34782608695653 148.3478260869565 L 104.34782608695653 156.52173913043475 L 96.17391304347827 156.52173913043475 Z M 147.82608695652172 147.82608695652172 L 155.99999999999997 147.82608695652172 L 155.99999999999997 155.99999999999997 L 147.82608695652172 155.99999999999997 Z M 157.04347826086953 148.3478260869565 L 164.695652173913 148.3478260869565 L 164.695652173913 156.52173913043475 L 157.04347826086953 156.52173913043475 Z M 165.7391304347826 148.3478260869565 L 173.39130434782606 148.3478260869565 L 173.39130434782606 156.52173913043475 L 165.7391304347826 156.52173913043475 Z M 174.43478260869563 148.3478260869565 L 182.0869565217391 148.3478260869565 L 182.0869565217391 156.52173913043475 L 174.43478260869563 156.52173913043475 Z M 183.1304347826087 148.3478260869565 L 191.30434782608694 148.3478260869565 L 191.30434782608694 156.52173913043475 L 183.1304347826087 156.52173913043475 Z M 78.26086956521739 157.04347826086953 L 86.43478260869566 157.04347826086953 L 86.43478260869566 165.21739130434779 L 78.26086956521739 165.21739130434779 Z M 87.47826086956522 157.04347826086953 L 95.65217391304348 157.04347826086953 L 95.65217391304348 165.21739130434779 L 87.47826086956522 165.21739130434779 Z M 113.04347826086956 156.52173913043475 L 121.21739130434783 156.52173913043475 L 121.21739130434783 165.21739130434779 L 113.04347826086956 165.21739130434779 Z M 122.26086956521739 156.52173913043475 L 129.91304347826087 156.52173913043475 L 129.91304347826087 164.695652173913 L 122.26086956521739 164.695652173913 Z M 130.9565217391304 156.52173913043475 L 139.13043478260866 156.52173913043475 L 139.13043478260866 164.695652173913 L 130.9565217391304 164.695652173913 Z M 147.82608695652172 157.04347826086953 L 156.52173913043475 157.04347826086953 L 156.52173913043475 164.695652173913 L 147.82608695652172 164.695652173913 Z M 104.34782608695652 165.2173913043478 L 113.04347826086956 165.2173913043478 L 113.04347826086956 173.91304347826085 L 104.34782608695652 173.91304347826085 Z M 121.73913043478261 165.7391304347826 L 129.91304347826087 165.7391304347826 L 129.91304347826087 173.91304347826085 L 121.73913043478261 173.91304347826085 Z M 130.9565217391304 165.7391304347826 L 138.60869565217388 165.7391304347826 L 138.60869565217388 173.91304347826085 L 130.9565217391304 173.91304347826085 Z M 139.65217391304347 165.2173913043478 L 147.30434782608694 165.2173913043478 L 147.30434782608694 173.91304347826085 L 139.65217391304347 173.91304347826085 Z M 148.3478260869565 165.7391304347826 L 156.52173913043475 165.7391304347826 L 156.52173913043475 173.91304347826085 L 148.3478260869565 173.91304347826085 Z M 173.91304347826085 165.2173913043478 L 182.0869565217391 165.2173913043478 L 182.0869565217391 173.39130434782606 L 173.91304347826085 173.39130434782606 Z M 183.1304347826087 165.2173913043478 L 191.30434782608694 165.2173913043478 L 191.30434782608694 173.39130434782606 L 183.1304347826087 173.39130434782606 Z M 86.95652173913044 173.91304347826085 L 95.65217391304348 173.91304347826085 L 95.65217391304348 182.0869565217391 L 86.95652173913044 182.0869565217391 Z M 156.52173913043475 173.91304347826085 L 164.695652173913 173.91304347826085 L 164.695652173913 182.0869565217391 L 156.52173913043475 182.0869565217391 Z M 165.7391304347826 173.91304347826085 L 173.39130434782606 173.91304347826085 L 173.39130434782606 182.0869565217391 L 165.7391304347826 182.0869565217391 Z M 174.43478260869563 174.43478260869563 L 182.0869565217391 174.43478260869563 L 182.0869565217391 182.60869565217388 L 174.43478260869563 182.60869565217388 Z M 183.1304347826087 174.43478260869563 L 191.30434782608694 174.43478260869563 L 191.30434782608694 182.60869565217388 L 183.1304347826087 182.60869565217388 Z M 86.95652173913044 183.1304347826087 L 95.1304347826087 183.1304347826087 L 95.1304347826087 191.30434782608694 L 86.95652173913044 191.30434782608694 Z M 96.17391304347827 182.6086956521739 L 104.34782608695653 182.6086956521739 L 104.34782608695653 191.30434782608694 L 96.17391304347827 191.30434782608694 Z M 121.73913043478261 182.6086956521739 L 129.91304347826087 182.6086956521739 L 129.91304347826087 191.30434782608694 L 121.73913043478261 191.30434782608694 Z M 130.9565217391304 182.6086956521739 L 139.13043478260866 182.6086956521739 L 139.13043478260866 191.30434782608694 L 130.9565217391304 191.30434782608694 Z M 147.82608695652172 182.6086956521739 L 155.99999999999997 182.6086956521739 L 155.99999999999997 191.30434782608694 L 147.82608695652172 191.30434782608694 Z M 157.04347826086953 183.1304347826087 L 164.695652173913 183.1304347826087 L 164.695652173913 191.30434782608694 L 157.04347826086953 191.30434782608694 Z M 165.7391304347826 183.1304347826087 L 173.91304347826085 183.1304347826087 L 173.91304347826085 191.30434782608694 L 165.7391304347826 191.30434782608694 Z" fill="#111827" fill-opacity="1"/><path d="M 8.695652173913043 8.695652173913043 h 60.8695652173913 v 60.8695652173913 h -60.8695652173913 Z M 17.391304347826086 17.391304347826086 h 43.47826086956521 v 43.47826086956521 h -43.47826086956521 Z" fill="#111827" fill-opacity="1" fill-rule="evenodd"/><path d="M 26.08695652173913 26.08695652173913 h 26.08695652173913 v 26.08695652173913 h -26.08695652173913 Z" fill="#111827" fill-opacity="1"/><path d="M 130.43478260869563 8.695652173913043 h 60.86956521739131 v 60.8695652173913 h -60.86956521739131 Z M 139.13043478260866 17.391304347826086 h 43.47826086956522 v 43.478260869565204 h -43.47826086956522 Z" fill="#111827" fill-opacity="1" fill-rule="evenodd"/><path d="M 147.82608695652172 26.08695652173913 h 26.086956521739125 v 26.08695652173913 h -26.086956521739125 Z" fill="#111827" fill-opacity="1"/><path d="M 8.695652173913043 130.43478260869563 h 60.8695652173913 v 60.86956521739131 h -60.8695652173913 Z M 17.391304347826086 139.13043478260866 h 43.47826086956521 v 43.478260869565226 h -43.47826086956521 Z" fill="#111827" fill-opacity="1" fill-rule="evenodd"/><path d="M 26.08695652173913 147.82608695652172 h 26.08695652173913 v 26.086956521739125 h -26.08695652173913 Z" fill="#111827" fill-opacity="1"/></svg>