<svg width="28" height="28" viewBox="0 0 28 28" fill="none" xmlns="http://www.w3.org/2000/svg">
<path fill-rule="evenodd" clip-rule="evenodd" d="M8.54752 3.14028C8.71293 3.39356 8.90921 3.6941 9.15 4.05001C12.2767 2.68618 13.158 1.65686 14.05 0C14.5657 0 14.6596 0.670612 14.9411 2.68042L14.9412 2.68152C14.9599 2.81505 14.9795 2.95447 15 3.10001C17.2173 3.48102 18.6481 3.09355 21.1 2C21.4 2.3 20.9723 3.19589 20.2 4.8C22.8804 6.87275 24.0865 7.23785 26.1 7.1C26.2185 7.77133 25.7971 8.06559 24.8834 8.70377L24.8833 8.70384C24.6401 8.87367 24.362 9.06786 24.05 9.3C25.41 11.9706 26.3164 12.9731 28 14.1C28.0067 14.6147 27.4345 14.6622 25.976 14.7834L25.9755 14.7834L25.9751 14.7834C25.7402 14.803 25.4822 14.8244 25.2 14.85C24.6237 17.5432 24.801 18.8259 26.1 21.05C25.7701 21.4265 25.3042 21.2066 24.2845 20.7253C23.9894 20.5861 23.6479 20.4249 23.25 20.25C21.1506 23.0628 20.7678 24.347 21 26.3C20.4919 26.3869 20.1926 25.9379 19.6049 25.0561C19.4202 24.779 19.207 24.4593 18.95 24.1C16.5201 24.6452 15.4965 25.5925 14.05 28C13.375 27.993 13.3741 27.285 13.3725 26.1445C13.372 25.7862 13.3715 25.3853 13.35 24.95C9.65028 24.9617 7.89317 25.261 7.05 26.25C6.52035 25.8969 6.81633 25.319 7.57433 23.8391C7.67502 23.6425 7.78386 23.43 7.9 23.2C5.00829 21.2934 3.6162 20.6866 1.85 21.05C1.69345 20.4642 2.53627 19.8726 4.1 18.8C2.51587 15.6584 1.77807 14.9745 0 14.05C0.0100131 13.5641 0.596096 13.549 1.47746 13.5264C1.86838 13.5163 2.3174 13.5048 2.8 13.45C3.39257 9.97806 2.99839 8.79712 1.8 7.05C2.14119 6.36391 3.33504 6.98774 4.9 7.9C6.53133 5.41506 7.13383 4.0448 7.1 1.85001C7.70487 1.85001 7.85811 2.08465 8.54752 3.14028ZM14.05 23.2C6.15 23.2 4.65 16.35 4.65 13.5264C4.65 10.7027 7.35 4.95 14.05 4.8C20.75 4.65 23.25 10.45 23.25 13.8C23.25 17.15 21.95 23.2 14.05 23.2Z" fill="#232842"/>
</svg>
