<svg width="28" height="28" viewBox="0 0 28 28" fill="none" xmlns="http://www.w3.org/2000/svg">
<path fill-rule="evenodd" clip-rule="evenodd" d="M5.02002 5.19461C5.04041 2.54258 5.73136 1.95573 8.45126 3.15483C8.85872 0.318861 9.57035 -0.0853873 11.8825 1.79498C13.4515 -0.632797 14.3539 -0.563605 16 1.79498C18.172 0.159405 19.047 0.131759 19.4312 3.15483C22.0873 1.98798 22.8673 2.41726 22.8625 5.19461C25.3913 4.93258 25.9371 5.58927 24.9212 8.59424C27.975 9.09023 28.0572 9.91181 26.2937 11.9939C28.3183 13.4465 28.8062 14.3078 26.2937 16.0734C28.074 18.412 27.8257 19.1871 24.9212 19.473C26.1619 22.3518 25.4045 22.8613 22.8625 22.8727C22.8159 25.6288 22.0951 26.099 19.4312 24.9125C19.1087 27.6251 18.5144 28.2567 16 26.2723C14.55 28.637 13.641 28.5139 11.8825 26.2723C9.85715 27.9884 9.08929 27.7374 8.45126 24.9125C6.00516 26.175 5.15467 25.913 5.02002 22.8727C2.48364 22.8884 1.82471 22.3022 2.96128 19.473C0.429683 19.1228 -0.347121 18.6098 1.58878 16.0734C-0.321166 14.6953 -0.728264 13.849 1.58878 11.9939C0.0972714 9.94829 -0.0512435 9.04673 2.96128 8.59424C1.93298 6.09787 1.99911 5.09973 5.02002 5.19461ZM10 6C8.07673 5.1662 7.52005 5.42632 7.5 7.5C5.56055 7.57346 5.1757 8.08007 6 10C3.97077 10.3838 3.83049 10.9524 5.02002 12.5C3.36089 13.4575 3.36095 14.5897 5 15.5C3.64307 17.093 3.97609 17.602 6 18C5.25862 20.0616 5.58053 20.5862 7.5 20.5C7.49438 22.4371 7.97535 22.8642 10 22C10.3361 24.0825 10.8191 24.4545 12.5 22.8727C13.6494 24.6114 14.3046 24.7396 15.5 22.8727C16.965 24.3947 17.5582 24.3825 18 22C19.8544 22.8823 20.4645 22.6655 20.5 20.5C22.5777 20.4449 22.9941 19.9542 22 18C23.989 17.6798 24.4913 17.259 22.8625 15.5C24.645 14.4816 24.7359 13.8379 22.8625 12.5C24.2573 11.0879 24.2208 10.4967 22 10C22.8923 7.9786 22.3921 7.55463 20.5 7.5C20.6499 5.49397 20.0481 5.23157 18 6C17.7476 4.05151 17.2655 3.69654 15.5 5C14.4312 3.62716 13.8074 3.18686 12.5 5C11.0196 3.77103 10.4093 3.7844 10 6Z" fill="#232842"/>
</svg>
