<svg width="16" height="16" viewBox="0 0 16 16" fill="none" xmlns="http://www.w3.org/2000/svg">
<g clip-path="url(#clip0_897_2)">
<path d="M14.6684 6.927C13.7854 5.463 11.8154 3 8.49742 3C5.17942 3 3.20942 5.463 2.33442 6.927C2.11626 7.28925 2.00098 7.70413 2.00098 8.127C2.00098 8.54987 2.11626 8.96475 2.33442 9.327C3.21042 10.798 5.18742 13.26 8.49742 13.26C11.8074 13.26 13.7854 10.797 14.6674 9.327C14.8842 8.96424 14.999 8.54962 14.9994 8.127C14.9969 7.70467 14.8833 7.29059 14.6684 6.927ZM8.49842 11.209C7.88965 11.209 7.29455 11.0285 6.78838 10.6903C6.2822 10.352 5.88769 9.87133 5.65472 9.3089C5.42175 8.74647 5.3608 8.12759 5.47956 7.53051C5.59833 6.93344 5.89148 6.38499 6.32195 5.95453C6.75241 5.52406 7.30086 5.23091 7.89793 5.11214C8.49501 4.99338 9.11389 5.05433 9.67632 5.2873C10.2388 5.52027 10.7195 5.91478 11.0577 6.42095C11.3959 6.92713 11.5764 7.52223 11.5764 8.131C11.5764 8.94734 11.2521 9.73024 10.6749 10.3075C10.0977 10.8847 9.31476 11.209 8.49842 11.209ZM10.1984 8.035C10.2045 8.06797 10.2068 8.10151 10.2054 8.135C10.2057 8.52398 10.0734 8.90143 9.83024 9.20507C9.58711 9.50871 9.24773 9.72038 8.8681 9.80515C8.48846 9.88992 8.09128 9.84273 7.74208 9.67137C7.39288 9.5 7.11254 9.2147 6.94733 8.86255C6.78211 8.5104 6.7419 8.11244 6.83332 7.73436C6.92474 7.35627 7.14233 7.02066 7.45019 6.78289C7.75804 6.54513 8.13776 6.41943 8.52668 6.42654C8.91559 6.43365 9.29046 6.57314 9.58942 6.822C9.4684 6.87708 9.36556 6.96549 9.29295 7.07688C9.22034 7.18827 9.18096 7.31804 9.17942 7.451C9.17942 7.63241 9.25148 7.80639 9.37976 7.93466C9.50803 8.06294 9.68201 8.135 9.86342 8.135C9.98237 8.13449 10.0987 8.09978 10.1984 8.035Z" fill="#3E3E3E"/>
</g>
<defs>
<clipPath id="clip0_897_2">
<rect width="16" height="16" fill="white"/>
</clipPath>
</defs>
</svg>
