<svg width="16" height="16" viewBox="0 0 16 16" fill="none" xmlns="http://www.w3.org/2000/svg">
<g clip-path="url(#clip0_897_6)">
<path d="M14.6654 6.95335C14.1711 6.14 13.5614 5.40265 12.8554 4.76435L14.4494 3.16436C14.5156 3.10148 14.5685 3.02598 14.6051 2.94231C14.6417 2.85864 14.6611 2.7685 14.6623 2.6772C14.6635 2.5859 14.6464 2.49528 14.612 2.4107C14.5776 2.32612 14.5266 2.24928 14.462 2.18471C14.3975 2.12015 14.3206 2.06916 14.236 2.03477C14.1515 2.00037 14.0608 1.98325 13.9695 1.98443C13.8782 1.98561 13.7881 2.00506 13.7044 2.04163C13.6208 2.07819 13.5453 2.13114 13.4824 2.19735L2.53639 13.1464C2.47018 13.2092 2.41723 13.2847 2.38066 13.3684C2.34409 13.4521 2.32464 13.5422 2.32347 13.6335C2.32229 13.7248 2.3394 13.8154 2.3738 13.9C2.4082 13.9846 2.45918 14.0614 2.52375 14.126C2.58831 14.1906 2.66515 14.2415 2.74974 14.2759C2.83432 14.3103 2.92493 14.3275 3.01623 14.3263C3.10754 14.3251 3.19768 14.3057 3.28135 14.2691C3.36501 14.2325 3.44051 14.1796 3.50339 14.1134L5.23739 12.3794C6.22021 12.9761 7.34857 13.2903 8.49839 13.2874C11.7984 13.2874 13.7794 10.8244 14.6684 9.36035C14.8864 8.99678 15.0016 8.5808 15.0016 8.15685C15.0016 7.73291 14.8864 7.31693 14.6684 6.95335H14.6654ZM8.49839 11.2354C7.91997 11.2337 7.35394 11.0676 6.86639 10.7564L7.87439 9.74835C8.13346 9.85249 8.41419 9.89122 8.69177 9.86111C8.96936 9.831 9.23526 9.73298 9.46597 9.57571C9.69668 9.41844 9.8851 9.20677 10.0146 8.9594C10.1441 8.71202 10.2106 8.43656 10.2084 8.15735C10.2095 8.12752 10.2071 8.09766 10.2014 8.06835C10.0993 8.12646 9.98387 8.15712 9.86639 8.15735C9.75579 8.15501 9.64752 8.1251 9.55139 8.07035L11.0984 6.52335C11.3933 6.98796 11.5577 7.52331 11.5746 8.07333C11.5915 8.62335 11.4601 9.16777 11.1943 9.64957C10.9284 10.1314 10.5379 10.5328 10.0636 10.8118C9.58927 11.0908 9.04866 11.2371 8.49839 11.2354ZM3.24439 10.6354C2.90759 10.2363 2.60329 9.81096 2.33439 9.36335C2.11676 8.99971 2.00124 8.5841 2.00001 8.16032C1.99878 7.73653 2.11188 7.32025 2.32739 6.95535C3.21339 5.48935 5.19839 3.02636 8.49839 3.02636C9.13587 3.025 9.76994 3.11938 10.3794 3.30636C10.4365 3.32432 10.4882 3.35622 10.53 3.39916C10.5717 3.4421 10.6021 3.49475 10.6184 3.55236C10.632 3.61007 10.6299 3.67037 10.6123 3.72699C10.5947 3.78362 10.5623 3.8345 10.5184 3.87436L9.22939 5.16735C8.98996 5.10966 8.74467 5.07979 8.49839 5.07836C7.68211 5.07941 6.89957 5.40415 6.32238 5.98134C5.74518 6.55854 5.42045 7.34108 5.41939 8.15735C5.41742 8.40779 5.44733 8.65747 5.50839 8.90035L3.75039 10.6544C3.71833 10.6869 3.67998 10.7125 3.63769 10.7297C3.59539 10.7469 3.55004 10.7553 3.50439 10.7544H3.49039C3.44267 10.7525 3.39586 10.7407 3.35297 10.7197C3.31009 10.6987 3.27208 10.6689 3.24139 10.6324L3.24439 10.6354Z" fill="#3E3E3E"/>
</g>
<defs>
<clipPath id="clip0_897_6">
<rect width="16" height="16" fill="white"/>
</clipPath>
</defs>
</svg>
