<svg xmlns="http://www.w3.org/2000/svg" width="24" height="24" viewBox="0 0 24 24">
  <g id="Google_Icon_24px" data-name="Google Icon 24px" transform="translate(17381)">
    <rect id="Rectangle_651" data-name="Rectangle 651" width="24" height="24" transform="translate(-17381)" fill="none"/>
    <g id="google-svgrepo-com" transform="translate(-17378 3)">
      <path id="Path_373" data-name="Path 373" d="M265.982,229.5A9.472,9.472,0,0,0,268.5,221H260v3.513h4.842a4,4,0,0,1-1.8,2.706Z" transform="translate(-250.982 -213.602)" fill="#4285f4"/>
      <path id="Path_374" data-name="Path 374" d="M90,294.326a9.115,9.115,0,0,0,14.052,2.8l-2.943-2.279A5.441,5.441,0,0,1,92.991,292Z" transform="translate(-89.052 -281.232)" fill="#34a853"/>
      <path id="Path_375" data-name="Path 375" d="M73.977,175.792a5.413,5.413,0,0,1,0-3.466L70.987,170a9.173,9.173,0,0,0,0,8.118Z" transform="translate(-70.039 -165.023)" fill="#fbbc02"/>
      <path id="Path_376" data-name="Path 376" d="M92.991,72.474c1.044-3.276,5.507-5.175,8.5-2.374l2.611-2.564A8.964,8.964,0,0,0,90,70.148Z" transform="translate(-89.052 -65.171)" fill="#ea4335"/>
    </g>
  </g>
</svg>
