<svg xmlns="http://www.w3.org/2000/svg" width="24" height="24" viewBox="0 0 24 24"><g transform="translate(17399)"><g transform="translate(-17396 0)"><path d="M28.784,75.132C26.962,78.293,28.12,83.091,30.135,86c1.006,1.454,2.024,2.76,3.418,2.76l.08,0a4.221,4.221,0,0,0,1.586-.423,4.344,4.344,0,0,1,1.879-.445,4.085,4.085,0,0,1,1.789.431,3.789,3.789,0,0,0,1.714.411c1.571-.029,2.535-1.438,3.386-2.681a11.882,11.882,0,0,0,1.484-3.039l.006-.019a.177.177,0,0,0-.094-.217l-.013-.006a4.5,4.5,0,0,1-2.728-4.123,4.635,4.635,0,0,1,2.19-3.874l.017-.011a.177.177,0,0,0,.05-.248,5.1,5.1,0,0,0-4.009-2.177c-.114-.011-.232-.017-.35-.017a6.988,6.988,0,0,0-2.516.628,4.044,4.044,0,0,1-1.205.36,3.943,3.943,0,0,1-1.247-.364,6.041,6.041,0,0,0-2.2-.558h-.056A5.388,5.388,0,0,0,28.784,75.132Z" transform="translate(-27.875 -67.21)" fill="#fff"/><path d="M153.653,0a4.92,4.92,0,0,0-3.248,1.666,4.61,4.61,0,0,0-1.167,3.418.177.177,0,0,0,.161.153c.075.006.152.009.228.009a4.162,4.162,0,0,0,3.066-1.572A4.86,4.86,0,0,0,153.836.157.178.178,0,0,0,153.653,0Z" transform="translate(-140.638 0)" fill="#fff"/></g><rect width="24" height="24" transform="translate(-17399)" fill="none"/></g></svg>