<svg width="512" height="512" viewBox="0 0 512 512" fill="none" xmlns="http://www.w3.org/2000/svg">
<path d="M411.997 512C407.467 512 403.122 510.202 399.917 507.002C396.711 503.801 394.906 499.459 394.898 494.929V446.247C394.903 444 394.464 441.774 393.608 439.696C392.752 437.618 391.495 435.729 389.909 434.137L333.862 378.105C332.28 376.511 330.398 375.246 328.325 374.383C326.251 373.52 324.027 373.076 321.781 373.077H156.002C153.757 373.078 151.534 372.637 149.459 371.779C147.385 370.921 145.5 369.662 143.912 368.075C142.324 366.488 141.064 364.603 140.205 362.529C139.345 360.455 138.903 358.232 138.903 355.987V155.995C138.911 151.464 140.715 147.122 143.921 143.922C147.127 140.721 151.472 138.923 156.002 138.923H355.998C360.526 138.928 364.867 140.728 368.07 143.928C371.273 147.128 373.077 151.467 373.087 155.995V321.786C373.088 326.315 374.882 330.659 378.077 333.868L434.114 389.9C435.699 391.495 437.585 392.76 439.662 393.623C441.738 394.486 443.965 394.929 446.214 394.928H494.901C499.425 394.93 503.764 396.725 506.969 399.919C510.173 403.113 511.982 407.446 512 411.971V494.881C511.99 499.41 510.184 503.751 506.979 506.951C503.774 510.151 499.43 511.95 494.901 511.952L411.997 512ZM67.9175 512C67.2101 512 66.5097 511.86 65.8567 511.588C65.2037 511.316 64.6109 510.918 64.1125 510.416C63.6141 509.914 63.2199 509.318 62.9527 508.663C62.6855 508.008 62.5505 507.307 62.5556 506.599V454.793C62.5556 453.368 63.1215 452.001 64.1289 450.994C65.1362 449.987 66.5024 449.421 67.927 449.421H313.198C314.618 449.421 315.979 449.985 316.983 450.988C317.987 451.992 318.551 453.354 318.551 454.773V506.599C318.552 507.305 318.414 508.004 318.144 508.657C317.875 509.309 317.479 509.902 316.98 510.401C316.481 510.9 315.889 511.295 315.236 511.565C314.584 511.835 313.885 511.973 313.179 511.971L67.9175 512ZM14.3367 449.468C10.5343 449.468 6.88775 447.958 4.19911 445.269C1.51046 442.58 0 438.933 0 435.131L0 76.2769C0.0151002 72.479 1.53041 68.8409 4.21579 66.1553C6.90117 63.4698 10.539 61.9543 14.3367 61.9392H48.1711C51.9735 61.9392 55.62 60.4287 58.3087 57.7398C60.9973 55.051 62.5078 51.4041 62.5078 47.6015V14.338C62.5078 12.4471 62.8817 10.5748 63.6082 8.82906C64.3346 7.08327 65.3992 5.49843 66.7406 4.16579C68.0821 2.83316 69.6738 1.77905 71.4243 1.06415C73.1747 0.349263 75.0493 -0.0122875 76.94 0.000318646H435.089C438.891 0.000318646 442.538 1.51089 445.226 4.19974C447.915 6.88858 449.425 10.5354 449.425 14.338V47.5346C449.425 51.3372 450.936 54.9841 453.624 57.6729C456.313 60.3617 459.96 61.8723 463.762 61.8723H497.568C501.375 61.8748 505.026 63.3844 507.723 66.071C510.42 68.7577 511.944 72.403 511.962 76.21V303.96C511.962 305.847 511.589 307.717 510.865 309.46C510.141 311.203 509.08 312.786 507.742 314.118C506.405 315.451 504.818 316.505 503.072 317.223C501.326 317.94 499.455 318.305 497.568 318.298H463.8C459.998 318.298 456.351 316.787 453.663 314.098C450.974 311.409 449.464 307.762 449.464 303.96V79.632C449.466 77.3881 449.026 75.1656 448.17 73.0917C447.313 71.0177 446.056 69.1329 444.471 67.5449C442.886 65.9569 441.003 64.6968 438.931 63.8366C436.859 62.9765 434.637 62.5331 432.393 62.5319H79.6544C75.1195 62.5319 70.7704 64.3335 67.5637 67.5404C64.3571 70.7473 62.5556 75.0967 62.5556 79.632V435.112C62.5556 438.914 61.0451 442.561 58.3565 445.25C55.6678 447.939 52.0213 449.449 48.2189 449.449L14.3367 449.468Z" fill="url(#paint0_linear_177_3)"/>
<defs>
<linearGradient id="paint0_linear_177_3" x1="40.96" y1="65.536" x2="512" y2="577.024" gradientUnits="userSpaceOnUse">
<stop stop-color="#C389FF"/>
<stop offset="1" stop-color="#4488FF"/>
</linearGradient>
</defs>
</svg>
