<svg width="24" height="24" viewBox="0 0 24 24" fill="none" xmlns="http://www.w3.org/2000/svg">
<path d="M19.098 12.592C19.015 12.65 17.288 14.477 17.288 15.759C17.2343 16.2978 17.3937 16.8361 17.732 17.2589C18.0702 17.6817 18.5606 17.9552 19.098 18.021C19.3661 17.993 19.6259 17.9121 19.8624 17.7829C20.099 17.6537 20.3075 17.4788 20.4759 17.2684C20.6443 17.058 20.7692 16.8162 20.8434 16.557C20.9175 16.2979 20.9395 16.0267 20.908 15.759C20.908 14.402 19.178 12.65 19.098 12.592ZM9.67798 18.021C9.84598 18.1891 10.0454 18.3224 10.265 18.4134C10.4845 18.5044 10.7198 18.5512 10.9575 18.5512C11.1951 18.5512 11.4304 18.5044 11.65 18.4134C11.8695 18.3224 12.069 18.1891 12.237 18.021L18.568 11.687L17.928 11.047L10.956 4.075L8.87798 2L7.60198 3.279L9.67798 5.354L4.62198 10.407C4.4539 10.575 4.32056 10.7745 4.22959 10.994C4.13862 11.2135 4.0918 11.4489 4.0918 11.6865C4.0918 11.9241 4.13862 12.1595 4.22959 12.379C4.32056 12.5985 4.4539 12.798 4.62198 12.966L9.67798 18.021ZM10.956 6.633L16.01 11.687H5.90198L10.956 6.633Z" fill="#3E3E3E"/>
<path d="M3 21.452H22" stroke="#3E3E3E" stroke-width="1.5"/>
</svg>
