<svg width="24" height="24" viewBox="0 0 24 24" fill="none" xmlns="http://www.w3.org/2000/svg">
<path d="M15.3781 15.3781H18.4941V18.4941H15.3781V15.3781Z" fill="#C5C5C5"/>
<path d="M12.691 12.6899H15.184V15.1829H12.691V12.6899Z" fill="#C5C5C5"/>
<path d="M18.507 18.5081H21V21.0011H18.507V18.5081Z" fill="#C5C5C5"/>
<path d="M19.13 12.677H21V14.547H19.13V12.677Z" fill="#C5C5C5"/>
<path d="M12.677 19.129H14.547V20.999H12.677V19.129Z" fill="#C5C5C5"/>
<path d="M15.3781 5.50598H18.4941V8.62198H15.3781V5.50598Z" fill="#C5C5C5"/>
<path d="M20.9979 11.1H12.8979V3H20.9979V11.1ZM14.6139 9.39H19.2879V4.716H14.6139V9.39Z" fill="#C5C5C5"/>
<path d="M5.505 5.50598H8.62101V8.62198H5.505V5.50598Z" fill="#C5C5C5"/>
<path d="M11.1 11.1H3V3H11.1V11.1ZM4.716 9.39H9.39V4.716H4.716V9.39Z" fill="#C5C5C5"/>
<path d="M5.505 15.3781H8.62101V18.4941H5.505V15.3781Z" fill="#C5C5C5"/>
<path d="M11.1 20.997H3V12.897H11.1V20.997ZM4.716 19.287H9.39V14.613H4.716V19.287Z" fill="#C5C5C5"/>
<path d="M12.048 7C13.0464 7 14.0224 7.29606 14.8525 7.85074C15.6827 8.40542 16.3297 9.19381 16.7117 10.1162C17.0938 11.0386 17.1938 12.0536 16.999 13.0328C16.8042 14.012 16.3235 14.9115 15.6175 15.6175C14.9115 16.3235 14.012 16.8042 13.0328 16.999C12.0536 17.1938 11.0386 17.0938 10.1162 16.7117C9.19381 16.3297 8.40542 15.6827 7.85074 14.8525C7.29606 14.0224 7 13.0464 7 12.048C7 10.7092 7.53184 9.42521 8.47852 8.47852C9.42521 7.53184 10.7092 7 12.048 7Z" fill="#3E3E3E"/>
<path d="M14.479 10.254L11.796 13.379L10.332 11.999" stroke="white"/>
</svg>
