<svg width="24" height="24" viewBox="0 0 24 24" fill="none" xmlns="http://www.w3.org/2000/svg">
<path d="M6 3.5C5.33696 3.5 4.70107 3.76339 4.23223 4.23223C3.76339 4.70107 3.5 5.33696 3.5 6V18C3.5 18.663 3.76339 19.2989 4.23223 19.7678C4.70107 20.2366 5.33696 20.5 6 20.5H18C18.663 20.5 19.2989 20.2366 19.7678 19.7678C20.2366 19.2989 20.5 18.663 20.5 18V6C20.5 5.33696 20.2366 4.70107 19.7678 4.23223C19.2989 3.76339 18.663 3.5 18 3.5H6ZM6 2H18C19.0609 2 20.0783 2.42143 20.8284 3.17157C21.5786 3.92172 22 4.93913 22 6V18C22 19.0609 21.5786 20.0783 20.8284 20.8284C20.0783 21.5786 19.0609 22 18 22H6C4.93913 22 3.92172 21.5786 3.17157 20.8284C2.42143 20.0783 2 19.0609 2 18V6C2 4.93913 2.42143 3.92172 3.17157 3.17157C3.92172 2.42143 4.93913 2 6 2Z" fill="#3E3E3E"/>
<path d="M14.147 14.147H16.283V16.283H14.147V14.147Z" fill="#C5C5C5"/>
<path d="M12.431 12.4301H14.14V14.1391H12.431V12.4301Z" fill="#C5C5C5"/>
<path d="M16.291 16.292H18V18.001H16.291V16.292Z" fill="#C5C5C5"/>
<path d="M16.718 12.4301H18V13.7121H16.718V12.4301Z" fill="#C5C5C5"/>
<path d="M12.4301 16.717H13.7121V17.999H12.4301V16.717Z" fill="#C5C5C5"/>
<path d="M14.147 7.71802H16.283V9.85402H14.147V7.71802Z" fill="#C5C5C5"/>
<path d="M18 11.554H12.446V6H18V11.554ZM13.622 10.38H16.822V7.18H13.622V10.38Z" fill="#C5C5C5"/>
<path d="M7.71704 7.71802H9.85304V9.85402H7.71704V7.71802Z" fill="#C5C5C5"/>
<path d="M11.554 11.554H6V6H11.554V11.554ZM7.176 10.38H10.376V7.18H7.176V10.38Z" fill="#C5C5C5"/>
<path d="M7.71704 14.147H9.85304V16.283H7.71704V14.147Z" fill="#C5C5C5"/>
<path d="M11.554 18H6V12.446H11.554V18ZM7.176 16.826H10.376V13.626H7.176V16.826Z" fill="#C5C5C5"/>
</svg>
