<svg xmlns="http://www.w3.org/2000/svg" width="24" height="24" viewBox="0 0 16 16">
    <g id="Share_icon_16_px" data-name="Share icon 16 px" transform="translate(-176 -304)">
        <rect id="Rectangle_1891" data-name="Rectangle 1891" width="16" height="16"
            transform="translate(176 304)" fill="none" />
        <g id="Group_4157" data-name="Group 4157" transform="translate(178.5 305.5)">
            <path id="Path_907" data-name="Path 907" d="M27.894,18.477l-4.232,2.64"
                transform="translate(-20.264 -15.665)" fill="none" stroke="#3E3E3E"
                stroke-linecap="round" stroke-linejoin="round" stroke-width="1.3" />
            <path id="Path_908" data-name="Path 908" d="M27.888,38.223l-4.239-2.654"
                transform="translate(-20.254 -28.17)" fill="none" stroke="#3E3E3E"
                stroke-linecap="round" stroke-linejoin="round" stroke-width="1.3" />
            <path id="Path_909" data-name="Path 909"
                d="M12.838,28.762A1.838,1.838,0,1,0,11,26.924,1.838,1.838,0,0,0,12.838,28.762Z"
                transform="translate(-11 -20.501)" fill="none" stroke="#3E3E3E"
                stroke-linecap="round" stroke-linejoin="round" stroke-width="1.3" />
            <path id="Path_910" data-name="Path 910"
                d="M40.234,11.676A1.838,1.838,0,1,0,38.4,9.838,1.838,1.838,0,0,0,40.234,11.676Z"
                transform="translate(-31.044 -8)" fill="none" stroke="#3E3E3E"
                stroke-linecap="round" stroke-linejoin="round" stroke-width="1.3" />
            <path id="Path_911" data-name="Path 911"
                d="M40.234,45.921A1.838,1.838,0,1,0,38.4,44.083,1.838,1.838,0,0,0,40.234,45.921Z"
                transform="translate(-31.044 -33.054)" fill="none" stroke="#3E3E3E"
                stroke-linecap="round" stroke-linejoin="round" stroke-width="1.3" />
        </g>
    </g>
</svg>
