<svg xmlns="http://www.w3.org/2000/svg" width="24" height="24" viewBox="0 0 16 16">
    <g id="Download_icon_16px" data-name="Download icon 16px" transform="translate(-67 -362)">
        <g id="download-svgrepo-com_1_" data-name="download-svgrepo-com (1)"
            transform="translate(68 363)">
            <path id="Path_968" data-name="Path 968"
                d="M15.029,19.364H5.24A2.077,2.077,0,0,1,3.249,17.2V14.84a.59.59,0,0,1,1.18,0V17.2a.913.913,0,0,0,.787.984h9.812a.913.913,0,0,0,.787-.984V14.84a.59.59,0,0,1,1.18,0V17.2a2.077,2.077,0,0,1-1.967,2.164Z"
                transform="translate(-3.248 -5.595)" fill="#3E3E3E" stroke="#3E3E3E"
                stroke-width="0.2" />
            <path id="Path_969" data-name="Path 969"
                d="M10.992,14.582a.583.583,0,0,1-.417-.173L7.427,11.261a.59.59,0,0,1,.834-.834l2.73,2.73,2.73-2.73a.59.59,0,0,1,.834.834l-3.147,3.147a.583.583,0,0,1-.417.173Z"
                transform="translate(-4.105 -4.746)" fill="#3E3E3E" stroke="#3E3E3E"
                stroke-width="0.2" />
            <path id="Path_970" data-name="Path 970"
                d="M11.84,13.086a.6.6,0,0,1-.59-.59V3.84a.59.59,0,0,1,1.18,0V12.5a.6.6,0,0,1-.59.59Z"
                transform="translate(-4.953 -3.25)" fill="#3E3E3E" stroke="#3E3E3E"
                stroke-width="0.2" />
        </g>
        <rect id="Rectangle_2461" data-name="Rectangle 2461" width="16" height="16"
            transform="translate(67 362)" fill="none" />
    </g>
</svg>
