<svg width="24" height="24" viewBox="0 0 24 24" fill="none" xmlns="http://www.w3.org/2000/svg">
<path d="M20.625 9.021C20.3273 9.01994 20.0422 8.90095 19.8321 8.69008C19.622 8.47922 19.504 8.19368 19.504 7.896V4.125H15.729C15.5813 4.125 15.435 4.0959 15.2985 4.03936C15.162 3.98283 15.038 3.89996 14.9335 3.7955C14.829 3.69103 14.7462 3.56701 14.6896 3.43052C14.6331 3.29403 14.604 3.14774 14.604 3C14.604 2.85226 14.6331 2.70597 14.6896 2.56948C14.7462 2.43299 14.829 2.30897 14.9335 2.2045C15.038 2.10004 15.162 2.01717 15.2985 1.96064C15.435 1.9041 15.5813 1.875 15.729 1.875H20.629C20.9274 1.875 21.2135 1.99353 21.4245 2.2045C21.6355 2.41548 21.754 2.70163 21.754 3V7.9C21.7535 8.04774 21.7239 8.19392 21.6668 8.33022C21.6098 8.46651 21.5265 8.59023 21.4217 8.69433C21.3168 8.79842 21.1925 8.88085 21.0558 8.9369C20.9191 8.99295 20.7727 9.02153 20.625 9.021Z" fill="#3E3E3E"/>
<path d="M17.796 21.754H4.85C4.06053 21.7532 3.30369 21.439 2.74582 20.8804C2.18796 20.3217 1.87473 19.5645 1.875 18.775V5.829C1.87579 5.04023 2.18949 4.28399 2.74723 3.72624C3.30498 3.16849 4.06122 2.8548 4.85 2.854H10.399C10.6974 2.854 10.9835 2.97253 11.1945 3.18351C11.4055 3.39449 11.524 3.68064 11.524 3.979C11.524 4.27737 11.4055 4.56352 11.1945 4.7745C10.9835 4.98548 10.6974 5.104 10.399 5.104H4.85C4.65772 5.104 4.47331 5.18039 4.33735 5.31635C4.20138 5.45232 4.125 5.63672 4.125 5.829V18.775C4.125 18.9673 4.20138 19.1517 4.33735 19.2877C4.47331 19.4236 4.65772 19.5 4.85 19.5H17.796C17.9883 19.5 18.1727 19.4236 18.3087 19.2877C18.4446 19.1517 18.521 18.9673 18.521 18.775V13.227C18.521 12.9286 18.6395 12.6425 18.8505 12.4315C19.0615 12.2205 19.3476 12.102 19.646 12.102C19.9444 12.102 20.2305 12.2205 20.4415 12.4315C20.6525 12.6425 20.771 12.9286 20.771 13.227V18.776C20.771 19.5653 20.4577 20.3223 19.8998 20.8807C19.342 21.4391 18.5853 21.7532 17.796 21.754Z" fill="#3E3E3E"/>
<path d="M11.812 12.938C11.5892 12.9388 11.3712 12.8734 11.1856 12.7502C11 12.6269 10.8552 12.4514 10.7695 12.2457C10.6838 12.0401 10.6611 11.8136 10.7043 11.595C10.7475 11.3765 10.8546 11.1756 11.012 11.018L19.339 2.69501C19.5516 2.4926 19.8349 2.3813 20.1284 2.38485C20.4219 2.3884 20.7024 2.50653 20.91 2.71402C21.1176 2.92151 21.2359 3.20194 21.2397 3.49545C21.2434 3.78896 21.1323 4.0723 20.93 4.28501L12.607 12.608C12.5028 12.7127 12.3789 12.7957 12.2424 12.8524C12.106 12.909 11.9597 12.9381 11.812 12.938Z" fill="#3E3E3E"/>
</svg>
