<svg xmlns="http://www.w3.org/2000/svg" width="24" height="24" viewBox="0 0 16 16">
    <g id="Edit_icon_16_ox" data-name="Edit icon 16 ox" transform="translate(1252 -6650)">
        <g id="Edit_Edit_Pencil_01" data-name="Edit / Edit_Pencil_01"
            transform="translate(-1255.633 6645.953)">
            <path id="Vector"
                d="M10.536,7.344,4,13.88v3.268H7.268L13.8,10.612M10.536,7.344,12.879,5h0a2.025,2.025,0,0,1,.67-.545.817.817,0,0,1,.5,0,2.023,2.023,0,0,1,.67.544l1.421,1.421a2.031,2.031,0,0,1,.546.672.817.817,0,0,1,0,.5,2.026,2.026,0,0,1-.545.671h0L13.8,10.612M10.536,7.344,13.8,10.612"
                transform="translate(1.633 1.633)" fill="none" stroke="#3E3E3E"
                stroke-linecap="round" stroke-linejoin="round" stroke-width="1.3" />
        </g>
        <rect id="Rectangle_2472" data-name="Rectangle 2472" width="16" height="16"
            transform="translate(-1252 6650)" fill="none" />
    </g>
</svg>
