<svg width="42" height="42" viewBox="0 0 42 42" fill="none" xmlns="http://www.w3.org/2000/svg">
<path d="M21 42C32.598 42 42 32.598 42 21C42 9.40202 32.598 0 21 0C9.40202 0 0 9.40202 0 21C0 32.598 9.40202 42 21 42Z" fill="white"/>
<path d="M21 2.625C17.3658 2.62503 13.8132 3.70273 10.7915 5.7218C7.76977 7.74087 5.41462 10.6106 4.02388 13.9682C2.63313 17.3258 2.26925 21.0204 2.97824 24.5847C3.68722 28.1491 5.43725 31.4232 8.007 33.993C11.4573 37.4181 16.1244 39.3363 20.9861 39.3274C25.8478 39.3185 30.5078 37.3833 33.9455 33.9455C37.3833 30.5078 39.3185 25.8478 39.3274 20.9861C39.3363 16.1244 37.4181 11.4573 33.993 8.007C32.2907 6.29538 30.2658 4.93839 28.0356 4.01457C25.8053 3.09075 23.414 2.61845 21 2.625ZM21 0C25.1534 0 29.2135 1.23163 32.667 3.53914C36.1204 5.84665 38.812 9.1264 40.4015 12.9636C41.9909 16.8009 42.4068 21.0233 41.5965 25.0969C40.7862 29.1705 38.7861 32.9123 35.8492 35.8492C32.9123 38.7861 29.1705 40.7862 25.0969 41.5965C21.0233 42.4068 16.8009 41.9909 12.9636 40.4015C9.1264 38.812 5.84665 36.1204 3.53914 32.667C1.23163 29.2135 0 25.1534 0 21C0 15.4305 2.21249 10.089 6.15076 6.15076C10.089 2.21249 15.4305 0 21 0Z" fill="#707070"/>
<path d="M10.954 39.415L8.733 38.015L31.045 2.58203L33.266 3.98203L10.954 39.415Z" fill="#707070"/>
</svg>
