<svg width="24" height="24" viewBox="0 0 24 24" fill="none" xmlns="http://www.w3.org/2000/svg">
<g clip-path="url(#clip0_1250_45)">
<path d="M17.9572 0H6.0428C2.70545 0 0 2.70545 0 6.0428V17.9572C0 21.2945 2.70545 24 6.0428 24H17.9572C21.2945 24 24 21.2945 24 17.9572V6.0428C24 2.70545 21.2945 0 17.9572 0Z" fill="url(#paint0_linear_1250_45)"/>
<path fill-rule="evenodd" clip-rule="evenodd" d="M6.55571 7H17.4443C17.8569 7 18.2526 7.16956 18.5444 7.47137C18.8361 7.77319 19 8.18253 19 8.60936V15.8507C19 16.2775 18.8361 16.6869 18.5444 16.9887C18.2526 17.2905 17.8569 17.4601 17.4443 17.4601H6.55571C6.14311 17.4601 5.74741 17.2905 5.45566 16.9887C5.16391 16.6869 5 16.2775 5 15.8507V8.60936C5 8.18253 5.16391 7.77319 5.45566 7.47137C5.74741 7.16956 6.14311 7 6.55571 7ZM16.7793 8.47783L12 11.1379L7.22071 8.47783C7.08509 8.40831 6.92865 8.39602 6.78443 8.44356C6.64021 8.4911 6.51949 8.59476 6.44775 8.73264C6.37601 8.87052 6.35886 9.03184 6.39993 9.18255C6.441 9.33328 6.53706 9.46155 6.66786 9.54039L11.7236 12.3564C11.8086 12.4037 11.9035 12.4284 12 12.4284C12.0965 12.4284 12.1914 12.4037 12.2764 12.3564L17.3321 9.54039C17.4023 9.50441 17.4647 9.45424 17.5157 9.39283C17.5668 9.33135 17.6053 9.2599 17.6291 9.18276C17.6529 9.10559 17.6614 9.02426 17.6541 8.94362C17.6469 8.86297 17.624 8.78466 17.5869 8.71334C17.5498 8.64203 17.4992 8.57916 17.4381 8.52849C17.3771 8.47782 17.3067 8.44039 17.2314 8.41842C17.156 8.39644 17.0771 8.39037 16.9995 8.40059C16.9219 8.41079 16.8469 8.43707 16.7793 8.47783Z" fill="white"/>
</g>
<defs>
<linearGradient id="paint0_linear_1250_45" x1="12" y1="24" x2="12" y2="4.57763e-05" gradientUnits="userSpaceOnUse">
<stop stop-color="#25CF43"/>
<stop offset="1" stop-color="#61FD7D"/>
</linearGradient>
<clipPath id="clip0_1250_45">
<rect width="24" height="24" fill="white"/>
</clipPath>
</defs>
</svg>
