<svg width="24" height="24" viewBox="0 0 24 24" fill="none" xmlns="http://www.w3.org/2000/svg">
<rect width="24" height="24" rx="6" fill="url(#paint0_linear_548_446)"/>
<path d="M15.5 16.125C15.5 16.4234 15.3894 16.7095 15.1925 16.9205C14.9955 17.1315 14.7285 17.25 14.45 17.25H9.55C9.27152 17.25 9.00445 17.1315 8.80753 16.9205C8.61062 16.7095 8.5 16.4234 8.5 16.125C8.5 15.8266 8.61062 15.5405 8.80753 15.3295C9.00445 15.1185 9.27152 15 9.55 15H14.45C14.7285 15 14.9955 15.1185 15.1925 15.3295C15.3894 15.5405 15.5 15.8266 15.5 16.125V16.125ZM19 8.36776V16.875C18.9989 17.9687 18.5929 19.0172 17.8711 19.7905C17.1493 20.5638 16.1707 20.9988 15.15 21H8.85C7.82926 20.9988 6.85064 20.5638 6.12887 19.7905C5.40709 19.0172 5.00111 17.9687 5 16.875V7.12501C5.00111 6.03136 5.40709 4.98284 6.12887 4.20951C6.85064 3.43619 7.82926 3.00121 8.85 3.00001H13.9901C14.4959 2.99855 14.9969 3.10459 15.4642 3.31198C15.9315 3.51938 16.3557 3.82402 16.7124 4.20826L17.8723 5.45101C18.2309 5.83315 18.5152 6.2877 18.7088 6.78836C18.9024 7.28902 19.0014 7.82585 19 8.36776V8.36776ZM16.8895 8.25001H15.5C15.1287 8.25001 14.7726 8.09198 14.51 7.81067C14.2475 7.52937 14.1 7.14784 14.1 6.75001V5.26201C14.0629 5.25901 8.85 5.25001 8.85 5.25001C8.38587 5.25001 7.94075 5.44756 7.61256 5.79919C7.28437 6.15082 7.1 6.62773 7.1 7.12501V16.875C7.1 17.3723 7.28437 17.8492 7.61256 18.2008C7.94075 18.5525 8.38587 18.75 8.85 18.75H15.15C15.6141 18.75 16.0592 18.5525 16.3874 18.2008C16.7156 17.8492 16.9 17.3723 16.9 16.875C16.9 16.875 16.8916 8.28976 16.8895 8.25001ZM13.75 9.75001H10.25C9.78587 9.75001 9.34075 9.94755 9.01256 10.2992C8.68437 10.6508 8.5 11.1277 8.5 11.625C8.5 12.1223 8.68437 12.5992 9.01256 12.9508C9.34075 13.3025 9.78587 13.5 10.25 13.5H13.75C14.2141 13.5 14.6592 13.3025 14.9874 12.9508C15.3156 12.5992 15.5 12.1223 15.5 11.625C15.5 11.1277 15.3156 10.6508 14.9874 10.2992C14.6592 9.94755 14.2141 9.75001 13.75 9.75001V9.75001Z" fill="white"/>
<defs>
<linearGradient id="paint0_linear_548_446" x1="12" y1="24" x2="12" y2="4.57763e-05" gradientUnits="userSpaceOnUse">
<stop stop-color="#25CF43"/>
<stop offset="1" stop-color="#61FD7D"/>
</linearGradient>
</defs>
</svg>
