<svg width="24" height="24" viewBox="0 0 24 24" fill="none" xmlns="http://www.w3.org/2000/svg">
<rect width="24" height="24" rx="6" fill="#0866FF"/>
<path d="M20 11.76C20 16.219 16.5066 19.52 12 19.52C11.1907 19.52 10.4141 19.4133 9.68415 19.2126C9.54229 19.1734 9.39153 19.1845 9.25694 19.2438L7.66898 19.9448C7.25372 20.1283 6.78488 19.8328 6.77095 19.3789L6.72729 17.9557C6.72184 17.7805 6.64302 17.6164 6.51228 17.4998C4.95564 16.1076 4 14.0924 4 11.76C4 7.30124 7.49338 4 12 4C16.5066 4 20 7.30124 20 11.76Z" fill="white"/>
<path d="M14.1722 13.9939L16.9575 9.68932C17.2375 9.25666 16.7188 8.75306 16.2946 9.04567L13.3871 11.0511C13.2891 11.1188 13.1599 11.1207 13.0601 11.056L10.4795 9.38639C10.2611 9.24513 9.96947 9.30757 9.82823 9.52602L7.04274 13.8308C6.76265 14.2635 7.28139 14.7671 7.70555 14.4744L10.6137 12.4688C10.7117 12.4011 10.8409 12.3992 10.9409 12.4639L13.521 14.1335C13.7395 14.2748 14.0311 14.2123 14.1724 13.9939H14.1722Z" fill="#0866FF"/>
</svg>
