<svg width="24" height="24" viewBox="0 0 24 24" fill="none" xmlns="http://www.w3.org/2000/svg">
<g clip-path="url(#clip0_1197_299)">
<path d="M17.9572 0H6.0428C2.70546 0 0 2.70546 0 6.0428V17.9572C0 21.2945 2.70546 24 6.0428 24H17.9572C21.2945 24 24 21.2945 24 17.9572V6.0428C24 2.70546 21.2945 0 17.9572 0Z" fill="url(#paint0_linear_1197_299)"/>
<path d="M5.1208 11.6425C5.1208 11.6425 11.1233 9.18005 13.2081 8.30888C14.0037 7.96142 16.7129 6.85357 16.7129 6.85357C16.7129 6.85357 17.9618 6.37015 17.856 7.54849C17.8208 8.03192 17.5438 9.73397 17.2668 11.572C16.8489 14.1754 16.4007 17.0206 16.4007 17.0206C16.4007 17.0206 16.3302 17.8213 15.741 17.9572C15.1518 18.0982 14.18 17.4738 14.0037 17.3328C13.8627 17.227 11.4003 15.666 10.4989 14.9056C10.2572 14.6991 9.98022 14.2812 10.5341 13.7927C11.783 12.6496 13.2735 11.2245 14.18 10.3231C14.5979 9.90519 15.0109 8.9333 13.2786 10.1167C10.8161 11.8187 8.38391 13.415 8.38391 13.415C8.38391 13.415 7.82999 13.7625 6.7876 13.4503C5.74522 13.1381 4.53162 12.7201 4.53162 12.7201C4.53162 12.7201 3.70074 12.2015 5.1208 11.6425Z" fill="white"/>
</g>
<defs>
<linearGradient id="paint0_linear_1197_299" x1="1.76752" y1="1.76752" x2="22.2325" y2="22.2325" gradientUnits="userSpaceOnUse">
<stop stop-color="#2CB5E5"/>
<stop offset="0.65" stop-color="#6C6EF5"/>
<stop offset="1" stop-color="#9146FF"/>
</linearGradient>
<clipPath id="clip0_1197_299">
<rect width="24" height="24" fill="white"/>
</clipPath>
</defs>
</svg>
