<svg width="30" height="30" viewBox="0 0 30 30" fill="none" xmlns="http://www.w3.org/2000/svg">
  <defs>
    <linearGradient id="paint0_linear_6_173" x1="4.98079" y1="19.7584" x2="18.5502" y2="20.317" gradientUnits="userSpaceOnUse">
      <stop stop-color="#C389FF"/>
      <stop offset="1" stop-color="#4488FF"/>
    </linearGradient>
    <linearGradient id="paint1_linear_6_173" x1="13.8188" y1="10.9205" x2="27.3882" y2="11.4791" gradientUnits="userSpaceOnUse">
      <stop stop-color="#C389FF"/>
      <stop offset="1" stop-color="#4488FF"/>
    </linearGradient>
  </defs>
  <path opacity="0.3" fill-rule="evenodd" clip-rule="evenodd" d="M13.2327 14.9995L10.5811 17.6512C10.3467 17.8856 10.215 18.2035 10.215 18.5351C10.215 18.8666 10.3467 19.1845 10.5811 19.4189C10.8155 19.6534 11.1334 19.7851 11.465 19.7851C11.7965 19.7851 12.1144 19.6534 12.3488 19.4189L15.0005 16.7673L15.8844 17.6512C16.3532 18.12 16.6166 18.7559 16.6166 19.4189C16.6166 20.082 16.3532 20.7179 15.8844 21.1867L12.3488 24.7222C11.88 25.1911 11.2441 25.4545 10.5811 25.4545C9.91804 25.4545 9.28215 25.1911 8.81331 24.7222L5.27778 21.1867C4.80894 20.7179 4.54554 20.082 4.54554 19.4189C4.54554 18.7559 4.80894 18.12 5.27778 17.6512L8.81331 14.1156C9.28215 13.6468 9.91804 13.3834 10.5811 13.3834C11.2441 13.3834 11.88 13.6468 12.3488 14.1156L13.2327 14.9995Z" fill="url(#paint0_linear_6_173)"/>
  <path fill-rule="evenodd" clip-rule="evenodd" d="M16.7674 15.0005L19.4191 12.3488C19.6535 12.1144 19.7852 11.7965 19.7852 11.4649C19.7852 11.1334 19.6535 10.8155 19.4191 10.5811C19.1847 10.3466 18.8667 10.2149 18.5352 10.2149C18.2037 10.2149 17.8857 10.3466 17.6513 10.5811L14.9997 13.2327L14.1158 12.3488C13.6469 11.88 13.3836 11.2441 13.3836 10.5811C13.3836 9.91801 13.6469 9.28213 14.1158 8.81329L17.6513 5.27775C18.1202 4.80891 18.756 4.54552 19.4191 4.54552C20.0821 4.54552 20.718 4.80891 21.1869 5.27775L24.7224 8.81329C25.1912 9.28213 25.4546 9.91801 25.4546 10.5811C25.4546 11.2441 25.1912 11.88 24.7224 12.3488L21.1869 15.8844C20.718 16.3532 20.0821 16.6166 19.4191 16.6166C18.756 16.6166 18.1202 16.3532 17.6513 15.8844L16.7674 15.0005Z" fill="url(#paint1_linear_6_173)"/>
</svg>
