<svg width="20" height="20" viewBox="0 0 20 20" fill="none" xmlns="http://www.w3.org/2000/svg">
<path fill-rule="evenodd" clip-rule="evenodd" d="M6.10537 2.24306C6.22352 2.42397 6.36372 2.63865 6.53571 2.89286C8.76906 1.9187 9.39859 1.18347 10.0357 0C10.404 0 10.4711 0.479008 10.6722 1.91459C10.6856 2.00996 10.6996 2.11034 10.7143 2.21429C12.2981 2.48644 13.3201 2.20968 15.0714 1.42857C15.2857 1.64286 14.9802 2.28278 14.4286 3.42857C16.3432 4.90911 17.2046 5.1699 18.6429 5.07143C18.7275 5.55095 18.4265 5.76114 17.7738 6.21698C17.6001 6.33829 17.4014 6.47705 17.1786 6.64286C18.15 8.55042 18.7974 9.26651 20 10.0714C20.0048 10.439 19.5961 10.473 18.5543 10.5596C18.3865 10.5735 18.2016 10.5889 18 10.6071C17.5883 12.5309 17.715 13.4471 18.6429 15.0357C18.4072 15.3046 18.0744 15.1476 17.3461 14.8038C17.1353 14.7043 16.8914 14.5892 16.6071 14.4643C15.1075 16.4735 14.8342 17.3907 15 18.7857C14.6371 18.8478 14.4233 18.5271 14.0035 17.8972C13.8716 17.6993 13.7193 17.4709 13.5357 17.2143C11.8 17.6037 11.0689 18.2804 10.0357 20C9.55358 19.995 9.5529 19.4893 9.5518 18.6746C9.55146 18.4187 9.55107 18.1324 9.53571 17.8214C6.89305 17.8298 5.63798 18.0436 5.03571 18.75C4.6574 18.4978 4.86881 18.085 5.41024 17.0279C5.48216 16.8875 5.5599 16.7357 5.64286 16.5714C3.57735 15.2095 2.583 14.7761 1.32143 15.0357C1.20961 14.6173 1.81162 14.1947 2.92857 13.4286C1.79705 11.1846 1.27005 10.6961 0 10.0357C0.00715224 9.68862 0.425783 9.67786 1.05533 9.66168C1.33456 9.65451 1.65528 9.64627 2 9.60714C2.42327 7.12718 2.14171 6.28365 1.28571 5.03571C1.52942 4.54565 2.38217 4.99124 3.5 5.64286C4.66524 3.8679 5.09559 2.88914 5.07143 1.32143C5.50348 1.32143 5.61293 1.48903 6.10537 2.24306Z" fill="#232842"/>
</svg>
