<svg width="20" height="20" viewBox="0 0 20 20" fill="none" xmlns="http://www.w3.org/2000/svg">
<path fill-rule="evenodd" clip-rule="evenodd" d="M3.58573 3.71043C3.60029 1.81613 4.09383 1.39695 6.03661 2.25345C6.32766 0.227758 6.83596 -0.0609909 8.4875 1.28213C9.60822 -0.451998 10.2528 -0.402575 11.4286 1.28213C12.98 0.113861 13.605 0.0941138 13.8794 2.25345C15.7767 1.41998 16.3338 1.72662 16.3303 3.71043C18.1366 3.52327 18.5265 3.99233 17.8009 6.13874C19.9822 6.49302 20.0409 7.07986 18.7812 8.56705C20.2274 9.60462 20.5758 10.2198 18.7812 11.481C20.0529 13.1514 19.8755 13.7051 17.8009 13.9093C18.6871 15.9656 18.1461 16.3295 16.3303 16.3376C16.2971 18.3063 15.7822 18.6421 13.8794 17.7946C13.6491 19.7322 13.2246 20.1834 11.4286 18.7659C10.3929 20.455 9.7436 20.3671 8.4875 18.7659C7.04082 19.9917 6.49235 19.8124 6.03661 17.7946C4.2894 18.6964 3.68191 18.5093 3.58573 16.3376C1.77403 16.3488 1.30337 15.9302 2.1152 13.9093C0.306916 13.6591 -0.247943 13.2927 1.13484 11.481C-0.229404 10.4966 -0.520188 9.89211 1.13484 8.56705C0.0694797 7.10592 -0.0366025 6.46195 2.1152 6.13874C1.3807 4.35562 1.42794 3.64266 3.58573 3.71043Z" fill="#232842"/>
</svg>
