<svg width="21" height="21" viewBox="0 0 21 21" fill="none" xmlns="http://www.w3.org/2000/svg">
<path fill-rule="evenodd" clip-rule="evenodd" d="M15.7499 16.9004H5.24992C5.1203 16.903 4.99198 16.874 4.87603 16.816C4.76008 16.758 4.65996 16.6726 4.5843 16.5674C4.50863 16.4621 4.45969 16.34 4.44168 16.2116C4.42367 16.0833 4.43714 15.9523 4.48093 15.8303C5.03786 14.7102 5.89627 13.7678 6.95961 13.109C8.02295 12.4502 9.24903 12.1012 10.4999 12.1012C11.7508 12.1012 12.9769 12.4502 14.0402 13.109C15.1036 13.7678 15.962 14.7102 16.5189 15.8303C16.5627 15.9523 16.5762 16.0833 16.5582 16.2116C16.5402 16.34 16.4912 16.4621 16.4156 16.5674C16.3399 16.6726 16.2398 16.758 16.1238 16.816C16.0079 16.874 15.8795 16.903 15.7499 16.9004ZM7.23293 7.3004C7.21962 6.65156 7.39985 6.01338 7.75065 5.46739C8.10145 4.92139 8.60691 4.4923 9.20258 4.23472C9.79825 3.97714 10.4571 3.90283 11.0952 4.02122C11.7333 4.13961 12.3217 4.44528 12.7853 4.89939C13.2489 5.35351 13.5668 5.93541 13.6984 6.5709C13.83 7.2064 13.7693 7.86675 13.5241 8.46763C13.2789 9.06851 12.8604 9.58277 12.3217 9.9448C11.7831 10.3068 11.1489 10.5002 10.4999 10.5003C9.64269 10.5081 8.81737 10.1755 8.20493 9.57566C7.5925 8.97579 7.24295 8.15761 7.23293 7.3004ZM18.4639 16.6094C18.1904 15.3407 17.5971 14.163 16.7404 13.1881C15.8837 12.2132 14.792 11.4735 13.5689 11.0393C14.2377 10.5185 14.7548 9.82831 15.0666 9.04014C15.3784 8.25197 15.4735 7.39468 15.3419 6.55735C15.1301 5.35758 14.4797 4.27946 13.5171 3.53257C12.5546 2.78568 11.3487 2.42344 10.1339 2.51622C8.91909 2.60899 7.7822 3.15013 6.94424 4.03453C6.10627 4.91892 5.62712 6.08334 5.59992 7.30137C5.60148 8.02253 5.76715 8.73381 6.08438 9.38145C6.40162 10.0291 6.86209 10.596 7.43092 11.0393C6.20701 11.4729 5.1143 12.2123 4.25667 13.1872C3.39904 14.1621 2.80496 15.3402 2.53092 16.6094C2.48755 16.8434 2.49697 17.0843 2.55849 17.3143C2.62001 17.5443 2.73208 17.7576 2.88653 17.9388C3.04098 18.12 3.23391 18.2644 3.45126 18.3616C3.66862 18.4587 3.90492 18.5061 4.14292 18.5003H16.8569C17.0946 18.5055 17.3304 18.4576 17.5473 18.3602C17.7642 18.2628 17.9566 18.1183 18.1106 17.9372C18.2646 17.7561 18.3763 17.5429 18.4376 17.3132C18.4989 17.0835 18.5072 16.8431 18.4639 16.6094Z" fill="black"/>
</svg>
