<svg width="20" height="20" viewBox="0 0 20 20" fill="none" xmlns="http://www.w3.org/2000/svg">
<path d="M13.173 13.172H16.102V16.101H13.173V13.172Z" fill="black"/>
<path d="M10.8199 10.818H13.1629V13.161H10.8199V10.818Z" fill="black"/>
<path d="M16.113 16.113H18.456V18.456H16.113V16.113Z" fill="black"/>
<path d="M16.699 10.818H18.457V12.576H16.699V10.818Z" fill="black"/>
<path d="M10.819 16.697H12.577V18.455H10.819V16.697Z" fill="black"/>
<path d="M13.173 4.35498H16.102V7.28398H13.173V4.35498Z" fill="black"/>
<path d="M18.457 9.616H10.841V2H18.457V9.616ZM12.457 8.007H16.851V3.613H12.454L12.457 8.007Z" fill="black"/>
<path d="M4.35596 4.35498H7.28496V7.28398H4.35596V4.35498Z" fill="black"/>
<path d="M9.61698 9.616H2.00098V2H9.61698V9.616ZM3.61698 8.007H8.00798V3.613H3.61398L3.61698 8.007Z" fill="black"/>
<path d="M4.35596 13.172H7.28496V16.101H4.35596V13.172Z" fill="black"/>
<path d="M9.61698 18.456H2.00098V10.84H9.61698V18.456ZM3.61698 16.847H8.00798V12.453H3.61398L3.61698 16.847Z" fill="black"/>
</svg>
