<svg width="24" height="24" viewBox="0 0 24 24" fill="none" xmlns="http://www.w3.org/2000/svg">
<path d="M7.85356 9.26748V12.1515C7.97417 12.1608 8.08559 12.1655 8.18782 12.1654H8.64748C8.98471 12.1704 9.3207 12.1234 9.64365 12.0262C9.91976 11.9442 10.1665 11.7846 10.3545 11.5663C10.5489 11.3113 10.6453 10.9948 10.626 10.6747C10.6334 10.4052 10.5633 10.1392 10.424 9.90843C10.2776 9.68525 10.066 9.51256 9.81797 9.41384C9.49411 9.2879 9.14815 9.22865 8.80084 9.23963C8.57799 9.23963 8.38065 9.24196 8.2088 9.24662C8.0367 9.2514 7.91828 9.25835 7.85356 9.26748Z" fill="black"/>
<path fill-rule="evenodd" clip-rule="evenodd" d="M3.75 0C1.67893 0 0 1.67893 0 3.75V20.25C0 22.3211 1.67893 24 3.75 24H20.25C22.3211 24 24 22.3211 24 20.25V3.75C24 1.67893 22.3211 0 20.25 0H3.75ZM14.6433 11.4619L13.6618 11.433C13.5967 11.4238 13.5641 11.3912 13.5641 11.3355V10.1135C13.5623 10.1002 13.5635 10.0867 13.5677 10.074C13.572 10.0613 13.5791 10.0498 13.5886 10.0404C13.5981 10.0309 13.6096 10.0238 13.6223 10.0195C13.635 10.0153 13.6485 10.0141 13.6618 10.016L14.6433 10.0267V9.99942C14.6413 9.58263 14.6645 9.16609 14.7128 8.7521C14.7554 8.50863 14.8304 8.27197 14.9359 8.04845C15.116 7.67426 15.3895 7.35278 15.73 7.11498C16.1366 6.85581 16.6137 6.72925 17.0954 6.75277C17.2304 6.75207 17.3653 6.75904 17.4995 6.77364C17.636 6.78543 17.771 6.81112 17.9023 6.85031C17.9313 6.86006 17.9565 6.87884 17.974 6.9039C17.9916 6.92896 18.0007 6.95899 18 6.98959V8.36893C18 8.43402 17.9628 8.45725 17.8884 8.43861C17.8233 8.42942 17.6712 8.42464 17.5969 8.42464H17.3881C17.1993 8.42179 17.0117 8.45488 16.8354 8.52217C16.705 8.5929 16.6057 8.70964 16.5568 8.84963C16.4891 9.04905 16.4584 9.25916 16.4662 9.46962V10.0267H17.8275C17.883 10.0267 17.9179 10.036 17.9319 10.0546C17.9476 10.0795 17.9549 10.1088 17.9529 10.1382V11.3644C17.9529 11.4295 17.9111 11.462 17.8275 11.462H16.4662L16.4771 16.6339C16.4767 16.663 16.4696 16.6916 16.4563 16.7175C16.4423 16.7453 16.4076 16.7593 16.3517 16.7593H14.7657C14.6912 16.7593 14.6542 16.7175 14.6542 16.6339L14.6433 11.4619ZM6 16.596V7.69316C6 7.62825 6.02795 7.59563 6.08366 7.59563C6.23202 7.59563 6.33926 7.59343 6.54372 7.58865C6.74799 7.58405 6.96862 7.57942 7.20562 7.57476C7.44244 7.57017 7.69322 7.56551 7.95797 7.56079C8.22273 7.5562 8.48511 7.55387 8.74509 7.55381C9.35036 7.53828 9.95373 7.62786 10.5284 7.81857C10.9642 7.96601 11.3617 8.20875 11.6919 8.52912C11.9717 8.80683 12.188 9.14193 12.3258 9.51131C12.456 9.87086 12.522 10.2505 12.5207 10.6329C12.547 11.2849 12.3666 11.9286 12.0052 12.472C11.6593 12.9568 11.1731 13.324 10.612 13.5238C9.98672 13.749 9.32601 13.86 8.66143 13.8513C8.45698 13.8513 8.31307 13.849 8.22972 13.8443C8.14607 13.8397 8.02067 13.8374 7.85355 13.8373V16.582C7.85597 16.5991 7.85439 16.6164 7.84895 16.6327C7.8435 16.6491 7.83433 16.6639 7.82217 16.676C7.81001 16.6882 7.79518 16.6974 7.77886 16.7028C7.76255 16.7083 7.74519 16.7098 7.72816 16.7074H6.09764C6.03254 16.7074 6 16.6703 6 16.596Z" fill="black"/>
</svg>
