<svg width="24" height="24" viewBox="0 0 24 24" fill="none" xmlns="http://www.w3.org/2000/svg">
<g clip-path="url(#clip0_502_7)">
<path d="M19.0496 0.133423H4.92061C2.27438 0.133423 0.131836 2.2757 0.131836 4.92193V19.054C0.131836 21.6974 2.27438 23.8399 4.92061 23.8399H19.0527C21.6958 23.8396 23.8412 21.6974 23.8412 19.0511V4.92193C23.8384 2.2757 21.6958 0.133423 19.0496 0.133423ZM6.6867 18.9028C6.39033 19.4215 5.72963 19.5962 5.21092 19.2998C4.69221 19.0035 4.51755 18.3428 4.81392 17.824L5.58447 16.4905C6.45566 16.2208 7.16405 16.4284 7.72412 17.1038L6.6867 18.9028ZM14.1778 15.9929H4.3695C3.77097 15.9929 3.29098 15.5129 3.29098 14.9141C3.29098 14.3156 3.77097 13.8356 4.3695 13.8356H7.11953L10.6398 7.73412L9.54052 5.82578C9.24415 5.30707 9.41908 4.65243 9.93752 4.35C10.4562 4.05364 11.1109 4.22856 11.4133 4.747L11.8843 5.57973L12.3643 4.7499C12.6607 4.23119 13.3214 4.05653 13.8401 4.3529C14.3588 4.64927 14.5335 5.30997 14.2371 5.82868L9.61139 13.8356H12.957C14.0416 13.8356 14.6491 15.1098 14.1778 15.9929ZM19.4616 15.9989H17.9028L18.9547 17.8243C19.2511 18.343 19.0762 18.9977 18.5577 19.3001C18.039 19.5965 17.3844 19.4215 17.082 18.9031C15.3098 15.8298 13.9794 13.5303 13.0964 11.9984C12.1925 10.4396 12.8385 8.87507 13.4758 8.34451C14.1839 9.55948 15.2418 11.3938 16.6555 13.8414H19.4616C20.0601 13.8414 20.5404 14.3214 20.5404 14.9202C20.5401 15.5187 20.0601 15.9989 19.4616 15.9989Z" fill="black"/>
</g>
<defs>
<clipPath id="clip0_502_7">
<rect width="24" height="24" fill="white"/>
</clipPath>
</defs>
</svg>
