<svg width="24" height="24" viewBox="0 0 24 24" fill="none" xmlns="http://www.w3.org/2000/svg">
<g clip-path="url(#clip0_1197_173)">
<path d="M17.9572 0H6.0428C2.70546 0 0 2.70546 0 6.0428V17.9572C0 21.2945 2.70546 24 6.0428 24H17.9572C21.2945 24 24 21.2945 24 17.9572V6.0428C24 2.70546 21.2945 0 17.9572 0Z" fill="black"/>
<path d="M12.0451 13.8228C12.0451 14.1451 11.9797 14.4321 11.8487 14.6788C11.7178 14.9256 11.5416 15.127 11.315 15.2932C11.0884 15.4594 10.8265 15.5853 10.5244 15.6709C10.2273 15.7565 9.90497 15.8018 9.56758 15.8018H5.86133V8.12744H9.97043C10.2373 8.12744 10.479 8.18283 10.6956 8.29865C10.9121 8.41447 11.0934 8.56555 11.2445 8.74683C11.3955 8.93315 11.5113 9.13961 11.597 9.37629C11.6775 9.61296 11.7228 9.84461 11.7228 10.0863C11.7228 10.459 11.6272 10.8115 11.4408 11.1388C11.2545 11.4661 10.9776 11.7078 10.62 11.8689C11.0581 11.9999 11.4056 12.2315 11.6624 12.5639C11.9192 12.9013 12.0451 13.3192 12.0451 13.8228ZM7.35189 9.40147V11.3352H9.34097C9.59276 11.3352 9.80929 11.2496 9.98554 11.0733C10.1618 10.9021 10.2524 10.6604 10.2524 10.3582C10.2524 10.0561 10.1719 9.8295 10.0107 9.65325C9.84958 9.48204 9.64815 9.39139 9.41148 9.39139H7.35692L7.35189 9.40147ZM10.5395 13.5408C10.5395 13.4048 10.5143 13.2739 10.469 13.148C10.4236 13.0221 10.3582 12.9113 10.2776 12.8207C10.197 12.725 10.1064 12.6545 9.99561 12.5991C9.88986 12.5437 9.76901 12.5185 9.63808 12.5185H7.34685V14.5378H9.56254C9.69851 14.5378 9.82944 14.5127 9.94526 14.4623C10.0661 14.412 10.1668 14.3415 10.2524 14.2508C10.338 14.1602 10.4085 14.0544 10.4589 13.9336C10.5093 13.8127 10.5344 13.6818 10.5344 13.5458L10.5395 13.5408Z" fill="white"/>
<path d="M15.2733 15.8016C14.8352 15.8016 14.4374 15.7261 14.0798 15.575C13.3748 15.2729 12.8763 14.7693 12.5893 14.0593C12.4533 13.7169 12.3828 13.3593 12.3828 12.9817C12.3828 12.604 12.4483 12.2213 12.5842 11.8788C12.8662 11.1587 13.3648 10.6501 14.0748 10.343C14.4323 10.1919 14.8402 10.1113 15.2834 10.1113C15.7265 10.1113 16.1294 10.1869 16.4818 10.343C17.6401 10.8465 18.1889 11.9695 18.1386 13.1932C18.1386 13.2788 18.1285 13.3493 18.1134 13.4047H13.8683C13.8885 13.6212 13.9439 13.8125 14.0244 13.9787C14.11 14.1449 14.2158 14.2909 14.3467 14.4068C14.4777 14.5276 14.6287 14.6183 14.7949 14.6787C14.9611 14.7391 15.1373 14.7744 15.3186 14.7744C15.5956 14.7744 15.8625 14.7039 16.1092 14.5679C16.356 14.4319 16.5272 14.2506 16.6178 14.0291L17.8213 14.3665C17.6199 14.7844 17.2976 15.1319 16.8545 15.3988C16.4113 15.6657 15.8826 15.8016 15.2683 15.8016H15.2733ZM16.6984 12.4882C16.6631 12.0752 16.5121 11.7479 16.2401 11.4961C15.9732 11.2494 15.6459 11.1235 15.2582 11.1235C15.0719 11.1235 14.8956 11.1587 14.7294 11.2242C14.5633 11.2897 14.4223 11.3854 14.2964 11.5012C14.1705 11.622 14.0698 11.763 13.9892 11.9292C13.9086 12.0954 13.8633 12.2817 13.8482 12.4831H16.6984V12.4882Z" fill="white"/>
<path d="M13.4297 8.49023H17.1007V9.40169H13.4297V8.49023Z" fill="white"/>
</g>
<defs>
<clipPath id="clip0_1197_173">
<rect width="24" height="24" fill="white"/>
</clipPath>
</defs>
</svg>
