<svg width="24" height="24" viewBox="0 0 24 24" fill="none" xmlns="http://www.w3.org/2000/svg">
<g clip-path="url(#clip0_1197_181)">
<path d="M17.9572 0H6.0428C2.70546 0 0 2.70546 0 6.0428V17.9572C0 21.2945 2.70546 24 6.0428 24H17.9572C21.2945 24 24 21.2945 24 17.9572V6.0428C24 2.70546 21.2945 0 17.9572 0Z" fill="black"/>
<path d="M17.2622 7.19097C16.2652 6.73272 15.2177 6.41044 14.1351 6.22412C13.9991 6.46583 13.843 6.78812 13.7372 7.04494C12.5891 6.87372 11.4208 6.87372 10.2727 7.04494C10.1518 6.76294 10.0109 6.49101 9.85978 6.22412C8.77711 6.40541 7.72466 6.73272 6.73263 7.19601C4.75865 10.1368 4.22487 13.0072 4.49176 15.8372C5.64996 16.6983 6.94916 17.353 8.32894 17.7709C8.64115 17.3479 8.91308 16.9048 9.14975 16.4365C8.70158 16.2703 8.26851 16.0638 7.85558 15.8171C7.96133 15.7365 8.06708 15.6559 8.1678 15.5703C10.595 16.7185 13.4099 16.7185 15.8422 15.5703C15.9429 15.6559 16.0537 15.7365 16.1594 15.8171C15.7465 16.0638 15.3134 16.2703 14.8652 16.4365C15.1019 16.8997 15.3789 17.3479 15.6861 17.7659C17.0658 17.3479 18.365 16.6933 19.5232 15.8322C19.8354 12.554 18.9844 9.7088 17.2673 7.18593L17.2622 7.19097ZM9.48211 14.0999C8.73179 14.0999 8.12247 13.4151 8.12247 12.5741C8.12247 11.7331 8.72172 11.0433 9.48211 11.0433C10.2425 11.0433 10.8518 11.7281 10.8468 12.5691C10.8417 13.41 10.2475 14.0999 9.48211 14.0999ZM14.5178 14.0999C13.7675 14.0999 13.1581 13.4151 13.1581 12.5741C13.1581 11.7331 13.7574 11.0433 14.5178 11.0433C15.2782 11.0433 15.8875 11.7281 15.8774 12.5691C15.8673 13.41 15.2782 14.0999 14.5178 14.0999Z" fill="white"/>
</g>
<defs>
<clipPath id="clip0_1197_181">
<rect width="24" height="24" fill="white"/>
</clipPath>
</defs>
</svg>
