<svg width="24" height="24" viewBox="0 0 24 24" fill="none" xmlns="http://www.w3.org/2000/svg">
<path d="M17.124 11.952C17.1 10.74 16.68 9.636 15.96 8.76C15.852 8.904 14.988 10.02 13.116 10.776C13.236 11.016 13.344 11.268 13.452 11.52C13.47 11.5621 13.4881 11.6072 13.5061 11.6523C13.5241 11.6972 13.542 11.7421 13.56 11.784C15.264 11.58 16.956 11.916 17.124 11.952Z" fill="black"/>
<path d="M15.396 8.172C14.496 7.38 13.296 6.888 12 6.888C11.58 6.888 11.184 6.936 10.8 7.02C10.816 7.0433 10.8439 7.08233 10.882 7.13569C11.1578 7.52206 11.9699 8.65986 12.708 10.02C14.532 9.336 15.3 8.304 15.396 8.172Z" fill="black"/>
<path d="M11.712 10.332C10.86 8.82 9.94801 7.548 9.81601 7.368C8.38799 8.04 7.32001 9.36 6.97199 10.956L6.98442 10.956C7.26801 10.9562 9.35058 10.9578 11.712 10.332Z" fill="black"/>
<path d="M6.876 11.856V12.012C6.876 13.32 7.368 14.52 8.19601 15.432L8.20434 15.4186C8.3703 15.1512 9.77062 12.8957 12.36 12.06C12.3919 12.0494 12.4238 12.0411 12.4546 12.0331C12.4934 12.023 12.5306 12.0134 12.564 12C12.432 11.7 12.288 11.412 12.144 11.124C9.588 11.892 7.092 11.868 6.876 11.856Z" fill="black"/>
<path d="M8.85601 16.044C9.71999 16.716 10.812 17.124 12 17.124C12.708 17.124 13.392 16.98 14.004 16.716C13.932 16.26 13.632 14.7 12.912 12.828C12.9 12.828 12.888 12.828 12.876 12.84C9.98401 13.848 8.952 15.852 8.85601 16.044Z" fill="black"/>
<path d="M13.86 12.6C14.532 14.436 14.808 15.936 14.856 16.248C16.008 15.48 16.824 14.244 17.052 12.816C17.0438 12.8138 17.033 12.8108 17.0198 12.8072C16.7435 12.7311 15.3946 12.3595 13.86 12.6Z" fill="black"/>
<path fill-rule="evenodd" clip-rule="evenodd" d="M3.75 0H20.25C22.3211 0 24 1.67893 24 3.75V20.25C24 22.3211 22.3211 24 20.25 24H3.75C1.67894 24 0 22.3211 0 20.25V3.75C0 1.67893 1.67894 0 3.75 0ZM6 12C6 8.688 8.68801 6 12 6C15.3 6 18 8.688 18 12C18 15.312 15.3 18 12 18C8.68801 18 6 15.312 6 12Z" fill="black"/>
</svg>
