<svg width="24" height="24" viewBox="0 0 24 24" fill="none" xmlns="http://www.w3.org/2000/svg">
<path d="M9 10.7316L12 8.82182L15 10.7316L12 12.6414L9 10.7316Z" fill="black"/>
<path fill-rule="evenodd" clip-rule="evenodd" d="M3.75 0H20.25C22.3211 0 24 1.67893 24 3.75V20.25C24 22.3211 22.3211 24 20.25 24H3.75C1.67894 24 0 22.3211 0 20.25V3.75C0 1.67893 1.67894 0 3.75 0ZM9 10.7316L6 8.82182L9 6.912L12 8.82182L15 6.912L18 8.82182L15 10.7316L18 12.6414L15 14.5513L12 12.6414L9 14.5513L6 12.6414L9 10.7316ZM11.992 13.278L8.99203 15.1879L11.992 17.0977L14.992 15.1879L11.992 13.278Z" fill="black"/>
</svg>
