<svg width="24" height="24" viewBox="0 0 24 24" fill="none" xmlns="http://www.w3.org/2000/svg">
<rect width="24" height="24" rx="6" fill="black"/>
<path d="M4.14629 6.86887C4.07788 6.75699 4.03224 6.63277 4.01198 6.50329C3.99171 6.37381 3.99721 6.24162 4.02816 6.11427C4.05912 5.98691 4.11492 5.86689 4.19239 5.76105C4.26985 5.65521 4.36746 5.56564 4.47964 5.49745L6.6584 4.16726C6.77044 4.09283 6.89639 4.04173 7.0287 4.01703C7.16102 3.99232 7.29696 3.99452 7.4284 4.02349C7.55984 4.05245 7.68407 4.1076 7.79363 4.18561C7.9032 4.26362 7.99585 4.36289 8.06603 4.47748C8.13622 4.59206 8.18249 4.71961 8.20208 4.85246C8.22167 4.98532 8.21417 5.12075 8.18003 5.25065C8.1459 5.38054 8.08582 5.50222 8.00342 5.6084C7.92101 5.71458 7.81796 5.80307 7.70045 5.86857L5.52102 7.19876C5.40887 7.267 5.28435 7.31253 5.15456 7.33275C5.02477 7.35297 4.89226 7.34748 4.76459 7.3166C4.63693 7.28572 4.51662 7.23005 4.41053 7.15277C4.30444 7.07549 4.21465 6.97812 4.14629 6.86621V6.86887ZM19.525 15.9807C19.2993 15.8418 19.0275 15.798 18.7694 15.859C18.5114 15.92 18.2882 16.0808 18.1489 16.3059L16.8155 18.4615C16.7434 18.573 16.6943 18.6977 16.6711 18.8283C16.6479 18.9589 16.6511 19.0929 16.6804 19.2223C16.7097 19.3517 16.7646 19.474 16.8419 19.582C16.9191 19.6899 17.0172 19.7815 17.1304 19.8512C17.2435 19.9209 17.3695 19.9674 17.5009 19.9879C17.6323 20.0085 17.7664 20.0027 17.8956 19.9709C18.0247 19.9391 18.1461 19.8819 18.2528 19.8027C18.3595 19.7235 18.4493 19.6239 18.5169 19.5097L19.8503 17.3541C19.9195 17.2426 19.966 17.1186 19.987 16.9891C20.0081 16.8597 20.0034 16.7274 19.9732 16.5998C19.943 16.4721 19.8879 16.3517 19.8109 16.2454C19.734 16.139 19.6369 16.0489 19.525 15.98V15.9807ZM17.8896 14.3179L15.4895 18.2187C15.1976 18.6957 14.8005 19.1 14.3285 19.4009C13.8565 19.7018 13.3219 19.8914 12.7653 19.9553C12.6186 19.9722 12.471 19.9808 12.3233 19.9812C11.5039 19.978 10.7091 19.701 10.0659 19.1944C9.54269 19.7005 8.84171 19.9821 8.11298 19.9791C7.38425 19.976 6.68567 19.6885 6.16673 19.1781C5.64778 18.6678 5.34972 17.975 5.33632 17.2481C5.32293 16.5213 5.59526 15.8181 6.09504 15.289L5.099 14.2913C4.70036 13.8969 4.39709 13.4171 4.21225 12.8882C4.02741 12.3593 3.96586 11.7954 4.03228 11.2392C4.09548 10.6886 4.28366 10.1596 4.58252 9.69236C4.88138 9.22515 5.28306 8.83205 5.75703 8.54292L9.41519 6.29024C10.4243 5.64612 11.6038 5.31873 12.8013 5.35039C13.9989 5.38205 15.1594 5.77129 16.1328 6.46782L16.9595 5.64244C17.1471 5.45528 17.4016 5.35014 17.6669 5.35014C17.9322 5.35014 18.1867 5.45528 18.3743 5.64244C18.5619 5.82959 18.6673 6.08343 18.6673 6.3481C18.6673 6.61278 18.5619 6.86661 18.3743 7.05377L17.5482 7.87782C18.2117 8.80876 18.5961 9.90875 18.6566 11.0494C18.717 12.1901 18.451 13.3244 17.8896 14.3199V14.3179ZM15.4895 8.52695C14.8426 7.87768 13.9922 7.46921 13.08 7.3696C12.1678 7.27 11.2489 7.48528 10.4766 7.97958L6.80974 10.2409C6.59343 10.3733 6.41018 10.553 6.27387 10.7666C6.13756 10.9801 6.05178 11.2218 6.02304 11.4733C5.99258 11.7304 6.0213 11.991 6.10703 12.2354C6.19275 12.4797 6.33321 12.7013 6.51773 12.8833L11.1259 17.4911C11.3086 17.6725 11.53 17.8103 11.7736 17.8943C12.0172 17.9782 12.2767 18.0061 12.5326 17.9758C12.7885 17.9456 13.0343 17.858 13.2515 17.7195C13.4687 17.5811 13.6516 17.3955 13.7867 17.1765L16.1688 13.307C16.5914 12.5451 16.7538 11.6667 16.6313 10.8046C16.5088 9.94253 16.1083 9.14368 15.4901 8.52895L15.4895 8.52695Z" fill="white"/>
</svg>
