<svg width="24" height="24" viewBox="0 0 24 24" fill="none" xmlns="http://www.w3.org/2000/svg">
<rect width="24" height="24" rx="6" fill="black"/>
<path d="M18.6827 5.86927C18.2667 5.51475 17.7792 5.25886 17.2551 5.11997C16.7309 4.98108 16.1832 4.96264 15.6513 5.06597L13.4627 5.53513C12.9188 5.63463 12.4126 5.88624 12 6.26205C11.5961 5.88901 11.0986 5.63826 10.5633 5.53786L8.32267 5.06051C7.79444 4.96226 7.25156 4.98386 6.7324 5.12379C6.21323 5.26372 5.73043 5.51857 5.31813 5.87032C4.90583 6.22207 4.57407 6.66215 4.34631 7.15945C4.11854 7.65676 4.00032 8.19916 4 8.74833V15.4257C3.99881 16.3017 4.29786 17.1504 4.84512 17.8241C5.39238 18.4979 6.15324 18.9542 6.99534 19.1135L10.8667 19.8957C11.2393 19.9652 11.6173 20.0001 11.996 20C12.3824 19.9997 12.7679 19.9639 13.148 19.8929L16.9893 19.1135C17.8337 18.9565 18.5974 18.5014 19.1475 17.8277C19.6977 17.154 19.9993 16.3042 20 15.4264V8.74833C20.0005 8.19895 19.8828 7.65618 19.6551 7.15859C19.4274 6.66101 19.0954 6.22081 18.6827 5.86927V5.86927ZM11 17.8376L7.36867 17.1039C6.98459 17.0325 6.63719 16.8255 6.38707 16.5189C6.13694 16.2123 5.99996 15.8257 6 15.4264V8.74833C6.00123 8.29728 6.17667 7.86501 6.4881 7.54569C6.79953 7.22636 7.22171 7.04587 7.66267 7.04353C7.75523 7.04335 7.84761 7.0518 7.93867 7.06877L10.1793 7.54611C10.4096 7.58904 10.6178 7.71321 10.7678 7.897C10.9177 8.08079 10.9999 8.31255 11 8.55194V17.8376ZM18 15.4264C17.9993 15.8281 17.8602 16.2167 17.6072 16.524C17.3543 16.8312 17.0035 17.0375 16.6167 17.1066L13 17.8376V8.55194C13.0014 8.30807 13.0873 8.07261 13.2425 7.88744C13.3976 7.70226 13.6119 7.57939 13.8473 7.54065L16.0353 7.07217C16.2754 7.02755 16.5221 7.03739 16.7581 7.101C16.9941 7.16461 17.2135 7.28044 17.4009 7.44031C17.5882 7.60018 17.739 7.80019 17.8426 8.02621C17.9461 8.25222 17.9998 8.49874 18 8.74833V15.4264Z" fill="white"/>
</svg>
