<svg width="24" height="24" viewBox="0 0 24 24" fill="none" xmlns="http://www.w3.org/2000/svg">
<rect width="24" height="24" rx="6" fill="black"/>
<path d="M20 7.66666C19.9978 5.64253 18.3575 4.00222 16.3333 4H7.66666C5.64253 4.00222 4.00222 5.64253 4 7.66666V8.33331C4.00025 8.94238 4.23966 9.527 4.66666 9.96131V16.3333C4.66888 18.3575 6.30922 19.9978 8.33334 20H15.6667C17.6908 19.9978 19.3312 18.3575 19.3333 16.3333V9.96134C19.7604 9.52703 19.9998 8.94241 20 8.33334V7.66666ZM6 7.66666C6 6.74619 6.74619 6 7.66666 6H16.3333C17.2538 6 18 6.74619 18 7.66666V8.33331C18 8.51741 17.8508 8.66666 17.6667 8.66666H6.33334C6.14925 8.66666 6 8.51741 6 8.33331V7.66666ZM17.3333 16.3333C17.3333 17.2538 16.5872 18 15.6667 18H8.33334C7.41288 18 6.66669 17.2538 6.66669 16.3333V10.6667H17.3333V16.3333V16.3333Z" fill="white"/>
<path d="M10.3333 12H13.6666C14.2189 12 14.6666 12.4477 14.6666 13C14.6666 13.5523 14.2189 14 13.6666 14H10.3333C9.78097 14 9.33325 13.5523 9.33325 13C9.33325 12.4477 9.78097 12 10.3333 12Z" fill="white"/>
</svg>
