<svg width="24" height="24" viewBox="0 0 24 24" fill="none" xmlns="http://www.w3.org/2000/svg">
<rect width="24" height="24" rx="6" fill="black"/>
<path d="M18.8651 12.8047L17.6566 8.60713C17.2668 7.25459 16.4206 6.06679 15.2527 5.23246C14.0847 4.39812 12.6618 3.96511 11.2101 4.0022C9.75848 4.03929 8.36126 4.54437 7.24048 5.43719C6.11971 6.33001 5.33965 7.55936 5.02426 8.92992L4.09032 12.9908C3.96711 13.5269 3.96999 14.083 4.09875 14.6179C4.22751 15.1528 4.47886 15.6529 4.83425 16.0814C5.18965 16.5098 5.64001 16.8556 6.1521 17.0932C6.66419 17.3309 7.22494 17.4543 7.79297 17.4544H8.06888C8.28838 18.1884 8.7486 18.8335 9.3802 19.2926C10.0118 19.7517 10.7806 20 11.5708 20C12.361 20 13.1298 19.7517 13.7614 19.2926C14.393 18.8335 14.8532 18.1884 15.0727 17.4544H15.2059C15.7907 17.4545 16.3677 17.3238 16.8917 17.0726C17.4157 16.8214 17.8725 16.4564 18.2264 16.0062C18.5804 15.556 18.8219 15.0328 18.9321 14.4774C19.0423 13.9221 19.0181 13.3496 18.8616 12.8047H18.8651ZM16.5826 14.7948C16.4225 15.0003 16.215 15.1669 15.9766 15.2813C15.7382 15.3957 15.4755 15.4547 15.2093 15.4537H7.79297C7.5348 15.4536 7.27993 15.3975 7.04718 15.2895C6.81442 15.1815 6.60973 15.0243 6.44819 14.8296C6.28665 14.6349 6.17239 14.4076 6.11385 14.1645C6.05531 13.9213 6.05398 13.6686 6.10995 13.4249L7.04389 9.35674C7.25835 8.42044 7.79059 7.58041 8.55588 6.97038C9.32117 6.36034 10.2755 6.01536 11.267 5.99036C12.2585 5.96536 13.2302 6.26177 14.0273 6.83241C14.8245 7.40304 15.4013 8.21511 15.6659 9.13933L16.8716 13.3369C16.9444 13.5849 16.9561 13.8458 16.906 14.099C16.8558 14.3521 16.745 14.5904 16.5826 14.7948V14.7948Z" fill="white"/>
</svg>
