<svg width="24" height="24" viewBox="0 0 24 24" fill="none" xmlns="http://www.w3.org/2000/svg">
<rect width="24" height="24" rx="6" fill="black"/>
<path d="M15.25 4H9.11364C8.42314 4.00073 7.74626 4.18786 7.1576 4.54076C6.56894 4.89366 6.09136 5.39863 5.7775 6H5.02273C4.75148 6 4.49135 6.10536 4.29955 6.29289C4.10775 6.48043 4 6.73478 4 7C4 7.26522 4.10775 7.51957 4.29955 7.70711C4.49135 7.89464 4.75148 8 5.02273 8H5.36364V9.33333H5.02273C4.75148 9.33333 4.49135 9.43869 4.29955 9.62623C4.10775 9.81376 4 10.0681 4 10.3333C4 10.5986 4.10775 10.8529 4.29955 11.0404C4.49135 11.228 4.75148 11.3333 5.02273 11.3333H5.36364V12.6667H5.02273C4.75148 12.6667 4.49135 12.772 4.29955 12.9596C4.10775 13.1471 4 13.4015 4 13.6667C4 13.9319 4.10775 14.1862 4.29955 14.3738C4.49135 14.5613 4.75148 14.6667 5.02273 14.6667H5.36364V16H5.02273C4.75148 16 4.49135 16.1054 4.29955 16.2929C4.10775 16.4804 4 16.7348 4 17C4 17.2652 4.10775 17.5196 4.29955 17.7071C4.49135 17.8946 4.75148 18 5.02273 18H5.7775C6.09136 18.6014 6.56894 19.1063 7.1576 19.4592C7.74626 19.8121 8.42314 19.9993 9.11364 20H15.25C16.2442 19.9989 17.1974 19.6123 17.9005 18.9249C18.6035 18.2375 18.9989 17.3055 19 16.3333V7.66667C18.9989 6.69453 18.6035 5.76252 17.9005 5.07511C17.1974 4.38771 16.2442 4.00106 15.25 4V4ZM16.9545 16.3333C16.9545 16.7754 16.775 17.1993 16.4553 17.5118C16.1356 17.8244 15.7021 18 15.25 18H9.11364C8.66156 18 8.22801 17.8244 7.90834 17.5118C7.58868 17.1993 7.40909 16.7754 7.40909 16.3333V7.66667C7.40909 7.22464 7.58868 6.80072 7.90834 6.48816C8.22801 6.17559 8.66156 6 9.11364 6H15.25C15.7021 6 16.1356 6.17559 16.4553 6.48816C16.775 6.80072 16.9545 7.22464 16.9545 7.66667V16.3333ZM10.4773 10.3333C10.4773 9.89131 10.6569 9.46738 10.9765 9.15482C11.2962 8.84226 11.7297 8.66667 12.1818 8.66667C12.6339 8.66667 13.0674 8.84226 13.3871 9.15482C13.7068 9.46738 13.8864 9.89131 13.8864 10.3333C13.8864 10.7754 13.7068 11.1993 13.3871 11.5118C13.0674 11.8244 12.6339 12 12.1818 12C11.7297 12 11.2962 11.8244 10.9765 11.5118C10.6569 11.1993 10.4773 10.7754 10.4773 10.3333ZM14.9009 14.8213C14.9112 14.8855 14.907 14.9511 14.8885 15.0134C14.87 15.0758 14.8378 15.1335 14.794 15.1823C14.7502 15.2312 14.696 15.27 14.6352 15.2961C14.5744 15.3222 14.5084 15.3349 14.442 15.3333H9.90045C9.83406 15.3349 9.76812 15.3222 9.7073 15.2961C9.64649 15.27 9.59227 15.2312 9.5485 15.1823C9.50473 15.1335 9.47247 15.0758 9.45399 15.0134C9.43552 14.9511 9.43128 14.8855 9.44159 14.8213C10.0286 11.9767 14.3145 11.9787 14.9009 14.8213Z" fill="white"/>
</svg>
