<svg width="24" height="24" viewBox="0 0 24 24" fill="none" xmlns="http://www.w3.org/2000/svg">
<rect width="24" height="24" rx="6" fill="black"/>
<path d="M12 4C10.4178 4 8.87103 4.46919 7.55544 5.34824C6.23985 6.22729 5.21447 7.47672 4.60897 8.93853C4.00347 10.4003 3.84504 12.0089 4.15372 13.5607C4.4624 15.1126 5.22433 16.538 6.34315 17.6569C7.46197 18.7757 8.88743 19.5376 10.4393 19.8463C11.9911 20.155 13.5997 19.9965 15.0615 19.391C16.5233 18.7855 17.7727 17.7602 18.6518 16.4446C19.5308 15.129 20 13.5822 20 12C19.9977 9.87897 19.1541 7.84547 17.6543 6.34568C16.1545 4.84589 14.121 4.00229 12 4V4ZM12 18C10.8133 18 9.65328 17.6481 8.66658 16.9888C7.67989 16.3295 6.91085 15.3925 6.45673 14.2961C6.0026 13.1997 5.88378 11.9933 6.11529 10.8295C6.3468 9.66557 6.91825 8.59647 7.75736 7.75736C8.59648 6.91824 9.66557 6.3468 10.8295 6.11529C11.9933 5.88378 13.1997 6.0026 14.2961 6.45672C15.3925 6.91085 16.3295 7.67988 16.9888 8.66658C17.6481 9.65327 18 10.8133 18 12C17.9982 13.5908 17.3655 15.1159 16.2407 16.2407C15.1159 17.3655 13.5908 17.9982 12 18V18ZM15.3333 12C15.3333 12.2652 15.228 12.5196 15.0404 12.7071C14.8529 12.8946 14.5986 13 14.3333 13H13V14.3333C13 14.5985 12.8946 14.8529 12.7071 15.0404C12.5196 15.228 12.2652 15.3333 12 15.3333C11.7348 15.3333 11.4804 15.228 11.2929 15.0404C11.1054 14.8529 11 14.5985 11 14.3333V13H9.66667C9.40145 13 9.1471 12.8946 8.95956 12.7071C8.77203 12.5196 8.66667 12.2652 8.66667 12C8.66667 11.7348 8.77203 11.4804 8.95956 11.2929C9.1471 11.1054 9.40145 11 9.66667 11H11V9.66667C11 9.40145 11.1054 9.1471 11.2929 8.95956C11.4804 8.77202 11.7348 8.66667 12 8.66667C12.2652 8.66667 12.5196 8.77202 12.7071 8.95956C12.8946 9.1471 13 9.40145 13 9.66667V11H14.3333C14.5986 11 14.8529 11.1054 15.0404 11.2929C15.228 11.4804 15.3333 11.7348 15.3333 12V12Z" fill="white"/>
</svg>
