<svg width="24" height="24" viewBox="0 0 24 24" fill="none" xmlns="http://www.w3.org/2000/svg">
<path d="M11.6411 13.5097V10.4903H10.0826C9.24885 10.4903 8.57293 11.1662 8.57293 12C8.57293 12.8306 9.24368 13.5046 10.0731 13.5097L10.0826 13.5097H11.6411Z" fill="black"/>
<path d="M8.57293 15.7549C8.57293 14.9243 9.24368 14.2503 10.0731 14.2452L10.0826 14.2452H11.6411V15.7305C11.6411 16.5747 10.9451 17.2646 10.0948 17.2646C9.25788 17.2646 8.57293 16.5856 8.57293 15.7549Z" fill="black"/>
<path d="M13.8863 13.5098C13.0525 13.5098 12.3766 12.8338 12.3766 12C12.3766 11.1662 13.0525 10.4903 13.8863 10.4903H13.935C14.7688 10.4903 15.4448 11.1662 15.4448 12C15.4448 12.8338 14.7688 13.5098 13.935 13.5098H13.8863Z" fill="black"/>
<path d="M13.935 9.75486H12.3766V6.73542H13.935C14.7688 6.73542 15.4448 7.41134 15.4448 8.24513C15.4448 9.07893 14.7688 9.75486 13.935 9.75486Z" fill="black"/>
<path d="M10.0826 6.73542H11.6411V9.75486H10.0826C9.24885 9.75486 8.57293 9.07893 8.57293 8.24513C8.57293 7.41134 9.24885 6.73542 10.0826 6.73542Z" fill="black"/>
<path fill-rule="evenodd" clip-rule="evenodd" d="M20.25 0C22.3211 0 24 1.67893 24 3.75V20.25C24 22.3211 22.3211 24 20.25 24H3.75C1.67893 24 0 22.3211 0 20.25V3.75C0 1.67893 1.67893 0 3.75 0H20.25ZM10.0826 6C8.84269 6 7.83751 7.00518 7.83751 8.24513C7.83751 9.03029 8.24054 9.72131 8.85101 10.1226C8.24054 10.5239 7.83751 11.2149 7.83751 12C7.83751 12.7852 8.24051 13.4762 8.85093 13.8775C8.24051 14.2787 7.83751 14.9697 7.83751 15.7549C7.83751 16.9979 8.85789 18 10.0948 18C11.3451 18 12.3766 16.987 12.3766 15.7305V13.6618C12.7753 14.0243 13.305 14.2452 13.8863 14.2452H13.935C15.175 14.2452 16.1802 13.24 16.1802 12C16.1802 11.2149 15.7771 10.5239 15.1667 10.1226C15.7771 9.72131 16.1802 9.03029 16.1802 8.24513C16.1802 7.00518 15.175 6 13.935 6H10.0826Z" fill="black"/>
</svg>
