<svg width="24" height="24" viewBox="0 0 24 24" fill="none" xmlns="http://www.w3.org/2000/svg">
<path d="M11.2326 15.799L9.68946 11.0497H7.52824L11.2326 15.799Z" fill="black"/>
<path d="M14.2491 11.2469L12.7693 15.8001L13.1244 15.3431L16.4758 11.0497H14.3128L14.2491 11.2469Z" fill="black"/>
<path d="M16.6669 10.4811L15.5826 7.1418L14.4965 10.4811H16.6669Z" fill="black"/>
<path d="M13.7166 11.0476H10.286L12.0001 16.3265L13.7166 11.0476Z" fill="black"/>
<path d="M9.50574 10.4811L8.41928 7.1418L7.33672 10.4811H9.50574Z" fill="black"/>
<path d="M6.57397 12.917C6.5839 12.9478 6.60331 12.9745 6.62943 12.9935L10.5394 15.8341L7.04997 11.3605L6.5742 12.8226C6.56413 12.8532 6.56403 12.8863 6.57397 12.917Z" fill="black"/>
<path d="M13.4607 15.833L17.3711 12.9935C17.3972 12.9745 17.4166 12.9473 17.4264 12.9165C17.4363 12.8857 17.4361 12.8525 17.4259 12.8218L16.9501 11.3605L13.4738 15.816L13.4607 15.833Z" fill="black"/>
<path fill-rule="evenodd" clip-rule="evenodd" d="M0 3.75C0 1.67893 1.67893 0 3.75 0H20.25C22.3211 0 24 1.67893 24 3.75V20.25C24 22.3211 22.3211 24 20.25 24H3.75C1.67893 24 0 22.3211 0 20.25V3.75ZM17.335 10.7134L17.9644 12.6473C18.0117 12.7917 18.0119 12.9474 17.965 13.0919C17.9182 13.2364 17.8268 13.3624 17.7038 13.4516L12.1668 17.4724C12.1184 17.5082 12.06 17.5277 11.9998 17.528C11.9397 17.5283 11.881 17.5095 11.8323 17.4742L6.29629 13.4516C6.1734 13.3624 6.08196 13.2365 6.03509 13.0921C5.98819 12.9476 5.9883 12.7921 6.03539 12.6477L6.67614 10.679L6.67797 10.675C6.67902 10.6731 6.68003 10.6713 6.68003 10.6691L7.94385 6.77752C7.97706 6.67699 8.04112 6.58949 8.12691 6.52746C8.21272 6.46543 8.3159 6.43203 8.42175 6.43201H8.42459C8.52969 6.43183 8.63212 6.46521 8.71694 6.52729C8.80177 6.58938 8.86452 6.67692 8.89613 6.77717L10.1015 10.4811H13.9004L15.104 6.77717C15.1357 6.67657 15.1988 6.58878 15.284 6.52666C15.3693 6.46454 15.4722 6.43137 15.5777 6.43201C15.6834 6.43129 15.7867 6.46401 15.8728 6.52548C15.9589 6.58696 16.0234 6.67405 16.057 6.77434L17.3197 10.6613C17.3265 10.6781 17.3316 10.6956 17.335 10.7134Z" fill="black"/>
</svg>
