<svg width="24" height="24" viewBox="0 0 24 24" fill="none" xmlns="http://www.w3.org/2000/svg">
<path d="M8.87549 10.6187V10.6042L9.28958 7.25386H7.56371C7.38417 7.25386 7.22491 7.38127 7.18726 7.55502L6.50676 10.6448C6.52124 11.2847 7.04537 11.8031 7.69112 11.8031C8.34267 11.8031 8.87549 11.2732 8.87549 10.6187Z" fill="black"/>
<path d="M10.5637 11.8031C11.2153 11.8031 11.7481 11.2732 11.7481 10.6187V7.25386H9.79634L9.37935 10.6332C9.38514 11.279 9.91507 11.8031 10.5637 11.8031Z" fill="black"/>
<path d="M12.2519 7.25386V10.6187C12.2519 11.2732 12.7848 11.806 13.4363 11.8031C14.085 11.8031 14.612 11.279 14.6207 10.6332L14.2037 7.25386H12.2519Z" fill="black"/>
<path d="M13.0975 14.6351C13.0975 15.417 13.7288 16.0483 14.5106 16.0483C15.3272 16.0483 15.8658 15.4749 15.8687 14.667C15.8687 14.5743 15.8572 14.5019 15.8456 14.4324H14.5077V14.916H15.3099C15.278 15.1245 15.0666 15.527 14.5077 15.527C14.0241 15.527 13.6303 15.1274 13.6303 14.6351C13.6303 14.1429 14.0241 13.7432 14.5077 13.7432C14.7828 13.7432 14.9682 13.8591 15.0724 13.9604L15.4575 13.5927C15.2114 13.361 14.8929 13.222 14.5106 13.222C13.7288 13.222 13.0975 13.8533 13.0975 14.6351Z" fill="black"/>
<path d="M15.1274 10.6216C15.1274 11.2732 15.6574 11.806 16.3118 11.806C16.9576 11.806 17.4817 11.2876 17.4962 10.6448L16.8157 7.55502C16.778 7.38127 16.6187 7.25386 16.4392 7.25386H14.7133L15.1274 10.6071V10.6216Z" fill="black"/>
<path fill-rule="evenodd" clip-rule="evenodd" d="M0 3.75C0 1.67893 1.67893 0 3.75 0H20.25C22.3211 0 24 1.67893 24 3.75V20.25C24 22.3211 22.3211 24 20.25 24H3.75C1.67893 24 0 22.3211 0 20.25V3.75ZM16.4392 6.75C16.8533 6.75 17.2182 7.04247 17.3079 7.44788L18.0029 10.5927V10.6187C18.0029 11.2124 17.6931 11.7365 17.2298 12.0376V16.3349C17.2298 16.8243 16.833 17.221 16.3436 17.221H7.68823C7.19884 17.221 6.80212 16.8243 6.80212 16.3349V12.055C6.32143 11.7568 6 11.2239 6 10.6187V10.5927L6.69498 7.44788C6.78475 7.04247 7.14962 6.75 7.56371 6.75H16.4392Z" fill="black"/>
</svg>
