<svg width="24" height="24" viewBox="0 0 24 24" fill="none" xmlns="http://www.w3.org/2000/svg">
<g clip-path="url(#clip0_1197_191)">
<path d="M17.9572 0H6.0428C2.70546 0 0 2.70546 0 6.0428V17.9572C0 21.2945 2.70546 24 6.0428 24H17.9572C21.2945 24 24 21.2945 24 17.9572V6.0428C24 2.70546 21.2945 0 17.9572 0Z" fill="black"/>
<path d="M15.5748 7.66455C15.1367 7.66455 14.7842 8.01705 14.7842 8.45515C14.7842 8.89325 15.1367 9.24575 15.5748 9.24575C16.0129 9.24575 16.3654 8.89325 16.3654 8.45515C16.3654 8.01705 16.0129 7.66455 15.5748 7.66455Z" fill="white"/>
<path d="M12.055 8.67676C10.222 8.67676 8.73145 10.1673 8.73145 12.0003C8.73145 13.8333 10.222 15.3238 12.055 15.3238C13.888 15.3238 15.3785 13.8333 15.3785 12.0003C15.3785 10.1673 13.888 8.67676 12.055 8.67676ZM12.055 14.1304C10.8817 14.1304 9.9249 13.1736 9.9249 12.0003C9.9249 10.827 10.8817 9.87021 12.055 9.87021C13.2283 9.87021 14.1851 10.827 14.1851 12.0003C14.1851 13.1736 13.2283 14.1304 12.055 14.1304Z" fill="white"/>
<path d="M14.6938 18.748H9.30567C7.06983 18.748 5.25195 16.9302 5.25195 14.6943V9.30615C5.25195 7.07032 7.06983 5.25244 9.30567 5.25244H14.6938C16.9297 5.25244 18.7475 7.07032 18.7475 9.30615V14.6943C18.7475 16.9302 16.9297 18.748 14.6938 18.748ZM9.30567 6.52143C7.76979 6.52143 6.52094 7.77028 6.52094 9.30615V14.6943C6.52094 16.2302 7.76979 17.479 9.30567 17.479H14.6938C16.2297 17.479 17.4786 16.2302 17.4786 14.6943V9.30615C17.4786 7.77028 16.2297 6.52143 14.6938 6.52143H9.30567Z" fill="white"/>
</g>
<defs>
<clipPath id="clip0_1197_191">
<rect width="24" height="24" fill="white"/>
</clipPath>
</defs>
</svg>
