<svg width="24" height="24" viewBox="0 0 24 24" fill="none" xmlns="http://www.w3.org/2000/svg">
<g clip-path="url(#clip0_1249_10)">
<path d="M17.9572 0H6.0428C2.70546 0 0 2.70546 0 6.0428V17.9572C0 21.2945 2.70546 24 6.0428 24H17.9572C21.2945 24 24 21.2945 24 17.9572V6.0428C24 2.70546 21.2945 0 17.9572 0Z" fill="black"/>
<path d="M13.7929 9.70721C15.3099 11.2258 15.2891 13.6605 13.802 15.1558C13.7992 15.1588 13.7959 15.1621 13.7929 15.1652L12.0866 16.8714C10.5817 18.3763 8.13335 18.3761 6.62868 16.8714C5.12377 15.3668 5.12377 12.9181 6.62868 11.4135L7.57082 10.4713C7.82067 10.2215 8.25094 10.3875 8.26383 10.7406C8.28029 11.1906 8.36098 11.6427 8.50987 12.0792C8.56029 12.227 8.52427 12.3906 8.41382 12.501L8.08153 12.8333C7.36993 13.5449 7.34761 14.7036 8.0522 15.4221C8.76375 16.1478 9.93329 16.1521 10.6503 15.4351L12.3565 13.7291C13.0723 13.0133 13.0693 11.8563 12.3565 11.1436C12.2626 11.0498 12.1679 10.9769 12.094 10.926C12.0417 10.8901 11.9985 10.8424 11.9679 10.7868C11.9372 10.7313 11.92 10.6693 11.9176 10.6059C11.9075 10.3376 12.0026 10.0611 12.2146 9.84912L12.7492 9.31452C12.8894 9.17433 13.1093 9.15712 13.2718 9.27056C13.458 9.40055 13.6323 9.54666 13.7929 9.70721ZM17.3713 6.1286C15.8667 4.6239 13.4183 4.6237 11.9134 6.1286L10.2071 7.83485C10.2041 7.8379 10.2008 7.8412 10.198 7.84425C8.71094 9.33955 8.69009 11.7742 10.2071 13.2928C10.3676 13.4534 10.542 13.5995 10.7281 13.7294C10.8907 13.8429 11.1106 13.8256 11.2508 13.6855L11.7854 13.1509C11.9974 12.9389 12.0924 12.6624 12.0824 12.3941C12.08 12.3307 12.0627 12.2687 12.0321 12.2132C12.0015 12.1576 11.9583 12.1099 11.906 12.074C11.8321 12.0231 11.7374 11.9502 11.6434 11.8564C10.9306 11.1437 10.9276 9.98671 11.6434 9.27092L13.3497 7.56492C14.0667 6.84792 15.2362 6.85223 15.9478 7.57787C16.6524 8.29643 16.6301 9.4551 15.9184 10.1667L15.5862 10.499C15.4757 10.6094 15.4397 10.773 15.4901 10.9208C15.639 11.3573 15.7197 11.8094 15.7361 12.2594C15.7491 12.6125 16.1793 12.7785 16.4292 12.5287L17.3713 11.5865C18.8762 10.0819 18.8762 7.63325 17.3713 6.1286Z" fill="white"/>
</g>
<defs>
<clipPath id="clip0_1249_10">
<rect width="24" height="24" fill="white"/>
</clipPath>
</defs>
</svg>
