<svg width="24" height="24" viewBox="0 0 24 24" fill="none" xmlns="http://www.w3.org/2000/svg">
<g clip-path="url(#clip0_513_56)">
<path d="M18.8739 24H5.12613C2.2952 24 0 21.7048 0 18.8739V5.12613C0 2.2952 2.2952 0 5.12613 0H18.8736C21.7048 0 24 2.2952 24 5.12613V18.8736C24 21.7048 21.7048 24 18.8739 24Z" fill="black"/>
<path d="M16.9333 8.35498C16.9301 8.51578 16.916 8.67605 16.8912 8.83498C16.5573 10.963 14.7307 12.5331 12.5784 12.5331H10.4395C10.2208 12.5331 10.0341 12.6923 10.0003 12.9086L9.32907 17.1624L8.9088 19.831C8.8776 20.0278 9.01174 20.2128 9.20854 20.244C9.22747 20.247 9.2464 20.2486 9.26534 20.2486H11.5869C11.8059 20.2483 11.992 20.0891 12.0261 19.8731L12.6376 15.9947C12.6717 15.7784 12.8584 15.6192 13.0773 15.6192H14.4443C16.5968 15.6192 18.4235 14.0488 18.7571 11.9211C18.9939 10.4107 18.2333 9.03658 16.9333 8.35498Z" fill="white" fill-opacity="0.45"/>
<path d="M16.9333 8.35467C16.9707 6.41734 15.372 4.81787 13.1741 4.81787H8.53228C8.31361 4.81787 8.12694 4.97707 8.09308 5.19307L6.27148 16.7448C6.23681 16.964 6.40641 17.1624 6.62854 17.1624H9.32988L10.0005 12.9085V12.908C10.0347 12.692 10.2208 12.5328 10.4397 12.5328H12.5787C14.7312 12.5328 16.5579 10.9624 16.8915 8.83467C16.916 8.67574 16.9301 8.51547 16.9333 8.35467Z" fill="white"/>
</g>
<defs>
<clipPath id="clip0_513_56">
<rect width="24" height="24" fill="white"/>
</clipPath>
</defs>
</svg>
