<svg width="24" height="24" viewBox="0 0 24 24" fill="none" xmlns="http://www.w3.org/2000/svg">
<rect width="24" height="24" rx="6" fill="black"/>
<path d="M9.83616 4.76875C9.92661 4.32257 10.3215 4 10.7798 4H12.5826C13.0408 4 13.4357 4.32257 13.5262 4.76875L13.9633 6.87904C14.3884 7.05993 14.7863 7.29206 15.1481 7.5664L17.192 6.88809C17.6262 6.74338 18.1025 6.92426 18.3316 7.32221L19.233 8.88382C19.4621 9.28176 19.3807 9.78221 19.037 10.0867L17.4302 11.5157C17.4573 11.7387 17.4694 11.9679 17.4694 12.2C17.4694 12.4321 17.4543 12.6613 17.4302 12.8843L19.0401 14.3163C19.3837 14.6208 19.4621 15.1243 19.236 15.5192L18.3346 17.0808C18.1055 17.4757 17.6292 17.6596 17.1951 17.5149L15.1511 16.8366C14.7863 17.111 14.3884 17.3401 13.9663 17.524L13.5322 19.6313C13.4387 20.0804 13.0438 20.4 12.5886 20.4H10.7858C10.3276 20.4 9.93263 20.0774 9.84219 19.6313L9.40808 17.524C8.983 17.3431 8.58808 17.111 8.2233 16.8366L6.17028 17.5149C5.73616 17.6596 5.25984 17.4788 5.03072 17.0808L4.12933 15.5192C3.90021 15.1213 3.98161 14.6208 4.32528 14.3163L5.93513 12.8843C5.908 12.6613 5.89594 12.4321 5.89594 12.2C5.89594 11.9679 5.91102 11.7387 5.93513 11.5157L4.32528 10.0837C3.98161 9.77919 3.90322 9.27573 4.12933 8.88081L5.03072 7.31919C5.25984 6.92125 5.73616 6.74037 6.17028 6.88507L8.21425 7.56338C8.57903 7.28904 8.97697 7.05993 9.39903 6.87603L9.83616 4.76875ZM11.6812 14.6118C13.0137 14.6057 14.0899 13.5235 14.0839 12.191C14.0779 10.8585 12.9956 9.78221 11.6631 9.78824C10.3306 9.79426 9.25433 10.8765 9.26036 12.209C9.26638 13.5415 10.3487 14.6178 11.6812 14.6118Z" fill="white"/>
</svg>
