<svg width="24" height="24" viewBox="0 0 24 24" fill="none" xmlns="http://www.w3.org/2000/svg">
<path fill-rule="evenodd" clip-rule="evenodd" d="M3.75 0C1.67893 0 0 1.67893 0 3.75V20.25C0 22.3211 1.67893 24 3.75 24H20.25C22.3211 24 24 22.3211 24 20.25V3.75C24 1.67893 22.3211 0 20.25 0H3.75ZM10.6942 6.72065L10.5596 6.17516C9.9744 6.31842 9.41452 6.55008 8.89921 6.86214L9.1873 7.34456C9.65545 7.06216 10.1635 6.85183 10.6942 6.72065ZM13.3058 6.72065L13.4404 6.17516C14.0266 6.31872 14.5875 6.55035 15.1042 6.86214L14.8127 7.34456C14.3445 7.06216 13.8365 6.85183 13.3058 6.72065ZM6.17515 10.5596C6.31873 9.97397 6.55036 9.41357 6.86213 8.89751L7.34455 9.1873C7.06215 9.65546 6.85182 10.1635 6.72065 10.6942L6.17515 10.5596ZM6.62348 11.1852C6.58259 11.4549 6.56207 11.7272 6.56211 12C6.56214 12.2728 6.58265 12.5451 6.62348 12.8148L6.06776 12.8984C5.97741 12.3023 5.97741 11.696 6.06776 11.0999L6.62348 11.1852ZM14.8127 16.6554L15.1008 17.1362C14.5858 17.448 14.0266 17.6802 13.4421 17.8248L13.3075 17.2793C13.8378 17.1485 14.3453 16.9381 14.8127 16.6554ZM17.3765 12.8148C17.4173 12.5451 17.4378 12.2728 17.4379 12C17.4379 11.7272 17.4174 11.4549 17.3765 11.1852L17.9322 11.0999C18.0226 11.696 18.0226 12.3023 17.9322 12.8984L17.3765 12.8148ZM17.2793 13.3041L17.8248 13.4387C17.6816 14.025 17.4499 14.586 17.1379 15.1025L16.6554 14.8127C16.9381 14.3441 17.1485 13.8355 17.2793 13.3041ZM11.1016 17.9322L11.1852 17.3765C11.7253 17.4583 12.2747 17.4583 12.8148 17.3765L12.8983 17.9322C12.3029 18.0226 11.6971 18.0226 11.1016 17.9322ZM15.2252 16.3759C15.6651 16.0525 16.0536 15.6646 16.3776 15.2252L16.831 15.5627C16.4724 16.0458 16.0438 16.4727 15.5593 16.8293L15.2252 16.3759ZM16.3776 8.77477C16.0536 8.33488 15.6651 7.94639 15.2252 7.62242L15.5627 7.16898C16.0462 7.52631 16.4737 7.95378 16.831 8.43725L16.3776 8.77477ZM8.77477 7.62242C8.33488 7.94639 7.94639 8.33488 7.62241 8.77477L7.16897 8.43725C7.52631 7.95378 7.95377 7.52631 8.43724 7.16898L8.77477 7.62242ZM16.6554 9.1873L17.1379 8.89751C17.4496 9.41297 17.6812 9.97281 17.8248 10.5579L17.2793 10.6925C17.1484 10.1622 16.9381 9.65472 16.6554 9.1873ZM12.8148 6.62349C12.2747 6.54165 11.7253 6.54165 11.1852 6.62349L11.1016 6.06777C11.6971 5.97741 12.3029 5.97741 12.8983 6.06777L12.8148 6.62349ZM6.74963 17.2487L7.9105 16.9793L8.03835 17.5299L6.87748 17.7976C6.79327 17.8163 6.70598 17.8163 6.62178 17.7976C6.54978 17.7807 6.48181 17.7498 6.42175 17.7067C6.3617 17.6635 6.31074 17.609 6.27179 17.5461C6.23285 17.4833 6.20667 17.4134 6.19477 17.3404C6.18287 17.2674 6.18547 17.1928 6.20243 17.1208L6.47347 15.9599L7.02067 16.0878L6.74963 17.2487ZM7.13829 15.5849L6.58939 15.4588L6.72746 14.8655C6.48345 14.4154 6.29785 13.9359 6.17515 13.4387L6.72065 13.3041C6.84802 13.8234 7.05197 14.321 7.3258 14.7803L7.13829 15.5849ZM8.40997 16.8634L9.21457 16.6759L9.21968 16.6725C9.67729 16.9469 10.1731 17.152 10.6908 17.2811L10.5561 17.8265C10.0588 17.7046 9.57918 17.519 9.12934 17.2742L8.53782 17.4123L8.40997 16.8634ZM7.12636 12.0017C7.12636 9.31004 9.30662 7.12636 12 7.12466C12.921 7.12441 13.8233 7.38442 14.603 7.87471C16.8804 9.31004 17.5623 12.3205 16.1287 14.5979C14.6951 16.8753 11.6846 17.5589 9.40549 16.1253L7.40592 16.5941L7.8747 14.5928C7.38716 13.8164 7.12784 12.9185 7.12636 12.0017Z" fill="black"/>
</svg>
