<svg width="24" height="24" viewBox="0 0 24 24" fill="none" xmlns="http://www.w3.org/2000/svg">
<path fill-rule="evenodd" clip-rule="evenodd" d="M20.25 0C22.3211 0 24 1.67893 24 3.75V20.25C24 22.3211 22.3211 24 20.25 24H3.75C1.67893 24 0 22.3211 0 20.25V3.75C0 1.67893 1.67893 0 3.75 0H20.25ZM10.4237 8.52229C9.72629 8.52229 9.1626 7.9586 9.1626 7.26115C9.1626 6.56369 9.72629 6 10.4237 6C11.1212 6 11.6849 6.56369 11.6849 7.26115V8.52229H10.4237ZM7.27067 14.8471C7.96812 14.8471 8.53181 14.2834 8.53181 13.586V12.3248H7.27067C6.57322 12.3248 6.00952 12.8885 6.00952 13.586C6.00952 14.2834 6.57322 14.8471 7.27067 14.8471ZM10.4237 12.3249C9.72629 12.3249 9.1626 12.8886 9.1626 13.586V16.7389C9.1626 17.4363 9.72629 18 10.4237 18C11.1212 18 11.6849 17.4363 11.6849 16.7389V13.586C11.6849 12.8886 11.1212 12.3249 10.4237 12.3249ZM11.6847 10.4236C11.6847 9.72611 11.121 9.16241 10.4236 9.16241H7.26115C6.56369 9.16241 6 9.72611 6 10.4236C6 11.121 6.56369 11.6847 7.26115 11.6847H10.4236C11.121 11.6847 11.6847 11.121 11.6847 10.4236ZM15.4779 10.4236C15.4779 9.72611 16.0416 9.16241 16.7391 9.16241C17.4365 9.16241 18.0002 9.72611 18.0002 10.4236C18.0002 11.121 17.4365 11.6847 16.7391 11.6847H15.4779V10.4236ZM13.586 11.6847C14.2834 11.6847 14.8471 11.121 14.8471 10.4236V7.26115C14.8471 6.56369 14.2834 6 13.586 6C12.8885 6 12.3248 6.56369 12.3248 7.26115V10.4236C12.3248 11.121 12.8885 11.6847 13.586 11.6847ZM13.586 15.4777C14.2834 15.4777 14.8471 16.0414 14.8471 16.7389C14.8471 17.4363 14.2834 18 13.586 18C12.8885 18 12.3248 17.4363 12.3248 16.7389V15.4777H13.586ZM12.3248 13.586C12.3248 14.2834 12.8885 14.8471 13.586 14.8471H16.7484C17.4458 14.8471 18.0095 14.2834 18.0095 13.586C18.0095 12.8885 17.4458 12.3248 16.7484 12.3248H13.586C12.8885 12.3248 12.3248 12.8885 12.3248 13.586Z" fill="black"/>
</svg>
