<svg width="24" height="24" viewBox="0 0 24 24" fill="none" xmlns="http://www.w3.org/2000/svg">
<g clip-path="url(#clip0_1197_211)">
<path d="M17.9572 0H6.0428C2.70546 0 0 2.70546 0 6.0428V17.9572C0 21.2945 2.70546 24 6.0428 24H17.9572C21.2945 24 24 21.2945 24 17.9572V6.0428C24 2.70546 21.2945 0 17.9572 0Z" fill="black"/>
<path d="M12.0006 18.4554C11.4719 18.4554 10.9381 18.3043 10.4245 18.0022C10.218 17.8813 10.0216 17.7504 9.8202 17.6144L9.59359 17.4634C9.42238 17.3526 9.23102 17.2821 8.99938 17.2468C8.91378 17.2317 8.82817 17.2267 8.7476 17.2267C8.54617 17.2267 8.34475 17.2569 8.14332 17.2821L7.82607 17.3224H7.72536C7.33258 17.3224 7.05561 17.0907 7.04051 16.7433C7.0254 16.5066 6.98008 16.4059 6.54701 16.3555C6.28516 16.3253 6.04344 16.2246 5.84705 16.144C5.50966 16.003 5.28306 15.8016 5.15717 15.5297L5.12695 15.4642V15.0614L5.20752 14.9657C5.31831 14.8348 5.46938 14.6938 5.70605 14.6484C6.57219 14.4772 7.24193 13.9586 7.81096 13.0118C8.0275 12.6543 8.04261 12.5486 8.03757 12.5184C8.0275 12.5032 7.94189 12.4327 7.52897 12.2817C7.4484 12.2565 7.40811 12.2414 7.36783 12.2263C7.1664 12.1457 6.9549 12.05 6.76355 11.8839C6.50673 11.6623 6.40601 11.3652 6.47651 11.063C6.55708 10.7357 6.82901 10.4789 7.19661 10.3933C7.27215 10.3732 7.34768 10.3681 7.42322 10.3681C7.62464 10.3681 7.80593 10.4285 7.96203 10.4839C8.01239 10.499 8.06275 10.5192 8.10807 10.5293C8.06275 10.0257 8.05771 9.50702 8.08289 8.87756C8.13828 7.68914 8.71738 6.73237 9.75977 6.11298C10.4849 5.67991 11.2352 5.46338 11.9906 5.46338C12.7459 5.46338 13.4811 5.67488 14.1962 6.09787C15.163 6.6669 15.7421 7.528 15.868 8.6006C15.9436 9.25524 15.9184 9.90484 15.868 10.5091C15.9033 10.499 15.9436 10.4839 15.9788 10.4739C16.145 10.4235 16.3313 10.3631 16.5378 10.3631C16.6888 10.3631 16.8349 10.3933 16.9759 10.4537C17.3233 10.6048 17.5449 10.922 17.5348 11.2544C17.5298 11.481 17.414 11.7076 17.2176 11.8788C17.0212 12.05 16.7896 12.1407 16.5881 12.2263L16.3414 12.322C16.2507 12.3522 16.1651 12.3874 16.0795 12.4277C15.9738 12.4781 15.9486 12.5133 15.9436 12.5133C15.9436 12.5133 15.9436 12.5486 15.9788 12.6291C16.5176 13.7622 17.2327 14.4017 18.2348 14.6384C18.4765 14.6938 18.6578 14.8045 18.7887 14.9808L18.8542 15.0714V15.4693L18.8189 15.5398C18.683 15.8268 18.4362 16.0282 18.0737 16.1642C17.7766 16.28 17.5248 16.3757 17.2428 16.3958C17.0413 16.4109 16.991 16.4512 16.9658 16.6476C16.9205 16.9598 16.7996 17.3173 16.2608 17.3173C16.2105 17.3173 16.15 17.3173 16.0846 17.3073C15.999 17.3022 15.9083 17.2871 15.8177 17.267C15.6263 17.2317 15.4551 17.2166 15.2889 17.2166C14.8458 17.2166 14.4732 17.3425 14.1458 17.6044C14.0401 17.69 13.9243 17.7605 13.8135 17.836C13.1689 18.254 12.5697 18.4453 11.9755 18.4453L12.0006 18.4554Z" fill="white"/>
<path d="M12.0003 5.81098C12.6801 5.81098 13.365 6.00737 14.0347 6.40015C14.8757 6.89365 15.4195 7.64396 15.5404 8.64606C15.6159 9.3007 15.5857 9.95534 15.5353 10.6049C15.5202 10.8164 15.5454 10.902 15.6814 10.902C15.7267 10.902 15.7821 10.892 15.8526 10.8769C16.0993 10.8164 16.3209 10.7107 16.5576 10.7107C16.6533 10.7107 16.754 10.7308 16.8547 10.7762C17.046 10.8618 17.2172 11.043 17.2122 11.2545C17.2122 11.4006 17.1266 11.5315 17.0158 11.6272C16.8496 11.7732 16.6281 11.8538 16.4266 11.9344C16.2705 11.9998 16.1044 12.0502 15.9533 12.1207C15.636 12.2667 15.5454 12.4631 15.6914 12.7803C16.2051 13.863 16.9604 14.6889 18.1791 14.9759C18.3301 15.0111 18.446 15.0716 18.5366 15.1924V15.3989C18.4208 15.6356 18.2143 15.7665 17.9776 15.8571C17.741 15.9478 17.4992 16.0485 17.2424 16.0636C16.8899 16.0837 16.7036 16.2399 16.6482 16.6075C16.6029 16.9046 16.5223 16.9851 16.2806 16.9851C16.2353 16.9851 16.19 16.9851 16.1346 16.9801C16.049 16.9751 15.9684 16.96 15.8828 16.9448C15.6864 16.9096 15.495 16.8895 15.3087 16.8895C14.8253 16.8895 14.3671 17.0204 13.9541 17.3527C13.8433 17.4434 13.7175 17.5189 13.5966 17.5995C13.0729 17.9419 12.5391 18.1182 12.0003 18.1182C11.537 18.1182 11.0687 17.9872 10.5953 17.7103C10.3184 17.5491 10.0515 17.3578 9.77956 17.1815C9.55799 17.0355 9.31628 16.9549 9.04436 16.9146C8.94364 16.8995 8.84293 16.8945 8.74222 16.8945C8.42497 16.8945 8.11276 16.96 7.80055 16.9902C7.77033 16.9902 7.74515 16.9902 7.71997 16.9902C7.53869 16.9902 7.38259 16.9197 7.37251 16.7283C7.3423 16.1996 7.02002 16.0686 6.57688 16.0233C6.37042 15.9981 6.16395 15.9176 5.9726 15.837C5.7611 15.7464 5.56471 15.6205 5.464 15.3989V15.1924C5.5496 15.0968 5.63521 15.0111 5.77117 14.986C6.84377 14.7745 7.55883 14.0896 8.10269 13.1933C8.5559 12.4379 8.4854 12.2667 7.64444 11.9696C7.59408 11.9545 7.54876 11.9394 7.49841 11.9192C7.31712 11.8437 7.13584 11.7631 6.9898 11.6372C6.61213 11.3099 6.83873 10.8416 7.27684 10.7359C7.32719 10.7258 7.37755 10.7208 7.42287 10.7208C7.68473 10.7208 7.92644 10.8769 8.19333 10.9071C8.21851 10.9071 8.24368 10.9121 8.26886 10.9121C8.42497 10.9121 8.4854 10.8315 8.46022 10.6402C8.39475 10.0661 8.39475 9.48702 8.42497 8.90792C8.47532 7.80511 9.01918 6.96415 9.93567 6.4203C10.6104 6.02248 11.3003 5.82105 11.9953 5.82105M12.0003 5.13116C11.1845 5.13116 10.3738 5.36784 9.59324 5.82609C8.44511 6.5059 7.81062 7.55836 7.75019 8.86763C7.73005 9.31077 7.72501 9.70355 7.74012 10.0661C7.64444 10.046 7.53869 10.0309 7.42791 10.0309C7.32216 10.0309 7.22144 10.0409 7.12073 10.0661C6.63227 10.1819 6.25963 10.5344 6.14885 10.9876C6.04813 11.4106 6.19417 11.8437 6.54163 12.1459C6.76823 12.3422 7.02002 12.4581 7.24159 12.5437C7.28691 12.5638 7.33223 12.5789 7.37755 12.594C7.47323 12.6293 7.54876 12.6545 7.60919 12.6796C7.58401 12.725 7.5538 12.7753 7.51855 12.8357C7.00491 13.6918 6.40567 14.1601 5.64024 14.3112C5.2525 14.3867 5.03093 14.6435 4.95036 14.7392L4.78418 14.9306V15.5349L4.84461 15.6708C5.00575 16.0233 5.28775 16.2852 5.71074 16.4614C5.92728 16.5521 6.1992 16.6628 6.50638 16.6981C6.60206 16.7082 6.66248 16.7233 6.6927 16.7283C6.6927 16.7384 6.6927 16.7485 6.6927 16.7636C6.72291 17.2973 7.14591 17.67 7.71997 17.67C7.77033 17.67 7.82572 17.67 7.87608 17.6599C7.98183 17.6498 8.08254 17.6347 8.18829 17.6196C8.38468 17.5944 8.571 17.5642 8.74222 17.5642C8.80768 17.5642 8.87314 17.5642 8.94364 17.5793C9.12996 17.6096 9.276 17.6599 9.40692 17.7455L9.6436 17.9016C9.84503 18.0376 10.0414 18.1685 10.2479 18.2894C10.8169 18.6217 11.4061 18.7929 11.9953 18.7929C12.66 18.7929 13.3196 18.5814 13.9642 18.1635L14.0297 18.1232C14.1505 18.0477 14.2714 17.9671 14.3822 17.8764C14.6491 17.6649 14.9411 17.5642 15.3087 17.5642C15.4497 17.5642 15.6008 17.5793 15.7619 17.6096C15.8778 17.6297 15.9785 17.6448 16.0792 17.6549C16.1547 17.6599 16.2202 17.6649 16.2806 17.6649C16.6885 17.6649 17.1921 17.5038 17.318 16.7384C17.6402 16.7132 17.9071 16.6075 18.1488 16.5168L18.2193 16.4916C18.6675 16.3204 18.9697 16.0636 19.1459 15.696L19.2164 15.555V14.9658L19.0804 14.7845C18.9042 14.5479 18.6524 14.3867 18.3301 14.3112C17.4942 14.1148 16.8748 13.5911 16.3964 12.6746C16.4216 12.6645 16.4468 12.6545 16.472 12.6494C16.5425 12.6242 16.613 12.5991 16.6784 12.5688L16.7238 12.5487C16.9453 12.4581 17.2172 12.3523 17.459 12.1408C17.7258 11.9092 17.882 11.5919 17.892 11.2696C17.9021 10.7963 17.605 10.3582 17.1266 10.1467C16.9453 10.0661 16.7489 10.0258 16.5525 10.0258C16.4468 10.0258 16.3461 10.0359 16.2504 10.056C16.2756 9.56255 16.2756 9.06906 16.2151 8.56046C16.0742 7.38211 15.4397 6.43037 14.3771 5.80594C13.6067 5.35273 12.806 5.12109 11.9953 5.12109L12.0003 5.13116Z" fill="black"/>
</g>
<defs>
<clipPath id="clip0_1197_211">
<rect width="24" height="24" fill="white"/>
</clipPath>
</defs>
</svg>
