<svg width="24" height="24" viewBox="0 0 24 24" fill="none" xmlns="http://www.w3.org/2000/svg">
<g clip-path="url(#clip0_1197_223)">
<path d="M17.9572 0H6.0428C2.70546 0 0 2.70546 0 6.0428V17.9572C0 21.2945 2.70546 24 6.0428 24H17.9572C21.2945 24 24 21.2945 24 17.9572V6.0428C24 2.70546 21.2945 0 17.9572 0Z" fill="black"/>
<path d="M17.1819 10.7158C17.0711 10.7259 16.9603 10.7309 16.8495 10.7309C15.6359 10.7309 14.4978 10.1166 13.8331 9.09936V14.6487C13.8331 16.9147 11.9951 18.7527 9.72907 18.7527C7.46302 18.7527 5.625 16.9147 5.625 14.6487C5.625 12.3826 7.46302 10.5446 9.72907 10.5446C9.81468 10.5446 9.90028 10.5547 9.98085 10.5597V12.579C9.89525 12.5689 9.81468 12.5538 9.72907 12.5538C8.57087 12.5538 7.63423 13.4905 7.63423 14.6487C7.63423 15.8069 8.57087 16.7435 9.72907 16.7435C10.8873 16.7435 11.9045 15.832 11.9045 14.6738L11.9246 5.24707H13.8583C14.0396 6.97934 15.4395 8.33394 17.1768 8.46486V10.7108L17.1819 10.7158Z" fill="white"/>
</g>
<defs>
<clipPath id="clip0_1197_223">
<rect width="24" height="24" fill="white"/>
</clipPath>
</defs>
</svg>
