<svg width="24" height="24" viewBox="0 0 24 24" fill="none" xmlns="http://www.w3.org/2000/svg">
<path fill-rule="evenodd" clip-rule="evenodd" d="M0 3.75C0 1.67893 1.67893 0 3.75 0H20.25C22.3211 0 24 1.67893 24 3.75V20.25C24 22.3211 22.3211 24 20.25 24H3.75C1.67893 24 0 22.3211 0 20.25V3.75ZM9.89218 14.8512C9.89218 17.0734 11.2331 18 13.041 18H15.0447V15.6422H13.9826C13.2368 15.6422 12.7698 15.3183 12.7698 14.3917V11.2957H14.9543V9.05838H12.7698V6H10.8941C10.8112 7.3484 10.0579 8.90019 8.25 9.36723V11.2957H9.89218V14.8512Z" fill="black"/>
</svg>
