<svg width="24" height="24" viewBox="0 0 24 24" fill="none" xmlns="http://www.w3.org/2000/svg">
<g clip-path="url(#clip0_1249_16)">
<path d="M17.9572 0H6.0428C2.70546 0 0 2.70546 0 6.0428V17.9572C0 21.2945 2.70546 24 6.0428 24H17.9572C21.2945 24 24 21.2945 24 17.9572V6.0428C24 2.70546 21.2945 0 17.9572 0Z" fill="black"/>
<path d="M14.9215 10.2533C13.5291 10.326 12.3182 10.7481 11.3352 11.7018C10.342 12.6652 9.88864 13.8459 10.0126 15.3094C9.46834 15.242 8.97262 15.1678 8.47407 15.1258C8.3019 15.1113 8.09757 15.1319 7.95174 15.2142C7.46766 15.4874 7.00356 15.7958 6.4535 16.1396C6.55444 15.6831 6.61977 15.2834 6.73541 14.8989C6.82048 14.6163 6.78107 14.459 6.52075 14.275C4.84925 13.0949 4.14469 11.3288 4.67196 9.51053C5.15979 7.82846 6.35778 6.80834 7.98558 6.27656C10.2074 5.55083 12.7043 6.29112 14.0553 8.05509C14.5432 8.69228 14.8424 9.40743 14.9215 10.2533ZM8.51309 9.68669C8.52591 9.35413 8.23776 9.05453 7.89545 9.04451C7.54502 9.03422 7.25677 9.30202 7.24654 9.64734C7.23618 9.99732 7.50387 10.2778 7.85687 10.2868C8.20681 10.2956 8.50015 10.0275 8.51309 9.68669ZM11.8566 9.0443C11.5131 9.05063 11.2228 9.34323 11.2289 9.6771C11.2351 10.0232 11.5199 10.2939 11.8732 10.2897C12.2274 10.2854 12.496 10.0118 12.4926 9.65843C12.4897 9.31153 12.2062 9.0379 11.8566 9.0443Z" fill="white"/>
<path d="M18.0505 18.9338C17.6096 18.7375 17.2051 18.4429 16.7745 18.3979C16.3456 18.3531 15.8946 18.6006 15.4459 18.6465C14.0789 18.7863 12.8542 18.4054 11.8444 17.4715C9.92378 15.6951 10.1982 12.9713 12.4202 11.5156C14.3951 10.2218 17.2913 10.6531 18.6837 12.4483C19.8987 14.0148 19.7559 16.0943 18.2726 17.4102C17.8434 17.7911 17.6889 18.1045 17.9643 18.6066C18.0151 18.6993 18.021 18.8167 18.0505 18.9338ZM13.0316 14.0745C13.3123 14.0748 13.5434 13.8551 13.5541 13.5779C13.5653 13.2843 13.3292 13.0382 13.0353 13.0369C12.7443 13.0356 12.5005 13.2853 12.5106 13.5744C12.5202 13.8507 12.7529 14.0741 13.0316 14.0745ZM16.267 13.0381C15.9947 13.0362 15.7632 13.2592 15.7521 13.5343C15.7403 13.8286 15.969 14.0703 16.2603 14.071C16.5419 14.0719 16.7645 13.8589 16.7747 13.5786C16.7857 13.2837 16.5568 13.0401 16.267 13.0381Z" fill="white"/>
</g>
<defs>
<clipPath id="clip0_1249_16">
<rect width="24" height="24" fill="white"/>
</clipPath>
</defs>
</svg>
