<svg width="24" height="24" viewBox="0 0 24 24" fill="none" xmlns="http://www.w3.org/2000/svg">
<g clip-path="url(#clip0_1197_241)">
<path d="M17.9572 0H6.0428C2.70546 0 0 2.70546 0 6.0428V17.9572C0 21.2945 2.70546 24 6.0428 24H17.9572C21.2945 24 24 21.2945 24 17.9572V6.0428C24 2.70546 21.2945 0 17.9572 0Z" fill="black"/>
<path d="M5.82129 18.1587L6.70757 14.8453C6.204 13.9389 5.94215 12.9216 5.94215 11.8893C5.94215 8.51544 8.68659 5.771 12.0605 5.771C15.4344 5.771 18.1788 8.51544 18.1788 11.8893C18.1788 15.2632 15.4344 18.0077 12.0605 18.0077C11.0483 18.0077 10.0462 17.7509 9.14987 17.2674L5.82129 18.1587ZM9.31604 16.0236L9.52754 16.1495C10.298 16.6078 11.1742 16.8495 12.0605 16.8495C14.7949 16.8495 17.0206 14.6237 17.0206 11.8893C17.0206 9.15497 14.7949 6.9292 12.0605 6.9292C9.32612 6.9292 7.10035 9.15497 7.10035 11.8893C7.10035 12.7907 7.35213 13.682 7.82549 14.4626L7.95641 14.6741L7.46292 16.5222L9.32108 16.0236H9.31604Z" fill="white"/>
<path fill-rule="evenodd" clip-rule="evenodd" d="M14.3367 12.7402C14.0849 12.5892 13.7576 12.423 13.4605 12.5438C13.2338 12.6395 13.0878 12.992 12.9418 13.1733C12.8662 13.269 12.7756 13.279 12.6598 13.2337C11.8037 12.8913 11.1491 12.3223 10.6808 11.5367C10.6002 11.4158 10.6153 11.3202 10.711 11.2043C10.852 11.0382 11.0333 10.8468 11.0685 10.6202C11.1088 10.3936 11.003 10.1317 10.9074 9.93032C10.7865 9.6735 10.6556 9.3059 10.3988 9.15986C10.1621 9.0239 9.84988 9.09944 9.63838 9.27065C9.27581 9.56775 9.09956 10.031 9.1046 10.4943C9.1046 10.6252 9.1197 10.7562 9.15495 10.8821C9.23049 11.1842 9.36645 11.4712 9.52759 11.7381C9.64845 11.9396 9.77434 12.141 9.91534 12.3273C10.3736 12.9467 10.9426 13.4855 11.5973 13.8934C11.9246 14.0948 12.2821 14.2711 12.6497 14.3919C13.0626 14.5279 13.4302 14.6689 13.8734 14.5833C14.3367 14.4926 14.7949 14.2056 14.9812 13.7574C15.0366 13.6265 15.0618 13.4754 15.0316 13.3344C14.9661 13.0424 14.5784 12.8712 14.3417 12.7302L14.3367 12.7402Z" fill="white"/>
</g>
<defs>
<clipPath id="clip0_1197_241">
<rect width="24" height="24" fill="white"/>
</clipPath>
</defs>
</svg>
