<svg width="24" height="24" viewBox="0 0 24 24" fill="none" xmlns="http://www.w3.org/2000/svg">
<g clip-path="url(#clip0_1197_248)">
<path d="M17.9572 0H6.0428C2.70546 0 0 2.70546 0 6.0428V17.9572C0 21.2945 2.70546 24 6.0428 24H17.9572C21.2945 24 24 21.2945 24 17.9572V6.0428C24 2.70546 21.2945 0 17.9572 0Z" fill="black"/>
<path d="M17.8314 10.439C17.8314 9.02396 16.6883 7.88086 15.2733 7.88086H8.73195C7.31693 7.88086 6.17383 9.02396 6.17383 10.439V13.4805C6.17383 14.8955 7.31693 16.0386 8.73195 16.0386H15.2733C16.6883 16.0386 17.8314 14.8955 17.8314 13.4805V10.439ZM13.9842 12.1914L11.0534 13.6417C10.9376 13.7021 10.5498 13.6215 10.5498 13.4906V10.5095C10.5498 10.3786 10.9426 10.2929 11.0584 10.3584L13.8683 11.8842C13.9842 11.9497 14.11 12.1209 13.9892 12.1864L13.9842 12.1914Z" fill="white"/>
</g>
<defs>
<clipPath id="clip0_1197_248">
<rect width="24" height="24" fill="white"/>
</clipPath>
</defs>
</svg>
