<svg width="24" height="24" viewBox="0 0 24 24" fill="none" xmlns="http://www.w3.org/2000/svg">
<path opacity="0.6" fill-rule="evenodd" clip-rule="evenodd" d="M18.1451 11.8441L17.4451 16.0291V16.0431C17.4216 16.1723 17.3729 16.2957 17.3018 16.4061C17.2306 16.5165 17.1384 16.6118 17.0304 16.6865C16.9224 16.7613 16.8007 16.814 16.6723 16.8418C16.5439 16.8695 16.4114 16.8716 16.2821 16.8481L4.91313 14.7811C4.72945 14.7478 4.55876 14.6637 4.42038 14.5384C4.282 14.4131 4.18146 14.2516 4.13013 14.0721L2.30613 7.68512C2.26357 7.53632 2.25613 7.37967 2.28439 7.2275C2.31266 7.07534 2.37585 6.93181 2.46901 6.80821C2.56216 6.68462 2.68273 6.58434 2.82123 6.51526C2.95973 6.44618 3.11237 6.41019 3.26713 6.41012H16.9931L17.6061 3.78212C17.6666 3.52274 17.8131 3.29146 18.0217 3.12587C18.2303 2.96029 18.4888 2.87015 18.7551 2.87012H20.8201C21.1331 2.87012 21.4332 2.99444 21.6545 3.21573C21.8758 3.43702 22.0001 3.73716 22.0001 4.05012C22.0001 4.36307 21.8758 4.66321 21.6545 4.8845C21.4332 5.1058 21.1331 5.23012 20.8201 5.23012H19.6911L18.1451 11.8441Z" fill="url(#paint0_linear_171_18052)"/>
<path fill-rule="evenodd" clip-rule="evenodd" d="M6.5 21C6.20333 21 5.91332 20.912 5.66665 20.7472C5.41997 20.5824 5.22771 20.3481 5.11418 20.074C5.00065 19.7999 4.97094 19.4983 5.02882 19.2074C5.0867 18.9164 5.22956 18.6491 5.43934 18.4393C5.64912 18.2296 5.91639 18.0867 6.20737 18.0288C6.49834 17.9709 6.79994 18.0007 7.07403 18.1142C7.34811 18.2277 7.58238 18.42 7.74721 18.6666C7.91203 18.9133 8 19.2033 8 19.5C8 19.8978 7.84197 20.2794 7.56066 20.5607C7.27936 20.842 6.89783 21 6.5 21ZM15.5 21C15.2033 21 14.9133 20.912 14.6666 20.7472C14.42 20.5824 14.2277 20.3481 14.1142 20.074C14.0007 19.7999 13.9709 19.4983 14.0288 19.2074C14.0867 18.9164 14.2296 18.6491 14.4393 18.4393C14.6491 18.2296 14.9164 18.0867 15.2074 18.0288C15.4983 17.9709 15.7999 18.0007 16.074 18.1142C16.3481 18.2277 16.5824 18.42 16.7472 18.6666C16.912 18.9133 17 19.2033 17 19.5C17 19.8978 16.842 20.2794 16.5607 20.5607C16.2794 20.842 15.8978 21 15.5 21Z" fill="url(#paint1_linear_171_18052)"/>
<defs>
<linearGradient id="paint0_linear_171_18052" x1="3.84618" y1="4.66137" x2="15.6748" y2="22.7727" gradientUnits="userSpaceOnUse">
<stop stop-color="#C389FF"/>
<stop offset="1" stop-color="#4488FF"/>
</linearGradient>
<linearGradient id="paint1_linear_171_18052" x1="5.96" y1="18.384" x2="7.171" y2="23.6439" gradientUnits="userSpaceOnUse">
<stop stop-color="#C389FF"/>
<stop offset="1" stop-color="#4488FF"/>
</linearGradient>
</defs>
</svg>
