<svg width="24" height="24" viewBox="0 0 24 24" fill="none" xmlns="http://www.w3.org/2000/svg">
<path d="M7.94141 3.49204C8.32813 3.83969 8.35938 4.42954 8.01172 4.81626L5.19922 7.94126C5.02734 8.13266 4.78516 8.24594 4.52734 8.24985C4.26953 8.25376 4.02344 8.1561 3.83984 7.97641L2.27344 6.41391C1.91016 6.04673 1.91016 5.45298 2.27344 5.08579C2.63672 4.7186 3.23438 4.7186 3.59766 5.08579L4.46094 5.94907L6.61328 3.55844C6.96094 3.17173 7.55078 3.14048 7.9375 3.48813L7.94141 3.49204ZM7.94141 9.74204C8.32813 10.0897 8.35938 10.6795 8.01172 11.0663L5.19922 14.1913C5.02734 14.3827 4.78516 14.4959 4.52734 14.4999C4.26953 14.5038 4.02344 14.4061 3.83984 14.2264L2.27344 12.6639C1.90625 12.2967 1.90625 11.703 2.27344 11.3397C2.64062 10.9764 3.23438 10.9725 3.59766 11.3397L4.46094 12.203L6.61328 9.81235C6.96094 9.42563 7.55078 9.39438 7.9375 9.74204H7.94141ZM3.875 16.3749C4.37228 16.3749 4.84919 16.5724 5.20083 16.924C5.55246 17.2757 5.75 17.7526 5.75 18.2499C5.75 18.7471 5.55246 19.224 5.20083 19.5757C4.84919 19.9273 4.37228 20.1249 3.875 20.1249C3.37772 20.1249 2.90081 19.9273 2.54917 19.5757C2.19754 19.224 2 18.7471 2 18.2499C2 17.7526 2.19754 17.2757 2.54917 16.924C2.90081 16.5724 3.37772 16.3749 3.875 16.3749Z" fill="url(#paint0_linear_1026_16)"/>
<g opacity="0.6">
<path d="M12 4.5C11.3086 4.5 10.75 5.05859 10.75 5.75C10.75 6.44141 11.3086 7 12 7H20.75C21.4414 7 22 6.44141 22 5.75C22 5.05859 21.4414 4.5 20.75 4.5H12Z" fill="url(#paint1_linear_1026_16)"/>
<path d="M12 10.75C11.3086 10.75 10.75 11.3086 10.75 12C10.75 12.6914 11.3086 13.25 12 13.25H20.75C21.4414 13.25 22 12.6914 22 12C22 11.3086 21.4414 10.75 20.75 10.75H12Z" fill="url(#paint2_linear_1026_16)"/>
<path d="M9.5 17C8.80859 17 8.25 17.5586 8.25 18.25C8.25 18.9414 8.80859 19.5 9.5 19.5H20.75C21.4414 19.5 22 18.9414 22 18.25C22 17.5586 21.4414 17 20.75 17H9.5Z" fill="url(#paint3_linear_1026_16)"/>
</g>
<defs>
<linearGradient id="paint0_linear_1026_16" x1="2.49846" y1="5.407" x2="13.291" y2="9.75025" gradientUnits="userSpaceOnUse">
<stop stop-color="#C389FF"/>
<stop offset="1" stop-color="#4488FF"/>
</linearGradient>
<linearGradient id="paint1_linear_1026_16" x1="9.35" y1="6.42" x2="23.1967" y2="20.2027" gradientUnits="userSpaceOnUse">
<stop stop-color="#C389FF"/>
<stop offset="1" stop-color="#4488FF"/>
</linearGradient>
<linearGradient id="paint2_linear_1026_16" x1="9.35" y1="6.42" x2="23.1967" y2="20.2027" gradientUnits="userSpaceOnUse">
<stop stop-color="#C389FF"/>
<stop offset="1" stop-color="#4488FF"/>
</linearGradient>
<linearGradient id="paint3_linear_1026_16" x1="9.35" y1="6.42" x2="23.1967" y2="20.2027" gradientUnits="userSpaceOnUse">
<stop stop-color="#C389FF"/>
<stop offset="1" stop-color="#4488FF"/>
</linearGradient>
</defs>
</svg>
