<svg width="24" height="24" viewBox="0 0 24 24" fill="none" xmlns="http://www.w3.org/2000/svg">
<path d="M8 17.0401V8.00006C7.99999 7.78725 8.06786 7.57999 8.19376 7.40842C8.31965 7.23684 8.49699 7.1099 8.7 7.04606L17.7 4.54606C17.8498 4.49896 18.0086 4.48778 18.1635 4.51345C18.3184 4.53912 18.465 4.6009 18.5916 4.69379C18.7182 4.78669 18.8212 4.90809 18.8921 5.04816C18.963 5.18823 19 5.34305 19 5.50006V17.0001C18.9267 17.5937 18.6242 18.1352 18.1571 18.5089C17.69 18.8826 17.0953 19.0589 16.5 19.0001C15.9047 19.0589 15.31 18.8826 14.8429 18.5089C14.3758 18.1352 14.0733 17.5937 14 17.0001C14.0733 16.4064 14.3758 15.8649 14.8429 15.4912C15.31 15.1175 15.9047 14.9413 16.5 15.0001C16.6675 15 16.8347 15.0133 17 15.0401V8.00006L10 9.87506V19.0001C9.92669 19.5937 9.62418 20.1352 9.15708 20.5089C8.68998 20.8826 8.09529 21.0589 7.5 21.0001C6.90471 21.0589 6.31002 20.8826 5.84292 20.5089C5.37582 20.1352 5.07331 19.5937 5 19.0001C5.07331 18.4064 5.37582 17.8649 5.84292 17.4912C6.31002 17.1175 6.90471 16.9413 7.5 17.0001C7.66747 17 7.83467 17.0133 8 17.0401Z" fill="url(#paint0_linear_171_18064)"/>
<defs>
<linearGradient id="paint0_linear_171_18064" x1="6.12" y1="6.61343" x2="21.31" y2="20.5992" gradientUnits="userSpaceOnUse">
<stop stop-color="#C389FF"/>
<stop offset="1" stop-color="#4488FF"/>
</linearGradient>
</defs>
</svg>
