<svg width="24" height="24" viewBox="0 0 24 24" fill="none" xmlns="http://www.w3.org/2000/svg">
<path opacity="0.6" fill-rule="evenodd" clip-rule="evenodd" d="M6 3H18C18.5304 3 19.0391 3.21071 19.4142 3.58579C19.7893 3.96086 20 4.46957 20 5V19C20 19.5304 19.7893 20.0391 19.4142 20.4142C19.0391 20.7893 18.5304 21 18 21H6C5.46957 21 4.96086 20.7893 4.58579 20.4142C4.21071 20.0391 4 19.5304 4 19V5C4 4.46957 4.21071 3.96086 4.58579 3.58579C4.96086 3.21071 5.46957 3 6 3ZM5.5 5C5.36739 5 5.24021 5.05268 5.14645 5.14645C5.05268 5.24021 5 5.36739 5 5.5V6.5C5 6.63261 5.05268 6.75979 5.14645 6.85355C5.24021 6.94732 5.36739 7 5.5 7H6.5C6.63261 7 6.75979 6.94732 6.85355 6.85355C6.94732 6.75979 7 6.63261 7 6.5V5.5C7 5.36739 6.94732 5.24021 6.85355 5.14645C6.75979 5.05268 6.63261 5 6.5 5H5.5ZM17.5 5C17.3674 5 17.2402 5.05268 17.1464 5.14645C17.0527 5.24021 17 5.36739 17 5.5V6.5C17 6.63261 17.0527 6.75979 17.1464 6.85355C17.2402 6.94732 17.3674 7 17.5 7H18.5C18.6326 7 18.7598 6.94732 18.8536 6.85355C18.9473 6.75979 19 6.63261 19 6.5V5.5C19 5.36739 18.9473 5.24021 18.8536 5.14645C18.7598 5.05268 18.6326 5 18.5 5H17.5ZM5.5 9C5.36739 9 5.24021 9.05268 5.14645 9.14645C5.05268 9.24021 5 9.36739 5 9.5V10.5C5 10.6326 5.05268 10.7598 5.14645 10.8536C5.24021 10.9473 5.36739 11 5.5 11H6.5C6.63261 11 6.75979 10.9473 6.85355 10.8536C6.94732 10.7598 7 10.6326 7 10.5V9.5C7 9.36739 6.94732 9.24021 6.85355 9.14645C6.75979 9.05268 6.63261 9 6.5 9H5.5ZM17.5 9C17.3674 9 17.2402 9.05268 17.1464 9.14645C17.0527 9.24021 17 9.36739 17 9.5V10.5C17 10.6326 17.0527 10.7598 17.1464 10.8536C17.2402 10.9473 17.3674 11 17.5 11H18.5C18.6326 11 18.7598 10.9473 18.8536 10.8536C18.9473 10.7598 19 10.6326 19 10.5V9.5C19 9.36739 18.9473 9.24021 18.8536 9.14645C18.7598 9.05268 18.6326 9 18.5 9H17.5ZM5.5 13C5.36739 13 5.24021 13.0527 5.14645 13.1464C5.05268 13.2402 5 13.3674 5 13.5V14.5C5 14.6326 5.05268 14.7598 5.14645 14.8536C5.24021 14.9473 5.36739 15 5.5 15H6.5C6.63261 15 6.75979 14.9473 6.85355 14.8536C6.94732 14.7598 7 14.6326 7 14.5V13.5C7 13.3674 6.94732 13.2402 6.85355 13.1464C6.75979 13.0527 6.63261 13 6.5 13H5.5ZM17.5 13C17.3674 13 17.2402 13.0527 17.1464 13.1464C17.0527 13.2402 17 13.3674 17 13.5V14.5C17 14.6326 17.0527 14.7598 17.1464 14.8536C17.2402 14.9473 17.3674 15 17.5 15H18.5C18.6326 15 18.7598 14.9473 18.8536 14.8536C18.9473 14.7598 19 14.6326 19 14.5V13.5C19 13.3674 18.9473 13.2402 18.8536 13.1464C18.7598 13.0527 18.6326 13 18.5 13H17.5ZM17.5 17C17.3674 17 17.2402 17.0527 17.1464 17.1464C17.0527 17.2402 17 17.3674 17 17.5V18.5C17 18.6326 17.0527 18.7598 17.1464 18.8536C17.2402 18.9473 17.3674 19 17.5 19H18.5C18.6326 19 18.7598 18.9473 18.8536 18.8536C18.9473 18.7598 19 18.6326 19 18.5V17.5C19 17.3674 18.9473 17.2402 18.8536 17.1464C18.7598 17.0527 18.6326 17 18.5 17H17.5ZM5.5 17C5.36739 17 5.24021 17.0527 5.14645 17.1464C5.05268 17.2402 5 17.3674 5 17.5V18.5C5 18.6326 5.05268 18.7598 5.14645 18.8536C5.24021 18.9473 5.36739 19 5.5 19H6.5C6.63261 19 6.75979 18.9473 6.85355 18.8536C6.94732 18.7598 7 18.6326 7 18.5V17.5C7 17.3674 6.94732 17.2402 6.85355 17.1464C6.75979 17.0527 6.63261 17 6.5 17H5.5Z" fill="url(#paint0_linear_171_18041)"/>
<path fill-rule="evenodd" clip-rule="evenodd" d="M11.3523 14.5722L13.9523 12.7912C14.0194 12.7453 14.0742 12.6837 14.1121 12.6119C14.15 12.54 14.1698 12.46 14.1698 12.3787C14.1698 12.2975 14.15 12.2174 14.1121 12.1456C14.0742 12.0737 14.0194 12.0121 13.9523 11.9662L11.3523 10.1742C11.2773 10.1227 11.1895 10.0926 11.0986 10.0873C11.0077 10.0819 10.9171 10.1015 10.8365 10.1439C10.7559 10.1863 10.6884 10.25 10.6414 10.3279C10.5943 10.4058 10.5694 10.4952 10.5693 10.5862V14.1602C10.5693 14.2512 10.5941 14.3405 10.6411 14.4184C10.688 14.4963 10.7554 14.56 10.8358 14.6025C10.9163 14.645 11.0068 14.6647 11.0977 14.6595C11.1885 14.6544 11.2762 14.6245 11.3513 14.5732L11.3523 14.5722Z" fill="url(#paint1_linear_171_18041)"/>
<defs>
<linearGradient id="paint0_linear_171_18041" x1="5.28" y1="5.304" x2="21.8858" y2="21.3322" gradientUnits="userSpaceOnUse">
<stop stop-color="#C389FF"/>
<stop offset="1" stop-color="#4488FF"/>
</linearGradient>
<linearGradient id="paint1_linear_171_18041" x1="10.8574" y1="10.6719" x2="15.0282" y2="14.2369" gradientUnits="userSpaceOnUse">
<stop stop-color="#C389FF"/>
<stop offset="1" stop-color="#4488FF"/>
</linearGradient>
</defs>
</svg>
