<svg width="24" height="24" viewBox="0 0 24 24" fill="none" xmlns="http://www.w3.org/2000/svg">
<path d="M12.3075 2C12.6668 2 12.9949 2.20311 13.1512 2.5273L15.8307 8.04642L21.8146 8.92916C22.1661 8.97994 22.4591 9.22602 22.5684 9.56584C22.6778 9.90565 22.588 10.2728 22.338 10.5228L17.9985 14.8272L19.0218 20.9048C19.0804 21.2564 18.9359 21.6118 18.643 21.8227C18.35 22.0336 17.9672 22.0571 17.6548 21.8891L12.3036 19.03L6.96024 21.8852C6.64386 22.0532 6.26108 22.0297 5.97204 21.8188C5.683 21.6079 5.53457 21.2525 5.59316 20.9009L6.61652 14.8233L2.277 10.5228C2.02312 10.2728 1.93719 9.90175 2.04655 9.56584C2.15592 9.22992 2.44887 8.98385 2.8004 8.92916L8.78433 8.04642L11.4638 2.5273C11.624 2.20311 11.9481 2 12.3075 2ZM12.3075 5.0857L10.2569 9.31195C10.1202 9.58927 9.85846 9.78457 9.54989 9.83144L4.92915 10.5111L8.28436 13.835C8.49919 14.0499 8.60075 14.3545 8.54997 14.6553L7.75706 19.3307L11.8661 17.1356C12.1434 16.9872 12.4755 16.9872 12.7489 17.1356L16.8579 19.3307L16.0689 14.6592C16.0182 14.3584 16.1158 14.0538 16.3345 13.839L19.6898 10.515L15.069 9.83144C14.7643 9.78457 14.4987 9.59318 14.362 9.31195L12.3075 5.0857Z" fill="url(#paint0_linear_1026_11)"/>
<g opacity="0.6">
<path d="M12.3071 5.08594L10.2564 9.31218C10.1197 9.5895 9.85803 9.7848 9.54946 9.83167L4.92871 10.5113L8.28393 13.8353C8.49875 14.0501 8.60031 14.3548 8.54953 14.6555L7.75662 19.331L11.8657 17.1358C12.143 16.9874 12.475 16.9874 12.7484 17.1358L16.8575 19.331L16.0685 14.6594C16.0177 14.3587 16.1154 14.054 16.3341 13.8392L19.6893 10.5152L15.0686 9.83167C14.7639 9.7848 14.4983 9.59341 14.3616 9.31218L12.3071 5.08594Z" fill="url(#paint1_linear_1026_11)"/>
</g>
<defs>
<linearGradient id="paint0_linear_1026_11" x1="3.64915" y1="4.56" x2="21.9951" y2="25.0932" gradientUnits="userSpaceOnUse">
<stop stop-color="#C389FF"/>
<stop offset="1" stop-color="#4488FF"/>
</linearGradient>
<linearGradient id="paint1_linear_1026_11" x1="6.10956" y1="6.9093" x2="19.1686" y2="21.6029" gradientUnits="userSpaceOnUse">
<stop stop-color="#C389FF"/>
<stop offset="1" stop-color="#4488FF"/>
</linearGradient>
</defs>
</svg>
