<svg width="24" height="24" viewBox="0 0 24 24" fill="none" xmlns="http://www.w3.org/2000/svg">
<path d="M14.2752 4.03724C13.744 3.88411 13.1908 4.19349 13.0377 4.72474L9.03771 18.7247C8.88458 19.256 9.19396 19.8091 9.72521 19.9622C10.2565 20.1153 10.8096 19.806 10.9627 19.2747L14.9627 5.27474C15.1158 4.74349 14.8065 4.19036 14.2752 4.03724ZM16.794 7.79036C16.4033 8.18098 16.4033 8.81536 16.794 9.20598L19.5846 11.9997L16.7908 14.7935C16.4002 15.1841 16.4002 15.8185 16.7908 16.2091C17.1815 16.5997 17.8158 16.5997 18.2065 16.2091L21.7065 12.7091C22.0971 12.3185 22.0971 11.6841 21.7065 11.2935L18.2065 7.79348C17.8158 7.40286 17.1815 7.40286 16.7908 7.79348L16.794 7.79036ZM7.20958 7.79036C6.81895 7.39973 6.18458 7.39973 5.79395 7.79036L2.29395 11.2904C1.90332 11.681 1.90332 12.3154 2.29395 12.706L5.79395 16.206C6.18458 16.5966 6.81895 16.5966 7.20958 16.206C7.6002 15.8153 7.6002 15.181 7.20958 14.7903L4.41582 11.9997L7.20958 9.20598C7.6002 8.81536 7.6002 8.18098 7.20958 7.79036Z" fill="url(#paint0_linear_875_2)"/>
<defs>
<linearGradient id="paint0_linear_875_2" x1="3.60085" y1="6.04648" x2="17.7115" y2="25.1938" gradientUnits="userSpaceOnUse">
<stop stop-color="#C389FF"/>
<stop offset="1" stop-color="#4488FF"/>
</linearGradient>
</defs>
</svg>
