<svg width="24" height="24" viewBox="0 0 24 24" fill="none" xmlns="http://www.w3.org/2000/svg">
<path d="M19.871 5.14307C19.8748 5.14307 19.8748 5.14307 19.8748 5.14687V18.8531C19.8748 18.8569 19.8748 18.8569 19.871 18.8569H4.12897C4.12523 18.8569 4.12523 18.8569 4.12523 18.8531V5.14687C4.12523 5.14307 4.12523 5.14307 4.12897 5.14307H19.871ZM19.8748 4H4.12523C3.82705 4.0008 3.5413 4.12149 3.33044 4.33568C3.11959 4.54988 3.00079 4.84016 3 5.14307V18.8569C3.00079 19.1598 3.11959 19.4501 3.33044 19.6643C3.5413 19.8785 3.82705 19.9992 4.12523 20H19.8748C20.173 19.9992 20.4587 19.8785 20.6696 19.6643C20.8804 19.4501 20.9992 19.1598 21 18.8569V5.14307C20.9992 4.84016 20.8804 4.54988 20.6696 4.33568C20.4587 4.12149 20.173 4.0008 19.8748 4Z" fill="url(#paint0_linear_655_71)"/>
<path d="M16 8.5C16 8.79667 15.912 9.08668 15.7472 9.33335C15.5824 9.58003 15.3481 9.77229 15.074 9.88582C14.7999 9.99935 14.4983 10.0291 14.2074 9.97118C13.9164 9.9133 13.6491 9.77044 13.4393 9.56066C13.2296 9.35088 13.0867 9.08361 13.0288 8.79263C12.9709 8.50166 13.0006 8.20006 13.1142 7.92597C13.2277 7.65189 13.42 7.41762 13.6666 7.2528C13.9133 7.08797 14.2033 7 14.5 7C14.8977 7.00053 15.2789 7.15873 15.5601 7.43992C15.8413 7.72111 15.9995 8.10234 16 8.5Z" fill="url(#paint1_linear_655_71)"/>
<path d="M19 18H5V15.7502L9.08308 9L13.75 14.6249H14.9169L19 11.2498V18Z" fill="url(#paint2_linear_655_71)"/>
<defs>
<linearGradient id="paint0_linear_655_71" x1="4.44" y1="6.048" x2="18.919" y2="23.7355" gradientUnits="userSpaceOnUse">
<stop stop-color="#C389FF"/>
<stop offset="1" stop-color="#4488FF"/>
</linearGradient>
<linearGradient id="paint1_linear_655_71" x1="13.24" y1="7.384" x2="16" y2="10.381" gradientUnits="userSpaceOnUse">
<stop stop-color="#C389FF"/>
<stop offset="1" stop-color="#4488FF"/>
</linearGradient>
<linearGradient id="paint2_linear_655_71" x1="6.12" y1="10.152" x2="13.4041" y2="22.4559" gradientUnits="userSpaceOnUse">
<stop stop-color="#C389FF"/>
<stop offset="1" stop-color="#4488FF"/>
</linearGradient>
</defs>
</svg>
