<svg width="24" height="24" viewBox="0 0 24 24" fill="none" xmlns="http://www.w3.org/2000/svg">
<path d="M13 17.93C13 17.9533 13 17.9767 13 18V21C13 21.2652 12.8946 21.5196 12.7071 21.7071C12.5196 21.8946 12.2652 22 12 22C11.7348 22 11.4804 21.8946 11.2929 21.7071C11.1054 21.5196 11 21.2652 11 21V18C11 17.976 11 17.9527 11 17.93C9.3337 17.6895 7.8099 16.8565 6.70791 15.5837C5.60592 14.3109 4.99957 12.6836 5 11H7C7 12.3261 7.52678 13.5979 8.46447 14.5355C9.40215 15.4732 10.6739 16 12 16C13.3261 16 14.5979 15.4732 15.5355 14.5355C16.4732 13.5979 17 12.3261 17 11H19C19.0004 12.6836 18.3941 14.3109 17.2921 15.5837C16.1901 16.8565 14.6663 17.6895 13 17.93Z" fill="url(#paint0_linear_171_18021)"/>
<path opacity="0.6" d="M15 5C15 3.34315 13.6569 2 12 2C10.3431 2 9 3.34315 9 5V11C9 12.6569 10.3431 14 12 14C13.6569 14 15 12.6569 15 11V5Z" fill="url(#paint1_linear_171_18021)"/>
<defs>
<linearGradient id="paint0_linear_171_18021" x1="6.12" y1="12.408" x2="15.7651" y2="25.7377" gradientUnits="userSpaceOnUse">
<stop stop-color="#C389FF"/>
<stop offset="1" stop-color="#4488FF"/>
</linearGradient>
<linearGradient id="paint1_linear_171_18021" x1="9.48" y1="3.536" x2="18.7702" y2="8.57995" gradientUnits="userSpaceOnUse">
<stop stop-color="#C389FF"/>
<stop offset="1" stop-color="#4488FF"/>
</linearGradient>
</defs>
</svg>
