<svg width="16" height="16" viewBox="0 0 16 16" fill="none" xmlns="http://www.w3.org/2000/svg">
<path d="M8 1C6.14348 1 4.36301 1.7375 3.05025 3.05025C1.7375 4.36301 1 6.14348 1 8C1 9.85652 1.7375 11.637 3.05025 12.9497C4.36301 14.2625 6.14348 15 8 15C8.23206 15 8.45462 14.9078 8.61872 14.7437C8.78281 14.5796 8.875 14.3571 8.875 14.125C8.875 13.8929 8.78281 13.6704 8.61872 13.5063C8.45462 13.3422 8.23206 13.25 8 13.25C6.96165 13.25 5.94661 12.9421 5.08326 12.3652C4.2199 11.7883 3.54699 10.9684 3.14963 10.0091C2.75227 9.04978 2.6483 7.99418 2.85088 6.97578C3.05345 5.95738 3.55346 5.02191 4.28769 4.28769C5.02191 3.55346 5.95738 3.05345 6.97578 2.85088C7.99418 2.6483 9.04978 2.75227 10.0091 3.14963C10.9684 3.54699 11.7883 4.2199 12.3652 5.08326C12.9421 5.94661 13.25 6.96165 13.25 8V10.625C13.25 10.8571 13.1578 11.0796 12.9937 11.2437C12.8296 11.4078 12.6071 11.5 12.375 11.5C12.1429 11.5 11.9204 11.4078 11.7563 11.2437C11.5922 11.0796 11.5 10.8571 11.5 10.625V8C11.5 7.30777 11.2947 6.63108 10.9101 6.0555C10.5256 5.47993 9.97893 5.03133 9.33939 4.76642C8.69985 4.50151 7.99612 4.4322 7.31718 4.56725C6.63825 4.7023 6.01461 5.03564 5.52513 5.52513C5.03564 6.01461 4.7023 6.63825 4.56725 7.31718C4.4322 7.99612 4.50151 8.69985 4.76642 9.33939C5.03133 9.97893 5.47993 10.5256 6.0555 10.9101C6.63108 11.2947 7.30777 11.5 8 11.5C8.63073 11.4969 9.24864 11.3216 9.787 10.993C9.87849 11.6506 10.2163 12.2488 10.7321 12.6668C11.2479 13.0848 11.9032 13.2913 12.5654 13.2446C13.2277 13.1978 13.8475 12.9013 14.2994 12.415C14.7514 11.9287 15.0018 11.2889 15 10.625V8C14.9981 6.14405 14.2601 4.36465 12.9477 3.0523C11.6353 1.73995 9.85595 1.00185 8 1ZM8 9.75C7.65388 9.75 7.31554 9.64736 7.02775 9.45507C6.73997 9.26278 6.51566 8.98947 6.38321 8.6697C6.25076 8.34993 6.2161 7.99806 6.28363 7.65859C6.35115 7.31913 6.51782 7.00731 6.76256 6.76256C7.00731 6.51782 7.31913 6.35115 7.65859 6.28363C7.99806 6.2161 8.34993 6.25076 8.6697 6.38321C8.98947 6.51566 9.26278 6.73997 9.45507 7.02775C9.64736 7.31554 9.75 7.65388 9.75 8C9.75 8.46413 9.56563 8.90925 9.23744 9.23744C8.90925 9.56563 8.46413 9.75 8 9.75Z" fill="url(#paint0_linear_169_254)"/>
<defs>
<linearGradient id="paint0_linear_169_254" x1="2.12" y1="2.792" x2="15" y2="16.778" gradientUnits="userSpaceOnUse">
<stop stop-color="#C389FF"/>
<stop offset="1" stop-color="#4488FF"/>
</linearGradient>
</defs>
</svg>
