<svg width="30" height="30" viewBox="0 0 30 30" fill="none" xmlns="http://www.w3.org/2000/svg">
<path d="M3 8.66667H27C27 7.19583 25.8042 6 24.3333 6H5.66667C4.19583 6 3 7.19583 3 8.66667ZM3 10V22C3 23.4708 4.19583 24.6667 5.66667 24.6667H24.3333C25.8042 24.6667 27 23.4708 27 22V10H3ZM5.66667 21.5542C5.66667 20.325 6.6625 19.3333 7.8875 19.3333H12.775C14.0042 19.3333 14.9958 20.3292 14.9958 21.5542C14.9958 21.8 14.7958 22 14.55 22H6.1125C5.86667 22 5.66667 21.8 5.66667 21.5542ZM10.3333 12.6667C11.0406 12.6667 11.7189 12.9476 12.219 13.4477C12.719 13.9478 13 14.6261 13 15.3333C13 16.0406 12.719 16.7189 12.219 17.219C11.7189 17.719 11.0406 18 10.3333 18C9.62609 18 8.94781 17.719 8.44772 17.219C7.94762 16.7189 7.66667 16.0406 7.66667 15.3333C7.66667 14.6261 7.94762 13.9478 8.44772 13.4477C8.94781 12.9476 9.62609 12.6667 10.3333 12.6667ZM17.6667 13.3333C17.6667 12.9667 17.9667 12.6667 18.3333 12.6667H23.6667C24.0333 12.6667 24.3333 12.9667 24.3333 13.3333C24.3333 13.7 24.0333 14 23.6667 14H18.3333C17.9667 14 17.6667 13.7 17.6667 13.3333ZM17.6667 16C17.6667 15.6333 17.9667 15.3333 18.3333 15.3333H23.6667C24.0333 15.3333 24.3333 15.6333 24.3333 16C24.3333 16.3667 24.0333 16.6667 23.6667 16.6667H18.3333C17.9667 16.6667 17.6667 16.3667 17.6667 16ZM17.6667 18.6667C17.6667 18.3 17.9667 18 18.3333 18H23.6667C24.0333 18 24.3333 18.3 24.3333 18.6667C24.3333 19.0333 24.0333 19.3333 23.6667 19.3333H18.3333C17.9667 19.3333 17.6667 19.0333 17.6667 18.6667Z" fill="url(#paint0_linear_919_25)"/>
<defs>
<linearGradient id="paint0_linear_919_25" x1="4.92" y1="8.38933" x2="21.2348" y2="31.1668" gradientUnits="userSpaceOnUse">
<stop stop-color="#C389FF"/>
<stop offset="1" stop-color="#4488FF"/>
</linearGradient>
</defs>
</svg>
