<svg width="16" height="17" viewBox="0 0 16 17" fill="none" xmlns="http://www.w3.org/2000/svg">
<path d="M5.32091 16.7014C3.99 16.6988 2.71466 16.1684 1.77403 15.2268C0.833404 14.2853 0.304162 13.0089 0.302841 11.678V9.76393C0.304062 8.89678 0.530203 8.04494 0.959091 7.29127C1.38798 6.53761 2.00522 5.9071 2.75011 5.46315V5.37526C2.74874 4.70854 2.87947 4.04971 3.13487 3.43385C3.39028 2.81799 3.76509 2.25744 4.2379 1.78737C4.70806 1.31621 5.26685 0.944055 5.88194 0.68971C6.49704 0.435365 7.15628 0.305387 7.82188 0.306898C9.16718 0.306897 10.4574 0.840664 11.4093 1.79127C12.3612 2.74188 12.8972 4.02997 12.899 5.37526V5.46901C13.6413 5.91498 14.2554 6.54371 14.6822 7.29713C15.1091 8.05055 15.3341 8.90191 15.3351 9.76784V11.6819C15.3337 13.0128 14.8045 14.2892 13.8639 15.2307C12.9232 16.1723 11.6479 16.7027 10.317 16.7053L5.32091 16.7014ZM1.70518 9.76393V11.678C1.70518 12.6375 2.08579 13.5577 2.76378 14.2366C3.44177 14.9155 4.36143 15.2978 5.32091 15.2991H10.3209C11.2804 15.2978 12.2 14.9155 12.878 14.2366C13.556 13.5577 13.9371 12.6375 13.9371 11.678V9.76393C13.9363 8.80469 13.5554 7.88409 12.8775 7.20534C12.1997 6.52658 11.2801 6.14495 10.3209 6.14284H5.32091C4.3615 6.14469 3.4423 6.52655 2.76427 7.20534C2.08623 7.88412 1.70598 8.80452 1.70518 9.76393ZM10.317 4.74635C10.7036 4.74757 11.0887 4.79263 11.465 4.88112C11.3442 4.00047 10.909 3.19417 10.2394 2.60963C9.56971 2.02509 8.71077 1.70212 7.82188 1.70143C7.34045 1.70008 6.86345 1.79282 6.41856 1.97682C5.97368 2.16082 5.56993 2.43269 5.23009 2.77369C4.6608 3.34022 4.29341 4.07762 4.18419 4.8733C4.55669 4.78491 4.93807 4.74107 5.32091 4.74244L10.317 4.74635ZM6.44688 13.6233V11.3655C6.17312 11.1127 5.97369 10.7899 5.87022 10.4319C5.76676 10.0739 5.76328 9.69412 5.85997 9.33424C5.97612 8.90315 6.23062 8.52104 6.58409 8.2483C6.93757 7.97557 7.37055 7.82748 7.817 7.82448H7.82823C8.09583 7.8245 8.36054 7.87774 8.60753 7.98073C8.85452 8.08371 9.07885 8.234 9.2672 8.42409C9.65065 8.8073 9.86604 9.32728 9.86681 9.8694C9.86489 10.1515 9.80507 10.4297 9.69102 10.6878C9.57698 10.9458 9.41154 11.1781 9.20421 11.3694V13.6272L6.44688 13.6233ZM7.20714 9.69948C7.17177 9.83448 7.18169 9.97714 7.23595 10.1057C7.2902 10.2343 7.38555 10.3416 7.50694 10.4104L7.83116 10.6096L8.15392 10.4202C8.24988 10.3625 8.3297 10.283 8.38536 10.1858C8.44102 10.0887 8.47055 9.97745 8.47179 9.86549C8.46944 9.69775 8.40204 9.53722 8.2838 9.41823C8.22448 9.35842 8.15402 9.31199 8.07628 9.27955C7.99854 9.24712 7.9154 9.23081 7.83116 9.23073H7.82579C7.68508 9.2303 7.54819 9.27646 7.43614 9.36159C7.32409 9.44671 7.24348 9.56575 7.20616 9.70143L7.20714 9.69948Z" fill="url(#paint0_linear_169_218)"/>
<defs>
<linearGradient id="paint0_linear_169_218" x1="1.50542" y1="2.40589" x2="16.6431" y2="17.4739" gradientUnits="userSpaceOnUse">
<stop stop-color="#C389FF"/>
<stop offset="1" stop-color="#4488FF"/>
</linearGradient>
</defs>
</svg>
