<svg width="24" height="24" viewBox="0 0 24 24" fill="none" xmlns="http://www.w3.org/2000/svg">
<path d="M9.125 8.25C9.125 6.87109 10.2461 5.75 11.625 5.75H12.875C14.2539 5.75 15.375 6.87109 15.375 8.25V8.39063C15.375 9.24219 14.9414 10.0352 14.2266 10.4922L12.5781 11.5508C11.5937 12.1836 11 13.2734 11 14.4414V14.4961C11 15.1875 11.5586 15.7461 12.25 15.7461C12.9414 15.7461 13.5 15.1875 13.5 14.4961V14.4414C13.5 14.1211 13.6641 13.8242 13.9297 13.6523L15.5781 12.5938C17.0078 11.6719 17.875 10.0898 17.875 8.38672V8.24609C17.875 5.48437 15.6367 3.24609 12.875 3.24609H11.625C8.86328 3.25 6.625 5.48828 6.625 8.25C6.625 8.94141 7.18359 9.5 7.875 9.5C8.56641 9.5 9.125 8.94141 9.125 8.25ZM12.25 20.75C12.6644 20.75 13.0618 20.5854 13.3549 20.2924C13.6479 19.9993 13.8125 19.6019 13.8125 19.1875C13.8125 18.7731 13.6479 18.3757 13.3549 18.0826C13.0618 17.7896 12.6644 17.625 12.25 17.625C11.8356 17.625 11.4382 17.7896 11.1451 18.0826C10.8521 18.3757 10.6875 18.7731 10.6875 19.1875C10.6875 19.6019 10.8521 19.9993 11.1451 20.2924C11.4382 20.5854 11.8356 20.75 12.25 20.75Z" fill="url(#paint0_linear_902_2)"/>
<defs>
<linearGradient id="paint0_linear_902_2" x1="7.525" y1="5.48659" x2="22.6916" y2="16.0714" gradientUnits="userSpaceOnUse">
<stop stop-color="#C389FF"/>
<stop offset="1" stop-color="#4488FF"/>
</linearGradient>
</defs>
</svg>
