<svg width="16" height="16" viewBox="0 0 16 16" fill="none" xmlns="http://www.w3.org/2000/svg">
<path opacity="0.3" d="M14 5.333H2V2.667C2.00053 2.49026 2.07097 2.32091 2.19594 2.19594C2.32091 2.07097 2.49026 2.00053 2.667 2H13.333C13.5097 2.00053 13.6791 2.07097 13.8041 2.19594C13.929 2.32091 13.9995 2.49026 14 2.667V5.333Z" fill="#323232"/>
<path d="M10.667 14V6.66699H14V13.334C13.9995 13.5107 13.929 13.6801 13.8041 13.805C13.6791 13.93 13.5097 14.0005 13.333 14.001L10.667 14ZM9.334 14H2.667C2.49026 13.9995 2.32091 13.929 2.19594 13.8041C2.07097 13.6791 2.00053 13.5097 2 13.333V6.66699H9.333L9.334 14Z" fill="#323232"/>
</svg>
