<svg width="281" height="112" viewBox="0 0 281 112" fill="none" xmlns="http://www.w3.org/2000/svg">
<path d="M271 0H10C4.47715 0 0 4.47715 0 10V102C0 107.523 4.47715 112 10 112H271C276.523 112 281 107.523 281 102V10C281 4.47715 276.523 0 271 0Z" fill="white"/>
<path d="M255 60C253.022 60 251.089 59.4135 249.444 58.3147C247.8 57.2159 246.518 55.6541 245.761 53.8268C245.004 51.9996 244.806 49.9889 245.192 48.0491C245.578 46.1093 246.53 44.3275 247.929 42.9289C249.327 41.5304 251.109 40.578 253.049 40.1922C254.989 39.8063 257 40.0043 258.827 40.7612C260.654 41.5181 262.216 42.7998 263.315 44.4443C264.414 46.0888 265 48.0222 265 50C264.997 52.6513 263.943 55.1931 262.068 57.0679C260.193 58.9426 257.651 59.9971 255 60ZM253.148 43.333L251.669 44.815L256.847 49.993L251.669 55.173L253.148 56.652L259.808 49.992L253.148 43.333Z" fill="#E4E7ED"/>
<path d="M26 60.001C27.9778 60.001 29.9112 59.4145 31.5557 58.3157C33.2002 57.2169 34.4819 55.6551 35.2388 53.8278C35.9957 52.0005 36.1937 49.9899 35.8078 48.0501C35.422 46.1103 34.4696 44.3284 33.0711 42.9299C31.6725 41.5314 29.8907 40.579 27.9509 40.1931C26.0111 39.8073 24.0004 40.0053 22.1732 40.7622C20.3459 41.5191 18.7841 42.8008 17.6853 44.4453C16.5865 46.0898 16 48.0232 16 50.001C16.0032 52.6522 17.0578 55.1939 18.9324 57.0685C20.8071 58.9432 23.3488 59.9978 26 60.001ZM27.852 43.332L29.331 44.814L24.153 49.992L29.331 55.174L27.852 56.653L21.192 49.993L27.852 43.333V43.332Z" fill="#E4E7ED"/>
<path d="M94 24H57C52.5817 24 49 27.5817 49 32V68C49 72.4183 52.5817 76 57 76H94C98.4183 76 102 72.4183 102 68V32C102 27.5817 98.4183 24 94 24Z" fill="#E4E7ED"/>
<path d="M159 24H122C117.582 24 114 27.5817 114 32V68C114 72.4183 117.582 76 122 76H159C163.418 76 167 72.4183 167 68V32C167 27.5817 163.418 24 159 24Z" fill="#E4E7ED"/>
<path d="M224 24H187C182.582 24 179 27.5817 179 32V68C179 72.4183 182.582 76 187 76H224C228.418 76 232 72.4183 232 68V32C232 27.5817 228.418 24 224 24Z" fill="#E4E7ED"/>
<path d="M101 82H50C49.4477 82 49 82.4477 49 83V87C49 87.5523 49.4477 88 50 88H101C101.552 88 102 87.5523 102 87V83C102 82.4477 101.552 82 101 82Z" fill="#E4E7ED"/>
<path d="M166 82H115C114.448 82 114 82.4477 114 83V87C114 87.5523 114.448 88 115 88H166C166.552 88 167 87.5523 167 87V83C167 82.4477 166.552 82 166 82Z" fill="#E4E7ED"/>
<path d="M231 82H180C179.448 82 179 82.4477 179 83V87C179 87.5523 179.448 88 180 88H231C231.552 88 232 87.5523 232 87V83C232 82.4477 231.552 82 231 82Z" fill="#E4E7ED"/>
</svg>
