<svg width="281" height="89" viewBox="0 0 281 89" fill="none" xmlns="http://www.w3.org/2000/svg">
<path d="M271 0H10C4.47715 0 0 4.47715 0 10V79C0 84.5229 4.47715 89 10 89H271C276.523 89 281 84.5229 281 79V10C281 4.47715 276.523 0 271 0Z" fill="white"/>
<path d="M81 25H57C52.5817 25 49 28.5817 49 33V56C49 60.4183 52.5817 64 57 64H81C85.4183 64 89 60.4183 89 56V33C89 28.5817 85.4183 25 81 25Z" fill="#E4E7ED"/>
<path d="M129 25H106C101.582 25 98 28.5817 98 33V56C98 60.4183 101.582 64 106 64H129C133.418 64 137 60.4183 137 56V33C137 28.5817 133.418 25 129 25Z" fill="#E4E7ED"/>
<path d="M176 25H153C148.582 25 145 28.5817 145 33V56C145 60.4183 148.582 64 153 64H176C180.418 64 184 60.4183 184 56V33C184 28.5817 180.418 25 176 25Z" fill="#E4E7ED"/>
<path d="M224 25H200C195.582 25 192 28.5817 192 33V56C192 60.4183 195.582 64 200 64H224C228.418 64 232 60.4183 232 56V33C232 28.5817 228.418 25 224 25Z" fill="#E4E7ED"/>
<path d="M255 55C253.022 55 251.089 54.4135 249.444 53.3147C247.8 52.2159 246.518 50.6541 245.761 48.8268C245.004 46.9996 244.806 44.9889 245.192 43.0491C245.578 41.1093 246.53 39.3275 247.929 37.9289C249.327 36.5304 251.109 35.578 253.049 35.1922C254.989 34.8063 257 35.0043 258.827 35.7612C260.654 36.5181 262.216 37.7998 263.315 39.4443C264.414 41.0888 265 43.0222 265 45C264.997 47.6513 263.943 50.1931 262.068 52.0679C260.193 53.9426 257.651 54.9971 255 55ZM253.148 38.333L251.669 39.815L256.847 44.993L251.669 50.173L253.148 51.652L259.808 44.992L253.148 38.333Z" fill="#E4E7ED"/>
<path d="M26 54.002C27.9778 54.002 29.9112 53.4155 31.5557 52.3166C33.2002 51.2178 34.4819 49.656 35.2388 47.8288C35.9957 46.0015 36.1937 43.9909 35.8078 42.0511C35.422 40.1112 34.4696 38.3294 33.0711 36.9309C31.6725 35.5324 29.8907 34.58 27.9509 34.1941C26.0111 33.8082 24.0004 34.0063 22.1732 34.7632C20.3459 35.52 18.7841 36.8018 17.6853 38.4463C16.5865 40.0907 16 42.0241 16 44.002C16.0032 46.6531 17.0578 49.1948 18.9324 51.0695C20.8071 52.9442 23.3488 53.9988 26 54.002ZM27.852 37.333L29.331 38.815L24.153 43.993L29.331 49.175L27.852 50.654L21.192 43.994L27.852 37.334V37.333Z" fill="#E4E7ED"/>
</svg>
