<svg width="281" height="110" viewBox="0 0 281 110" fill="none" xmlns="http://www.w3.org/2000/svg">
<path d="M271 0H10C4.47715 0 0 4.47715 0 10V100C0 105.523 4.47715 110 10 110H271C276.523 110 281 105.523 281 100V10C281 4.47715 276.523 0 271 0Z" fill="white"/>
<path d="M80 12H56C51.5817 12 48 15.5817 48 20V43C48 47.4183 51.5817 51 56 51H80C84.4183 51 88 47.4183 88 43V20C88 15.5817 84.4183 12 80 12Z" fill="#E4E7ED"/>
<path d="M128 12H105C100.582 12 97 15.5817 97 20V43C97 47.4183 100.582 51 105 51H128C132.418 51 136 47.4183 136 43V20C136 15.5817 132.418 12 128 12Z" fill="#E4E7ED"/>
<path d="M177 59H154C149.582 59 146 62.5817 146 67V90C146 94.4183 149.582 98 154 98H177C181.418 98 185 94.4183 185 90V67C185 62.5817 181.418 59 177 59Z" fill="#E4E7ED"/>
<path d="M177 12H154C149.582 12 146 15.5817 146 20V43C146 47.4183 149.582 51 154 51H177C181.418 51 185 47.4183 185 43V20C185 15.5817 181.418 12 177 12Z" fill="#E4E7ED"/>
<path d="M226 59H203C198.582 59 195 62.5817 195 67V90C195 94.4183 198.582 98 203 98H226C230.418 98 234 94.4183 234 90V67C234 62.5817 230.418 59 226 59Z" fill="#E4E7ED"/>
<path d="M226 12H202C197.582 12 194 15.5817 194 20V43C194 47.4183 197.582 51 202 51H226C230.418 51 234 47.4183 234 43V20C234 15.5817 230.418 12 226 12Z" fill="#E4E7ED"/>
</svg>
