<svg width="281" height="110" viewBox="0 0 281 110" fill="none" xmlns="http://www.w3.org/2000/svg">
<path d="M271 0H10C4.47715 0 0 4.47715 0 10V100C0 105.523 4.47715 110 10 110H271C276.523 110 281 105.523 281 100V10C281 4.47715 276.523 0 271 0Z" fill="white"/>
<path d="M80 12H56C51.5817 12 48 15.5817 48 20V43C48 47.4183 51.5817 51 56 51H80C84.4183 51 88 47.4183 88 43V20C88 15.5817 84.4183 12 80 12Z" fill="#E4E7ED"/>
<path d="M128 12H105C100.582 12 97 15.5817 97 20V43C97 47.4183 100.582 51 105 51H128C132.418 51 136 47.4183 136 43V20C136 15.5817 132.418 12 128 12Z" fill="#E4E7ED"/>
<path d="M79 59H56C51.5817 59 48 62.5817 48 67V90C48 94.4183 51.5817 98 56 98H79C83.4183 98 87 94.4183 87 90V67C87 62.5817 83.4183 59 79 59Z" fill="#E4E7ED"/>
<path d="M177 12H154C149.582 12 146 15.5817 146 20V43C146 47.4183 149.582 51 154 51H177C181.418 51 185 47.4183 185 43V20C185 15.5817 181.418 12 177 12Z" fill="#E4E7ED"/>
<path d="M128 59H105C100.582 59 97 62.5817 97 67V90C97 94.4183 100.582 98 105 98H128C132.418 98 136 94.4183 136 90V67C136 62.5817 132.418 59 128 59Z" fill="#E4E7ED"/>
<path d="M226 12H202C197.582 12 194 15.5817 194 20V43C194 47.4183 197.582 51 202 51H226C230.418 51 234 47.4183 234 43V20C234 15.5817 230.418 12 226 12Z" fill="#E4E7ED"/>
</svg>
