<svg width="281" height="128" viewBox="0 0 281 128" fill="none" xmlns="http://www.w3.org/2000/svg">
<path d="M271 0H10C4.47715 0 0 4.47715 0 10V117C0 122.523 4.47715 127 10 127H271C276.523 127 281 122.523 281 117V10C281 4.47715 276.523 0 271 0Z" fill="white"/>
<path d="M223 16H58C53.5817 16 50 19.5817 50 24V54C50 58.4183 53.5817 62 58 62H223C227.418 62 231 58.4183 231 54V24C231 19.5817 227.418 16 223 16Z" fill="#E4E7ED"/>
<path d="M223 66H58C53.5817 66 50 69.5817 50 74V105C50 109.418 53.5817 113 58 113H223C227.418 113 231 109.418 231 105V74C231 69.5817 227.418 66 223 66Z" fill="#E4E7ED"/>
<g filter="url(#filter0_d_652_19)">
<path d="M86 20H60C56.6863 20 54 22.6863 54 26V52C54 55.3137 56.6863 58 60 58H86C89.3137 58 92 55.3137 92 52V26C92 22.6863 89.3137 20 86 20Z" fill="#F5F7FA"/>
</g>
<g filter="url(#filter1_d_652_19)">
<path d="M86 70H60C56.6863 70 54 72.6863 54 76V102C54 105.314 56.6863 108 60 108H86C89.3137 108 92 105.314 92 102V76C92 72.6863 89.3137 70 86 70Z" fill="#F5F7FA"/>
</g>
<g filter="url(#filter2_d_652_19)">
<path d="M205 32H101C99.8954 32 99 32.8954 99 34V44C99 45.1046 99.8954 46 101 46H205C206.105 46 207 45.1046 207 44V34C207 32.8954 206.105 32 205 32Z" fill="#F5F7FA"/>
</g>
<g filter="url(#filter3_d_652_19)">
<path d="M205 82H101C99.8954 82 99 82.8954 99 84V94C99 95.1046 99.8954 96 101 96H205C206.105 96 207 95.1046 207 94V84C207 82.8954 206.105 82 205 82Z" fill="#F5F7FA"/>
</g>
<path d="M255 74.999C253.022 74.999 251.089 74.4125 249.444 73.3137C247.8 72.2149 246.518 70.6531 245.761 68.8259C245.004 66.9986 244.806 64.9879 245.192 63.0481C245.578 61.1083 246.53 59.3265 247.929 57.928C249.327 56.5294 251.109 55.577 253.049 55.1912C254.989 54.8053 257 55.0034 258.827 55.7602C260.654 56.5171 262.216 57.7988 263.315 59.4433C264.414 61.0878 265 63.0212 265 64.999C264.997 67.6503 263.943 70.1921 262.068 72.0669C260.193 73.9416 257.651 74.9961 255 74.999ZM253.148 58.332L251.669 59.814L256.847 64.992L251.669 70.172L253.148 71.651L259.808 64.991L253.148 58.332Z" fill="#E4E7ED"/>
<path d="M26 74C27.9778 74 29.9112 73.4135 31.5557 72.3147C33.2002 71.2159 34.4819 69.6541 35.2388 67.8268C35.9957 65.9996 36.1937 63.9889 35.8078 62.0491C35.422 60.1093 34.4696 58.3275 33.0711 56.9289C31.6725 55.5304 29.8907 54.578 27.9509 54.1921C26.0111 53.8063 24.0004 54.0043 22.1732 54.7612C20.3459 55.5181 18.7841 56.7998 17.6853 58.4443C16.5865 60.0888 16 62.0222 16 64C16.0032 66.6512 17.0578 69.1929 18.9324 71.0676C20.8071 72.9422 23.3488 73.9968 26 74ZM27.852 57.331L29.331 58.813L24.153 63.991L29.331 69.173L27.852 70.652L21.192 63.992L27.852 57.332V57.331Z" fill="#E4E7ED"/>
<defs>
<filter id="filter0_d_652_19" x="34" y="0" width="78" height="78" filterUnits="userSpaceOnUse" color-interpolation-filters="sRGB">
<feFlood flood-opacity="0" result="BackgroundImageFix"/>
<feColorMatrix in="SourceAlpha" type="matrix" values="0 0 0 0 0 0 0 0 0 0 0 0 0 0 0 0 0 0 127 0" result="hardAlpha"/>
<feOffset/>
<feGaussianBlur stdDeviation="10"/>
<feColorMatrix type="matrix" values="0 0 0 0 0 0 0 0 0 0 0 0 0 0 0 0 0 0 0.059 0"/>
<feBlend mode="normal" in2="BackgroundImageFix" result="effect1_dropShadow_652_19"/>
<feBlend mode="normal" in="SourceGraphic" in2="effect1_dropShadow_652_19" result="shape"/>
</filter>
<filter id="filter1_d_652_19" x="34" y="50" width="78" height="78" filterUnits="userSpaceOnUse" color-interpolation-filters="sRGB">
<feFlood flood-opacity="0" result="BackgroundImageFix"/>
<feColorMatrix in="SourceAlpha" type="matrix" values="0 0 0 0 0 0 0 0 0 0 0 0 0 0 0 0 0 0 127 0" result="hardAlpha"/>
<feOffset/>
<feGaussianBlur stdDeviation="10"/>
<feColorMatrix type="matrix" values="0 0 0 0 0 0 0 0 0 0 0 0 0 0 0 0 0 0 0.059 0"/>
<feBlend mode="normal" in2="BackgroundImageFix" result="effect1_dropShadow_652_19"/>
<feBlend mode="normal" in="SourceGraphic" in2="effect1_dropShadow_652_19" result="shape"/>
</filter>
<filter id="filter2_d_652_19" x="75" y="11" width="156" height="62" filterUnits="userSpaceOnUse" color-interpolation-filters="sRGB">
<feFlood flood-opacity="0" result="BackgroundImageFix"/>
<feColorMatrix in="SourceAlpha" type="matrix" values="0 0 0 0 0 0 0 0 0 0 0 0 0 0 0 0 0 0 127 0" result="hardAlpha"/>
<feOffset dy="3"/>
<feGaussianBlur stdDeviation="12"/>
<feColorMatrix type="matrix" values="0 0 0 0 0 0 0 0 0 0 0 0 0 0 0 0 0 0 0.059 0"/>
<feBlend mode="normal" in2="BackgroundImageFix" result="effect1_dropShadow_652_19"/>
<feBlend mode="normal" in="SourceGraphic" in2="effect1_dropShadow_652_19" result="shape"/>
</filter>
<filter id="filter3_d_652_19" x="75" y="61" width="156" height="62" filterUnits="userSpaceOnUse" color-interpolation-filters="sRGB">
<feFlood flood-opacity="0" result="BackgroundImageFix"/>
<feColorMatrix in="SourceAlpha" type="matrix" values="0 0 0 0 0 0 0 0 0 0 0 0 0 0 0 0 0 0 127 0" result="hardAlpha"/>
<feOffset dy="3"/>
<feGaussianBlur stdDeviation="12"/>
<feColorMatrix type="matrix" values="0 0 0 0 0 0 0 0 0 0 0 0 0 0 0 0 0 0 0.059 0"/>
<feBlend mode="normal" in2="BackgroundImageFix" result="effect1_dropShadow_652_19"/>
<feBlend mode="normal" in="SourceGraphic" in2="effect1_dropShadow_652_19" result="shape"/>
</filter>
</defs>
</svg>
