<svg width="281" height="112" viewBox="0 0 281 112" fill="none" xmlns="http://www.w3.org/2000/svg">
    <g clip-path="url(#clip0_1647_73)">
        <path d="M271 0H10C4.47715 0 0 3.91751 0 8.75V102.375C0 107.208 4.47715 111.125 10 111.125H271C276.523 111.125 281 107.208 281 102.375V8.75C281 3.91751 276.523 0 271 0Z" fill="white"/>
        <path d="M223 14H58C53.5817 14 50 17.1145 50 20.9565V47.0435C50 50.8855 53.5817 54 58 54H223C227.418 54 231 50.8855 231 47.0435V20.9565C231 17.1145 227.418 14 223 14Z" fill="#E4E7ED"/>
        <path d="M223 58H58C53.5817 58 50 61.0483 50 64.8085V91.1915C50 94.9515 53.5817 98 58 98H223C227.418 98 231 94.9515 231 91.1915V64.8085C231 61.0483 227.418 58 223 58Z" fill="#E4E7ED"/>
        <g filter="url(#filter0_d_1647_73)">
            <path d="M80.9474 18H59.0526C56.2621 18 54 20.2621 54 23.0526V44.9474C54 47.7379 56.2621 50 59.0526 50H80.9474C83.7379 50 86 47.7379 86 44.9474V23.0526C86 20.2621 83.7379 18 80.9474 18Z" fill="#F5F7FA"/>
        </g>
        <g filter="url(#filter1_d_1647_73)">
            <path d="M80.9474 62H59.0526C56.2621 62 54 64.2621 54 67.0526V88.9474C54 91.7381 56.2621 94 59.0526 94H80.9474C83.7379 94 86 91.7381 86 88.9474V67.0526C86 64.2621 83.7379 62 80.9474 62Z" fill="#F5F7FA"/>
        </g>
        <g filter="url(#filter2_d_1647_73)">
            <path d="M197 28H93C91.8954 28 91 28.7675 91 29.7143V38.2857C91 39.2325 91.8954 40 93 40H197C198.105 40 199 39.2325 199 38.2857V29.7143C199 28.7675 198.105 28 197 28Z" fill="#F5F7FA"/>
        </g>
        <g filter="url(#filter3_d_1647_73)">
            <path d="M197 72H93C91.8954 72 91 72.7835 91 73.75V82.5C91 83.4665 91.8954 84.25 93 84.25H197C198.105 84.25 199 83.4665 199 82.5V73.75C199 72.7835 198.105 72 197 72Z" fill="#F5F7FA"/>
        </g>
    </g>
    <defs>
        <filter id="filter0_d_1647_73" x="34" y="-2" width="72" height="72" filterUnits="userSpaceOnUse" color-interpolation-filters="sRGB">
            <feFlood flood-opacity="0" result="BackgroundImageFix"/>
            <feColorMatrix in="SourceAlpha" type="matrix" values="0 0 0 0 0 0 0 0 0 0 0 0 0 0 0 0 0 0 127 0" result="hardAlpha"/>
            <feOffset/>
            <feGaussianBlur stdDeviation="10"/>
            <feColorMatrix type="matrix" values="0 0 0 0 0 0 0 0 0 0 0 0 0 0 0 0 0 0 0.059 0"/>
            <feBlend mode="normal" in2="BackgroundImageFix" result="effect1_dropShadow_1647_73"/>
            <feBlend mode="normal" in="SourceGraphic" in2="effect1_dropShadow_1647_73" result="shape"/>
        </filter>
        <filter id="filter1_d_1647_73" x="34" y="42" width="72" height="72" filterUnits="userSpaceOnUse" color-interpolation-filters="sRGB">
            <feFlood flood-opacity="0" result="BackgroundImageFix"/>
            <feColorMatrix in="SourceAlpha" type="matrix" values="0 0 0 0 0 0 0 0 0 0 0 0 0 0 0 0 0 0 127 0" result="hardAlpha"/>
            <feOffset/>
            <feGaussianBlur stdDeviation="10"/>
            <feColorMatrix type="matrix" values="0 0 0 0 0 0 0 0 0 0 0 0 0 0 0 0 0 0 0.059 0"/>
            <feBlend mode="normal" in2="BackgroundImageFix" result="effect1_dropShadow_1647_73"/>
            <feBlend mode="normal" in="SourceGraphic" in2="effect1_dropShadow_1647_73" result="shape"/>
        </filter>
        <filter id="filter2_d_1647_73" x="67" y="7" width="156" height="60" filterUnits="userSpaceOnUse" color-interpolation-filters="sRGB">
            <feFlood flood-opacity="0" result="BackgroundImageFix"/>
            <feColorMatrix in="SourceAlpha" type="matrix" values="0 0 0 0 0 0 0 0 0 0 0 0 0 0 0 0 0 0 127 0" result="hardAlpha"/>
            <feOffset dy="3"/>
            <feGaussianBlur stdDeviation="12"/>
            <feColorMatrix type="matrix" values="0 0 0 0 0 0 0 0 0 0 0 0 0 0 0 0 0 0 0.059 0"/>
            <feBlend mode="normal" in2="BackgroundImageFix" result="effect1_dropShadow_1647_73"/>
            <feBlend mode="normal" in="SourceGraphic" in2="effect1_dropShadow_1647_73" result="shape"/>
        </filter>
        <filter id="filter3_d_1647_73" x="67" y="51" width="156" height="60.25" filterUnits="userSpaceOnUse" color-interpolation-filters="sRGB">
            <feFlood flood-opacity="0" result="BackgroundImageFix"/>
            <feColorMatrix in="SourceAlpha" type="matrix" values="0 0 0 0 0 0 0 0 0 0 0 0 0 0 0 0 0 0 127 0" result="hardAlpha"/>
            <feOffset dy="3"/>
            <feGaussianBlur stdDeviation="12"/>
            <feColorMatrix type="matrix" values="0 0 0 0 0 0 0 0 0 0 0 0 0 0 0 0 0 0 0.059 0"/>
            <feBlend mode="normal" in2="BackgroundImageFix" result="effect1_dropShadow_1647_73"/>
            <feBlend mode="normal" in="SourceGraphic" in2="effect1_dropShadow_1647_73" result="shape"/>
        </filter>
        <clipPath id="clip0_1647_73">
            <rect width="281" height="112" fill="white"/>
        </clipPath>
    </defs>
</svg>
