<svg width="281" height="134" viewBox="0 0 281 134" fill="none" xmlns="http://www.w3.org/2000/svg">
<path d="M271 0H10C4.47715 0 0 4.47715 0 10V117C0 122.523 4.47715 127 10 127H271C276.523 127 281 122.523 281 117V10C281 4.47715 276.523 0 271 0Z" fill="white"/>
<rect x="104" y="16" width="73" height="97" rx="8" fill="#E4E7ED"/>
<g filter="url(#filter0_d_1334_2)">
<path d="M162.737 20H118.263C112.595 20 108 24.595 108 30.2632V74.7368C108 80.405 112.595 85 118.263 85H162.737C168.405 85 173 80.405 173 74.7368V30.2632C173 24.595 168.405 20 162.737 20Z" fill="#F5F7FA"/>
</g>
<g filter="url(#filter1_d_1334_2)">
<path d="M161.981 90H109.019C108.456 90 108 90.4477 108 91V96C108 96.5523 108.456 97 109.019 97H161.981C162.544 97 163 96.5523 163 96V91C163 90.4477 162.544 90 161.981 90Z" fill="#F5F7FA"/>
</g>
<g filter="url(#filter2_d_1334_2)">
<path d="M153.148 100H108.852C108.381 100 108 100.448 108 101V106C108 106.552 108.381 107 108.852 107H153.148C153.619 107 154 106.552 154 106V101C154 100.448 153.619 100 153.148 100Z" fill="#F5F7FA"/>
</g>
<g clip-path="url(#clip0_1334_2)">
<rect x="188" y="16" width="73" height="97" rx="8" fill="#E4E7ED"/>
<g filter="url(#filter3_d_1334_2)">
<path d="M246.737 20H202.263C196.595 20 192 24.595 192 30.2632V74.7368C192 80.405 196.595 85 202.263 85H246.737C252.405 85 257 80.405 257 74.7368V30.2632C257 24.595 252.405 20 246.737 20Z" fill="#F5F7FA"/>
</g>
<g filter="url(#filter4_d_1334_2)">
<path d="M245.981 90H193.019C192.456 90 192 90.4477 192 91V96C192 96.5523 192.456 97 193.019 97H245.981C246.544 97 247 96.5523 247 96V91C247 90.4477 246.544 90 245.981 90Z" fill="#F5F7FA"/>
</g>
<g filter="url(#filter5_d_1334_2)">
<path d="M237.148 100H192.852C192.381 100 192 100.448 192 101V106C192 106.552 192.381 107 192.852 107H237.148C237.619 107 238 106.552 238 106V101C238 100.448 237.619 100 237.148 100Z" fill="#F5F7FA"/>
</g>
</g>
<path d="M255 74.999C253.022 74.999 251.089 74.4125 249.444 73.3137C247.8 72.2149 246.518 70.6531 245.761 68.8259C245.004 66.9986 244.806 64.9879 245.192 63.0481C245.578 61.1083 246.53 59.3265 247.929 57.928C249.327 56.5294 251.109 55.577 253.049 55.1912C254.989 54.8053 257 55.0034 258.827 55.7602C260.654 56.5171 262.216 57.7988 263.315 59.4433C264.414 61.0878 265 63.0212 265 64.999C264.997 67.6503 263.943 70.1921 262.068 72.0669C260.193 73.9416 257.651 74.9961 255 74.999ZM253.148 58.332L251.669 59.814L256.847 64.992L251.669 70.172L253.148 71.651L259.808 64.991L253.148 58.332Z" fill="#E4E7ED"/>
<path d="M26 74C27.9778 74 29.9112 73.4135 31.5557 72.3147C33.2002 71.2159 34.4819 69.6541 35.2388 67.8268C35.9957 65.9996 36.1937 63.9889 35.8078 62.0491C35.422 60.1093 34.4696 58.3275 33.0711 56.9289C31.6725 55.5304 29.8907 54.578 27.9509 54.1921C26.0111 53.8063 24.0004 54.0043 22.1732 54.7612C20.3459 55.5181 18.7841 56.7998 17.6853 58.4443C16.5865 60.0888 16 62.0222 16 64C16.0032 66.6512 17.0578 69.1929 18.9324 71.0676C20.8071 72.9422 23.3488 73.9968 26 74ZM27.852 57.331L29.331 58.813L24.153 63.991L29.331 69.173L27.852 70.652L21.192 63.992L27.852 57.332V57.331Z" fill="#E4E7ED"/>
<g clip-path="url(#clip1_1334_2)">
<rect x="20" y="16" width="73" height="97" rx="8" fill="#E4E7ED"/>
<g filter="url(#filter6_d_1334_2)">
<path d="M78.7368 20H34.2632C28.595 20 24 24.595 24 30.2632V74.7368C24 80.405 28.595 85 34.2632 85H78.7368C84.405 85 89 80.405 89 74.7368V30.2632C89 24.595 84.405 20 78.7368 20Z" fill="#F5F7FA"/>
</g>
<g filter="url(#filter7_d_1334_2)">
<path d="M77.9815 90H25.0185C24.456 90 24 90.4477 24 91V96C24 96.5523 24.456 97 25.0185 97H77.9815C78.544 97 79 96.5523 79 96V91C79 90.4477 78.544 90 77.9815 90Z" fill="#F5F7FA"/>
</g>
<g filter="url(#filter8_d_1334_2)">
<path d="M69.1482 100H24.8519C24.3814 100 24 100.448 24 101V106C24 106.552 24.3814 107 24.8519 107H69.1482C69.6186 107 70 106.552 70 106V101C70 100.448 69.6186 100 69.1482 100Z" fill="#F5F7FA"/>
</g>
</g>
<defs>
<filter id="filter0_d_1334_2" x="88" y="0" width="105" height="105" filterUnits="userSpaceOnUse" color-interpolation-filters="sRGB">
<feFlood flood-opacity="0" result="BackgroundImageFix"/>
<feColorMatrix in="SourceAlpha" type="matrix" values="0 0 0 0 0 0 0 0 0 0 0 0 0 0 0 0 0 0 127 0" result="hardAlpha"/>
<feOffset/>
<feGaussianBlur stdDeviation="10"/>
<feColorMatrix type="matrix" values="0 0 0 0 0 0 0 0 0 0 0 0 0 0 0 0 0 0 0.059 0"/>
<feBlend mode="normal" in2="BackgroundImageFix" result="effect1_dropShadow_1334_2"/>
<feBlend mode="normal" in="SourceGraphic" in2="effect1_dropShadow_1334_2" result="shape"/>
</filter>
<filter id="filter1_d_1334_2" x="84" y="69" width="103" height="55" filterUnits="userSpaceOnUse" color-interpolation-filters="sRGB">
<feFlood flood-opacity="0" result="BackgroundImageFix"/>
<feColorMatrix in="SourceAlpha" type="matrix" values="0 0 0 0 0 0 0 0 0 0 0 0 0 0 0 0 0 0 127 0" result="hardAlpha"/>
<feOffset dy="3"/>
<feGaussianBlur stdDeviation="12"/>
<feColorMatrix type="matrix" values="0 0 0 0 0 0 0 0 0 0 0 0 0 0 0 0 0 0 0.059 0"/>
<feBlend mode="normal" in2="BackgroundImageFix" result="effect1_dropShadow_1334_2"/>
<feBlend mode="normal" in="SourceGraphic" in2="effect1_dropShadow_1334_2" result="shape"/>
</filter>
<filter id="filter2_d_1334_2" x="84" y="79" width="94" height="55" filterUnits="userSpaceOnUse" color-interpolation-filters="sRGB">
<feFlood flood-opacity="0" result="BackgroundImageFix"/>
<feColorMatrix in="SourceAlpha" type="matrix" values="0 0 0 0 0 0 0 0 0 0 0 0 0 0 0 0 0 0 127 0" result="hardAlpha"/>
<feOffset dy="3"/>
<feGaussianBlur stdDeviation="12"/>
<feColorMatrix type="matrix" values="0 0 0 0 0 0 0 0 0 0 0 0 0 0 0 0 0 0 0.059 0"/>
<feBlend mode="normal" in2="BackgroundImageFix" result="effect1_dropShadow_1334_2"/>
<feBlend mode="normal" in="SourceGraphic" in2="effect1_dropShadow_1334_2" result="shape"/>
</filter>
<filter id="filter3_d_1334_2" x="172" y="0" width="105" height="105" filterUnits="userSpaceOnUse" color-interpolation-filters="sRGB">
<feFlood flood-opacity="0" result="BackgroundImageFix"/>
<feColorMatrix in="SourceAlpha" type="matrix" values="0 0 0 0 0 0 0 0 0 0 0 0 0 0 0 0 0 0 127 0" result="hardAlpha"/>
<feOffset/>
<feGaussianBlur stdDeviation="10"/>
<feColorMatrix type="matrix" values="0 0 0 0 0 0 0 0 0 0 0 0 0 0 0 0 0 0 0.059 0"/>
<feBlend mode="normal" in2="BackgroundImageFix" result="effect1_dropShadow_1334_2"/>
<feBlend mode="normal" in="SourceGraphic" in2="effect1_dropShadow_1334_2" result="shape"/>
</filter>
<filter id="filter4_d_1334_2" x="168" y="69" width="103" height="55" filterUnits="userSpaceOnUse" color-interpolation-filters="sRGB">
<feFlood flood-opacity="0" result="BackgroundImageFix"/>
<feColorMatrix in="SourceAlpha" type="matrix" values="0 0 0 0 0 0 0 0 0 0 0 0 0 0 0 0 0 0 127 0" result="hardAlpha"/>
<feOffset dy="3"/>
<feGaussianBlur stdDeviation="12"/>
<feColorMatrix type="matrix" values="0 0 0 0 0 0 0 0 0 0 0 0 0 0 0 0 0 0 0.059 0"/>
<feBlend mode="normal" in2="BackgroundImageFix" result="effect1_dropShadow_1334_2"/>
<feBlend mode="normal" in="SourceGraphic" in2="effect1_dropShadow_1334_2" result="shape"/>
</filter>
<filter id="filter5_d_1334_2" x="168" y="79" width="94" height="55" filterUnits="userSpaceOnUse" color-interpolation-filters="sRGB">
<feFlood flood-opacity="0" result="BackgroundImageFix"/>
<feColorMatrix in="SourceAlpha" type="matrix" values="0 0 0 0 0 0 0 0 0 0 0 0 0 0 0 0 0 0 127 0" result="hardAlpha"/>
<feOffset dy="3"/>
<feGaussianBlur stdDeviation="12"/>
<feColorMatrix type="matrix" values="0 0 0 0 0 0 0 0 0 0 0 0 0 0 0 0 0 0 0.059 0"/>
<feBlend mode="normal" in2="BackgroundImageFix" result="effect1_dropShadow_1334_2"/>
<feBlend mode="normal" in="SourceGraphic" in2="effect1_dropShadow_1334_2" result="shape"/>
</filter>
<filter id="filter6_d_1334_2" x="4" y="0" width="105" height="105" filterUnits="userSpaceOnUse" color-interpolation-filters="sRGB">
<feFlood flood-opacity="0" result="BackgroundImageFix"/>
<feColorMatrix in="SourceAlpha" type="matrix" values="0 0 0 0 0 0 0 0 0 0 0 0 0 0 0 0 0 0 127 0" result="hardAlpha"/>
<feOffset/>
<feGaussianBlur stdDeviation="10"/>
<feColorMatrix type="matrix" values="0 0 0 0 0 0 0 0 0 0 0 0 0 0 0 0 0 0 0.059 0"/>
<feBlend mode="normal" in2="BackgroundImageFix" result="effect1_dropShadow_1334_2"/>
<feBlend mode="normal" in="SourceGraphic" in2="effect1_dropShadow_1334_2" result="shape"/>
</filter>
<filter id="filter7_d_1334_2" x="0" y="69" width="103" height="55" filterUnits="userSpaceOnUse" color-interpolation-filters="sRGB">
<feFlood flood-opacity="0" result="BackgroundImageFix"/>
<feColorMatrix in="SourceAlpha" type="matrix" values="0 0 0 0 0 0 0 0 0 0 0 0 0 0 0 0 0 0 127 0" result="hardAlpha"/>
<feOffset dy="3"/>
<feGaussianBlur stdDeviation="12"/>
<feColorMatrix type="matrix" values="0 0 0 0 0 0 0 0 0 0 0 0 0 0 0 0 0 0 0.059 0"/>
<feBlend mode="normal" in2="BackgroundImageFix" result="effect1_dropShadow_1334_2"/>
<feBlend mode="normal" in="SourceGraphic" in2="effect1_dropShadow_1334_2" result="shape"/>
</filter>
<filter id="filter8_d_1334_2" x="0" y="79" width="94" height="55" filterUnits="userSpaceOnUse" color-interpolation-filters="sRGB">
<feFlood flood-opacity="0" result="BackgroundImageFix"/>
<feColorMatrix in="SourceAlpha" type="matrix" values="0 0 0 0 0 0 0 0 0 0 0 0 0 0 0 0 0 0 127 0" result="hardAlpha"/>
<feOffset dy="3"/>
<feGaussianBlur stdDeviation="12"/>
<feColorMatrix type="matrix" values="0 0 0 0 0 0 0 0 0 0 0 0 0 0 0 0 0 0 0.059 0"/>
<feBlend mode="normal" in2="BackgroundImageFix" result="effect1_dropShadow_1334_2"/>
<feBlend mode="normal" in="SourceGraphic" in2="effect1_dropShadow_1334_2" result="shape"/>
</filter>
<clipPath id="clip0_1334_2">
<rect width="36" height="97" fill="white" transform="translate(188 16)"/>
</clipPath>
<clipPath id="clip1_1334_2">
<rect width="36" height="97" fill="white" transform="translate(57 16)"/>
</clipPath>
</defs>
</svg>
