<svg width="281" height="127" viewBox="0 0 281 127" fill="none" xmlns="http://www.w3.org/2000/svg">
<path d="M271 0H10C4.47715 0 0 4.47715 0 10V117C0 122.523 4.47715 127 10 127H271C276.523 127 281 122.523 281 117V10C281 4.47715 276.523 0 271 0Z" fill="white"/>
<rect x="92" y="16" width="97" height="97" rx="8" fill="#E4E7ED"/>
<g clip-path="url(#clip0_1346_5)">
<rect x="204" y="16" width="57" height="97" rx="8" fill="#E4E7ED"/>
</g>
<path d="M255 74.999C253.022 74.999 251.089 74.4125 249.444 73.3137C247.8 72.2149 246.518 70.6531 245.761 68.8259C245.004 66.9986 244.806 64.9879 245.192 63.0481C245.578 61.1083 246.53 59.3265 247.929 57.928C249.327 56.5294 251.109 55.577 253.049 55.1912C254.989 54.8053 257 55.0034 258.827 55.7602C260.654 56.5171 262.216 57.7988 263.315 59.4433C264.414 61.0878 265 63.0212 265 64.999C264.997 67.6503 263.943 70.1921 262.068 72.0669C260.193 73.9416 257.651 74.9961 255 74.999ZM253.148 58.332L251.669 59.814L256.847 64.992L251.669 70.172L253.148 71.651L259.808 64.991L253.148 58.332Z" fill="#E4E7ED"/>
<path d="M26 74C27.9778 74 29.9112 73.4135 31.5557 72.3147C33.2002 71.2159 34.4819 69.6541 35.2388 67.8268C35.9957 65.9996 36.1937 63.9889 35.8078 62.0491C35.422 60.1093 34.4696 58.3275 33.0711 56.9289C31.6725 55.5304 29.8907 54.578 27.9509 54.1921C26.0111 53.8063 24.0004 54.0043 22.1732 54.7612C20.3459 55.5181 18.7841 56.7998 17.6853 58.4443C16.5865 60.0888 16 62.0222 16 64C16.0032 66.6512 17.0578 69.1929 18.9324 71.0676C20.8071 72.9422 23.3488 73.9968 26 74ZM27.852 57.331L29.331 58.813L24.153 63.991L29.331 69.173L27.852 70.652L21.192 63.992L27.852 57.332V57.331Z" fill="#E4E7ED"/>
<g clip-path="url(#clip1_1346_5)">
<rect x="20" y="16" width="57" height="97" rx="8" fill="#E4E7ED"/>
</g>
<defs>
<clipPath id="clip0_1346_5">
<rect width="36" height="97" fill="white" transform="translate(188 16)"/>
</clipPath>
<clipPath id="clip1_1346_5">
<rect width="36" height="97" fill="white" transform="translate(57 16)"/>
</clipPath>
</defs>
</svg>
