<svg width="281" height="127" viewBox="0 0 281 127" fill="none" xmlns="http://www.w3.org/2000/svg">
<path d="M271 0H10C4.47715 0 0 4.47715 0 10V117C0 122.523 4.47715 127 10 127H271C276.523 127 281 122.523 281 117V10C281 4.47715 276.523 0 271 0Z" fill="white"/>
<path d="M223 16H58C53.5817 16 50 19.5817 50 24V54C50 58.4183 53.5817 62 58 62H223C227.418 62 231 58.4183 231 54V24C231 19.5817 227.418 16 223 16Z" fill="#E4E7ED"/>
<path d="M223 66H58C53.5817 66 50 69.5817 50 74V105C50 109.418 53.5817 113 58 113H223C227.418 113 231 109.418 231 105V74C231 69.5817 227.418 66 223 66Z" fill="#E4E7ED"/>
</svg>
