<svg width="281" height="112" viewBox="0 0 281 112" fill="none" xmlns="http://www.w3.org/2000/svg">
<path d="M271 0H10C4.47715 0 0 4.47715 0 10V102C0 107.523 4.47715 112 10 112H271C276.523 112 281 107.523 281 102V10C281 4.47715 276.523 0 271 0Z" fill="white"/>
<path d="M255 66C253.022 66 251.089 65.4135 249.444 64.3147C247.8 63.2159 246.518 61.6541 245.761 59.8268C245.004 57.9996 244.806 55.9889 245.192 54.0491C245.578 52.1093 246.53 50.3275 247.929 48.9289C249.327 47.5304 251.109 46.578 253.049 46.1922C254.989 45.8063 257 46.0043 258.827 46.7612C260.654 47.5181 262.216 48.7998 263.315 50.4443C264.414 52.0888 265 54.0222 265 56C264.997 58.6513 263.943 61.1931 262.068 63.0679C260.193 64.9426 257.651 65.9971 255 66ZM253.148 49.333L251.669 50.815L256.847 55.993L251.669 61.173L253.148 62.652L259.808 55.992L253.148 49.333Z" fill="#E4E7ED"/>
<path d="M26 66C27.9778 66 29.9112 65.4135 31.5557 64.3147C33.2002 63.2159 34.4819 61.6541 35.2388 59.8268C35.9957 57.9996 36.1937 55.9889 35.8078 54.0491C35.422 52.1093 34.4696 50.3275 33.0711 48.9289C31.6725 47.5304 29.8907 46.578 27.9509 46.1921C26.0111 45.8063 24.0004 46.0043 22.1732 46.7612C20.3459 47.5181 18.7841 48.7998 17.6853 50.4443C16.5865 52.0888 16 54.0222 16 56C16.0032 58.6512 17.0578 61.1929 18.9324 63.0676C20.8071 64.9422 23.3488 65.9968 26 66ZM27.852 49.331L29.331 50.813L24.153 55.991L29.331 61.173L27.852 62.652L21.192 55.992L27.852 49.332V49.331Z" fill="#E4E7ED"/>
<path d="M94 30H57C52.5817 30 49 33.5817 49 38V74C49 78.4183 52.5817 82 57 82H94C98.4183 82 102 78.4183 102 74V38C102 33.5817 98.4183 30 94 30Z" fill="#E4E7ED"/>
<path d="M159 30H122C117.582 30 114 33.5817 114 38V74C114 78.4183 117.582 82 122 82H159C163.418 82 167 78.4183 167 74V38C167 33.5817 163.418 30 159 30Z" fill="#E4E7ED"/>
<path d="M224 30H187C182.582 30 179 33.5817 179 38V74C179 78.4183 182.582 82 187 82H224C228.418 82 232 78.4183 232 74V38C232 33.5817 228.418 30 224 30Z" fill="#E4E7ED"/>
</svg>
