<svg width="28" height="28" viewBox="0 0 28 28" fill="none" xmlns="http://www.w3.org/2000/svg">
<g clip-path="url(#clip0_857_190)">
<path d="M7.22546 0.683895L7.63122 3.28929L6.97986 3.8274L4.5246 2.88491L4.36369 2.035L6.36473 0.353493L7.22546 0.683895Z" fill="#232842"/>
<path d="M11.1255 20.6839L11.5312 23.2893L10.8799 23.8274L8.42459 22.8849L8.26369 22.035L10.2647 20.3535L11.1255 20.6839Z" fill="#232842"/>
<path d="M6.2712 4.15997L7.85262 6.2699L7.53014 7.05082L4.9198 7.37133L4.37871 6.69645L5.35611 4.27233L6.2712 4.15997Z" fill="#232842"/>
<path d="M6.07119 20.3599L7.65261 22.4699L7.33012 23.2508L4.71978 23.5713L4.1787 22.8964L5.1561 20.4723L6.07119 20.3599Z" fill="#232842"/>
<path d="M3.0538 4.52913L3.77405 7.06565L3.19313 7.67913L0.641305 7.04289L0.378017 6.21892L2.15922 4.30608L3.0538 4.52913Z" fill="#232842"/>
<path d="M2.85379 12.5291L3.57404 15.0656L2.99312 15.6791L0.441293 15.0429L0.178005 14.2189L1.95921 12.3061L2.85379 12.5291Z" fill="#232842"/>
<path d="M11.0538 8.62922L11.7741 11.1657L11.1931 11.7792L8.6413 11.143L8.37802 10.319L10.1592 8.40618L11.0538 8.62922Z" fill="#232842"/>
<path d="M6.85379 16.6292L7.57404 19.1657L6.99312 19.7792L4.44129 19.143L4.17801 18.319L5.95921 16.4062L6.85379 16.6292Z" fill="#232842"/>
<path d="M12.5148 9.71271L14.6521 8.16835L15.4272 8.50442L15.7021 11.12L15.0179 11.6492L12.6112 10.6296L12.5148 9.71271Z" fill="#232842"/>
<path d="M18.3593 8.42863L20.0134 10.4821L19.7184 11.2738L17.1208 11.6852L16.5565 11.0296L17.4487 8.57286L18.3593 8.42863Z" fill="#232842"/>
<path d="M18.1606 24.2052L19.8147 26.2587L19.5196 27.0504L16.9221 27.4618L16.3578 26.8062L17.25 24.3495L18.1606 24.2052Z" fill="#232842"/>
<path d="M18.1606 4.30534L19.8147 6.3588L19.5196 7.1505L16.9221 7.56191L16.3578 6.90632L17.25 4.44957L18.1606 4.30534Z" fill="#232842"/>
<path d="M23.015 8.71222L23.4207 11.3176L22.7694 11.8557L20.3141 10.9132L20.1532 10.0633L22.1542 8.38181L23.015 8.71222Z" fill="#232842"/>
<path d="M2.92544 20.6839L3.3312 23.2893L2.67985 23.8274L0.224582 22.8849L0.0636733 22.035L2.06472 20.3535L2.92544 20.6839Z" fill="#232842"/>
<path d="M27.1255 4.68389L27.5312 7.28929L26.8799 7.8274L24.4246 6.88491L24.2637 6.035L26.2647 4.35349L27.1255 4.68389Z" fill="#232842"/>
<path d="M26.1543 0.227812L27.844 2.25209L27.5628 3.04881L24.9728 3.5055L24.3971 2.85986L25.2463 0.387909L26.1543 0.227812Z" fill="#232842"/>
<path d="M26.1543 8.32791L27.844 10.3522L27.5628 11.1489L24.9728 11.6056L24.3971 10.96L25.2463 8.48801L26.1543 8.32791Z" fill="#232842"/>
<path d="M26.1543 12.0279L27.844 14.0521L27.5628 14.8489L24.9728 15.3055L24.3971 14.6599L25.2463 12.188L26.1543 12.0279Z" fill="#232842"/>
<path d="M22.9953 12.4663L23.6712 15.015L23.0796 15.6182L20.5393 14.9375L20.2904 14.1091L22.1048 12.2276L22.9953 12.4663Z" fill="#232842"/>
<path d="M26.9953 16.4663L27.6712 19.015L27.0796 19.6182L24.5393 18.9375L24.2904 18.1091L26.1048 16.2276L26.9953 16.4663Z" fill="#232842"/>
<path d="M26.9953 20.6662L27.6712 23.2149L27.0796 23.8182L24.5393 23.1375L24.2904 22.3091L26.1048 20.4276L26.9953 20.6662Z" fill="#232842"/>
<path d="M26.4875 24.5L27.8 26.7869L27.3847 27.5227H24.7548L24.3 26.7869L25.5655 24.5H26.4875Z" fill="#232842"/>
<path d="M10.4875 24.5L11.8 26.7869L11.3847 27.5227H8.75479L8.29999 26.7869L9.56552 24.5H10.4875Z" fill="#232842"/>
<path d="M2.48749 24.5L3.79999 26.7869L3.38473 27.5227H0.75479L0.299988 26.7869L1.56552 24.5H2.48749Z" fill="#232842"/>
<path d="M10.4875 12.3999L11.8 14.6868L11.3847 15.4226H8.75479L8.29999 14.6868L9.56552 12.3999H10.4875Z" fill="#232842"/>
</g>
<defs>
<clipPath id="clip0_857_190">
<rect width="28" height="28" fill="white"/>
</clipPath>
</defs>
</svg>
