<svg width="28" height="28" viewBox="0 0 28 28" fill="none" xmlns="http://www.w3.org/2000/svg">
<g clip-path="url(#clip0_856_108)">
<path d="M2 8C3.10457 8 4 7.10457 4 6C4 4.89543 3.10457 4 2 4C0.89543 4 0 4.89543 0 6C0 7.10457 0.89543 8 2 8Z" fill="#232842"/>
<path d="M2 16C3.10457 16 4 15.1046 4 14C4 12.8954 3.10457 12 2 12C0.89543 12 0 12.8954 0 14C0 15.1046 0.89543 16 2 16Z" fill="#232842"/>
<path d="M2 24C3.10457 24 4 23.1046 4 22C4 20.8954 3.10457 20 2 20C0.89543 20 0 20.8954 0 22C0 23.1046 0.89543 24 2 24Z" fill="#232842"/>
<path d="M2 28C3.10457 28 4 27.1046 4 26C4 24.8954 3.10457 24 2 24C0.89543 24 0 24.8954 0 26C0 27.1046 0.89543 28 2 28Z" fill="#232842"/>
<path d="M6 4C7.10457 4 8 3.10457 8 2C8 0.89543 7.10457 0 6 0C4.89543 0 4 0.89543 4 2C4 3.10457 4.89543 4 6 4Z" fill="#232842"/>
<path d="M6 8C7.10457 8 8 7.10457 8 6C8 4.89543 7.10457 4 6 4C4.89543 4 4 4.89543 4 6C4 7.10457 4.89543 8 6 8Z" fill="#232842"/>
<path d="M6 20C7.10457 20 8 19.1046 8 18C8 16.8954 7.10457 16 6 16C4.89543 16 4 16.8954 4 18C4 19.1046 4.89543 20 6 20Z" fill="#232842"/>
<path d="M6 24C7.10457 24 8 23.1046 8 22C8 20.8954 7.10457 20 6 20C4.89543 20 4 20.8954 4 22C4 23.1046 4.89543 24 6 24Z" fill="#232842"/>
<path d="M10 12C11.1046 12 12 11.1046 12 10C12 8.89543 11.1046 8 10 8C8.89543 8 8 8.89543 8 10C8 11.1046 8.89543 12 10 12Z" fill="#232842"/>
<path d="M10 16C11.1046 16 12 15.1046 12 14C12 12.8954 11.1046 12 10 12C8.89543 12 8 12.8954 8 14C8 15.1046 8.89543 16 10 16Z" fill="#232842"/>
<path d="M10 24C11.1046 24 12 23.1046 12 22C12 20.8954 11.1046 20 10 20C8.89543 20 8 20.8954 8 22C8 23.1046 8.89543 24 10 24Z" fill="#232842"/>
<path d="M10 28C11.1046 28 12 27.1046 12 26C12 24.8954 11.1046 24 10 24C8.89543 24 8 24.8954 8 26C8 27.1046 8.89543 28 10 28Z" fill="#232842"/>
<path d="M14 12C15.1046 12 16 11.1046 16 10C16 8.89543 15.1046 8 14 8C12.8954 8 12 8.89543 12 10C12 11.1046 12.8954 12 14 12Z" fill="#232842"/>
<path d="M18 8C19.1046 8 20 7.10457 20 6C20 4.89543 19.1046 4 18 4C16.8954 4 16 4.89543 16 6C16 7.10457 16.8954 8 18 8Z" fill="#232842"/>
<path d="M18 12C19.1046 12 20 11.1046 20 10C20 8.89543 19.1046 8 18 8C16.8954 8 16 8.89543 16 10C16 11.1046 16.8954 12 18 12Z" fill="#232842"/>
<path d="M18 28C19.1046 28 20 27.1046 20 26C20 24.8954 19.1046 24 18 24C16.8954 24 16 24.8954 16 26C16 27.1046 16.8954 28 18 28Z" fill="#232842"/>
<path d="M22 12C23.1046 12 24 11.1046 24 10C24 8.89543 23.1046 8 22 8C20.8954 8 20 8.89543 20 10C20 11.1046 20.8954 12 22 12Z" fill="#232842"/>
<path d="M22 16C23.1046 16 24 15.1046 24 14C24 12.8954 23.1046 12 22 12C20.8954 12 20 12.8954 20 14C20 15.1046 20.8954 16 22 16Z" fill="#232842"/>
<path d="M26 4C27.1046 4 28 3.10457 28 2C28 0.89543 27.1046 0 26 0C24.8954 0 24 0.89543 24 2C24 3.10457 24.8954 4 26 4Z" fill="#232842"/>
<path d="M26 8C27.1046 8 28 7.10457 28 6C28 4.89543 27.1046 4 26 4C24.8954 4 24 4.89543 24 6C24 7.10457 24.8954 8 26 8Z" fill="#232842"/>
<path d="M26 12C27.1046 12 28 11.1046 28 10C28 8.89543 27.1046 8 26 8C24.8954 8 24 8.89543 24 10C24 11.1046 24.8954 12 26 12Z" fill="#232842"/>
<path d="M26 16C27.1046 16 28 15.1046 28 14C28 12.8954 27.1046 12 26 12C24.8954 12 24 12.8954 24 14C24 15.1046 24.8954 16 26 16Z" fill="#232842"/>
<path d="M26 20C27.1046 20 28 19.1046 28 18C28 16.8954 27.1046 16 26 16C24.8954 16 24 16.8954 24 18C24 19.1046 24.8954 20 26 20Z" fill="#232842"/>
<path d="M26 24C27.1046 24 28 23.1046 28 22C28 20.8954 27.1046 20 26 20C24.8954 20 24 20.8954 24 22C24 23.1046 24.8954 24 26 24Z" fill="#232842"/>
<path d="M26 28C27.1046 28 28 27.1046 28 26C28 24.8954 27.1046 24 26 24C24.8954 24 24 24.8954 24 26C24 27.1046 24.8954 28 26 28Z" fill="#232842"/>
</g>
<defs>
<clipPath id="clip0_856_108">
<rect width="28" height="28" fill="white"/>
</clipPath>
</defs>
</svg>
