<svg width="28" height="28" viewBox="0 0 28 28" fill="none" xmlns="http://www.w3.org/2000/svg">
<g clip-path="url(#clip0_857_508)">
<path d="M6.9675 3.87988L4.355 2.39011V1.59125L6.9675 0.0798829L7.33455 1.97988L7.68 0.317383V3.64238L7.33455 1.97988L6.9675 3.87988Z" fill="#232842"/>
<path d="M6.9675 7.77979L4.355 6.29001V5.49115L6.9675 3.97979L7.33455 5.87979L7.68 4.21729V7.54229L7.33455 5.87979L6.9675 7.77979Z" fill="#232842"/>
<path d="M1.0325 4.12012L3.645 5.60989V6.40875L1.0325 7.92012L0.665454 6.02012L0.32 7.68262V4.35762L0.665454 6.02012L1.0325 4.12012Z" fill="#232842"/>
<path d="M1.0325 12.1201L3.645 13.6099V14.4088L1.0325 15.9201L0.665454 14.0201L0.32 15.6826V12.3576L0.665454 14.0201L1.0325 12.1201Z" fill="#232842"/>
<path d="M6.9675 19.8799L4.355 18.3901V17.5912L6.9675 16.0799L7.33455 17.9799L7.68 16.3174V19.6424L7.33455 17.9799L6.9675 19.8799Z" fill="#232842"/>
<path d="M6.9675 23.8799L4.355 22.3901V21.5912L6.9675 20.0799L7.33455 21.9799L7.68 20.3174V23.6424L7.33455 21.9799L6.9675 23.8799Z" fill="#232842"/>
<path d="M9.0325 20.1201L11.645 21.6099V22.4088L9.0325 23.9201L8.66545 22.0201L8.32 23.6826V20.3576L8.66545 22.0201L9.0325 20.1201Z" fill="#232842"/>
<path d="M9.0325 24.1201L11.645 25.6099V26.4088L9.0325 27.9201L8.66545 26.0201L8.32 27.6826V24.3576L8.66545 26.0201L9.0325 24.1201Z" fill="#232842"/>
<path d="M1.0325 24.1201L3.645 25.6099V26.4088L1.0325 27.9201L0.665454 26.0201L0.32 27.6826V24.3576L0.665454 26.0201L1.0325 24.1201Z" fill="#232842"/>
<path d="M17.0325 24.1201L19.645 25.6099V26.4088L17.0325 27.9201L16.6655 26.0201L16.32 27.6826V24.3576L16.6655 26.0201L17.0325 24.1201Z" fill="#232842"/>
<path d="M26.9675 27.8799L24.355 26.3901V25.5912L26.9675 24.0799L27.3345 25.9799L27.68 24.3174V27.6424L27.3345 25.9799L26.9675 27.8799Z" fill="#232842"/>
<path d="M26.9675 23.8799L24.355 22.3901V21.5912L26.9675 20.0799L27.3345 21.9799L27.68 20.3174V23.6424L27.3345 21.9799L26.9675 23.8799Z" fill="#232842"/>
<path d="M26.9675 19.8799L24.355 18.3901V17.5912L26.9675 16.0799L27.3345 17.9799L27.68 16.3174V19.6424L27.3345 17.9799L26.9675 19.8799Z" fill="#232842"/>
<path d="M26.9675 15.8799L24.355 14.3901V13.5912L26.9675 12.0799L27.3345 13.9799L27.68 12.3174V15.6424L27.3345 13.9799L26.9675 15.8799Z" fill="#232842"/>
<path d="M22.9675 15.8799L20.355 14.3901V13.5912L22.9675 12.0799L23.3345 13.9799L23.68 12.3174V15.6424L23.3345 13.9799L22.9675 15.8799Z" fill="#232842"/>
<path d="M22.9675 11.8799L20.355 10.3901V9.59125L22.9675 8.07988L23.3345 9.97988L23.68 8.31738V11.6424L23.3345 9.97988L22.9675 11.8799Z" fill="#232842"/>
<path d="M17.0325 8.12012L19.645 9.60989V10.4088L17.0325 11.9201L16.6655 10.0201L16.32 11.6826V8.35762L16.6655 10.0201L17.0325 8.12012Z" fill="#232842"/>
<path d="M9.0325 12.1201L11.645 13.6099V14.4088L9.0325 15.9201L8.66545 14.0201L8.32 15.6826V12.3576L8.66545 14.0201L9.0325 12.1201Z" fill="#232842"/>
<path d="M17.0325 4.12012L19.645 5.60989V6.40875L17.0325 7.92012L16.6655 6.02012L16.32 7.68262V4.35762L16.6655 6.02012L17.0325 4.12012Z" fill="#232842"/>
<path d="M9.0325 8.12012L11.645 9.60989V10.4088L9.0325 11.9201L8.66545 10.0201L8.32 11.6826V8.35762L8.66545 10.0201L9.0325 8.12012Z" fill="#232842"/>
<path d="M14.9675 11.8799L12.355 10.3901V9.59125L14.9675 8.07988L15.3345 9.97988L15.68 8.31738V11.6424L15.3345 9.97988L14.9675 11.8799Z" fill="#232842"/>
<path d="M25.0325 8.12012L27.645 9.60989V10.4088L25.0325 11.9201L24.6655 10.0201L24.32 11.6826V8.35762L24.6655 10.0201L25.0325 8.12012Z" fill="#232842"/>
<path d="M25.0325 4.12012L27.645 5.60989V6.40875L25.0325 7.92012L24.6655 6.02012L24.32 7.68262V4.35762L24.6655 6.02012L25.0325 4.12012Z" fill="#232842"/>
<path d="M25.0325 0.120117L27.645 1.60989V2.40875L25.0325 3.92012L24.6655 2.02012L24.32 3.68262V0.357617L24.6655 2.02012L25.0325 0.120117Z" fill="#232842"/>
<path d="M1.0325 20.1201L3.645 21.6099V22.4088L1.0325 23.9201L0.665454 22.0201L0.32 23.6826V20.3576L0.665454 22.0201L1.0325 20.1201Z" fill="#232842"/>
</g>
<defs>
<clipPath id="clip0_857_508">
<rect width="28" height="28" fill="white"/>
</clipPath>
</defs>
</svg>
