<svg width="28" height="28" viewBox="0 0 28 28" fill="none" xmlns="http://www.w3.org/2000/svg">
<g clip-path="url(#clip0_857_269)">
<path d="M5.99998 3.07202L7.24307 0.918981L4.75688 0.918981L5.99998 3.07202Z" fill="#232842"/>
<path d="M4.34254 0.255127L3.5 0.91811L4.75691 0.91811L4.34254 0.255127Z" fill="#232842"/>
<path d="M7.65746 0.255127L8.5 0.91811L7.24309 0.91811L7.65746 0.255127Z" fill="#232842"/>
<path d="M6 3.07251L5.64088 3.76312H6.35912L6 3.07251Z" fill="#232842"/>
<path d="M5.99998 7.07202L7.24307 4.91898H4.75688L5.99998 7.07202Z" fill="#232842"/>
<path d="M4.34254 4.25513L3.5 4.91811H4.75691L4.34254 4.25513Z" fill="#232842"/>
<path d="M7.65746 4.25513L8.5 4.91811H7.24309L7.65746 4.25513Z" fill="#232842"/>
<path d="M6 7.07251L5.64088 7.76312H6.35912L6 7.07251Z" fill="#232842"/>
<path d="M2.29998 7.07202L3.54308 4.91898H1.05689L2.29998 7.07202Z" fill="#232842"/>
<path d="M0.642544 4.25513L-0.199997 4.91811H1.05691L0.642544 4.25513Z" fill="#232842"/>
<path d="M3.95746 4.25513L4.8 4.91811H3.5431L3.95746 4.25513Z" fill="#232842"/>
<path d="M2.3 7.07251L1.94089 7.76312H2.65912L2.3 7.07251Z" fill="#232842"/>
<path d="M9.99998 11.072L11.2431 8.91898H8.75688L9.99998 11.072Z" fill="#232842"/>
<path d="M8.34254 8.25513L7.5 8.91811H8.75691L8.34254 8.25513Z" fill="#232842"/>
<path d="M11.6575 8.25513L12.5 8.91811H11.2431L11.6575 8.25513Z" fill="#232842"/>
<path d="M10 11.0725L9.64088 11.7631H10.3591L10 11.0725Z" fill="#232842"/>
<path d="M9.99998 15.072L11.2431 12.919H8.75688L9.99998 15.072Z" fill="#232842"/>
<path d="M8.34254 12.2551L7.5 12.9181H8.75691L8.34254 12.2551Z" fill="#232842"/>
<path d="M11.6575 12.2551L12.5 12.9181H11.2431L11.6575 12.2551Z" fill="#232842"/>
<path d="M10 15.0725L9.64088 15.7631H10.3591L10 15.0725Z" fill="#232842"/>
<path d="M5.99998 19.072L7.24307 16.919H4.75688L5.99998 19.072Z" fill="#232842"/>
<path d="M4.34254 16.2551L3.5 16.9181H4.75691L4.34254 16.2551Z" fill="#232842"/>
<path d="M7.65746 16.2551L8.5 16.9181H7.24309L7.65746 16.2551Z" fill="#232842"/>
<path d="M6 19.0725L5.64088 19.7631H6.35912L6 19.0725Z" fill="#232842"/>
<path d="M5.99998 23.072L7.24307 20.919H4.75688L5.99998 23.072Z" fill="#232842"/>
<path d="M4.34254 20.2551L3.5 20.9181H4.75691L4.34254 20.2551Z" fill="#232842"/>
<path d="M7.65746 20.2551L8.5 20.9181H7.24309L7.65746 20.2551Z" fill="#232842"/>
<path d="M6 23.0725L5.64088 23.7631H6.35912L6 23.0725Z" fill="#232842"/>
<path d="M1.99998 27.072L3.24307 24.919H0.756884L1.99998 27.072Z" fill="#232842"/>
<path d="M0.342541 24.2551L-0.5 24.9181H0.756906L0.342541 24.2551Z" fill="#232842"/>
<path d="M3.65746 24.2551L4.5 24.9181H3.24309L3.65746 24.2551Z" fill="#232842"/>
<path d="M2 27.0725L1.64088 27.7631H2.35912L2 27.0725Z" fill="#232842"/>
<path d="M1.99998 23.072L3.24307 20.919H0.756884L1.99998 23.072Z" fill="#232842"/>
<path d="M0.342541 20.2551L-0.5 20.9181H0.756906L0.342541 20.2551Z" fill="#232842"/>
<path d="M3.65746 20.2551L4.5 20.9181H3.24309L3.65746 20.2551Z" fill="#232842"/>
<path d="M2 23.0725L1.64088 23.7631H2.35912L2 23.0725Z" fill="#232842"/>
<path d="M1.99998 15.072L3.24307 12.919H0.756884L1.99998 15.072Z" fill="#232842"/>
<path d="M0.342541 12.2551L-0.5 12.9181H0.756906L0.342541 12.2551Z" fill="#232842"/>
<path d="M3.65746 12.2551L4.5 12.9181H3.24309L3.65746 12.2551Z" fill="#232842"/>
<path d="M2 15.0725L1.64088 15.7631H2.35912L2 15.0725Z" fill="#232842"/>
<path d="M9.99998 23.072L11.2431 20.919H8.75688L9.99998 23.072Z" fill="#232842"/>
<path d="M8.34254 20.2551L7.5 20.9181H8.75691L8.34254 20.2551Z" fill="#232842"/>
<path d="M11.6575 20.2551L12.5 20.9181H11.2431L11.6575 20.2551Z" fill="#232842"/>
<path d="M10 23.0725L9.64088 23.7631H10.3591L10 23.0725Z" fill="#232842"/>
<path d="M9.99998 27.072L11.2431 24.919H8.75688L9.99998 27.072Z" fill="#232842"/>
<path d="M8.34254 24.2551L7.5 24.9181H8.75691L8.34254 24.2551Z" fill="#232842"/>
<path d="M11.6575 24.2551L12.5 24.9181H11.2431L11.6575 24.2551Z" fill="#232842"/>
<path d="M10 27.0725L9.64088 27.7631H10.3591L10 27.0725Z" fill="#232842"/>
<path d="M18 27.072L19.2431 24.919H16.7569L18 27.072Z" fill="#232842"/>
<path d="M16.3425 24.2551L15.5 24.9181H16.7569L16.3425 24.2551Z" fill="#232842"/>
<path d="M19.6575 24.2551L20.5 24.9181H19.2431L19.6575 24.2551Z" fill="#232842"/>
<path d="M18 27.0725L17.6409 27.7631H18.3591L18 27.0725Z" fill="#232842"/>
<path d="M26 27.072L27.2431 24.919H24.7569L26 27.072Z" fill="#232842"/>
<path d="M24.3425 24.2551L23.5 24.9181H24.7569L24.3425 24.2551Z" fill="#232842"/>
<path d="M27.6575 24.2551L28.5 24.9181H27.2431L27.6575 24.2551Z" fill="#232842"/>
<path d="M26 27.0725L25.6409 27.7631H26.3591L26 27.0725Z" fill="#232842"/>
<path d="M26 23.072L27.2431 20.919H24.7569L26 23.072Z" fill="#232842"/>
<path d="M24.3425 20.2551L23.5 20.9181H24.7569L24.3425 20.2551Z" fill="#232842"/>
<path d="M27.6575 20.2551L28.5 20.9181H27.2431L27.6575 20.2551Z" fill="#232842"/>
<path d="M26 23.0725L25.6409 23.7631H26.3591L26 23.0725Z" fill="#232842"/>
<path d="M26 19.072L27.2431 16.919H24.7569L26 19.072Z" fill="#232842"/>
<path d="M24.3425 16.2551L23.5 16.9181H24.7569L24.3425 16.2551Z" fill="#232842"/>
<path d="M27.6575 16.2551L28.5 16.9181H27.2431L27.6575 16.2551Z" fill="#232842"/>
<path d="M26 19.0725L25.6409 19.7631H26.3591L26 19.0725Z" fill="#232842"/>
<path d="M22 15.072L23.2431 12.919H20.7569L22 15.072Z" fill="#232842"/>
<path d="M20.3425 12.2551L19.5 12.9181H20.7569L20.3425 12.2551Z" fill="#232842"/>
<path d="M23.6575 12.2551L24.5 12.9181H23.2431L23.6575 12.2551Z" fill="#232842"/>
<path d="M22 15.0725L21.6409 15.7631H22.3591L22 15.0725Z" fill="#232842"/>
<path d="M22 11.072L23.2431 8.91898H20.7569L22 11.072Z" fill="#232842"/>
<path d="M20.3425 8.25513L19.5 8.91811H20.7569L20.3425 8.25513Z" fill="#232842"/>
<path d="M23.6575 8.25513L24.5 8.91811H23.2431L23.6575 8.25513Z" fill="#232842"/>
<path d="M22 11.0725L21.6409 11.7631H22.3591L22 11.0725Z" fill="#232842"/>
<path d="M18 11.072L19.2431 8.91898H16.7569L18 11.072Z" fill="#232842"/>
<path d="M16.3425 8.25513L15.5 8.91811H16.7569L16.3425 8.25513Z" fill="#232842"/>
<path d="M19.6575 8.25513L20.5 8.91811H19.2431L19.6575 8.25513Z" fill="#232842"/>
<path d="M18 11.0725L17.6409 11.7631H18.3591L18 11.0725Z" fill="#232842"/>
<path d="M18 7.07202L19.2431 4.91898H16.7569L18 7.07202Z" fill="#232842"/>
<path d="M16.3425 4.25513L15.5 4.91811H16.7569L16.3425 4.25513Z" fill="#232842"/>
<path d="M19.6575 4.25513L20.5 4.91811H19.2431L19.6575 4.25513Z" fill="#232842"/>
<path d="M18 7.07251L17.6409 7.76312H18.3591L18 7.07251Z" fill="#232842"/>
<path d="M14 11.072L15.2431 8.91898H12.7569L14 11.072Z" fill="#232842"/>
<path d="M12.3425 8.25513L11.5 8.91811H12.7569L12.3425 8.25513Z" fill="#232842"/>
<path d="M15.6575 8.25513L16.5 8.91811H15.2431L15.6575 8.25513Z" fill="#232842"/>
<path d="M14 11.0725L13.6409 11.7631H14.3591L14 11.0725Z" fill="#232842"/>
<path d="M26 11.072L27.2431 8.91898H24.7569L26 11.072Z" fill="#232842"/>
<path d="M24.3425 8.25513L23.5 8.91811H24.7569L24.3425 8.25513Z" fill="#232842"/>
<path d="M27.6575 8.25513L28.5 8.91811H27.2431L27.6575 8.25513Z" fill="#232842"/>
<path d="M26 11.0725L25.6409 11.7631H26.3591L26 11.0725Z" fill="#232842"/>
<path d="M26 7.07202L27.2431 4.91898H24.7569L26 7.07202Z" fill="#232842"/>
<path d="M24.3425 4.25513L23.5 4.91811H24.7569L24.3425 4.25513Z" fill="#232842"/>
<path d="M27.6575 4.25513L28.5 4.91811H27.2431L27.6575 4.25513Z" fill="#232842"/>
<path d="M26 7.07251L25.6409 7.76312H26.3591L26 7.07251Z" fill="#232842"/>
<path d="M26 3.07202L27.2431 0.918981L24.7569 0.918981L26 3.07202Z" fill="#232842"/>
<path d="M24.3425 0.255127L23.5 0.91811L24.7569 0.91811L24.3425 0.255127Z" fill="#232842"/>
<path d="M27.6575 0.255127L28.5 0.91811L27.2431 0.91811L27.6575 0.255127Z" fill="#232842"/>
<path d="M26 3.07251L25.6409 3.76312H26.3591L26 3.07251Z" fill="#232842"/>
<path d="M26 15.072L27.2431 12.919H24.7569L26 15.072Z" fill="#232842"/>
<path d="M24.3425 12.2551L23.5 12.9181H24.7569L24.3425 12.2551Z" fill="#232842"/>
<path d="M27.6575 12.2551L28.5 12.9181H27.2431L27.6575 12.2551Z" fill="#232842"/>
<path d="M26 15.0725L25.6409 15.7631H26.3591L26 15.0725Z" fill="#232842"/>
</g>
<defs>
<clipPath id="clip0_857_269">
<rect width="28" height="28" fill="white"/>
</clipPath>
</defs>
</svg>
