<svg width="28" height="28" viewBox="0 0 28 28" fill="none" xmlns="http://www.w3.org/2000/svg">
<g clip-path="url(#clip0_857_692)">
<path d="M4.20001 1.99995C4.20001 2.99406 5.0059 3.79995 6.00001 3.79995C6.99412 3.79995 7.80001 2.99406 7.80001 1.99995C7.80001 1.00584 6.99412 0.199951 6.00001 0.199951C5.0059 0.199951 4.20001 1.00584 4.20001 1.99995Z" fill="#232842"/>
<path d="M0.200012 14C0.200012 14.9941 1.0059 15.8 2.00001 15.8C2.99412 15.8 3.80001 14.9941 3.80001 14C3.80001 13.0058 2.99412 12.2 2.00001 12.2C1.0059 12.2 0.200012 13.0058 0.200012 14Z" fill="#232842"/>
<path d="M16.2 26C16.2 26.9941 17.0059 27.8 18 27.8C18.9941 27.8 19.8 26.9941 19.8 26C19.8 25.0058 18.9941 24.2 18 24.2C17.0059 24.2 16.2 25.0058 16.2 26Z" fill="#232842"/>
<path d="M24.2 26C24.2 26.9941 25.0059 27.8 26 27.8C26.9941 27.8 27.8 26.9941 27.8 26C27.8 25.0058 26.9941 24.2 26 24.2C25.0059 24.2 24.2 25.0058 24.2 26Z" fill="#232842"/>
<path d="M24.2 22C24.2 22.9941 25.0059 23.8 26 23.8C26.9941 23.8 27.8 22.9941 27.8 22C27.8 21.0058 26.9941 20.2 26 20.2C25.0059 20.2 24.2 21.0058 24.2 22Z" fill="#232842"/>
<path d="M24.2 18C24.2 18.9941 25.0059 19.8 26 19.8C26.9941 19.8 27.8 18.9941 27.8 18C27.8 17.0058 26.9941 16.2 26 16.2C25.0059 16.2 24.2 17.0058 24.2 18Z" fill="#232842"/>
<path d="M24.2 9.99995C24.2 10.9941 25.0059 11.8 26 11.8C26.9941 11.8 27.8 10.9941 27.8 9.99995C27.8 9.00584 26.9941 8.19995 26 8.19995C25.0059 8.19995 24.2 9.00584 24.2 9.99995Z" fill="#232842"/>
<path d="M24.2 5.99995C24.2 6.99406 25.0059 7.79995 26 7.79995C26.9941 7.79995 27.8 6.99406 27.8 5.99995C27.8 5.00584 26.9941 4.19995 26 4.19995C25.0059 4.19995 24.2 5.00584 24.2 5.99995Z" fill="#232842"/>
<path d="M24.2 1.99995C24.2 2.99406 25.0059 3.79995 26 3.79995C26.9941 3.79995 27.8 2.99406 27.8 1.99995C27.8 1.00584 26.9941 0.199951 26 0.199951C25.0059 0.199951 24.2 1.00584 24.2 1.99995Z" fill="#232842"/>
<path d="M16.2 5.99995C16.2 6.99406 17.0059 7.79995 18 7.79995C18.9941 7.79995 19.8 6.99406 19.8 5.99995C19.8 5.00584 18.9941 4.19995 18 4.19995C17.0059 4.19995 16.2 5.00584 16.2 5.99995Z" fill="#232842"/>
<path d="M8.20001 14C8.20001 14.9941 9.0059 15.8 10 15.8C10.9941 15.8 11.8 14.9941 11.8 14C11.8 13.0058 10.9941 12.2 10 12.2C9.0059 12.2 8.20001 13.0058 8.20001 14Z" fill="#232842"/>
<path d="M4.20001 18C4.20001 18.9941 5.0059 19.8 6.00001 19.8C6.99412 19.8 7.80001 18.9941 7.80001 18C7.80001 17.0058 6.99412 16.2 6.00001 16.2C5.0059 16.2 4.20001 17.0058 4.20001 18Z" fill="#232842"/>
<path d="M0.200012 26C0.200012 26.9941 1.0059 27.8 2.00001 27.8C2.99412 27.8 3.80001 26.9941 3.80001 26C3.80001 25.0058 2.99412 24.2 2.00001 24.2C1.0059 24.2 0.200012 25.0058 0.200012 26Z" fill="#232842"/>
<path d="M8.20001 26C8.20001 26.9941 9.0059 27.8 10 27.8C10.9941 27.8 11.8 26.9941 11.8 26C11.8 25.0058 10.9941 24.2 10 24.2C9.0059 24.2 8.20001 25.0058 8.20001 26Z" fill="#232842"/>
<path d="M6 4.19995H2C1.00588 4.19995 0.199997 5.00584 0.199997 5.99995C0.199997 6.99406 1.00588 7.79995 1.99999 7.79995H6C6.99411 7.79995 7.8 6.99406 7.8 5.99995C7.8 5.00584 6.99411 4.19995 6 4.19995Z" fill="#232842"/>
<path d="M26 12.2H22C21.0059 12.2 20.2 13.0058 20.2 14C20.2 14.9941 21.0059 15.8 22 15.8H26C26.9941 15.8 27.8 14.9941 27.8 14C27.8 13.0058 26.9941 12.2 26 12.2Z" fill="#232842"/>
<path d="M10 20.2H2C1.00588 20.2 0.199997 21.0058 0.199997 22C0.199997 22.9941 1.00588 23.8 2 23.8H10C10.9941 23.8 11.8 22.9941 11.8 22C11.8 21.0058 10.9941 20.2 10 20.2Z" fill="#232842"/>
<path d="M22 8.19995H10C9.00588 8.19995 8.2 9.00584 8.2 9.99995C8.2 10.9941 9.00588 11.8 10 11.8H22C22.9941 11.8 23.8 10.9941 23.8 9.99995C23.8 9.00584 22.9941 8.19995 22 8.19995Z" fill="#232842"/>
</g>
<defs>
<clipPath id="clip0_857_692">
<rect width="28" height="28" fill="white"/>
</clipPath>
</defs>
</svg>
