<svg width="28" height="28" viewBox="0 0 28 28" fill="none" xmlns="http://www.w3.org/2000/svg">
<g clip-path="url(#clip0_858_933)">
<path d="M1.9799 4.00008L0 5.97998L1.9799 7.95988L3.9598 5.97998L1.9799 4.00008Z" fill="#232842"/>
<path d="M1.9799 12.0001L0 13.98L1.9799 15.9599L3.9598 13.98L1.9799 12.0001Z" fill="#232842"/>
<path d="M1.9799 20.0001L0 21.98L1.9799 23.9599L3.9598 21.98L1.9799 20.0001Z" fill="#232842"/>
<path d="M1.9799 24.0001L0 25.98L1.9799 27.9599L3.9598 25.98L1.9799 24.0001Z" fill="#232842"/>
<path d="M5.9799 8.15439e-05L4 1.97998L5.9799 3.95988L7.9598 1.97998L5.9799 8.15439e-05Z" fill="#232842"/>
<path d="M5.9799 4.00008L4 5.97998L5.9799 7.95988L7.9598 5.97998L5.9799 4.00008Z" fill="#232842"/>
<path d="M5.9799 16.0001L4 17.98L5.9799 19.9599L7.9598 17.98L5.9799 16.0001Z" fill="#232842"/>
<path d="M5.9799 20.0001L4 21.98L5.9799 23.9599L7.9598 21.98L5.9799 20.0001Z" fill="#232842"/>
<path d="M9.9799 8.00008L8 9.97998L9.9799 11.9599L11.9598 9.97998L9.9799 8.00008Z" fill="#232842"/>
<path d="M9.9799 12.0001L8 13.98L9.9799 15.9599L11.9598 13.98L9.9799 12.0001Z" fill="#232842"/>
<path d="M9.9799 20.0001L8 21.98L9.9799 23.9599L11.9598 21.98L9.9799 20.0001Z" fill="#232842"/>
<path d="M9.9799 24.0001L8 25.98L9.9799 27.9599L11.9598 25.98L9.9799 24.0001Z" fill="#232842"/>
<path d="M13.9799 8.00008L12 9.97998L13.9799 11.9599L15.9598 9.97998L13.9799 8.00008Z" fill="#232842"/>
<path d="M17.9799 4.00008L16 5.97998L17.9799 7.95988L19.9598 5.97998L17.9799 4.00008Z" fill="#232842"/>
<path d="M17.9799 8.00008L16 9.97998L17.9799 11.9599L19.9598 9.97998L17.9799 8.00008Z" fill="#232842"/>
<path d="M17.9799 24.0001L16 25.98L17.9799 27.9599L19.9598 25.98L17.9799 24.0001Z" fill="#232842"/>
<path d="M21.9799 8.00008L20 9.97998L21.9799 11.9599L23.9598 9.97998L21.9799 8.00008Z" fill="#232842"/>
<path d="M21.9799 12.0001L20 13.98L21.9799 15.9599L23.9598 13.98L21.9799 12.0001Z" fill="#232842"/>
<path d="M25.9799 8.15439e-05L24 1.97998L25.9799 3.95988L27.9598 1.97998L25.9799 8.15439e-05Z" fill="#232842"/>
<path d="M25.9799 4.00008L24 5.97998L25.9799 7.95988L27.9598 5.97998L25.9799 4.00008Z" fill="#232842"/>
<path d="M25.9799 8.00008L24 9.97998L25.9799 11.9599L27.9598 9.97998L25.9799 8.00008Z" fill="#232842"/>
<path d="M25.9799 12.0001L24 13.98L25.9799 15.9599L27.9598 13.98L25.9799 12.0001Z" fill="#232842"/>
<path d="M25.9799 16.0001L24 17.98L25.9799 19.9599L27.9598 17.98L25.9799 16.0001Z" fill="#232842"/>
<path d="M25.9799 20.0001L24 21.98L25.9799 23.9599L27.9598 21.98L25.9799 20.0001Z" fill="#232842"/>
<path d="M25.9799 24.0001L24 25.98L25.9799 27.9599L27.9598 25.98L25.9799 24.0001Z" fill="#232842"/>
</g>
<defs>
<clipPath id="clip0_858_933">
<rect width="28" height="28" fill="white"/>
</clipPath>
</defs>
</svg>
