<svg width="28" height="28" viewBox="0 0 28 28" fill="none" xmlns="http://www.w3.org/2000/svg">
<g clip-path="url(#clip0_859_121)">
<path d="M0.200012 22.275V25.725C0.200012 26.7605 1.03948 27.6 2.07501 27.6C3.11055 27.6 3.95001 26.7481 3.95001 25.7125C3.95001 24.6632 4.80067 23.8 5.85001 23.8H6.10001C7.14935 23.8 8.00001 24.6506 8.00001 25.7C8.00001 26.7493 8.85067 27.6 9.90001 27.6C10.9494 27.6 11.8 26.7493 11.8 25.6999V22.3C11.8 21.2506 10.9494 20.4 9.90001 20.4C8.85067 20.4 8.00001 19.5493 8.00001 18.4999V18.225C8.00001 17.1066 7.09339 16.2 5.97501 16.2C4.85664 16.2 3.95001 17.1066 3.95001 18.225V18.525C3.95001 19.5605 3.11055 20.4 2.07501 20.4C1.03948 20.4 0.200012 21.2394 0.200012 22.275Z" fill="#232842"/>
<path d="M16.2 26C16.2 26.9941 17.0059 27.8 18 27.8C18.9941 27.8 19.8 26.9941 19.8 26C19.8 25.0058 18.9941 24.2 18 24.2C17.0059 24.2 16.2 25.0058 16.2 26Z" fill="#232842"/>
<path d="M0.200012 14C0.200012 14.9941 1.0059 15.8 2.00001 15.8C2.99412 15.8 3.80001 14.9941 3.80001 14C3.80001 13.0058 2.99412 12.2 2.00001 12.2C1.0059 12.2 0.200012 13.0058 0.200012 14Z" fill="#232842"/>
<path d="M27.8 26V1.99995C27.8 1.00584 26.9941 0.199951 26 0.199951C25.0059 0.199951 24.2 1.00584 24.2 1.99995V6.12495C24.2 7.27094 23.271 8.19995 22.125 8.19995H22.05C20.9454 8.19995 20.05 7.30452 20.05 6.19995C20.05 5.09538 19.1546 4.19995 18.05 4.19995H18C16.8954 4.19995 16 5.09538 16 6.19995C16 7.30452 15.1046 8.19995 14 8.19995H12C9.90133 8.19995 8.20001 9.90127 8.20001 11.9999V14C8.20001 14.9941 9.0059 15.8 10 15.8C10.9941 15.8 11.8 14.9941 11.8 14V13.8C11.8 12.6954 12.6954 11.8 13.8 11.8H18.05C19.1546 11.8 20.05 12.6954 20.05 13.8C20.05 14.9045 20.9454 15.8 22.05 15.8H22.125C23.271 15.8 24.2 16.729 24.2 17.875V26C24.2 26.9941 25.0059 27.8 26 27.8C26.9941 27.8 27.8 26.9941 27.8 26Z" fill="#232842"/>
<path d="M7.80001 4.1999V2.1999C7.80001 1.20579 6.99412 0.399902 6.00001 0.399902C5.0059 0.399902 4.20001 1.20579 4.20001 2.1999V2.2999C4.20001 3.34924 3.34935 4.1999 2.30001 4.1999H2.00001C1.0059 4.1999 0.200012 5.00579 0.200012 5.9999C0.200012 6.99401 1.0059 7.7999 2.00001 7.7999H4.20001C6.18824 7.7999 7.80001 6.18813 7.80001 4.1999Z" fill="#232842"/>
</g>
<defs>
<clipPath id="clip0_859_121">
<rect width="28" height="28" fill="white"/>
</clipPath>
</defs>
</svg>
