<svg width="28" height="28" viewBox="0 0 28 28" fill="none" xmlns="http://www.w3.org/2000/svg">
<g clip-path="url(#clip0_856_30)">
<path d="M4 4H0V8H4V4Z" fill="#232842"/>
<path d="M4 12H0V16H4V12Z" fill="#232842"/>
<path d="M4 20H0V24H4V20Z" fill="#232842"/>
<path d="M4 24H0V28H4V24Z" fill="#232842"/>
<path d="M8 0H4V4H8V0Z" fill="#232842"/>
<path d="M8 4H4V8H8V4Z" fill="#232842"/>
<path d="M8 16H4V20H8V16Z" fill="#232842"/>
<path d="M8 20H4V24H8V20Z" fill="#232842"/>
<path d="M12 8H8V12H12V8Z" fill="#232842"/>
<path d="M12 12H8V16H12V12Z" fill="#232842"/>
<path d="M12 20H8V24H12V20Z" fill="#232842"/>
<path d="M12 24H8V28H12V24Z" fill="#232842"/>
<path d="M16 8H12V12H16V8Z" fill="#232842"/>
<path d="M20 4H16V8H20V4Z" fill="#232842"/>
<path d="M20 8H16V12H20V8Z" fill="#232842"/>
<path d="M20 24H16V28H20V24Z" fill="#232842"/>
<path d="M24 8H20V12H24V8Z" fill="#232842"/>
<path d="M24 12H20V16H24V12Z" fill="#232842"/>
<path d="M28 0H24V4H28V0Z" fill="#232842"/>
<path d="M28 4H24V8H28V4Z" fill="#232842"/>
<path d="M28 8H24V12H28V8Z" fill="#232842"/>
<path d="M28 12H24V16H28V12Z" fill="#232842"/>
<path d="M28 16H24V20H28V16Z" fill="#232842"/>
<path d="M28 20H24V24H28V20Z" fill="#232842"/>
<path d="M28 24H24V28H28V24Z" fill="#232842"/>
</g>
<defs>
<clipPath id="clip0_856_30">
<rect width="28" height="28" fill="white"/>
</clipPath>
</defs>
</svg>
