<svg width="28" height="28" viewBox="0 0 28 28" fill="none" xmlns="http://www.w3.org/2000/svg">
<g clip-path="url(#clip0_857_772)">
<path d="M6 0.120117L5.5 1.08012L4.46 0.860117L4.9 1.82012L4.08 2.52012L5.1 2.78012L5.14 3.86012L6.02 3.22012L6.86 3.86012L6.9 2.78012L7.92 2.52012L7.12 1.82012L7.56 0.860117L6.5 1.08012L6 0.120117Z" fill="#232842"/>
<path d="M6 4.12012L5.5 5.08012L4.46 4.86012L4.9 5.82012L4.08 6.52012L5.1 6.78012L5.14 7.86012L6.02 7.22012L6.86 7.86012L6.9 6.78012L7.92 6.52012L7.12 5.82012L7.56 4.86012L6.5 5.08012L6 4.12012Z" fill="#232842"/>
<path d="M2 4.12012L1.5 5.08012L0.460002 4.86012L0.900002 5.82012L0.0800018 6.52012L1.1 6.78012L1.14 7.86012L2.02 7.22012L2.86 7.86012L2.9 6.78012L3.92 6.52012L3.12 5.82012L3.56 4.86012L2.5 5.08012L2 4.12012Z" fill="#232842"/>
<path d="M10 8.12012L9.5 9.08012L8.46 8.86012L8.9 9.82012L8.08 10.5201L9.1 10.7801L9.14 11.8601L10.02 11.2201L10.86 11.8601L10.9 10.7801L11.92 10.5201L11.12 9.82012L11.56 8.86012L10.5 9.08012L10 8.12012Z" fill="#232842"/>
<path d="M10 12.1201L9.5 13.0801L8.46 12.8601L8.9 13.8201L8.08 14.5201L9.1 14.7801L9.14 15.8601L10.02 15.2201L10.86 15.8601L10.9 14.7801L11.92 14.5201L11.12 13.8201L11.56 12.8601L10.5 13.0801L10 12.1201Z" fill="#232842"/>
<path d="M2 12.1201L1.5 13.0801L0.460002 12.8601L0.900002 13.8201L0.0800018 14.5201L1.1 14.7801L1.14 15.8601L2.02 15.2201L2.86 15.8601L2.9 14.7801L3.92 14.5201L3.12 13.8201L3.56 12.8601L2.5 13.0801L2 12.1201Z" fill="#232842"/>
<path d="M6 16.1201L5.5 17.0801L4.46 16.8601L4.9 17.8201L4.08 18.5201L5.1 18.7801L5.14 19.8601L6.02 19.2201L6.86 19.8601L6.9 18.7801L7.92 18.5201L7.12 17.8201L7.56 16.8601L6.5 17.0801L6 16.1201Z" fill="#232842"/>
<path d="M6 20.1201L5.5 21.0801L4.46 20.8601L4.9 21.8201L4.08 22.5201L5.1 22.7801L5.14 23.8601L6.02 23.2201L6.86 23.8601L6.9 22.7801L7.92 22.5201L7.12 21.8201L7.56 20.8601L6.5 21.0801L6 20.1201Z" fill="#232842"/>
<path d="M2 20.1201L1.5 21.0801L0.460002 20.8601L0.900002 21.8201L0.0800018 22.5201L1.1 22.7801L1.14 23.8601L2.02 23.2201L2.86 23.8601L2.9 22.7801L3.92 22.5201L3.12 21.8201L3.56 20.8601L2.5 21.0801L2 20.1201Z" fill="#232842"/>
<path d="M10 20.1201L9.5 21.0801L8.46 20.8601L8.9 21.8201L8.08 22.5201L9.1 22.7801L9.14 23.8601L10.02 23.2201L10.86 23.8601L10.9 22.7801L11.92 22.5201L11.12 21.8201L11.56 20.8601L10.5 21.0801L10 20.1201Z" fill="#232842"/>
<path d="M10 24.1201L9.5 25.0801L8.46 24.8601L8.9 25.8201L8.08 26.5201L9.1 26.7801L9.14 27.8601L10.02 27.2201L10.86 27.8601L10.9 26.7801L11.92 26.5201L11.12 25.8201L11.56 24.8601L10.5 25.0801L10 24.1201Z" fill="#232842"/>
<path d="M2 24.1201L1.5 25.0801L0.460002 24.8601L0.900002 25.8201L0.0800018 26.5201L1.1 26.7801L1.14 27.8601L2.02 27.2201L2.86 27.8601L2.9 26.7801L3.92 26.5201L3.12 25.8201L3.56 24.8601L2.5 25.0801L2 24.1201Z" fill="#232842"/>
<path d="M18 24.1201L17.5 25.0801L16.46 24.8601L16.9 25.8201L16.08 26.5201L17.1 26.7801L17.14 27.8601L18.02 27.2201L18.86 27.8601L18.9 26.7801L19.92 26.5201L19.12 25.8201L19.56 24.8601L18.5 25.0801L18 24.1201Z" fill="#232842"/>
<path d="M26 24.1201L25.5 25.0801L24.46 24.8601L24.9 25.8201L24.08 26.5201L25.1 26.7801L25.14 27.8601L26.02 27.2201L26.86 27.8601L26.9 26.7801L27.92 26.5201L27.12 25.8201L27.56 24.8601L26.5 25.0801L26 24.1201Z" fill="#232842"/>
<path d="M26 20.1201L25.5 21.0801L24.46 20.8601L24.9 21.8201L24.08 22.5201L25.1 22.7801L25.14 23.8601L26.02 23.2201L26.86 23.8601L26.9 22.7801L27.92 22.5201L27.12 21.8201L27.56 20.8601L26.5 21.0801L26 20.1201Z" fill="#232842"/>
<path d="M26 16.1201L25.5 17.0801L24.46 16.8601L24.9 17.8201L24.08 18.5201L25.1 18.7801L25.14 19.8601L26.02 19.2201L26.86 19.8601L26.9 18.7801L27.92 18.5201L27.12 17.8201L27.56 16.8601L26.5 17.0801L26 16.1201Z" fill="#232842"/>
<path d="M26 12.1201L25.5 13.0801L24.46 12.8601L24.9 13.8201L24.08 14.5201L25.1 14.7801L25.14 15.8601L26.02 15.2201L26.86 15.8601L26.9 14.7801L27.92 14.5201L27.12 13.8201L27.56 12.8601L26.5 13.0801L26 12.1201Z" fill="#232842"/>
<path d="M26 8.12012L25.5 9.08012L24.46 8.86012L24.9 9.82012L24.08 10.5201L25.1 10.7801L25.14 11.8601L26.02 11.2201L26.86 11.8601L26.9 10.7801L27.92 10.5201L27.12 9.82012L27.56 8.86012L26.5 9.08012L26 8.12012Z" fill="#232842"/>
<path d="M26 4.12012L25.5 5.08012L24.46 4.86012L24.9 5.82012L24.08 6.52012L25.1 6.78012L25.14 7.86012L26.02 7.22012L26.86 7.86012L26.9 6.78012L27.92 6.52012L27.12 5.82012L27.56 4.86012L26.5 5.08012L26 4.12012Z" fill="#232842"/>
<path d="M26 0.120117L25.5 1.08012L24.46 0.860117L24.9 1.82012L24.08 2.52012L25.1 2.78012L25.14 3.86012L26.02 3.22012L26.86 3.86012L26.9 2.78012L27.92 2.52012L27.12 1.82012L27.56 0.860117L26.5 1.08012L26 0.120117Z" fill="#232842"/>
<path d="M22 12.1201L21.5 13.0801L20.46 12.8601L20.9 13.8201L20.08 14.5201L21.1 14.7801L21.14 15.8601L22.02 15.2201L22.86 15.8601L22.9 14.7801L23.92 14.5201L23.12 13.8201L23.56 12.8601L22.5 13.0801L22 12.1201Z" fill="#232842"/>
<path d="M18 8.12012L17.5 9.08012L16.46 8.86012L16.9 9.82012L16.08 10.5201L17.1 10.7801L17.14 11.8601L18.02 11.2201L18.86 11.8601L18.9 10.7801L19.92 10.5201L19.12 9.82012L19.56 8.86012L18.5 9.08012L18 8.12012Z" fill="#232842"/>
<path d="M22 8.12012L21.5 9.08012L20.46 8.86012L20.9 9.82012L20.08 10.5201L21.1 10.7801L21.14 11.8601L22.02 11.2201L22.86 11.8601L22.9 10.7801L23.92 10.5201L23.12 9.82012L23.56 8.86012L22.5 9.08012L22 8.12012Z" fill="#232842"/>
<path d="M18 4.12012L17.5 5.08012L16.46 4.86012L16.9 5.82012L16.08 6.52012L17.1 6.78012L17.14 7.86012L18.02 7.22012L18.86 7.86012L18.9 6.78012L19.92 6.52012L19.12 5.82012L19.56 4.86012L18.5 5.08012L18 4.12012Z" fill="#232842"/>
<path d="M14 8.12012L13.5 9.08012L12.46 8.86012L12.9 9.82012L12.08 10.5201L13.1 10.7801L13.14 11.8601L14.02 11.2201L14.86 11.8601L14.9 10.7801L15.92 10.5201L15.12 9.82012L15.56 8.86012L14.5 9.08012L14 8.12012Z" fill="#232842"/>
</g>
<defs>
<clipPath id="clip0_857_772">
<rect width="28" height="28" fill="white"/>
</clipPath>
</defs>
</svg>
