<svg width="28" height="28" viewBox="0 0 28 28" fill="none" xmlns="http://www.w3.org/2000/svg">
<g clip-path="url(#clip0_857_877)">
<path d="M6.69999 1.34L6.03999 0L5.35999 1.34L3.89999 1.54L4.95999 2.58L4.73999 4L6.03999 3.34L7.33999 4L7.09999 2.58L8.17999 1.54L6.69999 1.34Z" fill="#232842"/>
<path d="M6.69999 5.34L6.03999 4L5.35999 5.34L3.89999 5.54L4.95999 6.58L4.73999 8L6.03999 7.34L7.33999 8L7.09999 6.58L8.17999 5.54L6.69999 5.34Z" fill="#232842"/>
<path d="M2.69999 5.34L2.03999 4L1.35999 5.34L-0.100006 5.54L0.959994 6.58L0.739994 8L2.03999 7.34L3.33999 8L3.09999 6.58L4.17999 5.54L2.69999 5.34Z" fill="#232842"/>
<path d="M2.69999 13.34L2.03999 12L1.35999 13.34L-0.100006 13.54L0.959994 14.58L0.739994 16L2.03999 15.34L3.33999 16L3.09999 14.58L4.17999 13.54L2.69999 13.34Z" fill="#232842"/>
<path d="M2.69999 21.34L2.03999 20L1.35999 21.34L-0.100006 21.54L0.959994 22.58L0.739994 24L2.03999 23.34L3.33999 24L3.09999 22.58L4.17999 21.54L2.69999 21.34Z" fill="#232842"/>
<path d="M2.69999 25.34L2.03999 24L1.35999 25.34L-0.100006 25.54L0.959994 26.58L0.739994 28L2.03999 27.34L3.33999 28L3.09999 26.58L4.17999 25.54L2.69999 25.34Z" fill="#232842"/>
<path d="M6.69999 21.34L6.03999 20L5.35999 21.34L3.89999 21.54L4.95999 22.58L4.73999 24L6.03999 23.34L7.33999 24L7.09999 22.58L8.17999 21.54L6.69999 21.34Z" fill="#232842"/>
<path d="M10.7 21.34L10.04 20L9.35999 21.34L7.89999 21.54L8.95999 22.58L8.73999 24L10.04 23.34L11.34 24L11.1 22.58L12.18 21.54L10.7 21.34Z" fill="#232842"/>
<path d="M10.7 13.34L10.04 12L9.35999 13.34L7.89999 13.54L8.95999 14.58L8.73999 16L10.04 15.34L11.34 16L11.1 14.58L12.18 13.54L10.7 13.34Z" fill="#232842"/>
<path d="M10.7 9.34L10.04 8L9.35999 9.34L7.89999 9.54L8.95999 10.58L8.73999 12L10.04 11.34L11.34 12L11.1 10.58L12.18 9.54L10.7 9.34Z" fill="#232842"/>
<path d="M14.7 9.34L14.04 8L13.36 9.34L11.9 9.54L12.96 10.58L12.74 12L14.04 11.34L15.34 12L15.1 10.58L16.18 9.54L14.7 9.34Z" fill="#232842"/>
<path d="M18.7 9.34L18.04 8L17.36 9.34L15.9 9.54L16.96 10.58L16.74 12L18.04 11.34L19.34 12L19.1 10.58L20.18 9.54L18.7 9.34Z" fill="#232842"/>
<path d="M18.7 5.34L18.04 4L17.36 5.34L15.9 5.54L16.96 6.58L16.74 8L18.04 7.34L19.34 8L19.1 6.58L20.18 5.54L18.7 5.34Z" fill="#232842"/>
<path d="M26.7 5.34L26.04 4L25.36 5.34L23.9 5.54L24.96 6.58L24.74 8L26.04 7.34L27.34 8L27.1 6.58L28.18 5.54L26.7 5.34Z" fill="#232842"/>
<path d="M26.7 1.34L26.04 0L25.36 1.34L23.9 1.54L24.96 2.58L24.74 4L26.04 3.34L27.34 4L27.1 2.58L28.18 1.54L26.7 1.34Z" fill="#232842"/>
<path d="M26.7 9.34L26.04 8L25.36 9.34L23.9 9.54L24.96 10.58L24.74 12L26.04 11.34L27.34 12L27.1 10.58L28.18 9.54L26.7 9.34Z" fill="#232842"/>
<path d="M22.8 9.34L22.14 8L21.46 9.34L20 9.54L21.06 10.58L20.84 12L22.14 11.34L23.44 12L23.2 10.58L24.28 9.54L22.8 9.34Z" fill="#232842"/>
<path d="M22.8 13.34L22.14 12L21.46 13.34L20 13.54L21.06 14.58L20.84 16L22.14 15.34L23.44 16L23.2 14.58L24.28 13.54L22.8 13.34Z" fill="#232842"/>
<path d="M26.7 13.34L26.04 12L25.36 13.34L23.9 13.54L24.96 14.58L24.74 16L26.04 15.34L27.34 16L27.1 14.58L28.18 13.54L26.7 13.34Z" fill="#232842"/>
<path d="M26.7 17.34L26.04 16L25.36 17.34L23.9 17.54L24.96 18.58L24.74 20L26.04 19.34L27.34 20L27.1 18.58L28.18 17.54L26.7 17.34Z" fill="#232842"/>
<path d="M26.7 21.34L26.04 20L25.36 21.34L23.9 21.54L24.96 22.58L24.74 24L26.04 23.34L27.34 24L27.1 22.58L28.18 21.54L26.7 21.34Z" fill="#232842"/>
<path d="M26.7 25.34L26.04 24L25.36 25.34L23.9 25.54L24.96 26.58L24.74 28L26.04 27.34L27.34 28L27.1 26.58L28.18 25.54L26.7 25.34Z" fill="#232842"/>
<path d="M18.7 25.34L18.04 24L17.36 25.34L15.9 25.54L16.96 26.58L16.74 28L18.04 27.34L19.34 28L19.1 26.58L20.18 25.54L18.7 25.34Z" fill="#232842"/>
<path d="M6.69999 17.34L6.03999 16L5.35999 17.34L3.89999 17.54L4.95999 18.58L4.73999 20L6.03999 19.34L7.33999 20L7.09999 18.58L8.17999 17.54L6.69999 17.34Z" fill="#232842"/>
<path d="M10.7 25.34L10.04 24L9.35999 25.34L7.89999 25.54L8.95999 26.58L8.73999 28L10.04 27.34L11.34 28L11.1 26.58L12.18 25.54L10.7 25.34Z" fill="#232842"/>
</g>
<defs>
<clipPath id="clip0_857_877">
<rect width="28" height="28" fill="white"/>
</clipPath>
</defs>
</svg>
