<svg width="28" height="28" viewBox="0 0 28 28" fill="none" xmlns="http://www.w3.org/2000/svg">
<g clip-path="url(#clip0_858_959)">
<path d="M6.01333 1.53338L5.70667 0.213379L4 3.22671H5.65333L5.56 3.73338H6.45333L6.34667 3.22671H8L6.26667 0.213379L6.01333 1.53338Z" fill="#232842"/>
<path d="M6.01333 5.53338L5.70667 4.21338L4 7.22671H5.65333L5.56 7.73338H6.45333L6.34667 7.22671H8L6.26667 4.21338L6.01333 5.53338Z" fill="#232842"/>
<path d="M2.01333 5.53338L1.70667 4.21338L0 7.22671H1.65333L1.56 7.73338H2.45333L2.34667 7.22671H4L2.26667 4.21338L2.01333 5.53338Z" fill="#232842"/>
<path d="M2.01333 13.5334L1.70667 12.2134L0 15.2267H1.65333L1.56 15.7334H2.45333L2.34667 15.2267H4L2.26667 12.2134L2.01333 13.5334Z" fill="#232842"/>
<path d="M2.01333 21.5334L1.70667 20.2134L0 23.2267H1.65333L1.56 23.7334H2.45333L2.34667 23.2267H4L2.26667 20.2134L2.01333 21.5334Z" fill="#232842"/>
<path d="M6.01333 21.5334L5.70667 20.2134L4 23.2267H5.65333L5.56 23.7334H6.45333L6.34667 23.2267H8L6.26667 20.2134L6.01333 21.5334Z" fill="#232842"/>
<path d="M10.0133 21.5334L9.70667 20.2134L8 23.2267H9.65333L9.56 23.7334H10.4533L10.3467 23.2267H12L10.2667 20.2134L10.0133 21.5334Z" fill="#232842"/>
<path d="M10.0133 13.5334L9.70667 12.2134L8 15.2267H9.65333L9.56 15.7334H10.4533L10.3467 15.2267H12L10.2667 12.2134L10.0133 13.5334Z" fill="#232842"/>
<path d="M6.01333 17.5334L5.70667 16.2134L4 19.2267H5.65333L5.56 19.7334H6.45333L6.34667 19.2267H8L6.26667 16.2134L6.01333 17.5334Z" fill="#232842"/>
<path d="M2.01333 25.5334L1.70667 24.2134L0 27.2267H1.65333L1.56 27.7334H2.45333L2.34667 27.2267H4L2.26667 24.2134L2.01333 25.5334Z" fill="#232842"/>
<path d="M10.0133 25.5334L9.70667 24.2134L8 27.2267H9.65333L9.56 27.7334H10.4533L10.3467 27.2267H12L10.2667 24.2134L10.0133 25.5334Z" fill="#232842"/>
<path d="M18.0133 25.5334L17.7067 24.2134L16 27.2267H17.6533L17.56 27.7334H18.4533L18.3467 27.2267H20L18.2667 24.2134L18.0133 25.5334Z" fill="#232842"/>
<path d="M26.0133 25.5334L25.7067 24.2134L24 27.2267H25.6533L25.56 27.7334H26.4533L26.3467 27.2267H28L26.2667 24.2134L26.0133 25.5334Z" fill="#232842"/>
<path d="M26.0133 21.5334L25.7067 20.2134L24 23.2267H25.6533L25.56 23.7334H26.4533L26.3467 23.2267H28L26.2667 20.2134L26.0133 21.5334Z" fill="#232842"/>
<path d="M26.0133 17.5334L25.7067 16.2134L24 19.2267H25.6533L25.56 19.7334H26.4533L26.3467 19.2267H28L26.2667 16.2134L26.0133 17.5334Z" fill="#232842"/>
<path d="M26.0133 13.5334L25.7067 12.2134L24 15.2267H25.6533L25.56 15.7334H26.4533L26.3467 15.2267H28L26.2667 12.2134L26.0133 13.5334Z" fill="#232842"/>
<path d="M26.0133 9.53338L25.7067 8.21338L24 11.2267H25.6533L25.56 11.7334H26.4533L26.3467 11.2267H28L26.2667 8.21338L26.0133 9.53338Z" fill="#232842"/>
<path d="M26.0133 5.53338L25.7067 4.21338L24 7.22671H25.6533L25.56 7.73338H26.4533L26.3467 7.22671H28L26.2667 4.21338L26.0133 5.53338Z" fill="#232842"/>
<path d="M26.0133 1.53338L25.7067 0.213379L24 3.22671H25.6533L25.56 3.73338H26.4533L26.3467 3.22671H28L26.2667 0.213379L26.0133 1.53338Z" fill="#232842"/>
<path d="M18.0133 5.53338L17.7067 4.21338L16 7.22671H17.6533L17.56 7.73338H18.4533L18.3467 7.22671H20L18.2667 4.21338L18.0133 5.53338Z" fill="#232842"/>
<path d="M10.0133 9.53338L9.70667 8.21338L8 11.2267H9.65333L9.56 11.7334H10.4533L10.3467 11.2267H12L10.2667 8.21338L10.0133 9.53338Z" fill="#232842"/>
<path d="M14.0133 9.53338L13.7067 8.21338L12 11.2267H13.6533L13.56 11.7334H14.4533L14.3467 11.2267H16L14.2667 8.21338L14.0133 9.53338Z" fill="#232842"/>
<path d="M18.0133 9.53338L17.7067 8.21338L16 11.2267H17.6533L17.56 11.7334H18.4533L18.3467 11.2267H20L18.2667 8.21338L18.0133 9.53338Z" fill="#232842"/>
<path d="M22.0133 9.53338L21.7067 8.21338L20 11.2267H21.6533L21.56 11.7334H22.4533L22.3467 11.2267H24L22.2667 8.21338L22.0133 9.53338Z" fill="#232842"/>
<path d="M22.0133 13.5334L21.7067 12.2134L20 15.2267H21.6533L21.56 15.7334H22.4533L22.3467 15.2267H24L22.2667 12.2134L22.0133 13.5334Z" fill="#232842"/>
</g>
<defs>
<clipPath id="clip0_858_959">
<rect width="28" height="28" fill="white"/>
</clipPath>
</defs>
</svg>
