<svg width="28" height="28" viewBox="0 0 28 28" fill="none" xmlns="http://www.w3.org/2000/svg">
<g clip-path="url(#clip0_857_451)">
<path d="M4 4H8L6 0L4 4Z" fill="#232842"/>
<path d="M4 8H8L6 4L4 8Z" fill="#232842"/>
<path d="M4 20H8L6 16L4 20Z" fill="#232842"/>
<path d="M4 24H8L6 20L4 24Z" fill="#232842"/>
<path d="M8 24H12L10 20L8 24Z" fill="#232842"/>
<path d="M8 28H12L10 24L8 28Z" fill="#232842"/>
<path d="M8 16H12L10 12L8 16Z" fill="#232842"/>
<path d="M8 12H12L10 8L8 12Z" fill="#232842"/>
<path d="M12 12H16L14 8L12 12Z" fill="#232842"/>
<path d="M16 12H20L18 8L16 12Z" fill="#232842"/>
<path d="M16 8H20L18 4L16 8Z" fill="#232842"/>
<path d="M20 12H24L22 8L20 12Z" fill="#232842"/>
<path d="M24 12H28L26 8L24 12Z" fill="#232842"/>
<path d="M24 8H28L26 4L24 8Z" fill="#232842"/>
<path d="M24 4H28L26 0L24 4Z" fill="#232842"/>
<path d="M24 16H28L26 12L24 16Z" fill="#232842"/>
<path d="M20 16H24L22 12L20 16Z" fill="#232842"/>
<path d="M24 20H28L26 16L24 20Z" fill="#232842"/>
<path d="M24 24H28L26 20L24 24Z" fill="#232842"/>
<path d="M24 28H28L26 24L24 28Z" fill="#232842"/>
<path d="M16 28H20L18 24L16 28Z" fill="#232842"/>
<path d="M0 8H4L2 4L0 8Z" fill="#232842"/>
<path d="M0 16H4L2 12L0 16Z" fill="#232842"/>
<path d="M0 24H4L2 20L0 24Z" fill="#232842"/>
<path d="M0 28H4L2 24L0 28Z" fill="#232842"/>
</g>
<defs>
<clipPath id="clip0_857_451">
<rect width="28" height="28" fill="white"/>
</clipPath>
</defs>
</svg>
