<svg width="28" height="28" viewBox="0 0 28 28" fill="none" xmlns="http://www.w3.org/2000/svg">
<g clip-path="url(#clip0_857_614)">
<path d="M0.200001 5.99995C0.200001 6.99406 1.00589 7.79995 2 7.79995C2.99411 7.79995 3.8 6.99406 3.8 5.99995C3.8 5.00584 2.99411 4.19995 2 4.19995C1.00589 4.19995 0.200001 5.00584 0.200001 5.99995Z" fill="#232842"/>
<path d="M0.200001 14C0.200001 14.9941 1.00589 15.8 2 15.8C2.99411 15.8 3.8 14.9941 3.8 14C3.8 13.0058 2.99411 12.2 2 12.2C1.00589 12.2 0.200001 13.0058 0.200001 14Z" fill="#232842"/>
<path d="M12.2 9.99995C12.2 10.9941 13.0059 11.8 14 11.8C14.9941 11.8 15.8 10.9941 15.8 9.99995C15.8 9.00584 14.9941 8.19995 14 8.19995C13.0059 8.19995 12.2 9.00584 12.2 9.99995Z" fill="#232842"/>
<path d="M16.2 26C16.2 26.9941 17.0059 27.8 18 27.8C18.9941 27.8 19.8 26.9941 19.8 26C19.8 25.0058 18.9941 24.2 18 24.2C17.0059 24.2 16.2 25.0058 16.2 26Z" fill="#232842"/>
<path d="M3.8 25.7999V22.1999C3.8 21.2058 2.99411 20.3999 2 20.3999C1.00589 20.3999 0.200001 21.2058 0.200001 22.1999V25.7999C0.200001 26.794 1.00589 27.5999 2 27.5999C2.99411 27.5999 3.8 26.794 3.8 25.7999Z" fill="#232842"/>
<path d="M11.8 14V9.99995C11.8 9.00584 10.9941 8.19995 10 8.19995C9.00588 8.19995 8.2 9.00584 8.2 9.99995V14C8.2 14.9941 9.00588 15.8 10 15.8C10.9941 15.8 11.8 14.9941 11.8 14Z" fill="#232842"/>
<path d="M7.8 22V18C7.8 17.0058 6.99411 16.2 6 16.2C5.00589 16.2 4.2 17.0058 4.2 17.9999V22C4.2 22.9941 5.00589 23.8 6 23.8C6.99411 23.8 7.8 22.9941 7.8 22Z" fill="#232842"/>
<path d="M19.8 9.99995V5.99995C19.8 5.00584 18.9941 4.19995 18 4.19995C17.0059 4.19995 16.2 5.00584 16.2 5.99995V9.99995C16.2 10.9941 17.0059 11.8 18 11.8C18.9941 11.8 19.8 10.9941 19.8 9.99995Z" fill="#232842"/>
<path d="M23.8 14V9.99995C23.8 9.00584 22.9941 8.19995 22 8.19995C21.0059 8.19995 20.2 9.00584 20.2 9.99995V14C20.2 14.9941 21.0059 15.8 22 15.8C22.9941 15.8 23.8 14.9941 23.8 14Z" fill="#232842"/>
<path d="M27.8 26V1.99995C27.8 1.00584 26.9941 0.199951 26 0.199951C25.0059 0.199951 24.2 1.00584 24.2 1.99995V26C24.2 26.9941 25.0059 27.8 26 27.8C26.9941 27.8 27.8 26.9941 27.8 26Z" fill="#232842"/>
<path d="M11.8 25.7999V22.1999C11.8 21.2058 10.9941 20.3999 10 20.3999C9.00588 20.3999 8.2 21.2058 8.2 22.1999V25.7999C8.2 26.794 9.00588 27.5999 10 27.5999C10.9941 27.5999 11.8 26.794 11.8 25.7999Z" fill="#232842"/>
<path d="M7.8 5.7999V2.1999C7.8 1.20579 6.99411 0.399902 6 0.399902C5.00589 0.399902 4.2 1.20579 4.2 2.1999V5.7999C4.2 6.79401 5.00589 7.5999 6 7.5999C6.99411 7.5999 7.8 6.79401 7.8 5.7999Z" fill="#232842"/>
</g>
<defs>
<clipPath id="clip0_857_614">
<rect width="28" height="28" fill="white"/>
</clipPath>
</defs>
</svg>
