<svg width="24" height="24" viewBox="0 0 24 24" fill="none" xmlns="http://www.w3.org/2000/svg">
<path d="M0 3.75C0 1.67893 1.67893 0 3.75 0H20.25C22.3211 0 24 1.67893 24 3.75V20.25C24 22.3211 22.3211 24 20.25 24H3.75C1.67893 24 0 22.3211 0 20.25V3.75Z" fill="#000B1D"/>
<path d="M13.6618 11.433L14.6433 11.4619L14.6542 16.6339C14.6542 16.7175 14.6912 16.7593 14.7657 16.7593H16.3517C16.4076 16.7593 16.4423 16.7453 16.4563 16.7175C16.4696 16.6916 16.4767 16.663 16.4771 16.6339L16.4662 11.462H17.8275C17.9111 11.462 17.9529 11.4295 17.9529 11.3644V10.1382C17.9549 10.1088 17.9476 10.0795 17.9319 10.0546C17.9179 10.036 17.883 10.0267 17.8275 10.0267H16.4662V9.46962C16.4584 9.25916 16.4891 9.04905 16.5568 8.84963C16.6057 8.70964 16.705 8.5929 16.8354 8.52217C17.0117 8.45488 17.1993 8.42179 17.3881 8.42464H17.5969C17.6712 8.42464 17.8233 8.42942 17.8884 8.43861C17.9628 8.45725 18 8.43402 18 8.36893V6.98959C18.0007 6.95899 17.9916 6.92896 17.974 6.9039C17.9565 6.87884 17.9313 6.86006 17.9023 6.85031C17.771 6.81112 17.636 6.78543 17.4995 6.77364C17.3653 6.75904 17.2304 6.75207 17.0954 6.75277C16.6137 6.72925 16.1366 6.85581 15.73 7.11498C15.3895 7.35278 15.116 7.67426 14.9359 8.04845C14.8304 8.27197 14.7554 8.50863 14.7128 8.7521C14.6645 9.16609 14.6413 9.58263 14.6433 9.99942V10.0267L13.6618 10.016C13.6485 10.0141 13.635 10.0153 13.6223 10.0195C13.6096 10.0238 13.5981 10.0309 13.5886 10.0404C13.5791 10.0498 13.572 10.0613 13.5677 10.074C13.5635 10.0867 13.5623 10.1002 13.5641 10.1135V11.3355C13.5641 11.3912 13.5967 11.4238 13.6618 11.433Z" fill="white"/>
<path fill-rule="evenodd" clip-rule="evenodd" d="M6 7.69316V16.596C6 16.6703 6.03254 16.7074 6.09764 16.7074H7.72816C7.74519 16.7098 7.76255 16.7083 7.77886 16.7028C7.79518 16.6974 7.81001 16.6882 7.82217 16.676C7.83433 16.6639 7.8435 16.6491 7.84895 16.6327C7.85439 16.6164 7.85597 16.5991 7.85355 16.582V13.8373C8.02067 13.8374 8.14607 13.8397 8.22972 13.8443C8.31307 13.849 8.45698 13.8513 8.66143 13.8513C9.32601 13.86 9.98672 13.749 10.612 13.5238C11.1731 13.324 11.6593 12.9568 12.0052 12.472C12.3666 11.9286 12.547 11.2849 12.5207 10.6329C12.522 10.2505 12.456 9.87086 12.3258 9.51131C12.188 9.14193 11.9717 8.80683 11.6919 8.52912C11.3617 8.20875 10.9642 7.96601 10.5284 7.81857C9.95373 7.62786 9.35036 7.53828 8.74509 7.55381C8.48511 7.55387 8.22273 7.5562 7.95797 7.56079C7.69322 7.56551 7.44244 7.57017 7.20562 7.57476C6.96862 7.57942 6.74799 7.58405 6.54372 7.58865C6.33926 7.59343 6.23202 7.59563 6.08366 7.59563C6.02795 7.59563 6 7.62825 6 7.69316ZM7.85356 12.1515V9.26748C7.91828 9.25835 8.0367 9.2514 8.2088 9.24662C8.38065 9.24196 8.578 9.23963 8.80084 9.23963C9.14815 9.22865 9.49411 9.28791 9.81797 9.41384C10.066 9.51256 10.2776 9.68525 10.424 9.90843C10.5633 10.1392 10.6334 10.4052 10.626 10.6747C10.6453 10.9948 10.5489 11.3113 10.3545 11.5663C10.1665 11.7846 9.91976 11.9442 9.64365 12.0262C9.3207 12.1234 8.98471 12.1704 8.64748 12.1654H8.18782C8.08559 12.1655 7.97417 12.1608 7.85356 12.1515Z" fill="white"/>
</svg>
