<svg width="24" height="24" viewBox="0 0 24 24" fill="none" xmlns="http://www.w3.org/2000/svg">
<g clip-path="url(#clip0_502_3)">
<path d="M19.0496 0.133423H4.92061C2.27438 0.133423 0.131836 2.27569 0.131836 4.92192V19.054C0.131836 21.6973 2.27438 23.8396 4.92061 23.8396H19.0527C21.6958 23.8396 23.8412 21.6973 23.8412 19.0511V4.92192C23.8383 2.27569 21.6958 0.133423 19.0496 0.133423Z" fill="url(#paint0_linear_502_3)"/>
<path d="M11.8844 5.57968L12.3643 4.74986C12.6607 4.23141 13.3214 4.05649 13.8401 4.35286C14.3588 4.64922 14.5335 5.30992 14.2371 5.82863L9.61143 13.8355H12.9571C14.0417 13.8355 14.6491 15.1098 14.1779 15.9928H4.36928C3.77075 15.9928 3.29077 15.5128 3.29077 14.914C3.29077 14.3152 3.77075 13.8355 4.36928 13.8355H7.11931L10.6396 7.73407L9.5403 5.82573C9.24393 5.30702 9.41885 4.65238 9.9373 4.34996C10.456 4.05359 11.1106 4.22851 11.4131 4.74696L11.8844 5.57968ZM7.7239 17.104L6.68674 18.9027C6.39038 19.4214 5.72968 19.5961 5.21097 19.2997C4.69226 19.0034 4.5176 18.3427 4.81397 17.824L5.58452 16.4904C6.45571 16.221 7.16383 16.4285 7.7239 17.104ZM16.6552 13.8416H19.4614C20.0599 13.8416 20.5401 14.3216 20.5401 14.9204C20.5401 15.5189 20.0601 15.9991 19.4614 15.9991H17.9026L18.9545 17.8245C19.2509 18.3429 19.0759 18.9978 18.5575 19.3003C18.0391 19.5966 17.3841 19.4217 17.0817 18.9033C15.3098 15.8297 13.9795 13.5302 13.0964 11.9983C12.1926 10.4396 12.8385 8.87501 13.4758 8.34445C14.1839 9.55942 15.2419 11.3937 16.6552 13.8416Z" fill="white"/>
</g>
<defs>
<linearGradient id="paint0_linear_502_3" x1="11.9939" y1="0.130025" x2="11.9939" y2="23.8393" gradientUnits="userSpaceOnUse">
<stop stop-color="#0ED4FC"/>
<stop offset="1" stop-color="#0C57EF"/>
</linearGradient>
<clipPath id="clip0_502_3">
<rect width="24" height="24" fill="white"/>
</clipPath>
</defs>
</svg>
