<svg width="24" height="24" viewBox="0 0 24 24" fill="none" xmlns="http://www.w3.org/2000/svg">
<g clip-path="url(#clip0_513_36)">
<path d="M20.2389 24H3.76107C1.684 24 0 22.316 0 20.2389V3.76107C0 1.684 1.684 0 3.76107 0H20.2387C22.316 0 24 1.684 24 3.76107V20.2387C24 22.316 22.316 24 20.2389 24Z" fill="url(#paint0_linear_513_36)"/>
<path d="M20.8768 13.0595C20.8461 13.0595 20.8184 13.0792 20.804 13.1208C20.6195 13.6475 20.3701 13.9608 20.1648 13.9608C20.0469 13.9608 19.9992 13.8293 19.9992 13.6232C19.9992 13.1075 20.308 12.0136 20.4637 11.5149C20.4819 11.4547 20.4933 11.4005 20.4933 11.3547C20.4933 11.2096 20.4141 11.1387 20.2179 11.1387C20.0064 11.1387 19.7787 11.2216 19.5571 11.6096C19.4805 11.2675 19.2493 11.1181 18.9261 11.1181C18.5525 11.1181 18.1915 11.3584 17.8944 11.7483C17.5973 12.1381 17.248 12.2659 16.9853 12.2029C17.1744 11.7403 17.2445 11.3947 17.2445 11.1381C17.2445 10.7357 17.0456 10.4928 16.7243 10.4928C16.2355 10.4928 15.9536 10.9592 15.9536 11.4496C15.9536 11.8285 16.1256 12.2184 16.5037 12.4075C16.1869 13.124 15.7243 13.772 15.5485 13.772C15.3216 13.772 15.2552 12.6621 15.2677 11.868C15.2757 11.4125 15.3136 11.3891 15.3136 11.2515C15.3136 11.1723 15.2624 11.1181 15.0563 11.1181C14.5755 11.1181 14.4269 11.5251 14.4045 11.9923C14.3973 12.1699 14.3696 12.3459 14.3216 12.5171C14.1208 13.2336 13.7067 13.7773 13.4368 13.7773C13.3117 13.7773 13.2776 13.6523 13.2776 13.4883C13.2776 12.9725 13.5667 12.328 13.5667 11.7779C13.5667 11.3736 13.3893 11.1181 13.0555 11.1181C12.6621 11.1181 12.1419 11.5861 11.6493 12.4629C11.8115 11.7915 11.8779 11.1413 11.3981 11.1413C11.2941 11.1429 11.1917 11.1693 11.1003 11.2187C11.0373 11.248 10.9987 11.3131 11.0029 11.3824C11.0488 12.0971 10.4269 13.928 9.83706 13.928C9.72986 13.928 9.67786 13.812 9.67786 13.6245C9.67786 13.1077 9.98559 12.0168 10.1405 11.5173C10.1603 11.4525 10.1712 11.3968 10.1712 11.348C10.1712 11.2112 10.0867 11.1411 9.89492 11.1411C9.68426 11.1411 9.45572 11.2211 9.23519 11.6091C9.15786 11.2669 8.92639 11.1176 8.60319 11.1176C8.07306 11.1176 7.48079 11.6784 7.22052 12.4093C6.87226 13.3851 6.17012 14.3277 5.22479 14.3277C4.36692 14.3277 3.91412 13.6139 3.91412 12.4859C3.91412 10.8573 5.10959 9.52693 5.99626 9.52693C6.42026 9.52693 6.62266 9.79706 6.62266 10.2112C6.62266 10.7125 6.34266 10.9459 6.34266 11.1365C6.34266 11.1949 6.39119 11.2525 6.48772 11.2525C6.87306 11.2525 7.32666 10.7997 7.32666 10.1821C7.32666 9.56453 6.82532 9.11279 5.93866 9.11279C4.47306 9.11279 2.99866 10.5872 2.99866 12.4768C2.99866 13.98 3.74052 14.8867 5.02319 14.8867C5.89812 14.8867 6.66239 14.2061 7.07466 13.4123C7.12159 14.0704 7.42026 14.4141 7.87572 14.4141C8.28079 14.4141 8.60852 14.1728 8.85866 13.7488C8.95492 14.1925 9.21066 14.4096 9.54292 14.4096C9.92372 14.4096 10.2424 14.1683 10.5456 13.72C10.5411 14.072 10.6213 14.4032 10.9264 14.4032C11.0704 14.4032 11.2424 14.3699 11.2731 14.2437C11.5944 12.9152 12.3883 11.8304 12.6315 11.8304C12.7035 11.8304 12.7232 11.8997 12.7232 11.9816C12.7232 12.3427 12.4685 13.0824 12.4685 13.5552C12.4685 14.0656 12.6856 14.4032 13.1339 14.4032C13.6307 14.4032 14.1357 13.7947 14.4725 12.9053C14.5779 13.7363 14.8056 14.4069 15.1621 14.4069C15.5997 14.4069 16.3765 13.4861 16.8472 12.5112C17.0317 12.5347 17.3091 12.5283 17.5755 12.3403C17.4621 12.6275 17.3955 12.9416 17.3955 13.2557C17.3955 14.1605 17.8275 14.4141 18.1995 14.4141C18.6037 14.4141 18.9312 14.1728 19.1824 13.7488C19.2653 14.1315 19.4768 14.4085 19.8656 14.4085C20.4741 14.4085 21.0024 13.7864 21.0024 13.276C21.0019 13.1413 20.9443 13.0595 20.8768 13.0595ZM8.24612 13.9128C8.00026 13.9128 7.90399 13.6653 7.90399 13.2963C7.90399 12.6552 8.34239 11.5851 8.80586 11.5851C9.00852 11.5851 9.08479 11.8237 9.08479 12.1152C9.08532 12.7661 8.66852 13.9128 8.24612 13.9128ZM16.6637 12C16.5171 11.8253 16.464 11.5877 16.464 11.3763C16.464 11.1152 16.5595 10.8947 16.6736 10.8947C16.7877 10.8947 16.8229 11.0072 16.8229 11.1637C16.8232 11.4256 16.7296 11.8083 16.6637 12ZM18.5696 13.9128C18.3237 13.9128 18.2275 13.6283 18.2275 13.2963C18.2275 12.6779 18.6659 11.5851 19.1331 11.5851C19.3357 11.5851 19.4077 11.8219 19.4077 12.1152C19.4075 12.7661 18.9979 13.9128 18.5696 13.9128Z" fill="white"/>
</g>
<defs>
<linearGradient id="paint0_linear_513_36" x1="6.22221" y1="4.47891" x2="20.073" y2="22.5087" gradientUnits="userSpaceOnUse">
<stop stop-color="#09B6D1"/>
<stop offset="0.9325" stop-color="#7435E6"/>
<stop offset="1" stop-color="#7C2CE7"/>
</linearGradient>
<clipPath id="clip0_513_36">
<rect width="24" height="24" rx="6" fill="white"/>
</clipPath>
</defs>
</svg>
