<svg width="24" height="24" viewBox="0 0 24 24" fill="none" xmlns="http://www.w3.org/2000/svg">
<g clip-path="url(#clip0_1250_48)">
<path d="M17.9572 0H6.0428C2.70545 0 0 2.70545 0 6.0428V17.9572C0 21.2945 2.70545 24 6.0428 24H17.9572C21.2945 24 24 21.2945 24 17.9572V6.0428C24 2.70545 21.2945 0 17.9572 0Z" fill="url(#paint0_linear_1250_48)"/>
<path opacity="0.3" fill-rule="evenodd" clip-rule="evenodd" d="M8.56943 4C8.285 4 8.01225 4.11298 7.81115 4.31408C7.61005 4.51519 7.49707 4.78793 7.49707 5.07233V19.2211C7.49707 19.5055 7.61005 19.7783 7.81115 19.9794C8.01225 20.1805 8.285 20.2935 8.56943 20.2935H15.4313C15.7155 20.2933 15.9881 20.1802 16.189 19.9791C16.39 19.778 16.5029 19.5054 16.5029 19.2211V5.07233C16.5029 4.78806 16.39 4.51541 16.189 4.31432C15.9881 4.11324 15.7155 4.00019 15.4313 4H8.56943Z" fill="white"/>
<path d="M9.03703 5.11142C8.79157 5.11142 8.5561 5.20893 8.38252 5.38252C8.20894 5.5561 8.11141 5.79154 8.11141 6.03702V18.2613C8.11141 18.5067 8.20894 18.7422 8.38252 18.9157C8.5561 19.0893 8.79157 19.1869 9.03703 19.1869H14.963C15.2084 19.1869 15.4439 19.0893 15.6175 18.9157C15.7911 18.7422 15.8886 18.5067 15.8886 18.2613V6.03702C15.8886 5.79154 15.7911 5.5561 15.6175 5.38252C15.4439 5.20893 15.2084 5.11142 14.963 5.11142H9.03703ZM9.03703 4H14.963C15.5033 4 16.0213 4.21462 16.4034 4.59663C16.7854 4.97865 17 5.49677 17 6.03702V18.2613C17 18.8015 16.7854 19.3196 16.4034 19.7016C16.0213 20.0836 15.5033 20.2983 14.963 20.2983H9.03703C8.49678 20.2983 7.97865 20.0836 7.59663 19.7016C7.21462 19.3196 7 18.8015 7 18.2613V6.03702C7 5.49677 7.21462 4.97865 7.59663 4.59663C7.97865 4.21462 8.49678 4 9.03703 4ZM10.1484 4.55536H13.8509C13.9491 4.55536 14.0433 4.59438 14.1127 4.66381C14.1821 4.73325 14.2211 4.82742 14.2211 4.92561V5.66609C14.2211 5.76429 14.1821 5.85846 14.1127 5.9279C14.0433 5.99733 13.9491 6.03634 13.8509 6.03634H10.1484C10.0503 6.03634 9.95606 5.99733 9.88667 5.9279C9.81721 5.85846 9.7782 5.76429 9.7782 5.66609V4.92561C9.7782 4.82742 9.81721 4.73325 9.88667 4.66381C9.95606 4.59438 10.0503 4.55536 10.1484 4.55536Z" fill="white"/>
</g>
<defs>
<linearGradient id="paint0_linear_1250_48" x1="12" y1="24" x2="12" y2="4.57763e-05" gradientUnits="userSpaceOnUse">
<stop stop-color="#25CF43"/>
<stop offset="1" stop-color="#61FD7D"/>
</linearGradient>
<clipPath id="clip0_1250_48">
<rect width="24" height="24" fill="white"/>
</clipPath>
</defs>
</svg>
