<svg width="24" height="24" viewBox="0 0 24 24" fill="none" xmlns="http://www.w3.org/2000/svg">
<path d="M20.25 0H3.75C1.67893 0 0 1.67893 0 3.75V20.25C0 22.3211 1.67893 24 3.75 24H20.25C22.3211 24 24 22.3211 24 20.25V3.75C24 1.67893 22.3211 0 20.25 0Z" fill="#0061FF"/>
<path d="M12 8.82182L9 10.7316L12 12.6414L9 14.5513L6 12.6414L9 10.7316L6 8.82182L9 6.912L12 8.82182ZM8.99204 15.1879L11.992 13.278L14.992 15.1879L11.992 17.0977L8.99204 15.1879ZM12 12.6414L15 10.7316L12 8.82182L15 6.912L18 8.82182L15 10.7316L18 12.6414L15 14.5513L12 12.6414Z" fill="white"/>
</svg>
