<svg width="24" height="24" viewBox="0 0 24 24" fill="none" xmlns="http://www.w3.org/2000/svg">
<rect width="24" height="24" rx="6" fill="url(#paint0_linear_544_465)"/>
<path d="M12 20C14.1217 20 16.1566 19.1571 17.6569 17.6569C19.1571 16.1566 20 14.1217 20 12C20 9.87827 19.1571 7.84344 17.6569 6.34315C16.1566 4.84285 14.1217 4 12 4C9.87827 4 7.84344 4.84285 6.34315 6.34315C4.84285 7.84344 4 9.87827 4 12C4 14.1217 4.84285 16.1566 6.34315 17.6569C7.84344 19.1571 9.87827 20 12 20ZM12 9.5C11.4469 9.5 11 9.94688 11 10.5C11 10.9156 10.6656 11.25 10.25 11.25C9.83438 11.25 9.5 10.9156 9.5 10.5C9.5 9.11875 10.6188 8 12 8C13.3813 8 14.5 9.11875 14.5 10.5C14.5 11.975 13.375 12.6 12.75 12.8281V12.9469C12.75 13.3625 12.4156 13.6969 12 13.6969C11.5844 13.6969 11.25 13.3625 11.25 12.9469V12.6938C11.25 12.0531 11.7125 11.5938 12.1906 11.4375C12.3906 11.3719 12.6031 11.2656 12.7594 11.1156C12.8937 10.9844 13 10.8031 13 10.5031C13 9.95 12.5531 9.50313 12 9.50313V9.5ZM11 15.5C11 15.2348 11.1054 14.9804 11.2929 14.7929C11.4804 14.6054 11.7348 14.5 12 14.5C12.2652 14.5 12.5196 14.6054 12.7071 14.7929C12.8946 14.9804 13 15.2348 13 15.5C13 15.7652 12.8946 16.0196 12.7071 16.2071C12.5196 16.3946 12.2652 16.5 12 16.5C11.7348 16.5 11.4804 16.3946 11.2929 16.2071C11.1054 16.0196 11 15.7652 11 15.5Z" fill="white"/>
<defs>
<linearGradient id="paint0_linear_544_465" x1="2" y1="2" x2="22" y2="22" gradientUnits="userSpaceOnUse">
<stop stop-color="#C389FF"/>
<stop offset="1" stop-color="#4488FF"/>
</linearGradient>
</defs>
</svg>
