<svg width="24" height="24" viewBox="0 0 24 24" fill="none" xmlns="http://www.w3.org/2000/svg">
<rect width="24" height="24" rx="6" fill="url(#paint0_linear_518_1514)"/>
<path d="M19.9066 13.918C19.8132 13.5867 19.6482 13.2759 19.4212 13.0043C19.1942 12.7326 18.91 12.5056 18.5853 12.3367L17.9432 12.0033L18.5861 11.6667C18.9107 11.4978 19.1949 11.2708 19.4218 10.9991C19.6486 10.7275 19.8135 10.4167 19.9066 10.0853C20.0037 9.74443 20.0248 9.38908 19.9687 9.04052C19.9126 8.69196 19.7804 8.35734 19.5801 8.05667C19.3189 7.65753 18.9557 7.3227 18.5218 7.0811C18.0879 6.8395 17.5963 6.69841 17.0896 6.67C16.5651 6.65396 16.046 6.77166 15.5902 7.01L14.9081 7.36733V6.66667C14.9081 5.95942 14.6016 5.28115 14.0562 4.78105C13.5107 4.28095 12.7709 4 11.9995 4C11.228 4 10.4882 4.28095 9.94274 4.78105C9.39726 5.28115 9.09082 5.95942 9.09082 6.66667V7.36733L8.40802 7.01C7.95677 6.77289 7.44309 6.65411 6.92316 6.66667C6.41339 6.69467 5.91872 6.83605 5.48189 7.07857C5.04506 7.3211 4.6792 7.65748 4.41592 8.05867C4.21678 8.35881 4.08557 8.69263 4.0301 9.04024C3.97464 9.38785 3.99605 9.74214 4.09306 10.082C4.18588 10.414 4.35071 10.7254 4.57772 10.9976C4.80473 11.2699 5.08925 11.4975 5.41431 11.6667L6.05639 12L5.41358 12.3367C5.08895 12.5056 4.8047 12.7326 4.57772 13.0043C4.35074 13.2759 4.18567 13.5867 4.09233 13.918C3.99556 14.2586 3.97459 14.6136 4.03068 14.9618C4.08678 15.31 4.21878 15.6443 4.41883 15.9447C4.70034 16.3738 5.10001 16.7275 5.57774 16.9703C6.05546 17.2132 6.59444 17.3365 7.14058 17.328C7.58646 17.3086 8.02101 17.1928 8.40874 16.99L9.09082 16.6327V17.3333C9.09082 18.0406 9.39726 18.7189 9.94274 19.219C10.4882 19.719 11.228 20 11.9995 20C12.7709 20 13.5107 19.719 14.0562 19.219C14.6016 18.7189 14.9081 18.0406 14.9081 17.3333V16.6327L15.5909 16.99C16.0462 17.2294 16.565 17.3482 17.0896 17.3333C17.5967 17.3038 18.0886 17.1621 18.5229 16.9203C18.9573 16.6784 19.3213 16.3437 19.5837 15.9447C19.7832 15.644 19.9145 15.3096 19.97 14.9614C20.0255 14.6133 20.0039 14.2584 19.9066 13.918V13.918ZM17.6597 14.9907C17.5626 15.1414 17.4065 15.2525 17.2231 15.3014C17.0397 15.3502 16.8429 15.333 16.6729 15.2533L14.3584 14.042C14.1924 13.9551 14.0046 13.9097 13.8135 13.9103C13.6224 13.9109 13.4349 13.9576 13.2696 14.0455C13.1044 14.1335 12.9673 14.2597 12.872 14.4115C12.7767 14.5634 12.7265 14.7355 12.7266 14.9107V17.3333C12.7266 17.5101 12.65 17.6797 12.5136 17.8047C12.3773 17.9298 12.1923 18 11.9995 18C11.8066 18 11.6216 17.9298 11.4853 17.8047C11.3489 17.6797 11.2723 17.5101 11.2723 17.3333V14.9107C11.272 14.7357 11.2216 14.5638 11.1261 14.4122C11.0307 14.2607 10.8935 14.1348 10.7283 14.047C10.5632 13.9593 10.3758 13.9129 10.1849 13.9123C9.994 13.9118 9.8063 13.9572 9.64055 14.044L7.32673 15.2533C7.15575 15.3333 6.95784 15.3503 6.77366 15.3007C6.58948 15.2511 6.433 15.1387 6.33634 14.9867C6.28129 14.9171 6.24174 14.8383 6.21994 14.7548C6.19815 14.6712 6.19454 14.5846 6.20934 14.4997C6.22413 14.4149 6.25703 14.3336 6.30615 14.2604C6.35526 14.1872 6.41964 14.1237 6.49559 14.0733L8.79996 12.8667C8.96713 12.7793 9.1061 12.6529 9.20276 12.5003C9.29943 12.3477 9.35035 12.1744 9.35035 11.998C9.35035 11.8216 9.29943 11.6483 9.20276 11.4957C9.1061 11.3431 8.96713 11.2167 8.79996 11.1293L6.49632 9.92733C6.35533 9.81644 6.26208 9.66311 6.23329 9.49487C6.2045 9.32662 6.24207 9.15447 6.33925 9.00933C6.43631 8.85858 6.59246 8.74746 6.77583 8.69865C6.9592 8.64983 7.15598 8.66701 7.32601 8.74667L9.64055 9.958C9.80646 10.0449 9.99436 10.0903 10.1854 10.0897C10.3765 10.0891 10.564 10.0424 10.7293 9.95446C10.8945 9.8665 11.0316 9.74028 11.1269 9.58845C11.2222 9.43663 11.2724 9.26451 11.2723 9.08933V6.66667C11.2723 6.48986 11.3489 6.32029 11.4853 6.19526C11.6216 6.07024 11.8066 6 11.9995 6C12.1923 6 12.3773 6.07024 12.5136 6.19526C12.65 6.32029 12.7266 6.48986 12.7266 6.66667V9.08933C12.7269 9.26434 12.7773 9.4362 12.8728 9.58776C12.9682 9.73931 13.1054 9.86524 13.2706 9.95296C13.4358 10.0407 13.6231 10.0871 13.814 10.0877C14.0049 10.0882 14.1926 10.0428 14.3584 9.956L16.6722 8.74667C16.8433 8.66664 17.0413 8.64968 17.2256 8.69927C17.4099 8.74886 17.5665 8.86123 17.6633 9.01333C17.7604 9.15765 17.7977 9.32918 17.7683 9.49661C17.739 9.66405 17.6449 9.81621 17.5033 9.92533L15.199 11.1333C15.0318 11.2207 14.8928 11.3471 14.7961 11.4997C14.6995 11.6523 14.6486 11.8256 14.6486 12.002C14.6486 12.1784 14.6995 12.3517 14.7961 12.5043C14.8928 12.6569 15.0318 12.7833 15.199 12.8707L17.5004 14.0747C17.6461 14.1821 17.743 14.3353 17.7725 14.5045C17.8019 14.6738 17.7617 14.847 17.6597 14.9907V14.9907Z" fill="white"/>
<defs>
<linearGradient id="paint0_linear_518_1514" x1="12" y1="24" x2="12" y2="4.57763e-05" gradientUnits="userSpaceOnUse">
<stop stop-color="#25CF43"/>
<stop offset="1" stop-color="#61FD7D"/>
</linearGradient>
</defs>
</svg>
