<svg width="24" height="24" viewBox="0 0 24 24" fill="none" xmlns="http://www.w3.org/2000/svg">
<rect width="24" height="24" rx="6" fill="url(#paint0_linear_546_506)"/>
<path d="M18.061 9.52494L14.475 5.93894C13.8081 5.30257 12.9218 4.94751 12 4.94751C11.0782 4.94751 10.1919 5.30257 9.525 5.93894L5.939 9.52494C5.65774 9.80634 5.49978 10.1879 5.49988 10.5858C5.49997 10.9837 5.65811 11.3652 5.9395 11.6464C6.2209 11.9277 6.6025 12.0857 7.00036 12.0856C7.39822 12.0855 7.77974 11.9273 8.061 11.6459L10.5 9.20694V18.9999C10.5 19.3978 10.658 19.7793 10.9393 20.0606C11.2206 20.3419 11.6022 20.4999 12 20.4999C12.3978 20.4999 12.7794 20.3419 13.0607 20.0606C13.342 19.7793 13.5 19.3978 13.5 18.9999V9.20694L15.939 11.6459C16.0783 11.7853 16.2436 11.8958 16.4256 11.9712C16.6076 12.0467 16.8027 12.0855 16.9997 12.0856C17.1967 12.0856 17.3917 12.0469 17.5738 11.9715C17.7558 11.8962 17.9212 11.7857 18.0605 11.6464C18.1998 11.5072 18.3104 11.3418 18.3858 11.1598C18.4612 10.9779 18.5001 10.7828 18.5001 10.5858C18.5002 10.3888 18.4614 10.1937 18.3861 10.0117C18.3107 9.82967 18.2003 9.66427 18.061 9.52494Z" fill="white"/>
<defs>
<linearGradient id="paint0_linear_546_506" x1="2" y1="2" x2="22" y2="22" gradientUnits="userSpaceOnUse">
<stop stop-color="#C389FF"/>
<stop offset="1" stop-color="#4488FF"/>
</linearGradient>
</defs>
</svg>
