<svg width="24" height="24" viewBox="0 0 24 24" fill="none" xmlns="http://www.w3.org/2000/svg">
<rect width="24" height="24" rx="6" fill="url(#paint0_linear_518_1530)"/>
<path d="M16.3333 7.33333H14.65C14.566 6.42296 14.1453 5.57671 13.4702 4.9602C12.7951 4.34368 11.9142 4.00128 11 4H7.66667C6.69453 4.00106 5.76252 4.38771 5.07511 5.07511C4.38771 5.76252 4.00106 6.69453 4 7.66667L4 16.3333C4.00106 17.3055 4.38771 18.2375 5.07511 18.9249C5.76252 19.6123 6.69453 19.9989 7.66667 20H16.3333C17.3055 19.9989 18.2375 19.6123 18.9249 18.9249C19.6123 18.2375 19.9989 17.3055 20 16.3333V11C19.9989 10.0279 19.6123 9.09585 18.9249 8.40844C18.2375 7.72104 17.3055 7.33439 16.3333 7.33333ZM6 16.3333V7.66667C6 7.22464 6.17559 6.80072 6.48816 6.48816C6.80072 6.17559 7.22464 6 7.66667 6H11C11.442 6 11.866 6.17559 12.1785 6.48816C12.4911 6.80072 12.6667 7.22464 12.6667 7.66667V18H7.66667C7.22464 18 6.80072 17.8244 6.48816 17.5118C6.17559 17.1993 6 16.7754 6 16.3333ZM18 16.3333C18 16.7754 17.8244 17.1993 17.5118 17.5118C17.1993 17.8244 16.7754 18 16.3333 18H14.6667V9.33333H16.3333C16.7754 9.33333 17.1993 9.50893 17.5118 9.82149C17.8244 10.134 18 10.558 18 11V16.3333ZM17.3333 11.6667C17.3333 11.8644 17.2747 12.0578 17.1648 12.2222C17.0549 12.3867 16.8987 12.5149 16.716 12.5905C16.5333 12.6662 16.3322 12.686 16.1382 12.6475C15.9443 12.6089 15.7661 12.5136 15.6262 12.3738C15.4864 12.2339 15.3911 12.0557 15.3525 11.8618C15.314 11.6678 15.3338 11.4667 15.4095 11.284C15.4851 11.1013 15.6133 10.9451 15.7778 10.8352C15.9422 10.7253 16.1356 10.6667 16.3333 10.6667C16.5986 10.6667 16.8529 10.772 17.0404 10.9596C17.228 11.1471 17.3333 11.4015 17.3333 11.6667ZM17.3333 15C17.3333 15.1978 17.2747 15.3911 17.1648 15.5556C17.0549 15.72 16.8987 15.8482 16.716 15.9239C16.5333 15.9996 16.3322 16.0194 16.1382 15.9808C15.9443 15.9422 15.7661 15.847 15.6262 15.7071C15.4864 15.5673 15.3911 15.3891 15.3525 15.1951C15.314 15.0011 15.3338 14.8 15.4095 14.6173C15.4851 14.4346 15.6133 14.2784 15.7778 14.1685C15.9422 14.0586 16.1356 14 16.3333 14C16.5986 14 16.8529 14.1054 17.0404 14.2929C17.228 14.4804 17.3333 14.7348 17.3333 15ZM8.66667 8.33333C8.66667 8.53111 8.60802 8.72445 8.49814 8.8889C8.38825 9.05335 8.23208 9.18153 8.04935 9.25721C7.86662 9.3329 7.66556 9.3527 7.47158 9.31412C7.2776 9.27553 7.09941 9.18029 6.95956 9.04044C6.81971 8.90059 6.72447 8.7224 6.68588 8.52842C6.6473 8.33444 6.6671 8.13338 6.74279 7.95065C6.81847 7.76792 6.94665 7.61175 7.1111 7.50186C7.27555 7.39198 7.46889 7.33333 7.66667 7.33333C7.93188 7.33333 8.18624 7.43869 8.37377 7.62623C8.56131 7.81376 8.66667 8.06812 8.66667 8.33333V8.33333ZM8.66667 11.6667C8.66667 11.8644 8.60802 12.0578 8.49814 12.2222C8.38825 12.3867 8.23208 12.5149 8.04935 12.5905C7.86662 12.6662 7.66556 12.686 7.47158 12.6475C7.2776 12.6089 7.09941 12.5136 6.95956 12.3738C6.81971 12.2339 6.72447 12.0557 6.68588 11.8618C6.6473 11.6678 6.6671 11.4667 6.74279 11.284C6.81847 11.1013 6.94665 10.9451 7.1111 10.8352C7.27555 10.7253 7.46889 10.6667 7.66667 10.6667C7.93188 10.6667 8.18624 10.772 8.37377 10.9596C8.56131 11.1471 8.66667 11.4015 8.66667 11.6667V11.6667ZM12 8.33333C12 8.53111 11.9414 8.72445 11.8315 8.8889C11.7216 9.05335 11.5654 9.18153 11.3827 9.25721C11.2 9.3329 10.9989 9.3527 10.8049 9.31412C10.6109 9.27553 10.4327 9.18029 10.2929 9.04044C10.153 8.90059 10.0578 8.7224 10.0192 8.52842C9.98063 8.33444 10.0004 8.13338 10.0761 7.95065C10.1518 7.76792 10.28 7.61175 10.4444 7.50186C10.6089 7.39198 10.8022 7.33333 11 7.33333C11.2652 7.33333 11.5196 7.43869 11.7071 7.62623C11.8946 7.81376 12 8.06812 12 8.33333ZM12 11.6667C12 11.8644 11.9414 12.0578 11.8315 12.2222C11.7216 12.3867 11.5654 12.5149 11.3827 12.5905C11.2 12.6662 10.9989 12.686 10.8049 12.6475C10.6109 12.6089 10.4327 12.5136 10.2929 12.3738C10.153 12.2339 10.0578 12.0557 10.0192 11.8618C9.98063 11.6678 10.0004 11.4667 10.0761 11.284C10.1518 11.1013 10.28 10.9451 10.4444 10.8352C10.6089 10.7253 10.8022 10.6667 11 10.6667C11.2652 10.6667 11.5196 10.772 11.7071 10.9596C11.8946 11.1471 12 11.4015 12 11.6667ZM8.66667 15C8.66667 15.1978 8.60802 15.3911 8.49814 15.5556C8.38825 15.72 8.23208 15.8482 8.04935 15.9239C7.86662 15.9996 7.66556 16.0194 7.47158 15.9808C7.2776 15.9422 7.09941 15.847 6.95956 15.7071C6.81971 15.5673 6.72447 15.3891 6.68588 15.1951C6.6473 15.0011 6.6671 14.8 6.74279 14.6173C6.81847 14.4346 6.94665 14.2784 7.1111 14.1685C7.27555 14.0586 7.46889 14 7.66667 14C7.93188 14 8.18624 14.1054 8.37377 14.2929C8.56131 14.4804 8.66667 14.7348 8.66667 15V15ZM12 15C12 15.1978 11.9414 15.3911 11.8315 15.5556C11.7216 15.72 11.5654 15.8482 11.3827 15.9239C11.2 15.9996 10.9989 16.0194 10.8049 15.9808C10.6109 15.9422 10.4327 15.847 10.2929 15.7071C10.153 15.5673 10.0578 15.3891 10.0192 15.1951C9.98063 15.0011 10.0004 14.8 10.0761 14.6173C10.1518 14.4346 10.28 14.2784 10.4444 14.1685C10.6089 14.0586 10.8022 14 11 14C11.2652 14 11.5196 14.1054 11.7071 14.2929C11.8946 14.4804 12 14.7348 12 15Z" fill="white"/>
<defs>
<linearGradient id="paint0_linear_518_1530" x1="12" y1="24" x2="12" y2="4.57763e-05" gradientUnits="userSpaceOnUse">
<stop stop-color="#25CF43"/>
<stop offset="1" stop-color="#61FD7D"/>
</linearGradient>
</defs>
</svg>
