<svg width="24" height="24" viewBox="0 0 24 24" fill="none" xmlns="http://www.w3.org/2000/svg">
<rect width="24" height="24" rx="6" fill="url(#paint0_linear_518_1544)"/>
<path d="M17.5645 4.50533C17.3128 4.26242 16.9955 4.09829 16.6517 4.03315C16.3079 3.968 15.9525 4.00468 15.6293 4.13867C15.3409 4.26635 15.0967 4.47624 14.9273 4.74202C14.7579 5.0078 14.6708 5.31764 14.677 5.63267V19C14.677 19.2652 14.7825 19.5196 14.9702 19.7071C15.1579 19.8946 15.4125 20 15.678 20C15.9434 20 16.198 19.8946 16.3858 19.7071C16.5735 19.5196 16.6789 19.2652 16.6789 19V17.3447C20.7589 14.256 21.1099 7.90333 17.5645 4.50533ZM16.6789 14.496V6.496C18.3412 8.424 18.4887 12.4813 16.6789 14.496ZM12.6751 5V9C12.6734 9.97446 12.3433 10.92 11.738 11.6841C11.1326 12.4482 10.2874 12.9864 9.3385 13.212V19C9.3385 19.2652 9.23304 19.5196 9.04532 19.7071C8.8576 19.8946 8.603 20 8.33753 20C8.07206 20 7.81746 19.8946 7.62974 19.7071C7.44202 19.5196 7.33656 19.2652 7.33656 19V13.212C6.38765 12.9864 5.54241 12.4482 4.93711 11.6841C4.3318 10.92 4.00169 9.97446 4 9V5C4 4.73478 4.10546 4.48043 4.29318 4.29289C4.48089 4.10536 4.7355 4 5.00097 4C5.26644 4 5.52104 4.10536 5.70876 4.29289C5.89648 4.48043 6.00194 4.73478 6.00194 5V9C6.00361 9.44005 6.1298 9.87065 6.36596 10.2421C6.60211 10.6136 6.93859 10.9107 7.33656 11.0993V5C7.33656 4.73478 7.44202 4.48043 7.62974 4.29289C7.81746 4.10536 8.07206 4 8.33753 4C8.603 4 8.8576 4.10536 9.04532 4.29289C9.23304 4.48043 9.3385 4.73478 9.3385 5V11.0993C9.73647 10.9107 10.073 10.6136 10.3091 10.2421C10.5453 9.87065 10.6715 9.44005 10.6731 9V5C10.6731 4.73478 10.7786 4.48043 10.9663 4.29289C11.154 4.10536 11.4086 4 11.6741 4C11.9396 4 12.1942 4.10536 12.3819 4.29289C12.5696 4.48043 12.6751 4.73478 12.6751 5V5Z" fill="white"/>
<defs>
<linearGradient id="paint0_linear_518_1544" x1="12" y1="24" x2="12" y2="4.57763e-05" gradientUnits="userSpaceOnUse">
<stop stop-color="#25CF43"/>
<stop offset="1" stop-color="#61FD7D"/>
</linearGradient>
</defs>
</svg>
