<svg width="24" height="24" viewBox="0 0 24 24" fill="none" xmlns="http://www.w3.org/2000/svg">
<rect width="24" height="24" rx="6" fill="url(#paint0_linear_542_449)"/>
<path d="M17.8004 13.36C17.3551 12.9356 16.7636 12.6988 16.1485 12.6988C15.5335 12.6988 14.9419 12.9356 14.4966 13.36L14.2234 13.6273C12.5164 12.8486 11.1497 11.4766 10.3772 9.76616L10.6364 9.50286C11.0668 9.06694 11.3103 8.48029 11.3152 7.86759C11.32 7.25488 11.0859 6.66443 10.6624 6.22173L9.22496 4.67271C8.78461 4.25161 8.20032 4.01433 7.59117 4.00924C6.98202 4.00415 6.39385 4.23163 5.94653 4.64531C5.94653 4.64531 5.23379 5.26679 5.2171 5.28283C-0.0565836 10.8086 13.1814 24.0608 18.7102 18.7816C18.7263 18.7649 19.3475 18.0525 19.3475 18.0525C19.7754 17.6055 20.0098 17.0077 19.9997 16.3888C19.9896 15.7699 19.7357 15.1801 19.2934 14.7473L17.8004 13.36ZM17.9053 16.6626C17.8886 16.6786 17.2714 17.3863 17.2714 17.3863C13.7625 20.5424 3.36546 10.7552 6.61183 6.7276C6.61183 6.7276 7.31922 6.11013 7.33592 6.09342C7.39277 6.03297 7.47056 5.99653 7.55338 5.99156C7.6362 5.98659 7.71779 6.01347 7.78146 6.06669L9.21961 7.61237C9.25256 7.64316 9.27871 7.68049 9.29641 7.72197C9.31411 7.76345 9.32296 7.80817 9.32239 7.85327C9.32183 7.89836 9.31186 7.94285 9.29312 7.98387C9.27439 8.02489 9.24731 8.06156 9.2136 8.09151L8.47348 8.84396C8.33686 8.9829 8.24369 9.15866 8.20537 9.34975C8.16705 9.54084 8.18525 9.73895 8.25773 9.91986C8.75549 11.253 9.53395 12.4634 10.5403 13.4692C11.5467 14.4749 12.7574 15.2524 14.0905 15.749C14.27 15.8177 14.4654 15.8333 14.6534 15.794C14.8415 15.7546 15.0143 15.662 15.1512 15.5272L15.9087 14.7801C16.1024 14.6371 16.2033 14.6384 16.4084 14.8068L17.9033 16.1928C17.9651 16.2553 17.9998 16.3397 17.9998 16.4277C17.9998 16.5156 17.9651 16.6 17.9033 16.6626H17.9053Z" fill="white"/>
<defs>
<linearGradient id="paint0_linear_542_449" x1="12" y1="24" x2="12" y2="4.57763e-05" gradientUnits="userSpaceOnUse">
<stop stop-color="#25CF43"/>
<stop offset="1" stop-color="#61FD7D"/>
</linearGradient>
</defs>
</svg>
