<svg width="24" height="24" viewBox="0 0 24 24" fill="none" xmlns="http://www.w3.org/2000/svg">
<rect width="24" height="24" rx="6" fill="url(#paint0_linear_546_500)"/>
<path d="M8.66402 20C9.39999 20 9.99661 19.403 9.99661 18.6667C9.99661 17.9303 9.39999 17.3334 8.66402 17.3334C7.92804 17.3334 7.33142 17.9303 7.33142 18.6667C7.33142 19.403 7.92804 20 8.66402 20Z" fill="white"/>
<path d="M15.3271 20C16.0631 20 16.6597 19.403 16.6597 18.6667C16.6597 17.9303 16.0631 17.3334 15.3271 17.3334C14.5911 17.3334 13.9945 17.9303 13.9945 18.6667C13.9945 19.403 14.5911 20 15.3271 20Z" fill="white"/>
<path d="M19.3142 8.0119C18.8452 7.56317 18.2173 7.31908 17.5685 7.33325H7.76725L7.59201 5.95862C7.52838 5.41909 7.26911 4.92168 6.86335 4.56068C6.45759 4.19967 5.93355 4.00017 5.39056 4H4.99945C4.73438 4 4.48016 4.10535 4.29273 4.29289C4.1053 4.48042 4 4.73477 4 4.99997V4.99997C4 5.26518 4.1053 5.51953 4.29273 5.70706C4.48016 5.8946 4.73438 5.99995 4.99945 5.99995H5.39056C5.44507 6.00053 5.49743 6.02129 5.53754 6.05823C5.57766 6.09516 5.60268 6.14564 5.60778 6.19994L6.60723 14.0391C6.67026 14.579 6.9293 15.077 7.33513 15.4384C7.74097 15.7999 8.26535 15.9996 8.80868 15.9997H15.5529C16.3552 15.9992 17.1352 15.7354 17.7731 15.2486C18.411 14.7618 18.8717 14.0791 19.0843 13.3051L19.9145 10.2845C20.0252 9.88649 20.0279 9.46616 19.9224 9.06674C19.8169 8.66732 19.607 8.30323 19.3142 8.0119ZM17.1594 12.7751C17.0618 13.1266 16.852 13.4366 16.562 13.6577C16.272 13.8788 15.9176 13.9989 15.5529 13.9997H8.80868C8.7542 13.9993 8.70183 13.9786 8.6618 13.9416C8.62177 13.9046 8.59693 13.8541 8.59213 13.7998L8.02244 9.3332H17.6684C17.7199 9.33281 17.7708 9.34436 17.817 9.36694C17.8633 9.38952 17.9037 9.42251 17.935 9.46332C17.9664 9.50414 17.9879 9.55168 17.9978 9.6022C18.0078 9.65272 18.0059 9.70486 17.9923 9.75452L17.1594 12.7751Z" fill="white"/>
<defs>
<linearGradient id="paint0_linear_546_500" x1="2" y1="2" x2="22" y2="22" gradientUnits="userSpaceOnUse">
<stop stop-color="#C389FF"/>
<stop offset="1" stop-color="#4488FF"/>
</linearGradient>
</defs>
</svg>
