<svg width="24" height="24" viewBox="0 0 24 24" fill="none" xmlns="http://www.w3.org/2000/svg">
<rect width="24" height="24" rx="6" fill="url(#paint0_linear_518_1518)"/>
<path d="M12 4C10.4178 4 8.87103 4.46919 7.55544 5.34824C6.23985 6.22729 5.21447 7.47672 4.60897 8.93853C4.00347 10.4003 3.84504 12.0089 4.15372 13.5607C4.4624 15.1126 5.22433 16.538 6.34315 17.6569C7.46197 18.7757 8.88743 19.5376 10.4393 19.8463C11.9911 20.155 13.5997 19.9965 15.0615 19.391C16.5233 18.7855 17.7727 17.7602 18.6518 16.4446C19.5308 15.129 20 13.5822 20 12C19.9977 9.87897 19.1541 7.84547 17.6543 6.34568C16.1545 4.84589 14.121 4.00229 12 4V4ZM11.112 14.302L12 13.414L15.4713 16.8853C14.6504 17.4718 13.6941 17.8404 12.692 17.9567C12.4846 16.6239 11.9408 15.3661 11.112 14.302V14.302ZM12.888 9.698L12 10.586L8.52934 7.11467C9.34977 6.52826 10.3056 6.15964 11.3073 6.04333C11.5154 7.37599 12.0594 8.63372 12.888 9.698V9.698ZM10.586 12L9.698 12.888C8.63373 12.0594 7.37599 11.5154 6.04334 11.3073C6.1595 10.3056 6.52813 9.3497 7.11467 8.52933L10.586 12ZM13.414 12L14.302 11.112C15.3663 11.9406 16.624 12.4846 17.9567 12.6927C17.8404 13.6946 17.4718 14.6507 16.8853 15.4713L13.414 12ZM17.838 10.6387C16.7481 10.385 15.751 9.83115 14.9598 9.03981C14.1685 8.24846 13.6148 7.2513 13.3613 6.16133C14.4501 6.41754 15.4458 6.97227 16.2366 7.7632C17.0274 8.55412 17.582 9.54991 17.838 10.6387V10.6387ZM6.162 13.3613C7.25181 13.615 8.24879 14.1688 9.04 14.96C9.83121 15.7512 10.385 16.7482 10.6387 17.838C9.54994 17.5821 8.55418 17.0275 7.76334 16.2367C6.9725 15.4458 6.41794 14.4501 6.162 13.3613V13.3613Z" fill="white"/>
<defs>
<linearGradient id="paint0_linear_518_1518" x1="12" y1="24" x2="12" y2="4.57763e-05" gradientUnits="userSpaceOnUse">
<stop stop-color="#25CF43"/>
<stop offset="1" stop-color="#61FD7D"/>
</linearGradient>
</defs>
</svg>
