<svg width="24" height="24" viewBox="0 0 24 24" fill="none" xmlns="http://www.w3.org/2000/svg">
<rect width="24" height="24" rx="6" fill="url(#paint0_linear_518_1516)"/>
<path d="M12.0003 4C9.87941 4.00229 7.84599 4.84562 6.34627 6.34496C4.84654 7.84429 4.00298 9.87716 4.00069 11.9975C3.91736 18.3782 11.4397 22.2804 16.6001 18.5402C16.7083 18.4649 16.8005 18.369 16.8715 18.258C16.9424 18.147 16.9908 18.0231 17.0137 17.8934C17.0366 17.7637 17.0336 17.6307 17.0049 17.5021C16.9762 17.3735 16.9224 17.2519 16.8466 17.1442C16.7707 17.0364 16.6743 16.9448 16.5629 16.8744C16.4515 16.8041 16.3273 16.7564 16.1974 16.7343C16.0675 16.7121 15.9345 16.7158 15.806 16.7451C15.6776 16.7745 15.5562 16.8289 15.4489 16.9053C11.6137 19.7165 5.90927 16.7601 6.0006 11.9975C6.31525 4.04665 17.6861 4.04798 18.0001 11.9975V12.9972C18.0001 13.2624 17.8947 13.5166 17.7072 13.7041C17.5197 13.8916 17.2653 13.9969 17.0001 13.9969C16.7349 13.9969 16.4806 13.8916 16.2931 13.7041C16.1055 13.5166 16.0002 13.2624 16.0002 12.9972V11.9975C15.8322 6.71316 8.16784 6.71383 8.00051 11.9975C8.00717 12.7725 8.23831 13.5289 8.66598 14.1753C9.09364 14.8217 9.69949 15.3304 10.4103 15.6398C11.121 15.9492 11.9062 16.046 12.6709 15.9186C13.4355 15.7912 14.1469 15.4451 14.7189 14.922C15.116 15.3869 15.6457 15.7193 16.237 15.8749C16.8284 16.0304 17.4532 16.0015 18.0277 15.7921C18.6022 15.5828 19.099 15.2029 19.4515 14.7033C19.804 14.2038 19.9954 13.6085 20 12.9972V11.9975C19.9977 9.87716 19.1542 7.84429 17.6544 6.34496C16.1547 4.84562 14.1213 4.00229 12.0003 4V4ZM12.0003 13.9969C11.4699 13.9969 10.9612 13.7863 10.5862 13.4113C10.2111 13.0364 10.0004 12.5278 10.0004 11.9975C10.0004 11.4673 10.2111 10.9587 10.5862 10.5838C10.9612 10.2088 11.4699 9.99815 12.0003 9.99815C12.5308 9.99815 13.0394 10.2088 13.4145 10.5838C13.7896 10.9587 14.0003 11.4673 14.0003 11.9975C14.0003 12.5278 13.7896 13.0364 13.4145 13.4113C13.0394 13.7863 12.5308 13.9969 12.0003 13.9969Z" fill="white"/>
<defs>
<linearGradient id="paint0_linear_518_1516" x1="12" y1="24" x2="12" y2="4.57763e-05" gradientUnits="userSpaceOnUse">
<stop stop-color="#25CF43"/>
<stop offset="1" stop-color="#61FD7D"/>
</linearGradient>
</defs>
</svg>
