<svg width="24" height="24" viewBox="0 0 24 24" fill="none" xmlns="http://www.w3.org/2000/svg">
<rect width="24" height="24" rx="6" fill="url(#paint0_linear_518_1532)"/>
<path d="M19 18H18.6667V15.6667C18.6659 14.9915 18.4788 14.3297 18.1259 13.7541C17.773 13.1785 17.268 12.7116 16.6667 12.4047V11.6667C16.6658 11.0231 16.4955 10.3911 16.173 9.83421C15.8505 9.2773 15.3871 8.81508 14.8293 8.494L14.4407 6.53333C14.4099 6.38264 14.328 6.24722 14.2088 6.15002C14.0896 6.05281 13.9405 5.99982 13.7867 6H13.5467C13.3929 5.99982 13.2437 6.05281 13.1245 6.15002C13.0053 6.24722 12.9234 6.38264 12.8927 6.53333L12.6 8H11.3333L11.6667 6.66667C11.6667 6.48986 11.5964 6.32029 11.4714 6.19526C11.3464 6.07024 11.1768 6 11 6H9.66667C9.48986 6 9.32029 6.07024 9.19526 6.19526C9.07024 6.32029 9 6.48986 9 6.66667L9.42333 8.36133C8.79855 8.6589 8.27074 9.12721 7.9009 9.71211C7.53105 10.297 7.33428 10.9746 7.33333 11.6667V12.4047C6.73196 12.7116 6.227 13.1785 5.8741 13.7541C5.5212 14.3297 5.33407 14.9915 5.33333 15.6667V18H5C4.73478 18 4.48043 18.1054 4.29289 18.2929C4.10536 18.4804 4 18.7348 4 19C4 19.2652 4.10536 19.5196 4.29289 19.7071C4.48043 19.8946 4.73478 20 5 20H19C19.2652 20 19.5196 19.8946 19.7071 19.7071C19.8946 19.5196 20 19.2652 20 19C20 18.7348 19.8946 18.4804 19.7071 18.2929C19.5196 18.1054 19.2652 18 19 18ZM11 10H13C13.442 10 13.866 10.1756 14.1785 10.4882C14.4911 10.8007 14.6667 11.2246 14.6667 11.6667V12H9.33333V11.6667C9.33333 11.2246 9.50893 10.8007 9.82149 10.4882C10.134 10.1756 10.558 10 11 10V10ZM7.33333 15.8267C7.62862 15.7548 7.89642 15.5981 8.10372 15.3758C8.31103 15.1536 8.44878 14.8756 8.5 14.576C8.56008 14.9895 8.7733 15.3654 9.09742 15.6291C9.42154 15.8929 9.8329 16.0252 10.25 16C10.6674 16.0266 11.0795 15.8948 11.4039 15.6308C11.7284 15.3668 11.9412 14.9901 12 14.576C12.0601 14.9895 12.2733 15.3654 12.5974 15.6291C12.9215 15.8929 13.3329 16.0252 13.75 16C14.1674 16.0266 14.5795 15.8948 14.9039 15.6308C15.2284 15.3668 15.4412 14.9901 15.5 14.576C15.5529 14.8747 15.6913 15.1517 15.8983 15.3735C16.1054 15.5952 16.3723 15.7521 16.6667 15.8253V18H7.33333V15.8267Z" fill="white"/>
<path d="M10.3333 6C10.8855 6 11.3333 5.55228 11.3333 5C11.3333 4.44772 10.8855 4 10.3333 4C9.78097 4 9.33325 4.44772 9.33325 5C9.33325 5.55228 9.78097 6 10.3333 6Z" fill="white"/>
<path d="M13.6667 6C14.219 6 14.6667 5.55228 14.6667 5C14.6667 4.44772 14.219 4 13.6667 4C13.1145 4 12.6667 4.44772 12.6667 5C12.6667 5.55228 13.1145 6 13.6667 6Z" fill="white"/>
<defs>
<linearGradient id="paint0_linear_518_1532" x1="12" y1="24" x2="12" y2="4.57763e-05" gradientUnits="userSpaceOnUse">
<stop stop-color="#25CF43"/>
<stop offset="1" stop-color="#61FD7D"/>
</linearGradient>
</defs>
</svg>
