<svg width="24" height="24" viewBox="0 0 24 24" fill="none" xmlns="http://www.w3.org/2000/svg">
<rect width="24" height="24" rx="6" fill="url(#paint0_linear_518_1537)"/>
<path d="M16.3333 20H7.66667C6.69453 19.9989 5.76252 19.6123 5.07511 18.9249C4.38771 18.2375 4.00106 17.3055 4 16.3333V7.66667C4.00106 6.69453 4.38771 5.76252 5.07511 5.07511C5.76252 4.38771 6.69453 4.00106 7.66667 4L16.3333 4C17.3055 4.00106 18.2375 4.38771 18.9249 5.07511C19.6123 5.76252 19.9989 6.69453 20 7.66667V16.3333C19.9989 17.3055 19.6123 18.2375 18.9249 18.9249C18.2375 19.6123 17.3055 19.9989 16.3333 20ZM7.66667 6C7.22464 6 6.80072 6.17559 6.48816 6.48816C6.17559 6.80072 6 7.22464 6 7.66667V16.3333C6 16.7754 6.17559 17.1993 6.48816 17.5118C6.80072 17.8244 7.22464 18 7.66667 18H16.3333C16.7754 18 17.1993 17.8244 17.5118 17.5118C17.8244 17.1993 18 16.7754 18 16.3333V7.66667C18 7.22464 17.8244 6.80072 17.5118 6.48816C17.1993 6.17559 16.7754 6 16.3333 6H7.66667ZM16.6667 8.66667C16.6667 8.31304 16.5262 7.97391 16.2761 7.72386C16.0261 7.47381 15.687 7.33333 15.3333 7.33333H8.66667C8.31304 7.33333 7.97391 7.47381 7.72386 7.72386C7.47381 7.97391 7.33333 8.31304 7.33333 8.66667C7.33333 9.02029 7.47381 9.35943 7.72386 9.60948C7.97391 9.85952 8.31304 10 8.66667 10H15.3333C15.687 10 16.0261 9.85952 16.2761 9.60948C16.5262 9.35943 16.6667 9.02029 16.6667 8.66667ZM8.33333 11.6667C8.13555 11.6667 7.94221 11.7253 7.77776 11.8352C7.61331 11.9451 7.48514 12.1013 7.40945 12.284C7.33377 12.4667 7.31396 12.6678 7.35255 12.8618C7.39113 13.0557 7.48637 13.2339 7.62623 13.3738C7.76608 13.5136 7.94426 13.6089 8.13824 13.6475C8.33222 13.686 8.53329 13.6662 8.71602 13.5905C8.89874 13.5149 9.05492 13.3867 9.1648 13.2222C9.27468 13.0578 9.33333 12.8644 9.33333 12.6667C9.33333 12.4015 9.22798 12.1471 9.04044 11.9596C8.8529 11.772 8.59855 11.6667 8.33333 11.6667ZM11.6667 11.6667C11.4689 11.6667 11.2755 11.7253 11.1111 11.8352C10.9466 11.9451 10.8185 12.1013 10.7428 12.284C10.6671 12.4667 10.6473 12.6678 10.6859 12.8618C10.7245 13.0557 10.8197 13.2339 10.9596 13.3738C11.0994 13.5136 11.2776 13.6089 11.4716 13.6475C11.6656 13.686 11.8666 13.6662 12.0494 13.5905C12.2321 13.5149 12.3883 13.3867 12.4981 13.2222C12.608 13.0578 12.6667 12.8644 12.6667 12.6667C12.6667 12.4015 12.5613 12.1471 12.3738 11.9596C12.1862 11.772 11.9319 11.6667 11.6667 11.6667ZM8.33333 14.6667C8.13555 14.6667 7.94221 14.7253 7.77776 14.8352C7.61331 14.9451 7.48514 15.1013 7.40945 15.284C7.33377 15.4667 7.31396 15.6678 7.35255 15.8618C7.39113 16.0557 7.48637 16.2339 7.62623 16.3738C7.76608 16.5136 7.94426 16.6089 8.13824 16.6475C8.33222 16.686 8.53329 16.6662 8.71602 16.5905C8.89874 16.5149 9.05492 16.3867 9.1648 16.2222C9.27468 16.0578 9.33333 15.8644 9.33333 15.6667C9.33333 15.4015 9.22798 15.1471 9.04044 14.9596C8.8529 14.772 8.59855 14.6667 8.33333 14.6667ZM11.6667 14.6667C11.4689 14.6667 11.2755 14.7253 11.1111 14.8352C10.9466 14.9451 10.8185 15.1013 10.7428 15.284C10.6671 15.4667 10.6473 15.6678 10.6859 15.8618C10.7245 16.0557 10.8197 16.2339 10.9596 16.3738C11.0994 16.5136 11.2776 16.6089 11.4716 16.6475C11.6656 16.686 11.8666 16.6662 12.0494 16.5905C12.2321 16.5149 12.3883 16.3867 12.4981 16.2222C12.608 16.0578 12.6667 15.8644 12.6667 15.6667C12.6667 15.4015 12.5613 15.1471 12.3738 14.9596C12.1862 14.772 11.9319 14.6667 11.6667 14.6667ZM16.6667 15.6667C16.6667 15.4015 16.5613 15.1471 16.3738 14.9596C16.1862 14.772 15.9319 14.6667 15.6667 14.6667H15C14.7348 14.6667 14.4804 14.772 14.2929 14.9596C14.1054 15.1471 14 15.4015 14 15.6667C14 15.9319 14.1054 16.1862 14.2929 16.3738C14.4804 16.5613 14.7348 16.6667 15 16.6667H15.6667C15.9319 16.6667 16.1862 16.5613 16.3738 16.3738C16.5613 16.1862 16.6667 15.9319 16.6667 15.6667ZM16.6667 12.6667C16.6667 12.4015 16.5613 12.1471 16.3738 11.9596C16.1862 11.772 15.9319 11.6667 15.6667 11.6667H15C14.7348 11.6667 14.4804 11.772 14.2929 11.9596C14.1054 12.1471 14 12.4015 14 12.6667C14 12.9319 14.1054 13.1862 14.2929 13.3738C14.4804 13.5613 14.7348 13.6667 15 13.6667H15.6667C15.9319 13.6667 16.1862 13.5613 16.3738 13.3738C16.5613 13.1862 16.6667 12.9319 16.6667 12.6667Z" fill="white"/>
<defs>
<linearGradient id="paint0_linear_518_1537" x1="12" y1="24" x2="12" y2="4.57763e-05" gradientUnits="userSpaceOnUse">
<stop stop-color="#25CF43"/>
<stop offset="1" stop-color="#61FD7D"/>
</linearGradient>
</defs>
</svg>
