<svg width="24" height="24" viewBox="0 0 24 24" fill="none" xmlns="http://www.w3.org/2000/svg">
<rect width="24" height="24" rx="6" fill="url(#paint0_linear_518_1541)"/>
<path d="M11.1138 20C9.4959 20.0021 7.94168 19.3697 6.78488 18.2386C4.36432 15.7232 4.41158 11.7304 6.89103 9.27307L10.7806 5.38415C12.3699 3.74918 14.9213 3.53647 16.7594 4.88573C18.7176 6.3891 19.0862 9.19523 17.5829 11.1534C17.4654 11.3063 17.3383 11.4515 17.2021 11.588L13.1318 15.6583C12.6737 16.1373 12.0658 16.4454 11.4087 16.5316C10.518 16.6292 9.63628 16.2829 9.05011 15.6052C8.15143 14.454 8.2475 12.8145 9.27447 11.7761L12.3774 8.67587C12.7709 8.2825 13.4088 8.2825 13.8022 8.67587C14.1956 9.06936 14.1956 9.70721 13.8022 10.1007L10.6039 13.2997C10.3225 13.5813 10.3227 14.0377 10.6043 14.3191C10.8859 14.6005 11.3423 14.6004 11.6237 14.3188L15.7309 10.2122C16.5741 9.39235 16.73 8.09489 16.1051 7.09856C15.3671 5.96179 13.8473 5.63849 12.7106 6.37648C12.5682 6.46887 12.4359 6.57577 12.3156 6.6955L8.26211 10.7523C6.72999 12.24 6.53095 14.6303 7.79591 16.3509C9.20289 18.1834 11.829 18.5282 13.6614 17.1213C13.8046 17.0113 13.9405 16.8922 14.0683 16.7647L17.2673 13.5664C17.6607 13.173 18.2986 13.173 18.6921 13.5664C19.0855 13.9599 19.0855 14.5977 18.6921 14.9912L15.4931 18.1896C14.3324 19.3517 12.7563 20.0033 11.1138 20Z" fill="white"/>
<defs>
<linearGradient id="paint0_linear_518_1541" x1="12" y1="24" x2="12" y2="4.57763e-05" gradientUnits="userSpaceOnUse">
<stop stop-color="#25CF43"/>
<stop offset="1" stop-color="#61FD7D"/>
</linearGradient>
</defs>
</svg>
