<svg width="24" height="24" viewBox="0 0 24 24" fill="none" xmlns="http://www.w3.org/2000/svg">
<rect width="24" height="24" rx="6" fill="url(#paint0_linear_518_1508)"/>
<path d="M12.9742 5.41123V5.00126C12.9742 4.73607 12.8689 4.48173 12.6814 4.29421C12.4938 4.10669 12.2395 4.00134 11.9743 4.00134C11.7091 4.00134 11.4548 4.10669 11.2673 4.29421C11.0797 4.48173 10.9744 4.73607 10.9744 5.00126V5.41123C9.70273 5.58294 8.49866 6.08631 7.48316 6.87075C6.46765 7.6552 5.67649 8.69309 5.18916 9.88015C4.70182 11.0672 4.53548 12.3616 4.70686 13.6333C4.87823 14.905 5.38127 16.1092 6.16545 17.1249C5.88944 17.3518 5.66878 17.6386 5.52023 17.9635C5.37168 18.2884 5.29916 18.643 5.30818 19.0001C5.30818 19.2653 5.41353 19.5197 5.60105 19.7072C5.78857 19.8947 6.04291 20 6.3081 20C6.5733 20 6.82763 19.8947 7.01515 19.7072C7.20267 19.5197 7.30802 19.2653 7.30802 19.0001C7.29783 18.9011 7.32257 18.8016 7.37795 18.7188C7.43333 18.636 7.51587 18.5752 7.61133 18.5468C8.87022 19.4895 10.4006 19.999 11.9733 19.999C13.546 19.999 15.0764 19.4895 16.3353 18.5468C16.4311 18.5748 16.5141 18.6355 16.5699 18.7183C16.6257 18.8011 16.6507 18.9008 16.6406 19.0001C16.6406 19.2653 16.7459 19.5197 16.9335 19.7072C17.121 19.8947 17.3753 20 17.6405 20C17.9057 20 18.16 19.8947 18.3476 19.7072C18.5351 19.5197 18.6404 19.2653 18.6404 19.0001C18.6495 18.643 18.5769 18.2884 18.4284 17.9635C18.2798 17.6386 18.0592 17.3518 17.7832 17.1249C18.5673 16.1092 19.0704 14.905 19.2418 13.6333C19.4131 12.3616 19.2468 11.0672 18.7595 9.88015C18.2721 8.69309 17.481 7.6552 16.4655 6.87075C15.45 6.08631 14.2459 5.58294 12.9742 5.41123V5.41123ZM6.64141 12.6673C6.64141 11.6126 6.95418 10.5815 7.54016 9.7045C8.12615 8.82751 8.95904 8.14398 9.9335 7.74035C10.908 7.33671 11.9802 7.2311 13.0147 7.43688C14.0492 7.64265 14.9994 8.15056 15.7452 8.89638C16.4911 9.64219 16.999 10.5924 17.2047 11.6269C17.4105 12.6614 17.3049 13.7337 16.9013 14.7081C16.4976 15.6826 15.8141 16.5155 14.9371 17.1014C14.0601 17.6874 13.0291 18.0002 11.9743 18.0002C10.5604 17.9986 9.2049 17.4362 8.20513 16.4365C7.20536 15.4367 6.643 14.0812 6.64141 12.6673V12.6673Z" fill="white"/>
<path d="M16.9739 4.00129C16.7087 4.00129 16.4544 4.10663 16.2669 4.29416C16.0793 4.48168 15.974 4.73601 15.974 5.0012C15.974 5.2664 16.0793 5.52073 16.2669 5.70825C16.4544 5.89578 16.7087 6.00112 16.9739 6.00112C17.1066 5.9908 17.24 6.00981 17.3646 6.05681C17.4891 6.10381 17.6018 6.17764 17.6946 6.27307C17.7875 6.3685 17.8581 6.48319 17.9017 6.609C17.9452 6.73481 17.9605 6.86865 17.9465 7.00104C17.9465 7.26624 18.0519 7.52057 18.2394 7.70809C18.4269 7.89561 18.6812 8.00096 18.9464 8.00096C19.2116 8.00096 19.4659 7.89561 19.6535 7.70809C19.841 7.52057 19.9463 7.26624 19.9463 7.00104C19.9618 6.60529 19.8957 6.21059 19.7521 5.84147C19.6086 5.47235 19.3906 5.1367 19.1119 4.85537C18.8331 4.57404 18.4994 4.35305 18.1317 4.20612C17.7639 4.05919 17.3698 3.98947 16.9739 4.00129V4.00129Z" fill="white"/>
<path d="M6.00203 7.00104C5.98804 6.86865 6.00335 6.73481 6.04687 6.609C6.0904 6.48319 6.16109 6.3685 6.25391 6.27307C6.34673 6.17764 6.45941 6.10381 6.58397 6.05681C6.70852 6.00981 6.8419 5.9908 6.97462 6.00112C7.23982 6.00112 7.49415 5.89578 7.68167 5.70825C7.86919 5.52073 7.97454 5.2664 7.97454 5.0012C7.97454 4.73601 7.86919 4.48168 7.68167 4.29416C7.49415 4.10663 7.23982 4.00129 6.97462 4.00129C6.57874 3.98947 6.18467 4.05919 5.81688 4.20612C5.44909 4.35305 5.11544 4.57404 4.83668 4.85537C4.55791 5.1367 4.33998 5.47235 4.19642 5.84147C4.05287 6.21059 3.98676 6.60529 4.0022 7.00104C4.0022 7.26624 4.10754 7.52057 4.29507 7.70809C4.48259 7.89561 4.73692 8.00096 5.00211 8.00096C5.26731 8.00096 5.52164 7.89561 5.70916 7.70809C5.89668 7.52057 6.00203 7.26624 6.00203 7.00104Z" fill="white"/>
<path d="M12.9943 12.2533V9.66752C12.9943 9.40233 12.889 9.14799 12.7015 8.96047C12.514 8.77295 12.2596 8.6676 11.9944 8.6676C11.7292 8.6676 11.4749 8.77295 11.2874 8.96047C11.0999 9.14799 10.9945 9.40233 10.9945 9.66752V12.5293C10.9946 12.8828 11.1351 13.2219 11.3851 13.4719L12.5804 14.6671C12.769 14.8492 13.0215 14.95 13.2837 14.9478C13.5459 14.9455 13.7967 14.8403 13.9821 14.6549C14.1675 14.4695 14.2726 14.2187 14.2749 13.9566C14.2772 13.6944 14.1764 13.4418 13.9943 13.2532L12.9943 12.2533Z" fill="white"/>
<defs>
<linearGradient id="paint0_linear_518_1508" x1="12" y1="24" x2="12" y2="4.57763e-05" gradientUnits="userSpaceOnUse">
<stop stop-color="#25CF43"/>
<stop offset="1" stop-color="#61FD7D"/>
</linearGradient>
</defs>
</svg>
