<svg width="24" height="24" viewBox="0 0 24 24" fill="none" xmlns="http://www.w3.org/2000/svg">
<rect width="24" height="24" rx="6" fill="url(#paint0_linear_546_508)"/>
<path d="M16.6667 13.3335C16.1797 13.3353 15.6992 13.4444 15.2593 13.6531C14.8193 13.8617 14.4308 14.1648 14.1213 14.5408L10.5213 12.9155C10.6129 12.6188 10.6618 12.3106 10.6667 12.0002C10.6623 11.6931 10.615 11.3881 10.526 11.0942L14.122 9.46087C14.6266 10.0547 15.3242 10.4517 16.0924 10.5823C16.8606 10.7129 17.6502 10.5687 18.3227 10.175C18.9951 9.78133 19.5074 9.16332 19.7695 8.42952C20.0316 7.69571 20.0268 6.89303 19.7559 6.16242C19.485 5.4318 18.9654 4.81997 18.2883 4.43435C17.6112 4.04874 16.8199 3.91399 16.0533 4.05378C15.2867 4.19357 14.5939 4.59895 14.0965 5.19874C13.5991 5.79853 13.3289 6.55438 13.3333 7.33358C13.3333 7.42824 13.3533 7.51757 13.3613 7.61024L9.4 9.4082C8.816 8.93232 8.08667 8.6707 7.33333 8.66688C6.44928 8.66688 5.60143 9.01807 4.97631 9.64318C4.35119 10.2683 4 11.1161 4 12.0002C4 12.8842 4.35119 13.732 4.97631 14.3571C5.60143 14.9822 6.44928 15.3334 7.33333 15.3334C8.08341 15.3304 8.81004 15.0717 9.39333 14.6001L13.3613 16.3914C13.3533 16.4841 13.3333 16.5727 13.3333 16.6667C13.3333 17.326 13.5288 17.9704 13.8951 18.5186C14.2614 19.0667 14.782 19.494 15.3911 19.7463C16.0001 19.9986 16.6704 20.0646 17.317 19.936C17.9636 19.8073 18.5575 19.4899 19.0237 19.0237C19.4899 18.5575 19.8073 17.9636 19.936 17.317C20.0646 16.6704 19.9986 16.0002 19.7463 15.3911C19.494 14.7821 19.0667 14.2615 18.5186 13.8952C17.9704 13.529 17.3259 13.3335 16.6667 13.3335V13.3335ZM16.6667 6.00027C16.9304 6.00027 17.1882 6.07847 17.4074 6.22497C17.6267 6.37148 17.7976 6.57971 17.8985 6.82334C17.9994 7.06697 18.0258 7.33506 17.9744 7.59369C17.9229 7.85233 17.7959 8.0899 17.6095 8.27637C17.423 8.46283 17.1854 8.58982 16.9268 8.64127C16.6681 8.69271 16.4001 8.66631 16.1564 8.56539C15.9128 8.46448 15.7045 8.29358 15.558 8.07432C15.4115 7.85506 15.3333 7.59728 15.3333 7.33358C15.3333 6.97996 15.4738 6.64083 15.7239 6.39079C15.9739 6.14074 16.313 6.00027 16.6667 6.00027V6.00027ZM7.33333 13.3335C7.06962 13.3335 6.81184 13.2553 6.59257 13.1088C6.37331 12.9623 6.20241 12.754 6.10149 12.5104C6.00058 12.2668 5.97417 11.9987 6.02562 11.74C6.07707 11.4814 6.20405 11.2438 6.39052 11.0574C6.57699 10.8709 6.81457 10.7439 7.07321 10.6925C7.33185 10.641 7.59994 10.6674 7.84358 10.7683C8.08721 10.8693 8.29545 11.0401 8.44196 11.2594C8.58847 11.4787 8.66667 11.7365 8.66667 12.0002C8.66667 12.3538 8.52619 12.6929 8.27614 12.9429C8.02609 13.193 7.68696 13.3335 7.33333 13.3335ZM16.6667 18C16.403 18 16.1452 17.9218 15.9259 17.7753C15.7066 17.6288 15.5357 17.4206 15.4348 17.177C15.3339 16.9333 15.3075 16.6653 15.359 16.4066C15.4104 16.148 15.5374 15.9104 15.7239 15.7239C15.9103 15.5375 16.1479 15.4105 16.4065 15.359C16.6652 15.3076 16.9333 15.334 17.1769 15.4349C17.4205 15.5358 17.6288 15.7067 17.7753 15.926C17.9218 16.1452 18 16.403 18 16.6667C18 17.0203 17.8595 17.3595 17.6095 17.6095C17.3594 17.8596 17.0203 18 16.6667 18Z" fill="white"/>
<defs>
<linearGradient id="paint0_linear_546_508" x1="2" y1="2" x2="22" y2="22" gradientUnits="userSpaceOnUse">
<stop stop-color="#C389FF"/>
<stop offset="1" stop-color="#4488FF"/>
</linearGradient>
</defs>
</svg>
