<svg width="24" height="24" viewBox="0 0 24 24" fill="none" xmlns="http://www.w3.org/2000/svg">
<path d="M24 3.75C24 1.67893 22.3211 0 20.25 0H3.75C1.67893 0 0 1.67893 0 3.75V20.25C0 22.3211 1.67893 24 3.75 24H20.25C22.3211 24 24 22.3211 24 20.25V3.75Z" fill="black"/>
<path d="M11.9875 12C11.9875 10.8954 12.8829 9.99999 13.9875 9.99999C15.0921 9.99999 15.9875 10.8954 15.9875 12C15.9875 13.1046 15.0921 14 13.9875 14C12.8829 14 11.9875 13.1046 11.9875 12Z" fill="#1ABCFE"/>
<path d="M7.98752 16C7.98752 14.8954 8.88295 14 9.98752 14H11.9875V16C11.9875 17.1046 11.0921 18 9.98752 18C8.88295 18 7.98752 17.1046 7.98752 16Z" fill="#0ACF83"/>
<path d="M11.9875 6V9.99999H13.9875C15.0921 9.99999 15.9875 9.10457 15.9875 8C15.9875 6.89543 15.0921 6 13.9875 6H11.9875Z" fill="#FF7262"/>
<path d="M7.98752 8C7.98752 9.10457 8.88295 9.99999 9.98752 9.99999H11.9875V6H9.98752C8.88295 6 7.98752 6.89543 7.98752 8Z" fill="#F24E1E"/>
<path d="M7.98752 12C7.98752 13.1046 8.88295 14 9.98752 14H11.9875V9.99999H9.98752C8.88295 9.99999 7.98752 10.8954 7.98752 12Z" fill="#A259FF"/>
</svg>
