<svg width="24" height="24" viewBox="0 0 24 24" fill="none" xmlns="http://www.w3.org/2000/svg">
<path d="M20.25 0H3.75C1.67893 0 0 1.67893 0 3.75V20.25C0 22.3211 1.67893 24 3.75 24H20.25C22.3211 24 24 22.3211 24 20.25V3.75C24 1.67893 22.3211 0 20.25 0Z" fill="white"/>
<path d="M18.15 12C18.15 13.575 16.875 14.85 15.3 14.85C13.725 14.85 12.45 13.575 12.45 12C12.45 10.425 13.725 9.14999 15.3 9.14999C16.875 9.14999 18.15 10.425 18.15 12Z" fill="#FF0084"/>
<path d="M11.625 12C11.625 13.575 10.35 14.85 8.775 14.85C7.2 14.85 5.925 13.575 5.925 12C5.925 10.425 7.2 9.14999 8.775 9.14999C10.275 9.14999 11.625 10.425 11.625 12Z" fill="#0063DC"/>
</svg>
