<svg width="24" height="24" viewBox="0 0 24 24" fill="none" xmlns="http://www.w3.org/2000/svg">
<path d="M24 3.75C24 1.67893 22.3211 0 20.25 0H3.75C1.67893 0 0 1.67893 0 3.75V20.25C0 22.3211 1.67893 24 3.75 24H20.25C22.3211 24 24 22.3211 24 20.25V3.75Z" fill="white"/>
<path d="M17.3438 9.00494H6.26707C6.00388 9.00494 5.79053 9.2183 5.79053 9.48149V17.5235C5.79053 17.7867 6.00388 18.0001 6.26707 18.0001H17.3438C17.607 18.0001 17.8204 17.7867 17.8204 17.5235V9.48149C17.8204 9.2183 17.607 9.00494 17.3438 9.00494Z" fill="#4989F5"/>
<path d="M17.2047 8.93729H6.39267C6.05774 8.93729 5.79712 11.5293 5.79712 11.8642L11.7181 18H17.2047C17.5406 17.9991 17.8127 17.727 17.8137 17.391V9.54614C17.8127 9.21024 17.5406 8.9382 17.2047 8.93729V8.93729Z" fill="url(#paint0_linear_115_43)"/>
<path d="M8.53711 10.5113H11.9742V6.00018H9.05177L8.53711 10.5113Z" fill="#3C4BA6"/>
<path d="M15.4115 10.5113H11.9744V6.00018H14.8968L15.4115 10.5113ZM17.8203 6.85532L17.8245 6.8707C17.8235 6.86527 17.8214 6.86023 17.8203 6.85532Z" fill="#7BABF7"/>
<path d="M17.8248 6.87052L17.8206 6.85514C17.7116 6.35615 17.2699 6.00032 16.7592 6H14.8971L15.4114 10.5113H18.8485L17.8248 6.87052Z" fill="#3F51B5"/>
<path d="M6.1302 6.85529L6.12451 6.87579C6.12589 6.86855 6.12865 6.86183 6.1302 6.85529Z" fill="#7BABF7"/>
<path d="M6.12413 6.87052L6.1284 6.85514C6.23737 6.35615 6.67902 6.00032 7.18976 6H9.052L8.53695 10.5113H5.09985L6.12413 6.87052Z" fill="#7BABF7"/>
<path fill-rule="evenodd" clip-rule="evenodd" d="M8.53695 10.5094C8.53695 11.457 7.76753 12.2252 6.8184 12.2252C5.86928 12.2252 5.09985 11.457 5.09985 10.5094H8.53695Z" fill="#709BE0"/>
<path fill-rule="evenodd" clip-rule="evenodd" d="M11.9742 10.5094C11.9742 11.457 11.2048 12.2252 10.2557 12.2252C9.30654 12.2252 8.53711 11.457 8.53711 10.5094H11.9742Z" fill="#3C4BA6"/>
<path fill-rule="evenodd" clip-rule="evenodd" d="M15.4111 10.5094C15.4111 11.457 14.6417 12.2252 13.6925 12.2252C12.7434 12.2252 11.974 11.457 11.974 10.5094H15.4111Z" fill="#709BE0"/>
<path fill-rule="evenodd" clip-rule="evenodd" d="M18.8484 10.5094C18.8484 11.457 18.0789 12.2252 17.1298 12.2252C16.1807 12.2252 15.4113 11.457 15.4113 10.5094H18.8484Z" fill="#3C4BA6"/>
<path d="M17.1307 15.1635C17.1246 15.0817 17.1145 15.007 17.1002 14.9117H15.2266C15.2266 15.1737 15.2266 15.4597 15.2255 15.7219H16.3109C16.2879 15.844 16.2409 15.9605 16.1727 16.0644C16.1045 16.1684 16.0165 16.2579 15.9136 16.3277C15.9136 16.3277 15.9136 16.3232 15.9128 16.3231C15.78 16.4103 15.6303 16.4687 15.4735 16.4946C15.3163 16.5233 15.1551 16.5226 14.9981 16.4925C14.8387 16.4595 14.6878 16.3941 14.5548 16.3004C14.3584 16.1611 14.2069 15.9675 14.1189 15.7434C14.1122 15.726 14.106 15.7084 14.0997 15.6906V15.6887L14.1014 15.6874C14.016 15.4367 14.0157 15.1649 14.1007 14.9141C14.1606 14.7382 14.2591 14.5779 14.389 14.4451C14.6938 14.1298 15.1491 14.0112 15.569 14.1378C15.73 14.1872 15.8771 14.2738 15.9984 14.3906L16.3645 14.0244C16.4292 13.9591 16.4962 13.8959 16.5584 13.8285C16.3727 13.6553 16.1547 13.5203 15.9169 13.4313C15.4842 13.2744 15.0108 13.2702 14.5753 13.4195C14.5602 13.4247 14.5451 13.4301 14.5301 13.4357C14.0603 13.6123 13.6738 13.9586 13.447 14.4063C13.3669 14.5648 13.3086 14.7333 13.2736 14.9074C13.0662 15.9382 13.6951 16.9528 14.7106 17.2255C15.0426 17.3144 15.3954 17.3122 15.73 17.2363C16.0339 17.1676 16.315 17.0216 16.5458 16.8123C16.7867 16.5907 16.9593 16.2954 17.0498 15.9818C17.1254 15.7161 17.1528 15.4389 17.1307 15.1635Z" fill="white"/>
<defs>
<linearGradient id="paint0_linear_115_43" x1="5.79712" y1="13.4685" x2="17.8135" y2="13.4685" gradientUnits="userSpaceOnUse">
<stop offset="0.03" stop-color="#4079D8"/>
<stop offset="1" stop-color="#4989F5"/>
</linearGradient>
</defs>
</svg>
