<svg width="24" height="24" viewBox="0 0 24 24" fill="none" xmlns="http://www.w3.org/2000/svg">
<g clip-path="url(#clip0_1197_280)">
<path d="M17.9572 0H6.0428C2.70546 0 0 2.70546 0 6.0428V17.9572C0 21.2945 2.70546 24 6.0428 24H17.9572C21.2945 24 24 21.2945 24 17.9572V6.0428C24 2.70546 21.2945 0 17.9572 0Z" fill="url(#paint0_linear_1197_280)"/>
<path d="M7.19059 9.11462H9.25522V15.7416H7.19059V9.11462ZM8.2229 5.82129C8.88258 5.82129 9.41636 6.35507 9.41636 7.01474C9.41636 7.67442 8.88258 8.2082 8.2229 8.2082C7.56323 8.2082 7.02441 7.67442 7.02441 7.01474C7.02441 6.35507 7.5582 5.82129 8.2229 5.82129Z" fill="white"/>
<path d="M10.549 9.11442H12.523V10.0208H12.5481C12.8251 9.49713 13.4948 8.94824 14.4969 8.94824C16.5817 8.94824 16.9695 10.3179 16.9695 12.1056V15.7414H14.9099V12.5185C14.9099 11.7481 14.8948 10.7611 13.8373 10.7611C12.7798 10.7611 12.6035 11.597 12.6035 12.4631V15.7414H10.5439V9.11442H10.549Z" fill="white"/>
</g>
<defs>
<linearGradient id="paint0_linear_1197_280" x1="1.76752" y1="1.76752" x2="22.2325" y2="22.2325" gradientUnits="userSpaceOnUse">
<stop stop-color="#007BB8"/>
<stop offset="1" stop-color="#0044E9"/>
</linearGradient>
<clipPath id="clip0_1197_280">
<rect width="24" height="24" fill="white"/>
</clipPath>
</defs>
</svg>
