<svg width="24" height="24" viewBox="0 0 24 24" fill="none" xmlns="http://www.w3.org/2000/svg">
<g clip-path="url(#clip0_1250_56)">
<path d="M17.9572 0H6.0428C2.70545 0 0 2.70545 0 6.0428V17.9572C0 21.2945 2.70545 24 6.0428 24H17.9572C21.2945 24 24 21.2945 24 17.9572V6.0428C24 2.70545 21.2945 0 17.9572 0Z" fill="url(#paint0_linear_1250_56)"/>
<path d="M11.3615 11.3612C11.0087 11.7141 11.0087 12.2859 11.3615 12.6385C11.7141 12.9913 12.2862 12.9913 12.6387 12.6385C12.9916 12.2856 12.9916 11.7138 12.6387 11.3612C12.2859 11.0087 11.7141 11.0087 11.3615 11.3612ZM12 5C8.13391 5 5 8.13391 5 12C5 15.8661 8.13391 19 12 19C15.8661 19 19 15.8661 19 12C19 8.13391 15.8661 5 12 5ZM15.5604 9.17883L13.6983 13.2532C13.6083 13.4503 13.4503 13.6083 13.2532 13.6983L9.17911 15.5604C8.70915 15.7752 8.2248 15.2908 8.4396 14.8209L10.3019 10.7465C10.392 10.5495 10.55 10.3914 10.7471 10.3014L14.8212 8.43931C15.2911 8.2248 15.7752 8.70887 15.5604 9.17883Z" fill="white"/>
</g>
<defs>
<linearGradient id="paint0_linear_1250_56" x1="1.92" y1="3.072" x2="24" y2="27.048" gradientUnits="userSpaceOnUse">
<stop stop-color="#C389FF"/>
<stop offset="1" stop-color="#4488FF"/>
</linearGradient>
<clipPath id="clip0_1250_56">
<rect width="24" height="24" fill="white"/>
</clipPath>
</defs>
</svg>
