<svg width="24" height="24" viewBox="0 0 24 24" fill="none" xmlns="http://www.w3.org/2000/svg">
<path d="M20.25 0H3.75C1.67893 0 0 1.67893 0 3.75V20.25C0 22.3211 1.67893 24 3.75 24H20.25C22.3211 24 24 22.3211 24 20.25V3.75C24 1.67893 22.3211 0 20.25 0Z" fill="white"/>
<path d="M7.425 9.15C7.425 9 7.35 8.85 7.275 8.775L6.15 7.425V7.2H9.6L12.3 13.125L14.7 7.2H18V7.425L17.025 8.325C16.95 8.4 16.875 8.475 16.95 8.625V15.375C16.95 15.45 16.95 15.6 17.025 15.675L17.925 16.575V16.8H13.2V16.575L14.175 15.6C14.25 15.525 14.25 15.45 14.25 15.3V9.825L11.55 16.65H11.25L8.1 9.825V14.4C8.1 14.625 8.175 14.775 8.25 14.925L9.525 16.425V16.65H6V16.425L7.275 14.925C7.425 14.775 7.5 14.625 7.425 14.4V9.15Z" fill="black"/>
</svg>
