<svg width="24" height="24" viewBox="0 0 24 24" fill="none" xmlns="http://www.w3.org/2000/svg">
<g clip-path="url(#clip0_1197_287)">
<path d="M17.9572 0H6.0428C2.70546 0 0 2.70546 0 6.0428V17.9572C0 21.2945 2.70546 24 6.0428 24H17.9572C21.2945 24 24 21.2945 24 17.9572V6.0428C24 2.70546 21.2945 0 17.9572 0Z" fill="url(#paint0_linear_1197_287)"/>
<path fill-rule="evenodd" clip-rule="evenodd" d="M11.1792 14.1654C11.1691 14.2007 11.159 14.2359 11.149 14.2661C10.6756 16.1243 10.6202 16.5423 10.1317 17.4034C9.90011 17.8163 9.63825 18.204 9.34618 18.5767C9.31093 18.617 9.28072 18.6724 9.21526 18.6623C9.14476 18.6472 9.13972 18.5817 9.12965 18.5263C9.04908 17.9623 9.00879 17.3933 9.02894 16.8243C9.05412 16.079 9.14476 15.8272 10.1015 11.7936C10.1166 11.7332 10.1015 11.6828 10.0814 11.6275C9.84975 11.0081 9.80443 10.3786 10.0059 9.74411C10.4389 8.36938 12 8.26363 12.2719 9.39665C12.4381 10.0966 11.9949 11.0181 11.6525 12.3727C11.3705 13.4907 12.6899 14.2863 13.8128 13.4705C14.8502 12.7152 15.253 10.9124 15.1775 9.62829C15.0264 7.07521 12.2266 6.52632 10.449 7.34713C8.41459 8.2888 7.9513 10.8117 8.8678 11.9648C8.98362 12.1109 9.07426 12.2015 9.03397 12.3476C8.97355 12.5792 8.92319 12.8108 8.85772 13.0425C8.8124 13.2137 8.66637 13.2741 8.49516 13.2036C8.15777 13.0677 7.87577 12.8511 7.64413 12.5691C6.8636 11.6023 6.64203 9.68872 7.67434 8.07227C8.81744 6.27957 10.9425 5.55444 12.8863 5.77601C15.2077 6.03786 16.6731 7.6241 16.945 9.42183C17.0709 10.2426 16.9803 12.2619 15.8321 13.687C14.5077 15.3287 12.3676 15.4344 11.3756 14.4273C11.3 14.3518 11.2396 14.2611 11.1641 14.1654H11.1792Z" fill="white"/>
</g>
<defs>
<linearGradient id="paint0_linear_1197_287" x1="1.76752" y1="1.76752" x2="22.2325" y2="22.2325" gradientUnits="userSpaceOnUse">
<stop stop-color="#FF4C3C"/>
<stop offset="0.96" stop-color="#EE053D"/>
<stop offset="1" stop-color="#EE023E"/>
</linearGradient>
<clipPath id="clip0_1197_287">
<rect width="24" height="24" fill="white"/>
</clipPath>
</defs>
</svg>
