<svg width="24" height="24" viewBox="0 0 24 24" fill="none" xmlns="http://www.w3.org/2000/svg">
<path d="M20.25 0H3.75C1.67893 0 0 1.67893 0 3.75V20.25C0 22.3211 1.67893 24 3.75 24H20.25C22.3211 24 24 22.3211 24 20.25V3.75C24 1.67893 22.3211 0 20.25 0Z" fill="#0078D7"/>
<path d="M12 15.6C9.97502 15.6 9.075 14.55 9.075 13.8C9.075 13.65 9.15004 13.425 9.30004 13.35C9.45004 13.2 9.60002 13.2 9.75002 13.2C10.575 13.2 10.35 14.475 12 14.475C12.825 14.475 13.275 13.95 13.275 13.5C13.275 13.2 13.125 12.9 12.6 12.75L10.8 12.3C9.37504 11.925 9.15003 11.1 9.15003 10.425C9.15003 8.85 10.575 8.325 11.925 8.325C13.125 8.325 14.625 9 14.625 9.9C14.625 10.275 14.325 10.5 13.875 10.5C13.125 10.5 13.275 9.45 11.775 9.45C11.025 9.45 10.65 9.825 10.65 10.275C10.65 10.725 11.25 10.95 11.7 11.025L13.05 11.325C14.475 11.625 14.85 12.525 14.85 13.275C14.85 14.7 13.875 15.6 12 15.6ZM17.55 12.975C17.625 12.675 17.625 12.3 17.625 12C17.625 10.35 16.875 8.775 15.6 7.65C14.325 6.525 12.6 6.15 10.95 6.375C10.5 6.15 9.90004 6 9.30004 6C8.10004 6 6.97502 6.675 6.37502 7.725C5.77502 8.775 5.77502 10.05 6.37502 11.1C6.07502 12.9 6.6 14.775 7.95 16.125C9.225 17.4 11.1 18 12.9 17.7C13.425 18 13.95 18.15 14.55 18.15C15.75 18.15 16.875 17.475 17.475 16.425C18.075 15.3 18.15 14.025 17.55 12.975Z" fill="white"/>
</svg>
