<svg width="24" height="24" viewBox="0 0 24 24" fill="none" xmlns="http://www.w3.org/2000/svg">
<rect width="24" height="24" rx="6" fill="#635BFF"/>
<path d="M19.9999 12.1113C19.9999 10.9734 19.4487 10.0758 18.3954 10.0758C17.3375 10.0758 16.6975 10.9737 16.6975 12.1025C16.6975 13.4403 17.453 14.1158 18.5375 14.1158C19.0663 14.1158 19.4663 13.9958 19.7687 13.827V12.9382C19.4666 13.0889 19.1199 13.1822 18.6799 13.1822C18.2487 13.1822 17.8666 13.031 17.8178 12.5067H19.9911C19.9911 12.4489 19.9999 12.2179 19.9999 12.1113ZM17.8044 11.6889C17.8044 11.1867 18.1111 10.9777 18.3911 10.9777C18.6623 10.9777 18.9511 11.1865 18.9511 11.6889H17.8044Z" fill="#F9F9F9"/>
<path d="M14.9821 10.0754C14.5466 10.0754 14.2666 10.28 14.1109 10.4221L14.0533 10.1466H13.0754V15.3288L14.1866 15.0933L14.1912 13.8354C14.3512 13.9509 14.5866 14.1154 14.9778 14.1154C15.7733 14.1154 16.4978 13.4754 16.4978 12.0666C16.4933 10.7778 15.76 10.0754 14.9821 10.0754ZM14.7154 13.1378C14.4533 13.1378 14.2976 13.0445 14.1909 12.929L14.1866 11.28C14.3021 11.1512 14.4621 11.0621 14.7154 11.0621C15.12 11.0621 15.4 11.5154 15.4 12.0976C15.4 12.6933 15.1245 13.1378 14.7154 13.1378Z" fill="#F9F9F9"/>
<path d="M11.5466 9.81333L12.6613 9.57333V8.672L11.5466 8.90666V9.81333Z" fill="#F9F9F9"/>
<path d="M12.6613 10.152H11.5466V14.04H12.6613V10.152Z" fill="#F9F9F9"/>
<path d="M10.3513 10.48L10.2801 10.1512H9.32007V14.04H10.4313V11.4045C10.6934 11.0624 11.1379 11.1245 11.2758 11.1733V10.1512C11.1334 10.0979 10.6134 9.99999 10.3513 10.48Z" fill="#F9F9F9"/>
<path d="M8.12872 9.18665L7.04418 9.41785L7.03992 12.9778C7.03992 13.6357 7.53325 14.12 8.19112 14.12C8.55565 14.12 8.82232 14.0533 8.96898 13.9733V13.0712C8.82658 13.1288 8.12445 13.3333 8.12445 12.6754V11.0976H8.96898V10.1509H8.12445L8.12872 9.18665Z" fill="#F9F9F9"/>
<path d="M5.12453 11.28C5.12453 11.1066 5.26667 11.04 5.5024 11.04C5.84027 11.04 6.26693 11.1421 6.60453 11.3245V10.28C6.23573 10.1333 5.8712 10.0754 5.5024 10.0754C4.6 10.0754 4 10.5466 4 11.3333C4 12.56 5.6888 12.3645 5.6888 12.8933C5.6888 13.0978 5.51093 13.1645 5.26213 13.1645C4.89333 13.1645 4.42213 13.0133 4.0488 12.809V13.8666C4.46213 14.0445 4.88 14.12 5.26213 14.12C6.18667 14.12 6.82213 13.6621 6.82213 12.8666C6.81787 11.5421 5.12453 11.7778 5.12453 11.28Z" fill="#F9F9F9"/>
</svg>
