<svg width="24" height="24" viewBox="0 0 24 24" fill="none" xmlns="http://www.w3.org/2000/svg">
<g clip-path="url(#clip0_1197_304)">
<path d="M17.9572 0H6.0428C2.70546 0 0 2.70546 0 6.0428V17.9572C0 21.2945 2.70546 24 6.0428 24H17.9572C21.2945 24 24 21.2945 24 17.9572V6.0428C24 2.70546 21.2945 0 17.9572 0Z" fill="url(#paint0_linear_1197_304)"/>
<path fill-rule="evenodd" clip-rule="evenodd" d="M14.5135 10.1267C15.3847 10.7512 16.4522 11.1137 17.6054 11.1137V8.89299C17.3889 8.89299 17.1673 8.86781 16.9558 8.82752V10.5749C15.8026 10.5749 14.7351 10.2073 13.8639 9.58791V14.115C13.8639 16.381 12.0259 18.214 9.75983 18.214C8.91383 18.214 8.12827 17.9572 7.47363 17.5191C8.21891 18.2795 9.25626 18.7528 10.4044 18.7528C12.6704 18.7528 14.5085 16.9148 14.5085 14.6538V10.1267H14.5135ZM15.3142 7.88585C14.871 7.39739 14.5739 6.77297 14.5135 6.07805V5.79102H13.8991C14.0553 6.67226 14.584 7.42761 15.3142 7.88585ZM8.91383 15.7818C8.66709 15.4545 8.53112 15.0566 8.53112 14.6437C8.53112 13.6064 9.37208 12.7705 10.4094 12.7705C10.6008 12.7705 10.7921 12.8007 10.9785 12.8561V10.59C10.7619 10.5598 10.5454 10.5497 10.3289 10.5548V12.3223C10.1425 12.2619 9.95118 12.2367 9.75983 12.2367C8.72248 12.2367 7.88152 13.0776 7.88152 14.1099C7.88152 14.8401 8.29948 15.4746 8.91383 15.7868V15.7818Z" fill="#FF1753"/>
<path fill-rule="evenodd" clip-rule="evenodd" d="M13.8632 9.58791C14.7344 10.2123 15.802 10.5749 16.9551 10.5749V8.82752C16.3106 8.69156 15.7415 8.35417 15.3135 7.88585C14.5783 7.42761 14.0495 6.67226 13.8985 5.79102H12.282V14.6538C12.282 15.6861 11.4411 16.522 10.4037 16.522C9.79441 16.522 9.25055 16.23 8.90813 15.7818C8.29378 15.4746 7.87582 14.8401 7.87582 14.1049C7.87582 13.0676 8.71677 12.2316 9.75412 12.2316C9.95051 12.2316 10.1419 12.2619 10.3232 12.3172V10.5497C8.09739 10.595 6.30469 12.4129 6.30469 14.6488C6.30469 15.7667 6.75286 16.7788 7.47296 17.5141C8.1276 17.9522 8.91316 18.209 9.75916 18.209C12.0252 18.209 13.8632 16.371 13.8632 14.1099V9.58287V9.58791Z" fill="white"/>
<path fill-rule="evenodd" clip-rule="evenodd" d="M16.9604 8.82743V8.35408C16.3813 8.35408 15.8122 8.19294 15.3187 7.88576C15.7568 8.36415 16.3309 8.69147 16.9604 8.82743ZM13.8987 5.79092C13.8836 5.70532 13.8735 5.61971 13.8634 5.5341V5.24707H11.6326V14.1098C11.6326 15.1422 10.7917 15.9781 9.75431 15.9781C9.45217 15.9781 9.16514 15.9076 8.90832 15.7767C9.25074 16.2248 9.79459 16.5169 10.4039 16.5169C11.4362 16.5169 12.2772 15.681 12.2822 14.6487V5.79092H13.8987ZM10.3233 10.5547V10.0511C10.137 10.0259 9.9507 10.0108 9.75934 10.0108C7.49329 10.0108 5.65527 11.8488 5.65527 14.1098C5.65527 15.5299 6.37537 16.7788 7.47315 17.519C6.74801 16.7788 6.30488 15.7666 6.30488 14.6537C6.30488 12.4179 8.09254 10.6 10.3233 10.5547Z" fill="#00C9D0"/>
</g>
<defs>
<linearGradient id="paint0_linear_1197_304" x1="1.76752" y1="1.76752" x2="22.2325" y2="22.2325" gradientUnits="userSpaceOnUse">
<stop stop-color="#23004A"/>
<stop offset="0.96" stop-color="#010003"/>
<stop offset="1"/>
</linearGradient>
<clipPath id="clip0_1197_304">
<rect width="24" height="24" fill="white"/>
</clipPath>
</defs>
</svg>
