<svg width="24" height="24" viewBox="0 0 24 24" fill="none" xmlns="http://www.w3.org/2000/svg">
<path d="M19 0H5C2.23858 0 0 2.23858 0 5V19C0 21.7614 2.23858 24 5 24H19C21.7614 24 24 21.7614 24 19V5C24 2.23858 21.7614 0 19 0Z" fill="#001935"/>
<path d="M13.041 18C11.2331 18 9.89218 17.0734 9.89218 14.8512V11.2957H8.25V9.36723C10.0579 8.90019 10.8112 7.3484 10.8941 6H12.7698V9.05838H14.9543V11.2957H12.7698V14.3917C12.7698 15.3183 13.2368 15.6422 13.9826 15.6422H15.0447V18H13.041Z" fill="white"/>
</svg>
