<svg width="24" height="24" viewBox="0 0 24 24" fill="none" xmlns="http://www.w3.org/2000/svg">
<g clip-path="url(#clip0_1197_312)">
<path d="M17.9572 0H6.0428C2.70546 0 0 2.70546 0 6.0428V17.9572C0 21.2945 2.70546 24 6.0428 24H17.9572C21.2945 24 24 21.2945 24 17.9572V6.0428C24 2.70546 21.2945 0 17.9572 0Z" fill="url(#paint0_linear_1197_312)"/>
<path d="M9.53777 6.4606L7.39258 8.6058V16.3255H9.96581V18.4707L12.111 16.3255H13.8282L17.6905 12.4631V6.45557H9.54281L9.53777 6.4606ZM16.8345 12.0351L15.1173 13.7523H13.4001L11.8995 15.2529V13.7523H9.97084V7.31667H16.8345V12.0351Z" fill="white"/>
<path d="M15.5455 8.82227H14.6895V11.3955H15.5455V8.82227Z" fill="white"/>
<path d="M13.1832 8.82227H12.3271V11.3955H13.1832V8.82227Z" fill="white"/>
</g>
<defs>
<linearGradient id="paint0_linear_1197_312" x1="1.76752" y1="1.76752" x2="22.2325" y2="22.2325" gradientUnits="userSpaceOnUse">
<stop stop-color="#A436D2"/>
<stop offset="1" stop-color="#9146FF"/>
</linearGradient>
<clipPath id="clip0_1197_312">
<rect width="24" height="24" fill="white"/>
</clipPath>
</defs>
</svg>
