<svg width="24" height="24" viewBox="0 0 24 24" fill="none" xmlns="http://www.w3.org/2000/svg">
<g clip-path="url(#clip0_1250_67)">
<path d="M17.9572 0H6.0428C2.70545 0 0 2.70545 0 6.0428V17.9572C0 21.2945 2.70545 24 6.0428 24H17.9572C21.2945 24 24 21.2945 24 17.9572V6.0428C24 2.70545 21.2945 0 17.9572 0Z" fill="url(#paint0_linear_1250_67)"/>
<path d="M18.4939 8.5965C18.4359 9.86165 17.5538 11.594 15.8418 13.7935C14.0746 16.0917 12.5802 17.2408 11.3557 17.2408C10.5983 17.2408 9.95706 16.5414 9.43184 15.1428C8.41043 11.3938 7.97518 9.19716 7.13077 9.19716C7.03211 9.19716 6.69261 9.40318 6.10936 9.80942L5.5 9.02015C6.99729 7.70567 8.42785 6.2432 9.32448 6.16195C10.3372 6.06329 10.9582 6.7568 11.1932 8.23668C12.026 13.5033 12.3945 14.2984 13.9092 11.9132C14.4518 11.0543 14.7449 10.4014 14.7855 9.95161C14.9248 8.61971 13.7467 8.70967 12.9487 9.05207C13.5871 6.95992 14.8087 5.94432 16.6107 6.00235C17.9397 6.03717 18.5694 6.90479 18.4939 8.5965Z" fill="white"/>
</g>
<defs>
<linearGradient id="paint0_linear_1250_67" x1="22" y1="22.5" x2="2" y2="1.5" gradientUnits="userSpaceOnUse">
<stop stop-color="#007296"/>
<stop offset="1" stop-color="#00C1FF"/>
</linearGradient>
<clipPath id="clip0_1250_67">
<rect width="24" height="24" fill="white"/>
</clipPath>
</defs>
</svg>
