<svg width="24" height="24" viewBox="0 0 24 24" fill="none" xmlns="http://www.w3.org/2000/svg">
<g clip-path="url(#clip0_1250_53)">
<path d="M17.9572 0H6.0428C2.70545 0 0 2.70545 0 6.0428V17.9572C0 21.2945 2.70545 24 6.0428 24H17.9572C21.2945 24 24 21.2945 24 17.9572V6.0428C24 2.70545 21.2945 0 17.9572 0Z" fill="url(#paint0_linear_1250_53)"/>
<path d="M14.3213 8.98467C13.9412 6.64368 13.0447 5 12.0013 5C10.958 5 10.0614 6.64368 9.68129 8.98467H14.3213ZM9.48467 11.5013C9.48467 12.0833 9.51613 12.6417 9.57118 13.1791H14.4288C14.4839 12.6417 14.5153 12.0833 14.5153 11.5013C14.5153 10.9193 14.4839 10.361 14.4288 9.82355H9.57118C9.51613 10.361 9.48467 10.9193 9.48467 11.5013ZM17.9967 8.98467C17.2469 7.20468 15.7291 5.82839 13.8547 5.27264C14.4944 6.1587 14.9348 7.49304 15.1655 8.98467H17.9967ZM10.1453 5.27264C8.27354 5.82839 6.75308 7.20468 6.00595 8.98467H8.83716C9.06524 7.49304 9.50565 6.1587 10.1453 5.27264ZM18.2772 9.82355H15.2703C15.3254 10.3741 15.3568 10.9377 15.3568 11.5013C15.3568 12.0649 15.3254 12.6286 15.2703 13.1791H18.2746C18.4187 12.6417 18.5 12.0833 18.5 11.5013C18.5 10.9193 18.4187 10.361 18.2772 9.82355ZM8.6458 11.5013C8.6458 10.9377 8.67725 10.3741 8.73231 9.82355H5.72545C5.58389 10.361 5.5 10.9193 5.5 11.5013C5.5 12.0833 5.58389 12.6417 5.72545 13.1791H8.72968C8.67725 12.6286 8.6458 12.0649 8.6458 11.5013ZM9.68129 14.0179C10.0614 16.3589 10.958 18.0026 12.0013 18.0026C13.0447 18.0026 13.9412 16.3589 14.3213 14.0179H9.68129ZM13.8573 17.73C15.7291 17.1742 17.2495 15.7979 17.9993 14.0179H15.1681C14.9374 15.5096 14.497 16.8439 13.8573 17.73ZM6.00595 14.0179C6.7557 15.7979 8.27354 17.1742 10.1479 17.73C9.50827 16.8439 9.06786 15.5096 8.83716 14.0179H6.00595Z" fill="white"/>
</g>
<defs>
<linearGradient id="paint0_linear_1250_53" x1="1.92" y1="3.072" x2="24" y2="27.048" gradientUnits="userSpaceOnUse">
<stop stop-color="#C389FF"/>
<stop offset="1" stop-color="#4488FF"/>
</linearGradient>
<clipPath id="clip0_1250_53">
<rect width="24" height="24" fill="white"/>
</clipPath>
</defs>
</svg>
